<?xml version="1.0" encoding="utf-8"?>
<!-- Generator: Adobe Illustrator 15.0.0, SVG Export Plug-In . SVG Version: 6.00 Build 0)  -->
<!DOCTYPE svg PUBLIC "-//W3C//DTD SVG 1.1//EN" "http://www.w3.org/Graphics/SVG/1.1/DTD/svg11.dtd">
<svg version="1.1" xmlns="http://www.w3.org/2000/svg" xmlns:xlink="http://www.w3.org/1999/xlink" x="0px" y="0px"
	 width="1129.443px" height="796.46px" viewBox="0 0 1129.443 796.46" enable-background="new 0 0 1129.443 796.46"
	 xml:space="preserve">
<g id="Ebene_1" display="none">
	
		<image display="inline" overflow="visible" width="960" height="720" xlink:href="1OG.jpg"  transform="matrix(1.1811 0 0 1.1811 79.7573 63.3706)">
	</image>
</g>
<g id="Ebene_2" display="none">
	
		<image display="inline" overflow="visible" width="960" height="720" xlink:href="1OG_Haus2.jpg"  transform="matrix(0.5197 0 0 0.5197 550.3262 509.8477)">
	</image>
</g>
<g id="Ebene_3" display="none">
	<g display="inline">
		<defs>
			<rect id="SVGID_1_" x="166.232" y="43.549" width="399.715" height="646.299"/>
		</defs>
		<clipPath id="SVGID_2_">
			<use xlink:href="#SVGID_1_"  overflow="visible"/>
		</clipPath>
		<g transform="matrix(1 0 0 1 -2.317615e-006 2.131355e-007)" clip-path="url(#SVGID_2_)">
			
				<image overflow="visible" width="720" height="960" xlink:href="1OG_Haus3.jpg"  transform="matrix(0.754 0 0 0.754 166.229 43.5454)">
			</image>
		</g>
	</g>
</g>
<g id="Ebene_4">
	<polyline fill="none" stroke="#9D9D9C" stroke-width="4" stroke-miterlimit="10" points="449.858,529.558 657.799,529.558 
		657.81,647.41 	"/>
	<polyline fill="none" stroke="#000000" stroke-width="4" stroke-miterlimit="10" points="450.395,606.097 450.395,664.55 
		358.899,664.55 358.899,303.069 345.399,303.069 345.399,121.578 357.399,121.578 357.398,73.58 449.858,73.58 449.858,111.079 
		602.466,111.08 602.465,225.073 449.858,225.073 449.858,529.558 	"/>
	<polyline fill="none" stroke="#9D9D9C" stroke-width="4" stroke-miterlimit="10" points="585.191,651.81 585.116,606.097 
		450.395,606.097 	"/>
	<polyline fill="none" stroke="#9D9D9C" stroke-width="3" stroke-miterlimit="10" points="563.382,554.929 608.632,554.879 
		608.632,605.622 583.916,605.622 	"/>
	
		<line fill="none" stroke="#9D9D9C" stroke-width="3" stroke-miterlimit="10" x1="497.131" y1="554.999" x2="553.882" y2="554.938"/>
	<polyline fill="none" stroke="#9D9D9C" stroke-width="3" stroke-miterlimit="10" points="449.858,607.226 449.858,555.05 
		488.632,555.009 	"/>
	<polyline fill="none" stroke="#000000" stroke-width="3" stroke-miterlimit="10" points="434.631,594.767 449.858,594.767 
		449.858,607.226 	"/>
	
		<line fill="none" stroke="#000000" stroke-width="3" stroke-miterlimit="10" x1="379.882" y1="594.767" x2="427.382" y2="594.767"/>
	<polyline fill="none" stroke="#000000" stroke-width="3" stroke-miterlimit="10" points="366.105,594.767 359.322,594.767 
		371.132,594.767 	"/>
	<polyline fill="none" stroke="#000000" stroke-width="3" stroke-miterlimit="10" points="409.167,547.642 409.167,594.767 
		378.882,594.767 	"/>
	
		<line fill="none" stroke="#000000" stroke-width="3" stroke-miterlimit="10" x1="409.167" y1="492.142" x2="409.167" y2="539.392"/>
	
		<line fill="none" stroke="#000000" stroke-width="3" stroke-miterlimit="10" x1="409.167" y1="475.642" x2="409.167" y2="485.642"/>
	
		<line fill="none" stroke="#000000" stroke-width="3" stroke-miterlimit="10" x1="409.167" y1="431.392" x2="409.167" y2="468.642"/>
	
		<line fill="none" stroke="#000000" stroke-width="3" stroke-miterlimit="10" x1="409.167" y1="401.392" x2="409.167" y2="422.725"/>
	
		<line fill="none" stroke="#000000" stroke-width="3" stroke-miterlimit="10" x1="409.167" y1="389.392" x2="409.167" y2="395.725"/>
	
		<line fill="none" stroke="#000000" stroke-width="3" stroke-miterlimit="10" x1="409.167" y1="373.392" x2="409.167" y2="384.059"/>
	
		<line fill="none" stroke="#000000" stroke-width="3" stroke-miterlimit="10" x1="409.167" y1="366.725" x2="409.167" y2="373.392"/>
	
		<line fill="none" stroke="#000000" stroke-width="3" stroke-miterlimit="10" x1="409.167" y1="346.059" x2="409.167" y2="366.725"/>
	
		<line fill="none" stroke="#000000" stroke-width="3" stroke-miterlimit="10" x1="409.167" y1="323.059" x2="409.167" y2="337.392"/>
	
		<line fill="none" stroke="#000000" stroke-width="3" stroke-miterlimit="10" x1="409.167" y1="299.391" x2="409.167" y2="315.724"/>
	
		<line fill="none" stroke="#000000" stroke-width="3" stroke-miterlimit="10" x1="409.167" y1="208.059" x2="409.167" y2="291.392"/>
	
		<line fill="none" stroke="#000000" stroke-width="3" stroke-miterlimit="10" x1="409.167" y1="184.724" x2="409.167" y2="201.725"/>
	<polyline fill="none" stroke="#000000" stroke-width="3" stroke-miterlimit="10" points="356.315,121.89 409.167,121.89 
		409.167,176.058 	"/>
	<line stroke="#000000" stroke-width="3" stroke-miterlimit="10" x1="385.382" y1="304.441" x2="407.882" y2="304.441"/>
	<line stroke="#000000" stroke-width="3" stroke-miterlimit="10" x1="356.982" y1="304.441" x2="378.381" y2="304.441"/>
	<line stroke="#000000" stroke-width="2" stroke-miterlimit="10" x1="358.899" y1="524.892" x2="407.882" y2="524.892"/>
	<line stroke="#000000" stroke-width="2" stroke-miterlimit="10" x1="358.899" y1="482.392" x2="407.882" y2="482.392"/>
	<line stroke="#000000" stroke-width="3" stroke-miterlimit="10" x1="358.899" y1="438.892" x2="407.882" y2="438.892"/>
	<line stroke="#000000" stroke-width="2" stroke-miterlimit="10" x1="400.049" y1="398.229" x2="407.882" y2="398.229"/>
	<line stroke="#000000" stroke-width="2" stroke-miterlimit="10" x1="358.899" y1="398.229" x2="392.381" y2="398.229"/>
	<line stroke="#000000" stroke-width="2" stroke-miterlimit="10" x1="356.982" y1="376.892" x2="408.632" y2="376.892"/>
	<line stroke="#000000" stroke-width="3" stroke-miterlimit="10" x1="356.982" y1="351.892" x2="408.632" y2="351.892"/>
	<line stroke="#000000" stroke-width="2" stroke-miterlimit="10" x1="356.982" y1="331.392" x2="407.882" y2="331.392"/>
	<line stroke="#000000" stroke-width="2" stroke-miterlimit="10" x1="345.399" y1="258.392" x2="407.882" y2="258.392"/>
	<line stroke="#000000" stroke-width="2" stroke-miterlimit="10" x1="345.399" y1="193.892" x2="407.882" y2="193.892"/>
	<line fill="none" stroke="#000000" stroke-width="2" stroke-miterlimit="10" x1="410.132" y1="110.392" x2="410.132" y2="73.497"/>
	<path fill="none" stroke="#000000" stroke-width="2" stroke-miterlimit="10" d="M410.132,110.392"/>
	<polyline fill="none" stroke="#000000" stroke-width="2" stroke-miterlimit="10" points="407.84,121.408 410.132,121.408 
		410.132,118.725 	"/>
	<line fill="none" stroke="#000000" stroke-width="3" stroke-miterlimit="10" x1="428.51" y1="438.892" x2="451.894" y2="438.892"/>
	<line fill="none" stroke="#000000" stroke-width="3" stroke-miterlimit="10" x1="451.894" y1="351.892" x2="428.51" y2="351.892"/>
	<line fill="none" stroke="#000000" stroke-width="2" stroke-miterlimit="10" x1="428.51" y1="417.725" x2="428.51" y2="440.391"/>
	<line fill="none" stroke="#000000" stroke-width="2" stroke-miterlimit="10" x1="428.51" y1="367.059" x2="428.51" y2="409.725"/>
	<line fill="none" stroke="#000000" stroke-width="2" stroke-miterlimit="10" x1="428.51" y1="350.362" x2="428.51" y2="359.059"/>
	
		<line fill="none" stroke="#000000" stroke-width="2" stroke-miterlimit="10" x1="441.132" y1="480.559" x2="451.394" y2="480.559"/>
	<polyline fill="none" stroke="#000000" stroke-width="2" stroke-miterlimit="10" points="451.394,502.392 428.048,502.392 
		428.048,480.559 433.132,480.559 	"/>
	<polyline fill="none" stroke="#000000" stroke-width="2" stroke-miterlimit="10" points="449.433,142.725 449.433,108.392 
		410.132,108.392 	"/>
	<path fill="none" stroke="#000000" stroke-width="2" stroke-miterlimit="10" d="M449.433,226.143v-31.251
		c0,0,26.599-3.373,29.949-3.833c3.708-0.667,5.042-1,5.343-5.833c0-6.083,0-28.083,0-33.333c0-3.542-3.051-5.167-6.343-5.667
		c-7.667-1.167-28.949-4.333-28.949-4.333l-23.051,0.833v52.166l23.051,0.001c0,0,26.599-3.373,29.949-3.833
		c3.708-0.667,5.343-1.708,5.343-5.833"/>
	<line fill="none" stroke="#000000" stroke-miterlimit="10" x1="410.197" y1="579.694" x2="418.781" y2="579.694"/>
	<line fill="none" stroke="#000000" stroke-miterlimit="10" x1="410.197" y1="567.27" x2="418.781" y2="567.27"/>
	<line fill="none" stroke="#000000" stroke-miterlimit="10" x1="410.197" y1="564.785" x2="418.781" y2="564.785"/>
	<line fill="none" stroke="#000000" stroke-miterlimit="10" x1="410.197" y1="574.725" x2="418.781" y2="574.725"/>
	<line fill="none" stroke="#000000" stroke-miterlimit="10" x1="410.197" y1="577.209" x2="418.781" y2="577.209"/>
	<line fill="none" stroke="#000000" stroke-miterlimit="10" x1="410.197" y1="572.239" x2="418.781" y2="572.239"/>
	<line fill="none" stroke="#000000" stroke-miterlimit="10" x1="410.197" y1="569.755" x2="418.781" y2="569.755"/>
	<line fill="none" stroke="#000000" stroke-miterlimit="10" x1="410.197" y1="562.3" x2="439.697" y2="562.3"/>
	<line fill="none" stroke="#9D9D9C" stroke-miterlimit="10" x1="609.947" y1="592.119" x2="627.115" y2="592.119"/>
	<line fill="none" stroke="#9D9D9C" stroke-miterlimit="10" x1="609.947" y1="579.694" x2="627.115" y2="579.694"/>
	<line fill="none" stroke="#9D9D9C" stroke-miterlimit="10" x1="609.947" y1="577.21" x2="627.115" y2="577.21"/>
	<line fill="none" stroke="#9D9D9C" stroke-miterlimit="10" x1="609.947" y1="587.149" x2="627.115" y2="587.149"/>
	<line fill="none" stroke="#9D9D9C" stroke-miterlimit="10" x1="609.947" y1="589.634" x2="627.115" y2="589.634"/>
	<line fill="none" stroke="#9D9D9C" stroke-miterlimit="10" x1="609.947" y1="584.664" x2="627.115" y2="584.664"/>
	<line fill="none" stroke="#9D9D9C" stroke-miterlimit="10" x1="609.947" y1="582.18" x2="627.115" y2="582.18"/>
	<line fill="none" stroke="#9D9D9C" stroke-miterlimit="10" x1="609.947" y1="594.604" x2="627.115" y2="594.604"/>
	<line fill="none" stroke="#9D9D9C" stroke-miterlimit="10" x1="609.947" y1="597.089" x2="627.115" y2="597.089"/>
	<line fill="none" stroke="#9D9D9C" stroke-miterlimit="10" x1="609.947" y1="599.573" x2="627.115" y2="599.573"/>
	<line fill="none" stroke="#9D9D9C" stroke-miterlimit="10" x1="609.947" y1="574.725" x2="627.115" y2="574.725"/>
	<line fill="none" stroke="#9D9D9C" stroke-miterlimit="10" x1="609.947" y1="602.059" x2="627.115" y2="602.059"/>
	<polyline fill="none" stroke="#9D9D9C" stroke-miterlimit="10" points="627.115,602.557 627.115,569.392 638.947,569.392 
		638.947,602.557 	"/>
	<line fill="none" stroke="#000000" stroke-miterlimit="10" x1="437.374" y1="562.3" x2="437.374" y2="553.716"/>
	<line fill="none" stroke="#000000" stroke-miterlimit="10" x1="425.754" y1="562.3" x2="425.754" y2="553.716"/>
	<line fill="none" stroke="#000000" stroke-miterlimit="10" x1="423.43" y1="562.3" x2="423.43" y2="553.716"/>
	<line fill="none" stroke="#000000" stroke-miterlimit="10" x1="432.726" y1="562.3" x2="432.726" y2="553.716"/>
	<line fill="none" stroke="#000000" stroke-miterlimit="10" x1="435.05" y1="562.3" x2="435.05" y2="553.716"/>
	<line fill="none" stroke="#000000" stroke-miterlimit="10" x1="430.402" y1="562.3" x2="430.402" y2="553.716"/>
	<line fill="none" stroke="#000000" stroke-miterlimit="10" x1="428.078" y1="562.3" x2="428.078" y2="553.716"/>
	<line fill="none" stroke="#000000" stroke-miterlimit="10" x1="421.106" y1="562.3" x2="421.106" y2="553.716"/>
	<line fill="none" stroke="#000000" stroke-miterlimit="10" x1="439.21" y1="579.694" x2="448.281" y2="579.694"/>
	<line fill="none" stroke="#000000" stroke-miterlimit="10" x1="439.697" y1="574.725" x2="448.281" y2="574.725"/>
	<line fill="none" stroke="#000000" stroke-miterlimit="10" x1="439.697" y1="577.209" x2="448.281" y2="577.209"/>
	<line fill="none" stroke="#000000" stroke-miterlimit="10" x1="439.697" y1="572.239" x2="448.281" y2="572.239"/>
	<line fill="none" stroke="#000000" stroke-miterlimit="10" x1="439.698" y1="580.079" x2="439.698" y2="553.717"/>
	<line fill="none" stroke="#000000" stroke-miterlimit="10" x1="410.197" y1="553.717" x2="440.188" y2="553.717"/>
	<line fill="none" stroke="#000000" stroke-miterlimit="10" x1="418.782" y1="580.188" x2="418.782" y2="553.717"/>
	<line fill="none" stroke="#000000" stroke-width="2" stroke-miterlimit="10" x1="428.51" y1="393.392" x2="449.858" y2="393.392"/>
	<line fill="none" stroke="#9D9D9C" stroke-miterlimit="10" x1="638.947" y1="592.119" x2="656.115" y2="592.119"/>
	<line fill="none" stroke="#9D9D9C" stroke-miterlimit="10" x1="638.947" y1="579.694" x2="656.115" y2="579.694"/>
	<line fill="none" stroke="#9D9D9C" stroke-miterlimit="10" x1="638.947" y1="577.21" x2="656.115" y2="577.21"/>
	<line fill="none" stroke="#9D9D9C" stroke-miterlimit="10" x1="638.947" y1="587.149" x2="656.115" y2="587.149"/>
	<line fill="none" stroke="#9D9D9C" stroke-miterlimit="10" x1="638.947" y1="589.634" x2="656.115" y2="589.634"/>
	<line fill="none" stroke="#9D9D9C" stroke-miterlimit="10" x1="638.947" y1="584.664" x2="656.115" y2="584.664"/>
	<line fill="none" stroke="#9D9D9C" stroke-miterlimit="10" x1="638.947" y1="582.18" x2="656.115" y2="582.18"/>
	<line fill="none" stroke="#9D9D9C" stroke-miterlimit="10" x1="638.947" y1="594.604" x2="656.115" y2="594.604"/>
	<line fill="none" stroke="#9D9D9C" stroke-miterlimit="10" x1="638.947" y1="597.089" x2="656.115" y2="597.089"/>
	<line fill="none" stroke="#9D9D9C" stroke-miterlimit="10" x1="638.947" y1="599.573" x2="656.115" y2="599.573"/>
	<line fill="none" stroke="#9D9D9C" stroke-miterlimit="10" x1="638.947" y1="574.725" x2="656.115" y2="574.725"/>
	<line fill="none" stroke="#9D9D9C" stroke-miterlimit="10" x1="638.947" y1="602.059" x2="656.115" y2="602.059"/>
	<line fill="none" stroke="#000000" stroke-miterlimit="10" x1="430.6" y1="321.835" x2="447.768" y2="321.835"/>
	<line fill="none" stroke="#000000" stroke-miterlimit="10" x1="430.6" y1="309.411" x2="447.768" y2="309.411"/>
	<line fill="none" stroke="#000000" stroke-miterlimit="10" x1="430.6" y1="306.926" x2="447.768" y2="306.926"/>
	<line fill="none" stroke="#000000" stroke-miterlimit="10" x1="430.6" y1="316.866" x2="447.768" y2="316.866"/>
	<line fill="none" stroke="#000000" stroke-miterlimit="10" x1="430.6" y1="319.35" x2="447.768" y2="319.35"/>
	<line fill="none" stroke="#000000" stroke-miterlimit="10" x1="430.6" y1="314.38" x2="447.768" y2="314.38"/>
	<line fill="none" stroke="#000000" stroke-miterlimit="10" x1="430.6" y1="311.896" x2="447.768" y2="311.896"/>
	<line fill="none" stroke="#000000" stroke-miterlimit="10" x1="430.6" y1="324.32" x2="447.768" y2="324.32"/>
	<line fill="none" stroke="#000000" stroke-miterlimit="10" x1="430.6" y1="326.805" x2="447.768" y2="326.805"/>
	<line fill="none" stroke="#000000" stroke-miterlimit="10" x1="430.6" y1="329.29" x2="447.768" y2="329.29"/>
	<line fill="none" stroke="#000000" stroke-miterlimit="10" x1="430.6" y1="304.441" x2="447.768" y2="304.441"/>
	<line fill="none" stroke="#000000" stroke-miterlimit="10" x1="430.6" y1="275.786" x2="447.768" y2="275.786"/>
	<line fill="none" stroke="#000000" stroke-miterlimit="10" x1="430.6" y1="263.361" x2="447.768" y2="263.361"/>
	<line fill="none" stroke="#000000" stroke-miterlimit="10" x1="430.6" y1="260.877" x2="447.768" y2="260.877"/>
	<line fill="none" stroke="#000000" stroke-miterlimit="10" x1="430.6" y1="270.817" x2="447.768" y2="270.817"/>
	<line fill="none" stroke="#000000" stroke-miterlimit="10" x1="430.6" y1="273.301" x2="447.768" y2="273.301"/>
	<line fill="none" stroke="#000000" stroke-miterlimit="10" x1="430.6" y1="268.331" x2="447.768" y2="268.331"/>
	<line fill="none" stroke="#000000" stroke-miterlimit="10" x1="430.6" y1="265.846" x2="447.768" y2="265.846"/>
	<line fill="none" stroke="#000000" stroke-miterlimit="10" x1="430.6" y1="278.27" x2="447.768" y2="278.27"/>
	<line fill="none" stroke="#000000" stroke-miterlimit="10" x1="430.6" y1="280.756" x2="447.768" y2="280.756"/>
	<line fill="none" stroke="#000000" stroke-miterlimit="10" x1="430.6" y1="283.241" x2="447.768" y2="283.241"/>
	<polyline fill="none" stroke="#000000" stroke-miterlimit="10" points="447.768,258.392 430.6,258.392 430.6,331.775 
		447.768,331.775 	"/>
	
		<line fill="none" stroke="#9D9D9C" stroke-width="2" stroke-miterlimit="10" x1="525.882" y1="554.968" x2="525.882" y2="606.097"/>
	<polyline fill="none" stroke="#000000" stroke-width="2" stroke-miterlimit="10" points="426.382,194.891 426.382,216.392 
		450.229,216.392 	"/>
	<g>
		<g>
			
				<line fill="none" stroke="#000000" stroke-width="2" stroke-miterlimit="10" x1="445.685" y1="229.486" x2="432.683" y2="216.486"/>
			
				<line fill="none" stroke="#000000" stroke-width="2" stroke-miterlimit="10" x1="445.683" y1="216.623" x2="432.683" y2="229.624"/>
		</g>
		
			<rect x="432.683" y="216.486" transform="matrix(-0.9999 0.0146 -0.0146 -0.9999 881.583 440.083)" fill="none" stroke="#000000" stroke-miterlimit="10" width="13.001" height="13.551"/>
	</g>
	<g>
		<g>
			
				<line fill="none" stroke="#9D9D9C" stroke-width="2" stroke-miterlimit="10" x1="639.531" y1="596.979" x2="626.529" y2="583.979"/>
			
				<line fill="none" stroke="#9D9D9C" stroke-width="2" stroke-miterlimit="10" x1="639.529" y1="584.116" x2="626.529" y2="597.118"/>
		</g>
		
			<rect x="626.53" y="583.98" transform="matrix(-0.9999 0.0146 -0.0146 -0.9999 1274.6027 1172.2236)" fill="none" stroke="#9D9D9C" stroke-miterlimit="10" width="13.001" height="13.551"/>
	</g>
	<g>
		
			<rect x="924.096" y="101.385" fill="none" stroke="#9D9D9C" stroke-width="4" stroke-miterlimit="10" width="175.747" height="469.622"/>
		
			<line fill="none" stroke="#9D9D9C" stroke-width="4" stroke-miterlimit="10" x1="970.362" y1="651.97" x2="970.362" y2="571.007"/>
		
			<line fill="none" stroke="#9D9D9C" stroke-width="4" stroke-miterlimit="10" x1="1011.969" y1="651.97" x2="1011.969" y2="571.008"/>
	</g>
	<polyline fill="none" stroke="#9D9D9C" stroke-width="4" stroke-miterlimit="10" points="658.105,647.965 658.105,647.965 
		1049.887,654.805 1047.637,783.779 577.2,775.566 579.395,649.85 585.378,649.827 585.378,649.827 	"/>
	
		<line fill="none" stroke="#9D9D9C" stroke-width="2" stroke-miterlimit="10" x1="1002.021" y1="746.508" x2="1001.384" y2="782.972"/>
	
		<line fill="none" stroke="#9D9D9C" stroke-width="2" stroke-miterlimit="10" x1="1002.989" y1="690.998" x2="1002.212" y2="735.52"/>
	
		<line fill="none" stroke="#9D9D9C" stroke-width="2" stroke-miterlimit="10" x1="1001.882" y1="653.228" x2="1001.384" y2="681.733"/>
	<polyline fill="none" stroke="#9D9D9C" stroke-width="3" stroke-miterlimit="10" points="712.393,700.261 656.792,699.29 
		657.688,647.958 	"/>
	
		<line fill="none" stroke="#9D9D9C" stroke-width="3" stroke-miterlimit="10" x1="769.884" y1="701.265" x2="719.882" y2="700.392"/>
	<line fill="none" stroke="#9D9D9C" stroke-width="3" stroke-miterlimit="10" x1="859.892" y1="702.836" x2="777.39" y2="701.396"/>
	<line fill="none" stroke="#9D9D9C" stroke-width="3" stroke-miterlimit="10" x1="871.905" y1="703.045" x2="864.89" y2="702.922"/>
	
		<line fill="none" stroke="#9D9D9C" stroke-width="3" stroke-miterlimit="10" x1="883.884" y1="703.254" x2="877.403" y2="703.142"/>
	
		<line fill="none" stroke="#9D9D9C" stroke-width="3" stroke-miterlimit="10" x1="891.891" y1="703.395" x2="886.392" y2="703.298"/>
	<line fill="none" stroke="#9D9D9C" stroke-width="3" stroke-miterlimit="10" x1="905.895" y1="703.638" x2="896.88" y2="703.48"/>
	<line fill="none" stroke="#9D9D9C" stroke-width="3" stroke-miterlimit="10" x1="952.88" y1="704.459" x2="911.401" y2="703.734"/>
	<polyline fill="none" stroke="#9D9D9C" stroke-width="3" stroke-miterlimit="10" points="977.973,653.55 977.075,704.882 
		961.387,704.607 	"/>
	<polyline fill="none" stroke="#9D9D9C" stroke-width="3" stroke-miterlimit="10" points="675.118,721.613 656.408,721.287 
		655.437,776.933 	"/>
	<line fill="none" stroke="#9D9D9C" stroke-width="3" stroke-miterlimit="10" x1="708.375" y1="722.267" x2="683.373" y2="721.83"/>
	
		<line fill="none" stroke="#9D9D9C" stroke-width="3" stroke-miterlimit="10" x1="728.111" y1="722.538" x2="717.623" y2="722.355"/>
	
		<line fill="none" stroke="#9D9D9C" stroke-width="3" stroke-miterlimit="10" x1="807.719" y1="723.928" x2="737.117" y2="722.695"/>
	<path fill="none" stroke="#9D9D9C" stroke-width="3" stroke-miterlimit="10" d="M807.719,723.928"/>
	
		<line fill="none" stroke="#9D9D9C" stroke-width="3" stroke-miterlimit="10" x1="872.129" y1="725.053" x2="849.118" y2="724.651"/>
	
		<line fill="none" stroke="#9D9D9C" stroke-width="3" stroke-miterlimit="10" x1="944.106" y1="726.309" x2="880.626" y2="725.201"/>
	<polyline fill="none" stroke="#9D9D9C" stroke-width="3" stroke-miterlimit="10" points="975.721,782.523 976.691,726.878 
		952.112,726.448 	"/>
	
		<line fill="none" stroke="#9D9D9C" stroke-width="2" stroke-miterlimit="10" x1="723.345" y1="649.104" x2="722.448" y2="700.437"/>
	<polyline fill="none" stroke="#9D9D9C" stroke-width="2" stroke-miterlimit="10" points="786.771,701.559 787.176,678.444 
		805.844,678.391 	"/>
	<line fill="none" stroke="#9D9D9C" stroke-width="2" stroke-miterlimit="10" x1="785.417" y1="651.17" x2="785.822" y2="674.389"/>
	
		<line fill="none" stroke="#9D9D9C" stroke-width="2" stroke-miterlimit="10" x1="924.981" y1="652.624" x2="924.085" y2="703.956"/>
	
		<line fill="none" stroke="#9D9D9C" stroke-width="2" stroke-miterlimit="10" x1="902.317" y1="652.229" x2="901.421" y2="703.561"/>
	
		<line fill="none" stroke="#9D9D9C" stroke-width="2" stroke-miterlimit="10" x1="880.987" y1="651.856" x2="880.092" y2="703.188"/>
	
		<line fill="none" stroke="#9D9D9C" stroke-width="2" stroke-miterlimit="10" x1="914.368" y1="725.789" x2="913.397" y2="781.437"/>
	
		<line fill="none" stroke="#9D9D9C" stroke-width="3" stroke-miterlimit="10" x1="847.765" y1="723.154" x2="846.742" y2="780.271"/>
	
		<line fill="none" stroke="#9D9D9C" stroke-width="3" stroke-miterlimit="10" x1="807.771" y1="722.457" x2="806.748" y2="779.574"/>
	
		<line fill="none" stroke="#9D9D9C" stroke-width="2" stroke-miterlimit="10" x1="722.064" y1="722.433" x2="721.094" y2="778.078"/>
	<line fill="none" stroke="#9D9D9C" stroke-width="2" stroke-miterlimit="10" x1="688.906" y1="721.805" x2="687.936" y2="777.45"/>
	
		<line fill="none" stroke="#9D9D9C" stroke-width="3" stroke-miterlimit="10" x1="806.331" y1="650.553" x2="805.435" y2="701.885"/>
	<line fill="none" stroke="#9D9D9C" stroke-width="3" stroke-miterlimit="10" x1="852.991" y1="651.368" x2="852.096" y2="702.7"/>
	<path fill="none" stroke="#9D9D9C" stroke-miterlimit="10" d="M821.102,702.158c0,0,0.337-19.371,0.447-25.666
		c0.143-9.828,16.565-9.418,16.331,0.286c-0.077,12.795-0.449,25.666-0.449,25.666"/>
	<line fill="none" stroke="#9D9D9C" stroke-miterlimit="10" x1="805.639" y1="690.262" x2="821.304" y2="690.535"/>
	<line fill="none" stroke="#9D9D9C" stroke-miterlimit="10" x1="805.857" y1="677.995" x2="821.523" y2="678.269"/>
	<line fill="none" stroke="#9D9D9C" stroke-miterlimit="10" x1="804.563" y1="675.697" x2="820.231" y2="675.697"/>
	<line fill="none" stroke="#9D9D9C" stroke-miterlimit="10" x1="807.693" y1="673.244" x2="823.361" y2="673.244"/>
	<line fill="none" stroke="#9D9D9C" stroke-miterlimit="10" x1="805.726" y1="685.355" x2="821.392" y2="685.629"/>
	<line fill="none" stroke="#9D9D9C" stroke-miterlimit="10" x1="805.682" y1="687.809" x2="821.348" y2="688.082"/>
	<line fill="none" stroke="#9D9D9C" stroke-miterlimit="10" x1="805.77" y1="682.902" x2="821.436" y2="683.176"/>
	<line fill="none" stroke="#9D9D9C" stroke-miterlimit="10" x1="805.814" y1="680.448" x2="821.479" y2="680.722"/>
	<line fill="none" stroke="#9D9D9C" stroke-miterlimit="10" x1="837.708" y1="690.672" x2="853.374" y2="690.945"/>
	<line fill="none" stroke="#9D9D9C" stroke-miterlimit="10" x1="836.627" y1="677.167" x2="852.293" y2="676.894"/>
	<line fill="none" stroke="#9D9D9C" stroke-miterlimit="10" x1="837.027" y1="671.959" x2="852.695" y2="671.959"/>
	<line fill="none" stroke="#9D9D9C" stroke-miterlimit="10" x1="836.356" y1="674.495" x2="852.563" y2="674.495"/>
	<line fill="none" stroke="#9D9D9C" stroke-miterlimit="10" x1="837.801" y1="685.602" x2="853.466" y2="685.875"/>
	<line fill="none" stroke="#9D9D9C" stroke-miterlimit="10" x1="837.755" y1="688.137" x2="853.421" y2="688.41"/>
	<line fill="none" stroke="#9D9D9C" stroke-miterlimit="10" x1="837.894" y1="680.53" x2="853.56" y2="680.804"/>
	<line fill="none" stroke="#9D9D9C" stroke-miterlimit="10" x1="837.661" y1="693.209" x2="853.328" y2="693.48"/>
	<line fill="none" stroke="#9D9D9C" stroke-miterlimit="10" x1="837.616" y1="695.744" x2="853.281" y2="696.018"/>
	<line fill="none" stroke="#9D9D9C" stroke-miterlimit="10" x1="837.569" y1="698.279" x2="853.235" y2="698.553"/>
	
		<line fill="none" stroke="#9D9D9C" stroke-width="2" stroke-miterlimit="10" x1="1002.509" y1="718.484" x2="1048.762" y2="719.292"/>
	<line fill="none" stroke="#9D9D9C" stroke-width="3" stroke-miterlimit="10" x1="641.274" y1="757.418" x2="640.938" y2="776.68"/>
	<line fill="none" stroke="#9D9D9C" stroke-width="3" stroke-miterlimit="10" x1="641.79" y1="727.91" x2="641.423" y2="748.947"/>
	
		<line fill="none" stroke="#9D9D9C" stroke-width="3" stroke-miterlimit="10" x1="642.191" y1="704.961" x2="641.921" y2="720.421"/>
	<polyline fill="none" stroke="#9D9D9C" stroke-width="3" stroke-miterlimit="10" points="585.371,650.286 643.128,651.294 
		642.313,697.945 	"/>
	
		<line fill="none" stroke="#9D9D9C" stroke-width="2" stroke-miterlimit="10" x1="578.294" y1="712.874" x2="642.033" y2="713.987"/>
	<polyline fill="none" stroke="#9D9D9C" stroke-width="2" stroke-miterlimit="10" points="615.037,713.516 614.679,734.061 
		641.675,734.532 	"/>
	<polyline fill="none" stroke="#9D9D9C" stroke-width="2" stroke-miterlimit="10" points="901.262,682.469 889.885,682.072 
		889.168,702.597 	"/>
	<polyline fill="none" stroke="#9D9D9C" stroke-width="2" stroke-miterlimit="10" points="868.403,702.827 869.064,683.883 
		860.639,683.588 852.146,683.565 	"/>
	<g>
		<g>
			
				<line fill="none" stroke="#9D9D9C" stroke-width="2" stroke-miterlimit="10" x1="802.387" y1="696.376" x2="789.847" y2="682.93"/>
			
				<line fill="none" stroke="#9D9D9C" stroke-width="2" stroke-miterlimit="10" x1="802.834" y1="683.521" x2="789.388" y2="696.061"/>
		</g>
		
			<rect x="789.608" y="683.152" transform="matrix(-0.9998 -0.0204 0.0204 -0.9998 1578.0065 1395.9194)" fill="none" stroke="#9D9D9C" stroke-miterlimit="10" width="13.001" height="13.552"/>
	</g>
	<line fill="none" stroke="#9D9D9C" stroke-miterlimit="10" x1="838.105" y1="682.938" x2="853.771" y2="683.212"/>
	<line fill="none" stroke="#000000" stroke-miterlimit="10" x1="427.346" y1="173.361" x2="450.816" y2="173.361"/>
	<line fill="none" stroke="#000000" stroke-miterlimit="10" x1="427.346" y1="160.937" x2="450.816" y2="160.937"/>
	<line fill="none" stroke="#000000" stroke-miterlimit="10" x1="427.346" y1="158.452" x2="450.816" y2="158.452"/>
	<line fill="none" stroke="#000000" stroke-miterlimit="10" x1="427.346" y1="168.392" x2="450.816" y2="168.392"/>
	<line fill="none" stroke="#000000" stroke-miterlimit="10" x1="427.346" y1="170.876" x2="450.816" y2="170.876"/>
	<line fill="none" stroke="#000000" stroke-miterlimit="10" x1="427.346" y1="165.907" x2="450.816" y2="165.907"/>
	<line fill="none" stroke="#000000" stroke-miterlimit="10" x1="427.346" y1="163.422" x2="450.816" y2="163.422"/>
	<line fill="none" stroke="#000000" stroke-miterlimit="10" x1="427.346" y1="175.846" x2="450.816" y2="175.846"/>
	<line fill="none" stroke="#000000" stroke-miterlimit="10" x1="427.346" y1="178.331" x2="450.816" y2="178.331"/>
	<line fill="none" stroke="#000000" stroke-miterlimit="10" x1="427.346" y1="180.816" x2="450.816" y2="180.816"/>
	<line fill="none" stroke="#000000" stroke-miterlimit="10" x1="459.382" y1="173.361" x2="484.409" y2="173.361"/>
	<line fill="none" stroke="#000000" stroke-miterlimit="10" x1="459.382" y1="160.937" x2="484.409" y2="160.937"/>
	<line fill="none" stroke="#000000" stroke-miterlimit="10" x1="459.382" y1="158.452" x2="484.409" y2="158.452"/>
	<line fill="none" stroke="#000000" stroke-miterlimit="10" x1="459.382" y1="168.392" x2="484.409" y2="168.392"/>
	<line fill="none" stroke="#000000" stroke-miterlimit="10" x1="459.382" y1="170.876" x2="484.409" y2="170.876"/>
	<line fill="none" stroke="#000000" stroke-miterlimit="10" x1="459.382" y1="165.907" x2="484.409" y2="165.907"/>
	<line fill="none" stroke="#000000" stroke-miterlimit="10" x1="459.382" y1="163.422" x2="484.409" y2="163.422"/>
	<line fill="none" stroke="#000000" stroke-miterlimit="10" x1="459.382" y1="175.846" x2="484.409" y2="175.846"/>
	<line fill="none" stroke="#000000" stroke-miterlimit="10" x1="459.382" y1="178.331" x2="484.409" y2="178.331"/>
	<line fill="none" stroke="#000000" stroke-miterlimit="10" x1="459.382" y1="180.816" x2="484.409" y2="180.816"/>
	<polyline fill="none" stroke="#000000" stroke-miterlimit="10" points="459.382,181.24 459.382,158.452 450.969,158.452 
		450.969,181.24 	"/>
</g>
<g id="Ebene_5" display="none">
	<path display="inline" fill="none" stroke="#000000" stroke-miterlimit="10" d="M409.14,118.299c5.159,0,9.333-3.458,9.333-7.73
		h-9.333"/>
	<path display="inline" fill="none" stroke="#000000" stroke-miterlimit="10" d="M407.882,183.622c5.159,0,9.333-3.458,9.333-7.73
		h-9.333"/>
	<path display="inline" fill="none" stroke="#000000" stroke-miterlimit="10" d="M407.882,299.872c5.159,0,9.333-3.458,9.333-7.73
		h-9.333"/>
	<path display="inline" fill="none" stroke="#000000" stroke-miterlimit="10" d="M407.882,316.12c5.159,0,9.333,3.458,9.333,7.73
		h-9.333"/>
	<path display="inline" fill="none" stroke="#000000" stroke-miterlimit="10" d="M407.882,337.534c5.159,0,9.333,3.458,9.333,7.73
		h-9.333"/>
	<path display="inline" fill="none" stroke="#000000" stroke-miterlimit="10" d="M408.632,382.267c5.159,0,9.333,3.457,9.333,7.729
		h-9.333"/>
	<path display="inline" fill="none" stroke="#000000" stroke-miterlimit="10" d="M407.882,423.199c5.159,0,9.333,3.457,9.333,7.729
		h-9.333"/>
	<path display="inline" fill="none" stroke="#000000" stroke-miterlimit="10" d="M408.632,467.941c5.159,0,9.333,3.457,9.333,7.729
		h-9.333"/>
	<path display="inline" fill="none" stroke="#000000" stroke-miterlimit="10" d="M408.632,484.188c5.159,0,9.333,3.457,9.333,7.729
		h-9.333"/>
	<path display="inline" fill="none" stroke="#000000" stroke-miterlimit="10" d="M408.632,539.461c5.159,0,9.333,3.457,9.333,7.729
		h-9.333"/>
	<path display="inline" fill="none" stroke="#000000" stroke-miterlimit="10" d="M428.51,409.887c-5.159,0-9.333,3.457-9.333,7.729
		h9.333"/>
	<path display="inline" fill="none" stroke="#000000" stroke-miterlimit="10" d="M496.018,554.325c0-5.159-3.457-9.333-7.729-9.333
		v9.333"/>
	<path display="inline" fill="none" stroke="#000000" stroke-miterlimit="10" d="M561.558,554.325c0-5.159-3.457-9.333-7.729-9.333
		v9.333"/>
	<path display="inline" fill="none" stroke="#000000" stroke-miterlimit="10" d="M428.048,593.892c0-5.159,3.457-9.333,7.729-9.333
		v9.333"/>
</g>
</svg>
