<?xml version="1.0" encoding="utf-8"?>
<!-- Generator: Adobe Illustrator 15.0.0, SVG Export Plug-In . SVG Version: 6.00 Build 0)  -->
<!DOCTYPE svg PUBLIC "-//W3C//DTD SVG 1.1//EN" "http://www.w3.org/Graphics/SVG/1.1/DTD/svg11.dtd">
<svg version="1.1" id="Ebene_1" xmlns="http://www.w3.org/2000/svg" xmlns:xlink="http://www.w3.org/1999/xlink" x="0px" y="0px"
	 width="274px" height="132px" viewBox="0 0 274 132" enable-background="new 0 0 274 132" xml:space="preserve">
<g enable-background="new    ">
	<path d="M27.122,27.156c0,0.141-0.023,0.51-0.07,1.107c-0.047,0.598-0.111,1.389-0.193,2.373c-0.083,0.984-0.182,2.127-0.299,3.428
		c-0.118,1.301-0.234,2.701-0.352,4.201c1.477-0.188,2.877-0.334,4.201-0.439c1.324-0.105,2.443-0.158,3.357-0.158
		c0.304,0,0.574,0.059,0.809,0.176c0.234,0.117,0.427,0.252,0.58,0.404c0.152,0.152,0.275,0.316,0.369,0.492
		c0.093,0.176,0.152,0.322,0.176,0.439c0,0.117,0.012,0.229,0.035,0.334c0.023,0.105,0.035,0.217,0.035,0.334
		c0,0.469-0.206,0.938-0.615,1.406c-0.41,0.469-1.025,0.762-1.846,0.879l-7.488,0.809c-0.118,1.688-0.223,3.422-0.316,5.203
		c-0.094,1.781-0.182,3.557-0.264,5.326c-0.083,1.77-0.146,3.51-0.193,5.221c-0.047,1.711-0.07,3.328-0.07,4.852
		c0,0.984,0.023,1.781,0.07,2.391c0.047,0.609,0.07,1.008,0.07,1.195c0,0.398-0.076,0.791-0.229,1.178
		c-0.153,0.387-0.329,0.738-0.527,1.055c-0.199,0.316-0.41,0.574-0.633,0.773c-0.223,0.199-0.404,0.299-0.545,0.299
		c-0.844,0-1.512-0.264-2.004-0.791s-0.861-1.236-1.107-2.127s-0.404-1.91-0.475-3.059s-0.105-2.344-0.105-3.586
		c0-2.93,0.082-5.865,0.246-8.807c0.164-2.941,0.398-5.771,0.703-8.49l-4.395,0.527c-0.07,0-0.141,0.012-0.211,0.035
		s-0.153,0.035-0.246,0.035c-0.445,0-0.803-0.105-1.072-0.316c-0.269-0.211-0.475-0.457-0.615-0.738s-0.229-0.568-0.264-0.861
		s-0.053-0.521-0.053-0.686c0-0.328,0.047-0.633,0.141-0.914c0.094-0.281,0.27-0.457,0.527-0.527
		c0.492-0.188,1.354-0.393,2.584-0.615s2.619-0.451,4.166-0.686c0.258-1.898,0.521-3.639,0.791-5.221
		c0.269-1.582,0.533-2.953,0.791-4.113c0.258-1.16,0.498-2.063,0.721-2.707c0.223-0.645,0.416-0.967,0.58-0.967
		c0.047,0,0.105,0.012,0.176,0.035s0.128,0.035,0.176,0.035c0.141,0,0.251-0.076,0.334-0.229c0.082-0.152,0.24-0.229,0.475-0.229
		c0.211,0,0.439,0.064,0.686,0.193s0.469,0.287,0.668,0.475c0.199,0.188,0.369,0.381,0.51,0.58S27.122,27.039,27.122,27.156z"/>
</g>
<g enable-background="new    ">
	<path fill="#FFFFFF" d="M59.255,53.664c0,2.461-0.357,4.676-1.072,6.645c-0.715,1.969-1.688,3.645-2.918,5.027
		s-2.654,2.449-4.271,3.199s-3.328,1.125-5.133,1.125c-0.75,0-1.57-0.088-2.461-0.264c-0.891-0.176-1.781-0.463-2.672-0.861
		c-0.891-0.398-1.758-0.926-2.602-1.582s-1.594-1.465-2.25-2.426c-0.656-0.961-1.178-2.086-1.564-3.375s-0.568-2.777-0.545-4.465
		c0-1.922,0.234-3.674,0.703-5.256c0.469-1.582,1.072-3,1.811-4.254s1.576-2.338,2.514-3.252c0.937-0.914,1.875-1.682,2.813-2.303
		c0.937-0.621,1.84-1.084,2.707-1.389c0.867-0.305,1.617-0.48,2.25-0.527c0.328-0.023,0.475,0.012,0.439,0.105
		s-0.123,0.199-0.264,0.316s-0.264,0.234-0.369,0.352s-0.065,0.188,0.123,0.211c0.164,0.047,0.299,0.094,0.404,0.141
		s0.216,0.105,0.334,0.176l0.281-0.316c0.164-0.117,0.322-0.176,0.475-0.176c0.152,0,0.287,0.018,0.404,0.053
		c0.117,0.035,0.211,0.053,0.281,0.053s0.117-0.07,0.141-0.211c0.047-0.258,0.135-0.404,0.264-0.439
		c0.128-0.035,0.427-0.053,0.896-0.053c0.281,0,0.708,0.082,1.283,0.246c0.574,0.164,1.207,0.445,1.898,0.844
		c0.691,0.398,1.394,0.932,2.109,1.6c0.715,0.668,1.371,1.512,1.969,2.531s1.084,2.232,1.459,3.639
		C59.067,50.184,59.255,51.813,59.255,53.664z M46.563,43.363c-0.821,0.492-1.629,1.16-2.426,2.004
		c-0.797,0.844-1.518,1.816-2.162,2.918c-0.645,1.102-1.166,2.332-1.564,3.691c-0.399,1.359-0.598,2.789-0.598,4.289
		c0,1.617,0.146,3.082,0.439,4.395c0.293,1.313,0.721,2.432,1.283,3.357s1.248,1.641,2.057,2.145s1.728,0.756,2.76,0.756
		c0.914,0,1.822-0.258,2.725-0.773c0.902-0.516,1.705-1.289,2.408-2.32s1.271-2.309,1.705-3.832c0.434-1.523,0.65-3.293,0.65-5.309
		c0-2.039-0.27-3.75-0.809-5.133c-0.54-1.383-1.143-2.502-1.811-3.357s-1.307-1.465-1.916-1.828
		c-0.61-0.363-0.984-0.545-1.125-0.545c-0.329,0-0.58,0-0.756,0S46.962,43.668,46.563,43.363z"/>
</g>
<g enable-background="new    ">
	<path d="M86.044,68.289c0,0.211-0.176,0.469-0.527,0.773s-0.797,0.457-1.336,0.457c-0.164,0-0.463-0.082-0.896-0.246
		c-0.434-0.164-0.885-0.404-1.354-0.721c-0.469-0.316-0.891-0.703-1.266-1.16c-0.375-0.457-0.575-0.979-0.598-1.564
		c-0.047-0.258-0.07-0.615-0.07-1.072s0-0.99,0-1.6c0-0.938,0-1.98,0-3.129s0.023-2.309,0.07-3.48
		c-0.164,0.844-0.364,1.717-0.598,2.619c-0.234,0.902-0.527,1.799-0.879,2.689s-0.762,1.77-1.23,2.637
		c-0.469,0.867-1.008,1.699-1.617,2.496c-0.329,0.422-0.674,0.779-1.037,1.072c-0.364,0.293-0.721,0.539-1.072,0.738
		s-0.68,0.346-0.984,0.439c-0.305,0.094-0.54,0.141-0.703,0.141c-0.094,0-0.311-0.1-0.65-0.299c-0.34-0.199-0.738-0.457-1.195-0.773
		s-0.944-0.668-1.459-1.055c-0.516-0.387-1.008-0.773-1.477-1.16c-0.469-0.387-0.891-0.75-1.266-1.09
		c-0.375-0.34-0.645-0.615-0.809-0.826c-0.164-0.234-0.311-0.633-0.439-1.195c-0.129-0.563-0.241-1.254-0.334-2.074
		c-0.094-0.82-0.17-1.746-0.229-2.777c-0.059-1.031-0.088-2.133-0.088-3.305c0-0.633,0.012-1.453,0.035-2.461
		c0.023-1.008,0.07-2.092,0.141-3.252s0.158-2.332,0.264-3.516s0.234-2.25,0.387-3.199c0.152-0.949,0.334-1.723,0.545-2.32
		s0.457-0.896,0.738-0.896c0.188,0,0.515,0.053,0.984,0.158c0.469,0.105,0.949,0.158,1.441,0.158c0.726,0,1.236-0.064,1.529-0.193
		c0.293-0.129,0.51-0.193,0.65-0.193c0.234,0,0.352,0.199,0.352,0.598c0,0.117,0,0.229,0,0.334s-0.023,0.229-0.07,0.369
		c-0.023,0.141-0.076,0.504-0.158,1.09c-0.083,0.586-0.182,1.336-0.299,2.25c-0.118,0.914-0.234,1.939-0.352,3.076
		c-0.118,1.137-0.229,2.326-0.334,3.568s-0.193,2.496-0.264,3.762s-0.105,2.473-0.105,3.621c0,0.773,0.018,1.547,0.053,2.32
		s0.1,1.477,0.193,2.109c0.093,0.633,0.223,1.143,0.387,1.529c0.164,0.387,0.363,0.58,0.598,0.58c0.211,0,0.51-0.1,0.896-0.299
		s0.844-0.604,1.371-1.213s1.107-1.477,1.74-2.602s1.318-2.619,2.057-4.482s1.512-4.148,2.32-6.855s1.635-5.936,2.479-9.686
		c0-0.07,0.041-0.123,0.123-0.158c0.082-0.035,0.181-0.053,0.299-0.053c0.304,0,0.691,0.029,1.16,0.088
		c0.469,0.059,0.919,0.141,1.354,0.246c0.434,0.105,0.809,0.229,1.125,0.369s0.475,0.293,0.475,0.457
		c0,1.055-0.047,2.203-0.141,3.445c-0.094,1.242-0.199,2.525-0.316,3.85c-0.118,1.324-0.223,2.678-0.316,4.061
		c-0.094,1.383-0.141,2.754-0.141,4.113c0,2.438,0.076,4.764,0.229,6.979C85.582,64.791,85.786,66.695,86.044,68.289z"/>
	<path d="M116.455,57.707c0,1.336-0.293,2.695-0.879,4.078c-0.586,1.383-1.412,2.643-2.479,3.779
		c-1.067,1.137-2.361,2.068-3.885,2.795c-1.524,0.727-3.234,1.09-5.133,1.09c-1.547,0-3.111-0.328-4.693-0.984
		s-3.006-1.6-4.271-2.83s-2.297-2.725-3.094-4.482c-0.797-1.758-1.195-3.727-1.195-5.906c0-2.156,0.416-4.201,1.248-6.135
		c0.832-1.934,1.928-3.621,3.287-5.063c1.359-1.441,2.912-2.584,4.658-3.428c1.746-0.844,3.545-1.266,5.396-1.266
		c1.71,0,3.158,0.229,4.342,0.686c1.183,0.457,2.139,0.996,2.865,1.617c0.726,0.621,1.248,1.26,1.564,1.916s0.475,1.184,0.475,1.582
		c0,0.891-0.188,1.617-0.563,2.18c-0.375,0.563-0.803,0.984-1.283,1.266c-0.48,0.281-0.938,0.439-1.371,0.475
		c-0.434,0.035-0.709-0.041-0.826-0.229c-0.094-0.094-0.193-0.141-0.299-0.141s-0.217,0.023-0.334,0.07
		c-0.118,0.047-0.229,0.094-0.334,0.141s-0.193,0.047-0.264,0c-0.118-0.047-0.123-0.152-0.018-0.316s0.158-0.305,0.158-0.422
		c0-0.211-0.006-0.451-0.018-0.721c-0.012-0.27,0.041-0.557,0.158-0.861c0.211-0.422,0.299-0.885,0.264-1.389
		s-0.211-0.979-0.527-1.424s-0.809-0.82-1.477-1.125s-1.529-0.457-2.584-0.457c-0.75,0-1.641,0.246-2.672,0.738
		c-1.032,0.492-2.01,1.26-2.936,2.303c-0.926,1.043-1.711,2.367-2.355,3.973c-0.645,1.605-0.967,3.521-0.967,5.748
		c0,0.961,0.123,1.969,0.369,3.023s0.686,2.027,1.318,2.918s1.488,1.623,2.566,2.197c1.078,0.574,2.449,0.861,4.113,0.861
		c1.102,0,2.115-0.152,3.041-0.457c0.926-0.305,1.763-0.691,2.514-1.16c0.75-0.469,1.418-0.984,2.004-1.547
		c0.585-0.563,1.078-1.096,1.477-1.6c0.398-0.504,0.708-0.943,0.932-1.318c0.223-0.375,0.357-0.609,0.404-0.703
		c0.093-0.117,0.211-0.205,0.352-0.264s0.281-0.07,0.422-0.035s0.264,0.117,0.369,0.246S116.455,57.449,116.455,57.707z"/>
	<path d="M140.572,44.875c0.047,0.328,0.082,0.697,0.105,1.107c0.022,0.41,0.035,0.838,0.035,1.283c0,1.125-0.048,2.438-0.141,3.938
		c-0.094,1.5-0.211,3.281-0.352,5.344c-0.048,0.797-0.083,1.811-0.105,3.041c-0.023,1.23-0.035,2.502-0.035,3.814
		c0,1.125,0.018,2.215,0.053,3.27s0.088,1.98,0.158,2.777c0.047,0.352-0.035,0.539-0.246,0.563s-0.445,0-0.703-0.07
		c-0.118-0.047-0.224-0.047-0.316,0c-0.094,0.047-0.182,0.105-0.264,0.176c-0.083,0.07-0.164,0.123-0.246,0.158
		c-0.083,0.035-0.193-0.006-0.334-0.123c-0.118-0.094-0.316-0.234-0.598-0.422c-0.282-0.188-0.581-0.393-0.897-0.615
		s-0.615-0.463-0.896-0.721s-0.492-0.492-0.633-0.703c-0.141-0.328-0.234-1.137-0.281-2.426c-0.047-1.289-0.07-2.848-0.07-4.676
		v-4.746c0.023-1.031,0.07-2.051,0.141-3.059s0.152-1.98,0.246-2.918c0.093-0.938,0.176-1.822,0.246-2.654s0.105-1.588,0.105-2.268
		c0-1.078-0.153-1.887-0.457-2.426c-0.07-0.094-0.281-0.035-0.633,0.176s-0.803,0.656-1.354,1.336
		c-0.551,0.68-1.172,1.641-1.863,2.883c-0.691,1.242-1.418,2.848-2.18,4.816c-0.762,1.969-1.535,4.348-2.32,7.137
		c-0.786,2.789-1.529,6.07-2.232,9.844c-0.07,0.328-0.158,0.557-0.264,0.686s-0.299,0.193-0.58,0.193
		c-0.188,0-0.346-0.146-0.475-0.439c-0.129-0.293-0.287-0.533-0.475-0.721c-0.445,0-0.85-0.053-1.213-0.158
		c-0.364-0.105-0.58-0.393-0.65-0.861c0-0.164-0.041-0.316-0.123-0.457c-0.083-0.141-0.176-0.299-0.281-0.475
		s-0.199-0.363-0.281-0.563c-0.083-0.199-0.123-0.439-0.123-0.721c0.07-1.641,0.128-3.428,0.176-5.361
		c0.047-1.934,0.1-3.914,0.158-5.941c0.058-2.027,0.111-4.061,0.158-6.1c0.047-2.039,0.105-3.99,0.176-5.854
		s0.135-3.598,0.193-5.203c0.058-1.605,0.135-2.994,0.229-4.166c0.281-3.492,0.563-6.24,0.844-8.244s0.457-3.17,0.527-3.498
		c0.07-0.234,0.141-0.41,0.211-0.527s0.135-0.199,0.193-0.246c0.058-0.047,0.105-0.082,0.141-0.105s0.064-0.082,0.088-0.176
		c0.047-0.094,0.135-0.146,0.264-0.158c0.128-0.012,0.275-0.012,0.439,0c0.164,0.012,0.316,0.012,0.457,0s0.258-0.064,0.352-0.158
		c0.188-0.141,0.346-0.258,0.475-0.352c0.128-0.094,0.357-0.141,0.686-0.141c0.398-0.047,0.703-0.041,0.914,0.018
		s0.339,0.287,0.387,0.686c0.07,0.727,0.093,1.676,0.07,2.848c-0.023,1.172-0.083,2.461-0.176,3.867
		c-0.094,1.406-0.199,2.889-0.316,4.447c-0.118,1.559-0.241,3.088-0.369,4.588c-0.129,1.5-0.246,2.924-0.352,4.271
		s-0.182,2.502-0.229,3.463c-0.047,0.539-0.076,1.189-0.088,1.951c-0.012,0.762-0.018,1.582-0.018,2.461s0,1.793,0,2.742
		s-0.012,1.881-0.035,2.795c0.726-2.25,1.512-4.213,2.355-5.889s1.688-3.076,2.531-4.201s1.658-1.98,2.443-2.566
		c0.785-0.586,1.482-0.926,2.092-1.02c0.141-0.023,0.392,0.012,0.756,0.105c0.363,0.094,0.744,0.199,1.143,0.316
		c0.398,0.117,0.761,0.24,1.09,0.369c0.328,0.129,0.515,0.217,0.563,0.264c0.093,0.117,0.233,0.275,0.422,0.475
		c0.188,0.199,0.381,0.463,0.58,0.791c0.198,0.328,0.387,0.75,0.563,1.266S140.454,44.148,140.572,44.875z"/>
	<path d="M194.854,66.109c0.07,0.188,0.123,0.34,0.158,0.457s0.053,0.234,0.053,0.352c0,0.211-0.088,0.334-0.264,0.369
		s-0.357,0.076-0.545,0.123c-0.048,0.023-0.094,0.135-0.141,0.334c-0.048,0.199-0.111,0.416-0.193,0.65
		c-0.083,0.234-0.211,0.445-0.387,0.633s-0.417,0.281-0.721,0.281c-0.984-0.07-1.758-0.287-2.32-0.65s-0.984-0.861-1.266-1.494
		s-0.457-1.389-0.527-2.268s-0.105-1.857-0.105-2.936c0-1.266,0.053-2.59,0.158-3.973s0.229-2.73,0.369-4.043
		s0.264-2.549,0.369-3.709s0.158-2.15,0.158-2.971c0-1.195-0.101-2.121-0.299-2.777c-0.199-0.656-0.475-0.984-0.826-0.984
		c-0.164,0-0.586,0.486-1.266,1.459c-0.681,0.973-1.494,2.443-2.443,4.412s-1.969,4.441-3.059,7.418s-2.127,6.469-3.111,10.477
		c-0.048,0.164-0.07,0.34-0.07,0.527s-0.013,0.357-0.035,0.51c-0.023,0.152-0.076,0.281-0.158,0.387
		c-0.083,0.105-0.206,0.158-0.369,0.158c-0.329,0-0.586-0.064-0.773-0.193c-0.188-0.129-0.352-0.27-0.492-0.422
		s-0.27-0.293-0.387-0.422c-0.118-0.129-0.27-0.193-0.457-0.193c-0.07,0-0.129,0.047-0.176,0.141
		c-0.048,0.094-0.105,0.205-0.176,0.334s-0.153,0.24-0.246,0.334c-0.094,0.094-0.224,0.141-0.387,0.141
		c-0.141,0-0.294-0.029-0.457-0.088c-0.164-0.059-0.329-0.211-0.492-0.457c-0.164-0.246-0.299-0.609-0.404-1.09
		s-0.158-1.131-0.158-1.951v-1.582c0-0.328,0.035-0.838,0.105-1.529s0.146-1.494,0.229-2.408c0.082-0.914,0.176-1.904,0.281-2.971
		s0.198-2.15,0.281-3.252c0.082-1.102,0.152-2.18,0.211-3.234c0.058-1.055,0.088-2.016,0.088-2.883c0-2.648-0.329-3.973-0.984-3.973
		c-0.164,0-0.352,0.059-0.563,0.176s-0.463,0.357-0.756,0.721c-0.294,0.363-0.633,0.879-1.02,1.547s-0.821,1.559-1.301,2.672
		c-0.48,1.113-1.032,2.473-1.652,4.078c-0.621,1.605-1.307,3.533-2.057,5.783c-0.164,0.492-0.347,1.213-0.545,2.162
		c-0.199,0.949-0.382,1.916-0.545,2.9c-0.164,0.984-0.299,1.893-0.404,2.725s-0.158,1.377-0.158,1.635
		c0,0.07-0.123,0.182-0.369,0.334s-0.533,0.299-0.861,0.439c-0.329,0.141-0.663,0.264-1.002,0.369
		c-0.34,0.105-0.604,0.158-0.791,0.158c-0.399,0-0.703-0.111-0.914-0.334s-0.369-0.633-0.475-1.23s-0.164-1.418-0.176-2.461
		c-0.013-1.043-0.018-2.385-0.018-4.025c0-0.422,0.018-1.254,0.053-2.496s0.1-2.672,0.193-4.289c0.093-1.617,0.211-3.311,0.352-5.08
		s0.304-3.393,0.492-4.869c0.188-1.477,0.409-2.695,0.668-3.656c0.258-0.961,0.55-1.441,0.879-1.441
		c0.163,0,0.316,0.059,0.457,0.176s0.269,0.24,0.387,0.369c0.117,0.129,0.229,0.252,0.334,0.369s0.216,0.176,0.334,0.176
		c0.093,0,0.193-0.047,0.299-0.141s0.198-0.205,0.281-0.334c0.082-0.129,0.163-0.24,0.246-0.334
		c0.082-0.094,0.146-0.141,0.193-0.141c0.07,0,0.176,0.117,0.316,0.352s0.275,0.51,0.404,0.826c0.128,0.316,0.246,0.645,0.352,0.984
		s0.158,0.604,0.158,0.791c0,0.469-0.041,1.137-0.123,2.004c-0.083,0.867-0.176,1.822-0.281,2.865s-0.199,2.104-0.281,3.182
		c-0.083,1.078-0.123,2.074-0.123,2.988v0.141c0.304-1.008,0.662-2.045,1.072-3.111c0.409-1.066,0.861-2.109,1.354-3.129
		s1.014-1.986,1.564-2.9c0.55-0.914,1.13-1.711,1.74-2.391c0.609-0.68,1.23-1.219,1.863-1.617s1.277-0.598,1.934-0.598
		c0.796,0,1.481,0.135,2.057,0.404c0.574,0.27,1.037,0.645,1.389,1.125s0.609,1.031,0.773,1.652
		c0.163,0.621,0.246,1.283,0.246,1.986c0,0.609-0.041,1.313-0.123,2.109c-0.083,0.797-0.171,1.682-0.264,2.654
		c-0.094,0.973-0.182,2.039-0.264,3.199c-0.083,1.16-0.136,2.42-0.158,3.779c0.304-0.844,0.673-1.857,1.107-3.041
		c0.434-1.184,0.914-2.408,1.441-3.674s1.09-2.52,1.688-3.762s1.2-2.355,1.811-3.34c0.609-0.984,1.225-1.781,1.846-2.391
		c0.62-0.609,1.213-0.914,1.775-0.914c0.163,0,0.532,0.053,1.107,0.158c0.574,0.105,1.183,0.258,1.828,0.457
		c0.645,0.199,1.248,0.445,1.811,0.738s0.937,0.627,1.125,1.002c0.188,0.398,0.356,0.955,0.51,1.67
		c0.152,0.715,0.229,1.67,0.229,2.865c0,1.055-0.076,2.314-0.229,3.779c-0.153,1.465-0.417,3.229-0.791,5.291
		c-0.118,0.68-0.193,1.336-0.229,1.969s-0.053,1.254-0.053,1.863c0,0.891,0.04,1.723,0.123,2.496
		c0.082,0.773,0.181,1.465,0.299,2.074c0.117,0.609,0.233,1.131,0.352,1.564C194.654,65.646,194.76,65.945,194.854,66.109z"/>
	<path d="M223.646,55.668c0,0.258,0.012,0.563,0.035,0.914c0.022,0.352,0.035,0.75,0.035,1.195c0,0.563-0.083,1.26-0.246,2.092
		c-0.164,0.832-0.428,1.705-0.791,2.619c-0.364,0.914-0.85,1.828-1.459,2.742c-0.61,0.914-1.359,1.734-2.25,2.461
		c-0.892,0.727-1.939,1.318-3.146,1.775c-1.208,0.457-2.584,0.686-4.131,0.686c-1.384,0-2.795-0.264-4.236-0.791
		s-2.755-1.348-3.938-2.461c-1.184-1.113-2.157-2.531-2.918-4.254c-0.762-1.723-1.143-3.779-1.143-6.17c0-1.5,0.193-2.977,0.58-4.43
		s0.901-2.824,1.547-4.113c0.645-1.289,1.406-2.479,2.285-3.568s1.805-2.027,2.777-2.813c0.972-0.785,1.98-1.4,3.023-1.846
		c1.042-0.445,2.057-0.668,3.041-0.668c1.71,0,3.123,0.27,4.236,0.809c1.112,0.539,1.998,1.207,2.654,2.004
		c0.655,0.797,1.119,1.646,1.389,2.549c0.269,0.902,0.404,1.717,0.404,2.443c0,0.703-0.171,1.506-0.51,2.408
		c-0.34,0.902-0.896,1.758-1.67,2.566s-1.781,1.488-3.023,2.039c-1.243,0.551-2.766,0.826-4.57,0.826
		c-0.962,0-1.823-0.135-2.584-0.404c-0.762-0.27-1.437-0.609-2.021-1.02c-0.586-0.41-1.085-0.855-1.494-1.336
		c-0.41-0.48-0.756-0.932-1.037-1.354c-0.422,1.453-0.633,3.152-0.633,5.098c0,1.336,0.193,2.537,0.58,3.604s0.919,1.975,1.6,2.725
		c0.68,0.75,1.488,1.324,2.426,1.723c0.937,0.398,1.969,0.598,3.094,0.598c1.406,0,2.637-0.24,3.691-0.721s1.974-1.084,2.76-1.811
		c0.785-0.727,1.464-1.518,2.039-2.373c0.574-0.855,1.072-1.641,1.494-2.355s0.791-1.307,1.107-1.775s0.627-0.691,0.932-0.668
		c0.141,0,0.211,0.117,0.211,0.352c0,0.117-0.013,0.234-0.035,0.352C223.729,55.434,223.693,55.551,223.646,55.668z M213.064,42.59
		c-0.422,0-0.967,0.088-1.635,0.264s-1.371,0.486-2.109,0.932s-1.472,1.049-2.197,1.811c-0.727,0.762-1.359,1.729-1.898,2.9
		c0.328-0.164,0.615-0.305,0.861-0.422s0.416-0.176,0.51-0.176c0.047,0,0.117,0.047,0.211,0.141
		c0.539,0.914,1.213,1.564,2.021,1.951s1.717,0.58,2.725,0.58c0.796,0,1.481-0.135,2.057-0.404c0.574-0.27,1.049-0.615,1.424-1.037
		c0.374-0.422,0.645-0.885,0.809-1.389c0.163-0.504,0.246-1.002,0.246-1.494c0-1.055-0.27-1.928-0.809-2.619
		C214.739,42.936,214.001,42.59,213.064,42.59z"/>
	<path d="M234.439,64.773c0.022,0.328,0.005,0.709-0.053,1.143c-0.059,0.434-0.146,0.85-0.264,1.248
		c-0.118,0.398-0.281,0.756-0.492,1.072s-0.47,0.521-0.773,0.615c-0.867,0.305-1.547,0.457-2.039,0.457
		c-0.47,0-0.861-0.082-1.178-0.246s-0.639-0.352-0.967-0.563c-0.47-0.258-0.861-0.609-1.178-1.055s-0.475-0.891-0.475-1.336
		c0-0.328,0.075-0.727,0.229-1.195c0.152-0.469,0.339-0.932,0.563-1.389c0.223-0.457,0.469-0.873,0.738-1.248
		c0.269-0.375,0.521-0.633,0.756-0.773c0.398-0.211,0.721-0.322,0.967-0.334s0.475-0.018,0.686-0.018
		c1.102,0,1.945,0.275,2.531,0.826C234.075,62.529,234.392,63.461,234.439,64.773z"/>
	<path d="M246.252,64.773c0.022,0.328,0.005,0.709-0.053,1.143c-0.059,0.434-0.146,0.85-0.264,1.248
		c-0.118,0.398-0.281,0.756-0.492,1.072s-0.47,0.521-0.773,0.615c-0.867,0.305-1.547,0.457-2.039,0.457
		c-0.47,0-0.861-0.082-1.178-0.246s-0.639-0.352-0.967-0.563c-0.47-0.258-0.861-0.609-1.178-1.055s-0.475-0.891-0.475-1.336
		c0-0.328,0.075-0.727,0.229-1.195c0.152-0.469,0.339-0.932,0.563-1.389c0.223-0.457,0.469-0.873,0.738-1.248
		c0.269-0.375,0.521-0.633,0.756-0.773c0.398-0.211,0.721-0.322,0.967-0.334s0.475-0.018,0.686-0.018
		c1.102,0,1.945,0.275,2.531,0.826C245.888,62.529,246.204,63.461,246.252,64.773z"/>
	<path d="M258.064,64.773c0.022,0.328,0.005,0.709-0.053,1.143c-0.059,0.434-0.146,0.85-0.264,1.248
		c-0.118,0.398-0.281,0.756-0.492,1.072s-0.47,0.521-0.773,0.615c-0.867,0.305-1.547,0.457-2.039,0.457
		c-0.47,0-0.861-0.082-1.178-0.246s-0.639-0.352-0.967-0.563c-0.47-0.258-0.861-0.609-1.178-1.055s-0.475-0.891-0.475-1.336
		c0-0.328,0.075-0.727,0.229-1.195c0.152-0.469,0.339-0.932,0.563-1.389c0.223-0.457,0.469-0.873,0.738-1.248
		c0.269-0.375,0.521-0.633,0.756-0.773c0.398-0.211,0.721-0.322,0.967-0.334s0.475-0.018,0.686-0.018
		c1.102,0,1.945,0.275,2.531,0.826C257.7,62.529,258.017,63.461,258.064,64.773z"/>
</g>
<g>
	<path fill="none" stroke="#2D2E83" stroke-width="2" stroke-miterlimit="10" d="M58.797,55.589c0,3.322-2.849,13.246-12.676,13.246
		c-8.848-0.349-11.38-7.154-11.38-13.405c0-7.37,6.172-14.797,13.294-14.322C55.314,41.086,59.272,46.646,58.797,55.589z"/>
	<path fill="none" stroke="#2D2E83" stroke-miterlimit="10" d="M56.678,55.479c0,2.736-2.346,10.908-10.439,10.908
		c-7.287-0.287-9.372-5.89-9.372-11.039c0-6.069,5.083-12.186,10.948-11.796C53.81,43.535,57.069,48.114,56.678,55.479z"/>
	<path fill="none" stroke="#2D2E83" stroke-width="0.5" stroke-miterlimit="10" d="M55.265,55.405c0,2.345-2.011,9.35-8.948,9.35
		c-6.246-0.246-8.033-5.048-8.033-9.462c0-5.202,4.357-10.445,9.384-10.111C52.807,45.168,55.6,49.093,55.265,55.405z"/>
	
		<rect x="45.815" y="54.067" transform="matrix(-0.866 0.5 -0.5 -0.866 133.8837 96.3106)" fill="#FFFFFF" stroke="#FFFFFF" stroke-miterlimit="10" width="16.446" height="24.052"/>
</g>
<path fill="#2D2E83" d="M119.579,86.98c3.122,7.074,9.127,15.41,7.539,19.953c-1.405,3.547-10.717,7.539-17.813,10.496
	c-6.54,3.584-13.149,7.491-16.035,8.426c-2.034,0.59-10.569-4.397-17.898-6.947c-8.746-3.991-17.038-7.165-23.933-10.643
	c-3.208-1.619-6.868-6.545-3.157-10.423c2.59-2.252,5.211-2.219,10.844,0.075c4.112,1.591,3.603,2.047,7.243,2.364
	c-2.677-4.546-10.894-18.162-12.86-22.022c-3.414-6.539-16.755-23.431-8.531-28.126C52.606,46.625,58.65,62.92,62.03,67.799
	c1.72,2.659,4.724,8.188,7.001,10.637c7.129-2.763,13.527-3.888,18.032-6.09c7.39-2.216,15.778-6.392,20.545-5.171
	C112.342,71.352,116.733,80.33,119.579,86.98z"/>
</svg>
