<?xml version="1.0" encoding="utf-8"?>
<!-- Generator: Adobe Illustrator 15.0.0, SVG Export Plug-In . SVG Version: 6.00 Build 0)  -->
<!DOCTYPE svg PUBLIC "-//W3C//DTD SVG 1.1//EN" "http://www.w3.org/Graphics/SVG/1.1/DTD/svg11.dtd">
<svg version="1.1" id="Ebene_1" xmlns="http://www.w3.org/2000/svg" xmlns:xlink="http://www.w3.org/1999/xlink" x="0px" y="0px"
	 width="256px" height="117.333px" viewBox="0 0 256 117.333" enable-background="new 0 0 256 117.333" xml:space="preserve">
<path d="M20.122,15.489c0,0.141-0.023,0.51-0.07,1.107c-0.047,0.598-0.111,1.389-0.193,2.373c-0.083,0.984-0.182,2.127-0.299,3.428
	c-0.118,1.301-0.234,2.701-0.352,4.201c1.477-0.188,2.877-0.334,4.201-0.439c1.324-0.105,2.443-0.158,3.357-0.158
	c0.304,0,0.574,0.059,0.809,0.176c0.234,0.117,0.427,0.252,0.58,0.404c0.152,0.152,0.275,0.316,0.369,0.492
	c0.093,0.176,0.152,0.322,0.176,0.439c0,0.117,0.012,0.229,0.035,0.334c0.023,0.105,0.035,0.217,0.035,0.334
	c0,0.469-0.206,0.938-0.615,1.406c-0.41,0.469-1.025,0.762-1.846,0.879l-7.488,0.809c-0.118,1.688-0.223,3.422-0.316,5.203
	c-0.094,1.781-0.182,3.557-0.264,5.326c-0.083,1.77-0.146,3.51-0.193,5.221c-0.047,1.711-0.07,3.328-0.07,4.852
	c0,0.984,0.023,1.781,0.07,2.391c0.047,0.609,0.07,1.008,0.07,1.195c0,0.398-0.076,0.791-0.229,1.178
	c-0.153,0.387-0.329,0.738-0.527,1.055c-0.199,0.316-0.41,0.574-0.633,0.773c-0.223,0.199-0.404,0.299-0.545,0.299
	c-0.844,0-1.512-0.264-2.004-0.791s-0.861-1.236-1.107-2.127s-0.404-1.91-0.475-3.059s-0.105-2.344-0.105-3.586
	c0-2.93,0.082-5.865,0.246-8.807c0.164-2.941,0.398-5.771,0.703-8.49l-4.395,0.527c-0.07,0-0.141,0.012-0.211,0.035
	s-0.153,0.035-0.246,0.035c-0.445,0-0.803-0.105-1.072-0.316c-0.269-0.211-0.475-0.457-0.615-0.738s-0.229-0.568-0.264-0.861
	s-0.053-0.521-0.053-0.686c0-0.328,0.047-0.633,0.141-0.914c0.094-0.281,0.27-0.457,0.527-0.527
	c0.492-0.188,1.354-0.393,2.584-0.615s2.619-0.451,4.166-0.686c0.258-1.898,0.521-3.639,0.791-5.221
	c0.269-1.582,0.533-2.953,0.791-4.113c0.258-1.16,0.498-2.063,0.721-2.707c0.223-0.645,0.416-0.967,0.58-0.967
	c0.047,0,0.105,0.012,0.176,0.035s0.128,0.035,0.176,0.035c0.141,0,0.251-0.076,0.334-0.229c0.082-0.152,0.24-0.229,0.475-0.229
	c0.211,0,0.439,0.064,0.686,0.193s0.469,0.287,0.668,0.475c0.199,0.188,0.369,0.381,0.51,0.58S20.122,15.372,20.122,15.489z"/>
<path d="M79.066,56.622c0,0.211-0.176,0.469-0.527,0.773s-0.797,0.457-1.336,0.457c-0.164,0-0.463-0.082-0.896-0.246
	s-0.885-0.404-1.354-0.721s-0.891-0.703-1.266-1.16s-0.574-0.979-0.598-1.564c-0.047-0.258-0.07-0.615-0.07-1.072s0-0.99,0-1.6
	c0-0.938,0-1.98,0-3.129s0.023-2.309,0.07-3.48c-0.164,0.844-0.363,1.717-0.598,2.619s-0.527,1.799-0.879,2.689
	s-0.762,1.77-1.23,2.637s-1.008,1.699-1.617,2.496c-0.328,0.422-0.674,0.779-1.037,1.072s-0.721,0.539-1.072,0.738
	s-0.68,0.346-0.984,0.439s-0.539,0.141-0.703,0.141c-0.094,0-0.311-0.1-0.65-0.299s-0.738-0.457-1.195-0.773
	s-0.943-0.668-1.459-1.055s-1.008-0.773-1.477-1.16s-0.891-0.75-1.266-1.09s-0.645-0.615-0.809-0.826
	c-0.164-0.234-0.311-0.633-0.439-1.195s-0.24-1.254-0.334-2.074s-0.17-1.746-0.229-2.777s-0.088-2.133-0.088-3.305
	c0-0.633,0.012-1.453,0.035-2.461s0.07-2.092,0.141-3.252s0.158-2.332,0.264-3.516s0.234-2.25,0.387-3.199s0.334-1.723,0.545-2.32
	s0.457-0.896,0.738-0.896c0.188,0,0.516,0.053,0.984,0.158s0.949,0.158,1.441,0.158c0.727,0,1.236-0.064,1.529-0.193
	s0.51-0.193,0.65-0.193c0.234,0,0.352,0.199,0.352,0.598c0,0.117,0,0.229,0,0.334s-0.023,0.229-0.07,0.369
	c-0.023,0.141-0.076,0.504-0.158,1.09s-0.182,1.336-0.299,2.25s-0.234,1.939-0.352,3.076s-0.229,2.326-0.334,3.568
	s-0.193,2.496-0.264,3.762s-0.105,2.473-0.105,3.621c0,0.773,0.018,1.547,0.053,2.32s0.1,1.477,0.193,2.109s0.223,1.143,0.387,1.529
	s0.363,0.58,0.598,0.58c0.211,0,0.51-0.1,0.896-0.299s0.844-0.604,1.371-1.213s1.107-1.477,1.74-2.602s1.318-2.619,2.057-4.482
	s1.512-4.148,2.32-6.855s1.635-5.936,2.479-9.686c0-0.07,0.041-0.123,0.123-0.158s0.182-0.053,0.299-0.053
	c0.305,0,0.691,0.029,1.16,0.088s0.92,0.141,1.354,0.246s0.809,0.229,1.125,0.369s0.475,0.293,0.475,0.457
	c0,1.055-0.047,2.203-0.141,3.445s-0.199,2.525-0.316,3.85s-0.223,2.678-0.316,4.061s-0.141,2.754-0.141,4.113
	c0,2.438,0.076,4.764,0.229,6.979S78.809,55.028,79.066,56.622z"/>
<path d="M109.477,46.04c0,1.336-0.293,2.695-0.879,4.078s-1.412,2.643-2.479,3.779s-2.361,2.068-3.885,2.795s-3.234,1.09-5.133,1.09
	c-1.547,0-3.111-0.328-4.693-0.984s-3.006-1.6-4.271-2.83s-2.297-2.725-3.094-4.482s-1.195-3.727-1.195-5.906
	c0-2.156,0.416-4.201,1.248-6.135s1.928-3.621,3.287-5.063s2.912-2.584,4.658-3.428s3.545-1.266,5.396-1.266
	c1.711,0,3.158,0.229,4.342,0.686s2.139,0.996,2.865,1.617s1.248,1.26,1.564,1.916s0.475,1.184,0.475,1.582
	c0,0.891-0.188,1.617-0.563,2.18s-0.803,0.984-1.283,1.266s-0.938,0.439-1.371,0.475s-0.709-0.041-0.826-0.229
	c-0.094-0.094-0.193-0.141-0.299-0.141s-0.217,0.023-0.334,0.07s-0.229,0.094-0.334,0.141s-0.193,0.047-0.264,0
	c-0.117-0.047-0.123-0.152-0.018-0.316s0.158-0.305,0.158-0.422c0-0.211-0.006-0.451-0.018-0.721s0.041-0.557,0.158-0.861
	c0.211-0.422,0.299-0.885,0.264-1.389s-0.211-0.979-0.527-1.424s-0.809-0.82-1.477-1.125s-1.529-0.457-2.584-0.457
	c-0.75,0-1.641,0.246-2.672,0.738s-2.01,1.26-2.936,2.303s-1.711,2.367-2.355,3.973s-0.967,3.521-0.967,5.748
	c0,0.961,0.123,1.969,0.369,3.023s0.686,2.027,1.318,2.918s1.488,1.623,2.566,2.197s2.449,0.861,4.113,0.861
	c1.102,0,2.115-0.152,3.041-0.457s1.764-0.691,2.514-1.16s1.418-0.984,2.004-1.547s1.078-1.096,1.477-1.6s0.709-0.943,0.932-1.318
	s0.357-0.609,0.404-0.703c0.094-0.117,0.211-0.205,0.352-0.264s0.281-0.07,0.422-0.035s0.264,0.117,0.369,0.246
	S109.477,45.782,109.477,46.04z"/>
<path d="M133.594,33.208c0.047,0.328,0.082,0.697,0.105,1.107s0.035,0.838,0.035,1.283c0,1.125-0.047,2.438-0.141,3.938
	s-0.211,3.281-0.352,5.344c-0.047,0.797-0.082,1.811-0.105,3.041s-0.035,2.502-0.035,3.814c0,1.125,0.018,2.215,0.053,3.27
	s0.088,1.98,0.158,2.777c0.047,0.352-0.035,0.539-0.246,0.563s-0.445,0-0.703-0.07c-0.117-0.047-0.223-0.047-0.316,0
	s-0.182,0.105-0.264,0.176s-0.164,0.123-0.246,0.158s-0.193-0.006-0.334-0.123c-0.117-0.094-0.316-0.234-0.598-0.422
	s-0.58-0.393-0.896-0.615s-0.615-0.463-0.896-0.721s-0.492-0.492-0.633-0.703c-0.141-0.328-0.234-1.137-0.281-2.426
	s-0.07-2.848-0.07-4.676v-4.746c0.023-1.031,0.07-2.051,0.141-3.059s0.152-1.98,0.246-2.918s0.176-1.822,0.246-2.654
	s0.105-1.588,0.105-2.268c0-1.078-0.152-1.887-0.457-2.426c-0.07-0.094-0.281-0.035-0.633,0.176s-0.803,0.656-1.354,1.336
	s-1.172,1.641-1.863,2.883s-1.418,2.848-2.18,4.816s-1.535,4.348-2.32,7.137s-1.529,6.07-2.232,9.844
	c-0.07,0.328-0.158,0.557-0.264,0.686s-0.299,0.193-0.58,0.193c-0.188,0-0.346-0.146-0.475-0.439s-0.287-0.533-0.475-0.721
	c-0.445,0-0.85-0.053-1.213-0.158s-0.58-0.393-0.65-0.861c0-0.164-0.041-0.316-0.123-0.457s-0.176-0.299-0.281-0.475
	s-0.199-0.363-0.281-0.563s-0.123-0.439-0.123-0.721c0.07-1.641,0.129-3.428,0.176-5.361s0.1-3.914,0.158-5.941
	s0.111-4.061,0.158-6.1s0.105-3.99,0.176-5.854s0.135-3.598,0.193-5.203s0.135-2.994,0.229-4.166
	c0.281-3.492,0.563-6.24,0.844-8.244s0.457-3.17,0.527-3.498c0.07-0.234,0.141-0.41,0.211-0.527s0.135-0.199,0.193-0.246
	s0.105-0.082,0.141-0.105s0.064-0.082,0.088-0.176c0.047-0.094,0.135-0.146,0.264-0.158s0.275-0.012,0.439,0s0.316,0.012,0.457,0
	s0.258-0.064,0.352-0.158c0.188-0.141,0.346-0.258,0.475-0.352s0.357-0.141,0.686-0.141c0.398-0.047,0.703-0.041,0.914,0.018
	s0.34,0.287,0.387,0.686c0.07,0.727,0.094,1.676,0.07,2.848s-0.082,2.461-0.176,3.867s-0.199,2.889-0.316,4.447
	s-0.24,3.088-0.369,4.588s-0.246,2.924-0.352,4.271s-0.182,2.502-0.229,3.463c-0.047,0.539-0.076,1.189-0.088,1.951
	s-0.018,1.582-0.018,2.461s0,1.793,0,2.742s-0.012,1.881-0.035,2.795c0.727-2.25,1.512-4.213,2.355-5.889s1.688-3.076,2.531-4.201
	s1.658-1.98,2.443-2.566s1.482-0.926,2.092-1.02c0.141-0.023,0.393,0.012,0.756,0.105s0.744,0.199,1.143,0.316
	s0.762,0.24,1.09,0.369s0.516,0.217,0.563,0.264c0.094,0.117,0.234,0.275,0.422,0.475s0.381,0.463,0.58,0.791
	s0.387,0.75,0.563,1.266S133.477,32.481,133.594,33.208z"/>
<path d="M187.875,54.442c0.07,0.188,0.123,0.34,0.158,0.457s0.053,0.234,0.053,0.352c0,0.211-0.088,0.334-0.264,0.369
	s-0.357,0.076-0.545,0.123c-0.047,0.023-0.094,0.135-0.141,0.334s-0.111,0.416-0.193,0.65s-0.211,0.445-0.387,0.633
	s-0.416,0.281-0.721,0.281c-0.984-0.07-1.758-0.287-2.32-0.65s-0.984-0.861-1.266-1.494s-0.457-1.389-0.527-2.268
	s-0.105-1.857-0.105-2.936c0-1.266,0.053-2.59,0.158-3.973s0.229-2.73,0.369-4.043s0.264-2.549,0.369-3.709s0.158-2.15,0.158-2.971
	c0-1.195-0.1-2.121-0.299-2.777s-0.475-0.984-0.826-0.984c-0.164,0-0.586,0.486-1.266,1.459s-1.494,2.443-2.443,4.412
	s-1.969,4.441-3.059,7.418s-2.127,6.469-3.111,10.477c-0.047,0.164-0.07,0.34-0.07,0.527s-0.012,0.357-0.035,0.51
	s-0.076,0.281-0.158,0.387s-0.205,0.158-0.369,0.158c-0.328,0-0.586-0.064-0.773-0.193s-0.352-0.27-0.492-0.422
	s-0.27-0.293-0.387-0.422s-0.27-0.193-0.457-0.193c-0.07,0-0.129,0.047-0.176,0.141s-0.105,0.205-0.176,0.334
	s-0.152,0.24-0.246,0.334s-0.223,0.141-0.387,0.141c-0.141,0-0.293-0.029-0.457-0.088s-0.328-0.211-0.492-0.457
	s-0.299-0.609-0.404-1.09s-0.158-1.131-0.158-1.951v-1.582c0-0.328,0.035-0.838,0.105-1.529s0.146-1.494,0.229-2.408
	s0.176-1.904,0.281-2.971s0.199-2.15,0.281-3.252s0.152-2.18,0.211-3.234s0.088-2.016,0.088-2.883c0-2.648-0.328-3.973-0.984-3.973
	c-0.164,0-0.352,0.059-0.563,0.176s-0.463,0.357-0.756,0.721s-0.633,0.879-1.02,1.547s-0.82,1.559-1.301,2.672
	s-1.031,2.473-1.652,4.078s-1.307,3.533-2.057,5.783c-0.164,0.492-0.346,1.213-0.545,2.162s-0.381,1.916-0.545,2.9
	s-0.299,1.893-0.404,2.725s-0.158,1.377-0.158,1.635c0,0.07-0.123,0.182-0.369,0.334s-0.533,0.299-0.861,0.439
	s-0.662,0.264-1.002,0.369s-0.604,0.158-0.791,0.158c-0.398,0-0.703-0.111-0.914-0.334s-0.369-0.633-0.475-1.23
	s-0.164-1.418-0.176-2.461s-0.018-2.385-0.018-4.025c0-0.422,0.018-1.254,0.053-2.496s0.1-2.672,0.193-4.289s0.211-3.311,0.352-5.08
	s0.305-3.393,0.492-4.869s0.41-2.695,0.668-3.656s0.551-1.441,0.879-1.441c0.164,0,0.316,0.059,0.457,0.176s0.27,0.24,0.387,0.369
	s0.229,0.252,0.334,0.369s0.217,0.176,0.334,0.176c0.094,0,0.193-0.047,0.299-0.141s0.199-0.205,0.281-0.334s0.164-0.24,0.246-0.334
	s0.146-0.141,0.193-0.141c0.07,0,0.176,0.117,0.316,0.352s0.275,0.51,0.404,0.826s0.246,0.645,0.352,0.984s0.158,0.604,0.158,0.791
	c0,0.469-0.041,1.137-0.123,2.004s-0.176,1.822-0.281,2.865s-0.199,2.104-0.281,3.182s-0.123,2.074-0.123,2.988v0.141
	c0.305-1.008,0.662-2.045,1.072-3.111s0.861-2.109,1.354-3.129s1.014-1.986,1.564-2.9s1.131-1.711,1.74-2.391
	s1.23-1.219,1.863-1.617s1.277-0.598,1.934-0.598c0.797,0,1.482,0.135,2.057,0.404s1.037,0.645,1.389,1.125s0.609,1.031,0.773,1.652
	s0.246,1.283,0.246,1.986c0,0.609-0.041,1.313-0.123,2.109s-0.17,1.682-0.264,2.654s-0.182,2.039-0.264,3.199
	s-0.135,2.42-0.158,3.779c0.305-0.844,0.674-1.857,1.107-3.041s0.914-2.408,1.441-3.674s1.09-2.52,1.688-3.762
	s1.201-2.355,1.811-3.34s1.225-1.781,1.846-2.391s1.213-0.914,1.775-0.914c0.164,0,0.533,0.053,1.107,0.158s1.184,0.258,1.828,0.457
	s1.248,0.445,1.811,0.738s0.938,0.627,1.125,1.002c0.188,0.398,0.357,0.955,0.51,1.67s0.229,1.67,0.229,2.865
	c0,1.055-0.076,2.314-0.229,3.779s-0.416,3.229-0.791,5.291c-0.117,0.68-0.193,1.336-0.229,1.969s-0.053,1.254-0.053,1.863
	c0,0.891,0.041,1.723,0.123,2.496s0.182,1.465,0.299,2.074s0.234,1.131,0.352,1.564S187.781,54.278,187.875,54.442z"/>
<path d="M216.668,44.001c0,0.258,0.012,0.563,0.035,0.914s0.035,0.75,0.035,1.195c0,0.563-0.082,1.26-0.246,2.092
	s-0.428,1.705-0.791,2.619s-0.85,1.828-1.459,2.742s-1.359,1.734-2.25,2.461s-1.939,1.318-3.146,1.775s-2.584,0.686-4.131,0.686
	c-1.383,0-2.795-0.264-4.236-0.791s-2.754-1.348-3.938-2.461s-2.156-2.531-2.918-4.254s-1.143-3.779-1.143-6.17
	c0-1.5,0.193-2.977,0.58-4.43s0.902-2.824,1.547-4.113s1.406-2.479,2.285-3.568s1.805-2.027,2.777-2.813s1.98-1.4,3.023-1.846
	s2.057-0.668,3.041-0.668c1.711,0,3.123,0.27,4.236,0.809s1.998,1.207,2.654,2.004s1.119,1.646,1.389,2.549s0.404,1.717,0.404,2.443
	c0,0.703-0.17,1.506-0.51,2.408s-0.896,1.758-1.67,2.566s-1.781,1.488-3.023,2.039s-2.766,0.826-4.57,0.826
	c-0.961,0-1.822-0.135-2.584-0.404s-1.436-0.609-2.021-1.02s-1.084-0.855-1.494-1.336s-0.756-0.932-1.037-1.354
	c-0.422,1.453-0.633,3.152-0.633,5.098c0,1.336,0.193,2.537,0.58,3.604s0.92,1.975,1.6,2.725s1.488,1.324,2.426,1.723
	s1.969,0.598,3.094,0.598c1.406,0,2.637-0.24,3.691-0.721s1.975-1.084,2.76-1.811s1.465-1.518,2.039-2.373s1.072-1.641,1.494-2.355
	s0.791-1.307,1.107-1.775s0.627-0.691,0.932-0.668c0.141,0,0.211,0.117,0.211,0.352c0,0.117-0.012,0.234-0.035,0.352
	S216.715,43.884,216.668,44.001z M206.086,30.923c-0.422,0-0.967,0.088-1.635,0.264s-1.371,0.486-2.109,0.932
	s-1.471,1.049-2.197,1.811s-1.359,1.729-1.898,2.9c0.328-0.164,0.615-0.305,0.861-0.422s0.416-0.176,0.51-0.176
	c0.047,0,0.117,0.047,0.211,0.141c0.539,0.914,1.213,1.564,2.021,1.951s1.717,0.58,2.725,0.58c0.797,0,1.482-0.135,2.057-0.404
	s1.049-0.615,1.424-1.037s0.645-0.885,0.809-1.389s0.246-1.002,0.246-1.494c0-1.055-0.27-1.928-0.809-2.619
	S207.023,30.923,206.086,30.923z"/>
<path d="M227.461,53.106c0.023,0.328,0.006,0.709-0.053,1.143s-0.146,0.85-0.264,1.248s-0.281,0.756-0.492,1.072
	s-0.469,0.521-0.773,0.615c-0.867,0.305-1.547,0.457-2.039,0.457c-0.469,0-0.861-0.082-1.178-0.246s-0.639-0.352-0.967-0.563
	c-0.469-0.258-0.861-0.609-1.178-1.055s-0.475-0.891-0.475-1.336c0-0.328,0.076-0.727,0.229-1.195s0.34-0.932,0.563-1.389
	s0.469-0.873,0.738-1.248s0.521-0.633,0.756-0.773c0.398-0.211,0.721-0.322,0.967-0.334s0.475-0.018,0.686-0.018
	c1.102,0,1.945,0.275,2.531,0.826S227.414,51.794,227.461,53.106z"/>
<path d="M239.273,53.106c0.023,0.328,0.006,0.709-0.053,1.143s-0.146,0.85-0.264,1.248s-0.281,0.756-0.492,1.072
	s-0.469,0.521-0.773,0.615c-0.867,0.305-1.547,0.457-2.039,0.457c-0.469,0-0.861-0.082-1.178-0.246s-0.639-0.352-0.967-0.563
	c-0.469-0.258-0.861-0.609-1.178-1.055s-0.475-0.891-0.475-1.336c0-0.328,0.076-0.727,0.229-1.195s0.34-0.932,0.563-1.389
	s0.469-0.873,0.738-1.248s0.521-0.633,0.756-0.773c0.398-0.211,0.721-0.322,0.967-0.334s0.475-0.018,0.686-0.018
	c1.102,0,1.945,0.275,2.531,0.826S239.227,51.794,239.273,53.106z"/>
<path d="M251.086,53.106c0.023,0.328,0.006,0.709-0.053,1.143s-0.146,0.85-0.264,1.248s-0.281,0.756-0.492,1.072
	s-0.469,0.521-0.773,0.615c-0.867,0.305-1.547,0.457-2.039,0.457c-0.469,0-0.861-0.082-1.178-0.246s-0.639-0.352-0.967-0.563
	c-0.469-0.258-0.861-0.609-1.178-1.055s-0.475-0.891-0.475-1.336c0-0.328,0.076-0.727,0.229-1.195s0.34-0.932,0.563-1.389
	s0.469-0.873,0.738-1.248s0.521-0.633,0.756-0.773c0.398-0.211,0.721-0.322,0.967-0.334s0.475-0.018,0.686-0.018
	c1.102,0,1.945,0.275,2.531,0.826S251.039,51.794,251.086,53.106z"/>
<path fill="none" stroke="#2D2E83" stroke-width="2" stroke-miterlimit="10" d="M39.121,57.168"/>
<path fill="none" stroke="#2D2E83" stroke-width="2" stroke-linecap="round" stroke-linejoin="bevel" stroke-miterlimit="10" d="
	M38.173,57.104c-8.082-0.783-10.432-7.319-10.432-13.341c0-7.37,6.172-14.797,13.294-14.322c7.28-0.021,11.237,5.539,10.762,14.481
	c0,0.397-0.041,0.89-0.13,1.448"/>
<path fill="none" stroke="#2D2E83" stroke-linecap="round" stroke-linejoin="bevel" stroke-miterlimit="10" d="M36.953,54.425
	c-5.447-1.26-7.086-6.18-7.086-10.744c0-6.069,5.083-12.186,10.948-11.796c5.462-0.015,8.653,3.785,8.881,10.031
	c0.015,0.399,0.017,0.81,0.007,1.229"/>
<path fill="none" stroke="#2D2E83" stroke-width="0.5" stroke-miterlimit="10" d="M37.652,52.898"/>
<path fill="none" stroke="#2D2E83" stroke-width="0.5" stroke-linecap="round" stroke-linejoin="bevel" stroke-miterlimit="10" d="
	M35.97,52.385c-3.566-1.527-4.686-5.264-4.686-8.759c0-5.202,4.357-10.445,9.384-10.111c3.793-0.01,6.309,2.127,7.231,5.786
	c0.076,0.303,0.142,0.616,0.196,0.939c0.045,0.271,0.083,0.548,0.113,0.832"/>
<path fill="#2D2E83" d="M47.952,43.944c2.953,4.279,5.359,9.709,7.077,12.188c1.72,2.659,4.724,8.188,7.001,10.636
	c7.129-2.762,13.527-3.887,18.032-6.089c7.39-2.216,15.778-6.392,20.545-5.171c4.735,4.175,9.126,13.154,11.972,19.806
	c3.122,7.073,9.127,15.409,7.539,19.953c-1.405,3.547-10.717,7.539-17.813,10.495c-6.54,3.585-13.149,7.492-16.035,8.427
	c-2.034,0.589-10.569-4.398-17.898-6.948c-8.746-3.991-17.038-7.165-23.933-10.643c-3.208-1.618-6.868-6.545-3.157-10.422
	c2.59-2.252,5.211-2.219,10.844,0.075c4.112,1.591,3.603,2.047,7.243,2.364c-2.677-4.546-10.894-18.162-12.86-22.022
	c-3.414-6.54-16.755-23.431-8.531-28.126C41.728,36.742,45.095,39.805,47.952,43.944"/>
</svg>
