<?xml version="1.0" encoding="utf-8"?>
<!-- Generator: Adobe Illustrator 15.0.0, SVG Export Plug-In . SVG Version: 6.00 Build 0)  -->
<!DOCTYPE svg PUBLIC "-//W3C//DTD SVG 1.1//EN" "http://www.w3.org/Graphics/SVG/1.1/DTD/svg11.dtd">
<svg version="1.1" xmlns="http://www.w3.org/2000/svg" xmlns:xlink="http://www.w3.org/1999/xlink" x="0px" y="0px"
	 width="779.95px" height="742.45px" viewBox="0 0 779.95 742.45" enable-background="new 0 0 779.95 742.45" xml:space="preserve">
<g id="Ebene_1" display="none">
	
		<image display="inline" overflow="visible" width="960" height="720" xlink:href="1OG.jpg"  transform="matrix(1.1811 0 0 1.1811 -94.9893 36.3657)">
	</image>
</g>
<g id="Ebene_2" display="none">
	
		<image display="inline" overflow="visible" width="960" height="720" xlink:href="1OG_Haus2.jpg"  transform="matrix(0.5197 0 0 0.5197 375.5796 482.8428)">
	</image>
</g>
<g id="Ebene_3" display="none">
	<g display="inline">
		<defs>
			<rect id="SVGID_1_" x="-8.514" y="16.544" width="399.715" height="646.299"/>
		</defs>
		<clipPath id="SVGID_2_">
			<use xlink:href="#SVGID_1_"  overflow="visible"/>
		</clipPath>
		<g transform="matrix(1 0 0 1 2.670147e-007 -1.033825e-006)" clip-path="url(#SVGID_2_)">
			
				<image overflow="visible" width="720" height="960" xlink:href="1OG_Haus3.jpg"  transform="matrix(0.754 0 0 0.754 -8.5176 16.5405)">
			</image>
		</g>
	</g>
</g>
<g id="Ebene_4">
	
		<line fill="none" stroke="#9D9D9C" stroke-width="4" stroke-miterlimit="10" x1="637.716" y1="596.604" x2="637.716" y2="515.642"/>
	
		<line fill="none" stroke="#9D9D9C" stroke-width="4" stroke-miterlimit="10" x1="679.323" y1="596.604" x2="679.323" y2="515.643"/>
	<polyline fill="none" stroke="#9D9D9C" stroke-width="4" stroke-miterlimit="10" points="252.545,598.998 252.47,550.731 
		117.749,550.731 	"/>
	<polyline fill="none" stroke="#9D9D9C" stroke-width="3" stroke-miterlimit="10" points="230.736,499.563 275.986,499.514 
		275.986,550.257 251.27,550.257 	"/>
	
		<line fill="none" stroke="#9D9D9C" stroke-width="3" stroke-miterlimit="10" x1="164.485" y1="499.634" x2="221.236" y2="499.573"/>
	<polyline fill="none" stroke="#000000" stroke-width="3" stroke-miterlimit="10" points="101.985,539.401 117.212,539.401 
		117.212,551.86 	"/>
	<line fill="none" stroke="#000000" stroke-width="3" stroke-miterlimit="10" x1="47.236" y1="539.401" x2="94.736" y2="539.401"/>
	<polyline fill="none" stroke="#000000" stroke-width="3" stroke-miterlimit="10" points="33.459,539.401 26.676,539.401 
		38.486,539.401 	"/>
	<polyline fill="none" stroke="#000000" stroke-width="3" stroke-miterlimit="10" points="76.521,492.276 76.521,539.401 
		46.236,539.401 	"/>
	<line fill="none" stroke="#000000" stroke-width="3" stroke-miterlimit="10" x1="76.521" y1="436.776" x2="76.521" y2="484.026"/>
	<line fill="none" stroke="#000000" stroke-width="3" stroke-miterlimit="10" x1="76.521" y1="420.276" x2="76.521" y2="430.276"/>
	<line fill="none" stroke="#000000" stroke-width="3" stroke-miterlimit="10" x1="76.521" y1="376.026" x2="76.521" y2="413.276"/>
	<line fill="none" stroke="#000000" stroke-width="3" stroke-miterlimit="10" x1="76.521" y1="346.026" x2="76.521" y2="367.359"/>
	<line fill="none" stroke="#000000" stroke-width="3" stroke-miterlimit="10" x1="76.521" y1="334.026" x2="76.521" y2="340.359"/>
	<line fill="none" stroke="#000000" stroke-width="3" stroke-miterlimit="10" x1="76.521" y1="318.026" x2="76.521" y2="328.693"/>
	<line fill="none" stroke="#000000" stroke-width="3" stroke-miterlimit="10" x1="76.521" y1="311.359" x2="76.521" y2="318.026"/>
	<line fill="none" stroke="#000000" stroke-width="3" stroke-miterlimit="10" x1="76.521" y1="290.694" x2="76.521" y2="311.359"/>
	<line fill="none" stroke="#000000" stroke-width="3" stroke-miterlimit="10" x1="76.521" y1="267.694" x2="76.521" y2="282.026"/>
	<line fill="none" stroke="#000000" stroke-width="3" stroke-miterlimit="10" x1="76.521" y1="244.026" x2="76.521" y2="260.359"/>
	<line fill="none" stroke="#000000" stroke-width="3" stroke-miterlimit="10" x1="76.521" y1="152.694" x2="76.521" y2="236.027"/>
	<line fill="none" stroke="#000000" stroke-width="3" stroke-miterlimit="10" x1="76.521" y1="129.359" x2="76.521" y2="146.359"/>
	<polyline fill="none" stroke="#000000" stroke-width="3" stroke-miterlimit="10" points="23.668,66.524 76.521,66.524 
		76.521,120.693 	"/>
	<line stroke="#000000" stroke-width="3" stroke-miterlimit="10" x1="52.736" y1="249.076" x2="75.236" y2="249.076"/>
	<line stroke="#000000" stroke-width="3" stroke-miterlimit="10" x1="24.335" y1="249.076" x2="45.735" y2="249.076"/>
	<line stroke="#000000" stroke-width="2" stroke-miterlimit="10" x1="26.252" y1="469.526" x2="75.236" y2="469.526"/>
	<line stroke="#000000" stroke-width="2" stroke-miterlimit="10" x1="26.252" y1="427.026" x2="75.236" y2="427.026"/>
	<line stroke="#000000" stroke-width="3" stroke-miterlimit="10" x1="26.252" y1="383.526" x2="75.236" y2="383.526"/>
	<line stroke="#000000" stroke-width="2" stroke-miterlimit="10" x1="67.403" y1="342.864" x2="75.236" y2="342.864"/>
	<line stroke="#000000" stroke-width="2" stroke-miterlimit="10" x1="26.252" y1="342.864" x2="59.735" y2="342.864"/>
	<line stroke="#000000" stroke-width="2" stroke-miterlimit="10" x1="24.335" y1="321.526" x2="75.986" y2="321.526"/>
	<line stroke="#000000" stroke-width="3" stroke-miterlimit="10" x1="24.335" y1="296.526" x2="75.986" y2="296.526"/>
	<line stroke="#000000" stroke-width="2" stroke-miterlimit="10" x1="24.335" y1="276.026" x2="75.236" y2="276.026"/>
	<line stroke="#000000" stroke-width="2" stroke-miterlimit="10" x1="12.753" y1="203.026" x2="75.236" y2="203.026"/>
	<line stroke="#000000" stroke-width="2" stroke-miterlimit="10" x1="12.753" y1="138.526" x2="75.236" y2="138.526"/>
	<line fill="none" stroke="#000000" stroke-width="2" stroke-miterlimit="10" x1="77.486" y1="55.026" x2="77.486" y2="18.132"/>
	<path fill="none" stroke="#000000" stroke-width="2" stroke-miterlimit="10" d="M77.486,55.026"/>
	<polyline fill="none" stroke="#000000" stroke-width="2" stroke-miterlimit="10" points="75.194,66.043 77.486,66.043 
		77.486,63.36 	"/>
	<line fill="none" stroke="#000000" stroke-width="3" stroke-miterlimit="10" x1="95.864" y1="383.526" x2="119.248" y2="383.526"/>
	<line fill="none" stroke="#000000" stroke-width="3" stroke-miterlimit="10" x1="119.248" y1="296.526" x2="95.864" y2="296.526"/>
	<line fill="none" stroke="#000000" stroke-width="2" stroke-miterlimit="10" x1="95.864" y1="362.359" x2="95.864" y2="385.025"/>
	<line fill="none" stroke="#000000" stroke-width="2" stroke-miterlimit="10" x1="95.864" y1="311.693" x2="95.864" y2="354.359"/>
	<line fill="none" stroke="#000000" stroke-width="2" stroke-miterlimit="10" x1="95.864" y1="294.997" x2="95.864" y2="303.693"/>
	
		<line fill="none" stroke="#000000" stroke-width="2" stroke-miterlimit="10" x1="108.486" y1="425.193" x2="118.748" y2="425.193"/>
	<polyline fill="none" stroke="#000000" stroke-width="2" stroke-miterlimit="10" points="118.748,447.026 95.402,447.026 
		95.402,425.193 100.486,425.193 	"/>
	<polyline fill="none" stroke="#000000" stroke-width="2" stroke-miterlimit="10" points="116.787,87.36 116.787,53.026 
		77.486,53.026 	"/>
	<path fill="none" stroke="#000000" stroke-width="2" stroke-miterlimit="10" d="M116.787,170.777v-31.251
		c0,0,26.599-3.373,29.949-3.833c3.708-0.667,5.041-1,5.343-5.833c0-6.084,0-28.084,0-33.334c0-3.541-3.052-5.166-6.343-5.666
		c-7.667-1.167-28.949-4.334-28.949-4.334L93.736,87.36v52.165l23.051,0.001c0,0,26.599-3.373,29.949-3.833
		c3.708-0.667,5.343-1.708,5.343-5.833"/>
	<line fill="none" stroke="#000000" stroke-miterlimit="10" x1="77.551" y1="524.329" x2="86.135" y2="524.329"/>
	<line fill="none" stroke="#000000" stroke-miterlimit="10" x1="77.551" y1="511.904" x2="86.135" y2="511.904"/>
	<line fill="none" stroke="#000000" stroke-miterlimit="10" x1="77.551" y1="509.42" x2="86.135" y2="509.42"/>
	<line fill="none" stroke="#000000" stroke-miterlimit="10" x1="77.551" y1="519.359" x2="86.135" y2="519.359"/>
	<line fill="none" stroke="#000000" stroke-miterlimit="10" x1="77.551" y1="521.844" x2="86.135" y2="521.844"/>
	<line fill="none" stroke="#000000" stroke-miterlimit="10" x1="77.551" y1="516.874" x2="86.135" y2="516.874"/>
	<line fill="none" stroke="#000000" stroke-miterlimit="10" x1="77.551" y1="514.39" x2="86.135" y2="514.39"/>
	<line fill="none" stroke="#000000" stroke-miterlimit="10" x1="77.551" y1="506.935" x2="107.051" y2="506.935"/>
	<line fill="none" stroke="#9D9D9C" stroke-miterlimit="10" x1="277.301" y1="536.754" x2="294.469" y2="536.754"/>
	<line fill="none" stroke="#9D9D9C" stroke-miterlimit="10" x1="277.301" y1="524.329" x2="294.469" y2="524.329"/>
	<line fill="none" stroke="#9D9D9C" stroke-miterlimit="10" x1="277.301" y1="521.845" x2="294.469" y2="521.845"/>
	<line fill="none" stroke="#9D9D9C" stroke-miterlimit="10" x1="277.301" y1="531.784" x2="294.469" y2="531.784"/>
	<line fill="none" stroke="#9D9D9C" stroke-miterlimit="10" x1="277.301" y1="534.269" x2="294.469" y2="534.269"/>
	<line fill="none" stroke="#9D9D9C" stroke-miterlimit="10" x1="277.301" y1="529.299" x2="294.469" y2="529.299"/>
	<line fill="none" stroke="#9D9D9C" stroke-miterlimit="10" x1="277.301" y1="526.814" x2="294.469" y2="526.814"/>
	<line fill="none" stroke="#9D9D9C" stroke-miterlimit="10" x1="277.301" y1="539.238" x2="294.469" y2="539.238"/>
	<line fill="none" stroke="#9D9D9C" stroke-miterlimit="10" x1="277.301" y1="541.724" x2="294.469" y2="541.724"/>
	<line fill="none" stroke="#9D9D9C" stroke-miterlimit="10" x1="277.301" y1="544.208" x2="294.469" y2="544.208"/>
	<line fill="none" stroke="#9D9D9C" stroke-miterlimit="10" x1="277.301" y1="519.359" x2="294.469" y2="519.359"/>
	<line fill="none" stroke="#9D9D9C" stroke-miterlimit="10" x1="277.301" y1="546.693" x2="294.469" y2="546.693"/>
	<polyline fill="none" stroke="#9D9D9C" stroke-miterlimit="10" points="294.469,547.191 294.469,514.026 306.301,514.026 
		306.301,547.191 	"/>
	<line fill="none" stroke="#000000" stroke-miterlimit="10" x1="104.727" y1="506.935" x2="104.727" y2="498.351"/>
	<line fill="none" stroke="#000000" stroke-miterlimit="10" x1="93.108" y1="506.935" x2="93.108" y2="498.351"/>
	<line fill="none" stroke="#000000" stroke-miterlimit="10" x1="90.784" y1="506.935" x2="90.784" y2="498.351"/>
	<line fill="none" stroke="#000000" stroke-miterlimit="10" x1="100.08" y1="506.935" x2="100.08" y2="498.351"/>
	<line fill="none" stroke="#000000" stroke-miterlimit="10" x1="102.404" y1="506.935" x2="102.404" y2="498.351"/>
	<line fill="none" stroke="#000000" stroke-miterlimit="10" x1="97.755" y1="506.935" x2="97.755" y2="498.351"/>
	<line fill="none" stroke="#000000" stroke-miterlimit="10" x1="95.431" y1="506.935" x2="95.431" y2="498.351"/>
	<line fill="none" stroke="#000000" stroke-miterlimit="10" x1="88.459" y1="506.935" x2="88.459" y2="498.351"/>
	<line fill="none" stroke="#000000" stroke-miterlimit="10" x1="106.564" y1="524.329" x2="117.087" y2="524.329"/>
	<line fill="none" stroke="#000000" stroke-miterlimit="10" x1="107.129" y1="519.359" x2="117.087" y2="519.359"/>
	<line fill="none" stroke="#000000" stroke-miterlimit="10" x1="107.129" y1="521.844" x2="117.087" y2="521.844"/>
	<line fill="none" stroke="#000000" stroke-miterlimit="10" x1="107.129" y1="516.874" x2="117.087" y2="516.874"/>
	<line fill="none" stroke="#000000" stroke-miterlimit="10" x1="107.051" y1="524.714" x2="107.051" y2="498.352"/>
	<line fill="none" stroke="#000000" stroke-miterlimit="10" x1="77.551" y1="498.352" x2="107.542" y2="498.352"/>
	<line fill="none" stroke="#000000" stroke-miterlimit="10" x1="86.135" y1="524.823" x2="86.135" y2="498.352"/>
	<line fill="none" stroke="#000000" stroke-width="2" stroke-miterlimit="10" x1="95.864" y1="338.026" x2="117.212" y2="338.026"/>
	<line fill="none" stroke="#9D9D9C" stroke-miterlimit="10" x1="306.301" y1="536.754" x2="323.469" y2="536.754"/>
	<line fill="none" stroke="#9D9D9C" stroke-miterlimit="10" x1="306.301" y1="524.329" x2="323.469" y2="524.329"/>
	<line fill="none" stroke="#9D9D9C" stroke-miterlimit="10" x1="306.301" y1="521.845" x2="323.469" y2="521.845"/>
	<line fill="none" stroke="#9D9D9C" stroke-miterlimit="10" x1="306.301" y1="531.784" x2="323.469" y2="531.784"/>
	<line fill="none" stroke="#9D9D9C" stroke-miterlimit="10" x1="306.301" y1="534.269" x2="323.469" y2="534.269"/>
	<line fill="none" stroke="#9D9D9C" stroke-miterlimit="10" x1="306.301" y1="529.299" x2="323.469" y2="529.299"/>
	<line fill="none" stroke="#9D9D9C" stroke-miterlimit="10" x1="306.301" y1="526.814" x2="323.469" y2="526.814"/>
	<line fill="none" stroke="#9D9D9C" stroke-miterlimit="10" x1="306.301" y1="539.238" x2="323.469" y2="539.238"/>
	<line fill="none" stroke="#9D9D9C" stroke-miterlimit="10" x1="306.301" y1="541.724" x2="323.469" y2="541.724"/>
	<line fill="none" stroke="#9D9D9C" stroke-miterlimit="10" x1="306.301" y1="544.208" x2="323.469" y2="544.208"/>
	<line fill="none" stroke="#9D9D9C" stroke-miterlimit="10" x1="306.301" y1="519.359" x2="323.469" y2="519.359"/>
	<line fill="none" stroke="#9D9D9C" stroke-miterlimit="10" x1="306.301" y1="546.693" x2="323.469" y2="546.693"/>
	<line fill="none" stroke="#000000" stroke-miterlimit="10" x1="97.954" y1="266.471" x2="115.122" y2="266.471"/>
	<line fill="none" stroke="#000000" stroke-miterlimit="10" x1="97.954" y1="254.046" x2="115.122" y2="254.046"/>
	<line fill="none" stroke="#000000" stroke-miterlimit="10" x1="97.954" y1="251.562" x2="115.122" y2="251.562"/>
	<line fill="none" stroke="#000000" stroke-miterlimit="10" x1="97.954" y1="261.501" x2="115.122" y2="261.501"/>
	<line fill="none" stroke="#000000" stroke-miterlimit="10" x1="97.954" y1="263.985" x2="115.122" y2="263.985"/>
	<line fill="none" stroke="#000000" stroke-miterlimit="10" x1="97.954" y1="259.016" x2="115.122" y2="259.016"/>
	<line fill="none" stroke="#000000" stroke-miterlimit="10" x1="97.954" y1="256.531" x2="115.122" y2="256.531"/>
	<line fill="none" stroke="#000000" stroke-miterlimit="10" x1="97.954" y1="268.955" x2="115.122" y2="268.955"/>
	<line fill="none" stroke="#000000" stroke-miterlimit="10" x1="97.954" y1="271.44" x2="115.122" y2="271.44"/>
	<line fill="none" stroke="#000000" stroke-miterlimit="10" x1="97.954" y1="273.925" x2="115.122" y2="273.925"/>
	<line fill="none" stroke="#000000" stroke-miterlimit="10" x1="97.954" y1="249.076" x2="115.122" y2="249.076"/>
	<line fill="none" stroke="#000000" stroke-miterlimit="10" x1="97.954" y1="220.421" x2="115.122" y2="220.421"/>
	<line fill="none" stroke="#000000" stroke-miterlimit="10" x1="97.954" y1="207.996" x2="115.122" y2="207.996"/>
	<line fill="none" stroke="#000000" stroke-miterlimit="10" x1="97.954" y1="205.512" x2="115.122" y2="205.512"/>
	<line fill="none" stroke="#000000" stroke-miterlimit="10" x1="97.954" y1="215.452" x2="115.122" y2="215.452"/>
	<line fill="none" stroke="#000000" stroke-miterlimit="10" x1="97.954" y1="217.937" x2="115.122" y2="217.937"/>
	<line fill="none" stroke="#000000" stroke-miterlimit="10" x1="97.954" y1="212.966" x2="115.122" y2="212.966"/>
	<line fill="none" stroke="#000000" stroke-miterlimit="10" x1="97.954" y1="210.481" x2="115.122" y2="210.481"/>
	<line fill="none" stroke="#000000" stroke-miterlimit="10" x1="97.954" y1="222.905" x2="115.122" y2="222.905"/>
	<line fill="none" stroke="#000000" stroke-miterlimit="10" x1="97.954" y1="225.392" x2="115.122" y2="225.392"/>
	<line fill="none" stroke="#000000" stroke-miterlimit="10" x1="97.954" y1="227.876" x2="115.122" y2="227.876"/>
	<polyline fill="none" stroke="#000000" stroke-miterlimit="10" points="115.122,203.026 97.954,203.026 97.954,276.41 
		115.122,276.41 	"/>
	
		<line fill="none" stroke="#9D9D9C" stroke-width="2" stroke-miterlimit="10" x1="193.236" y1="499.603" x2="193.236" y2="550.731"/>
	<polyline fill="none" stroke="#000000" stroke-width="2" stroke-miterlimit="10" points="93.736,139.525 93.736,161.026 
		117.583,161.026 	"/>
	<g>
		<g>
			
				<line fill="none" stroke="#000000" stroke-width="2" stroke-miterlimit="10" x1="113.039" y1="174.121" x2="100.037" y2="161.121"/>
			
				<line fill="none" stroke="#000000" stroke-width="2" stroke-miterlimit="10" x1="113.037" y1="161.258" x2="100.037" y2="174.259"/>
		</g>
		
			<rect x="100.037" y="161.121" transform="matrix(-0.9999 0.0146 -0.0146 -0.9999 215.5239 334.2145)" fill="none" stroke="#000000" stroke-miterlimit="10" width="13.001" height="13.551"/>
	</g>
	<g>
		<g>
			
				<line fill="none" stroke="#9D9D9C" stroke-width="2" stroke-miterlimit="10" x1="306.885" y1="541.614" x2="293.883" y2="528.614"/>
			
				<line fill="none" stroke="#9D9D9C" stroke-width="2" stroke-miterlimit="10" x1="306.883" y1="528.751" x2="293.883" y2="541.753"/>
		</g>
		
			<rect x="293.884" y="528.615" transform="matrix(-0.9999 0.0146 -0.0146 -0.9999 608.5392 1066.3463)" fill="none" stroke="#9D9D9C" stroke-miterlimit="10" width="13.001" height="13.551"/>
	</g>
	<line fill="none" stroke="#000000" stroke-miterlimit="10" x1="94.7" y1="117.996" x2="118.169" y2="117.996"/>
	<line fill="none" stroke="#000000" stroke-miterlimit="10" x1="94.7" y1="105.572" x2="118.169" y2="105.572"/>
	<line fill="none" stroke="#000000" stroke-miterlimit="10" x1="94.7" y1="103.087" x2="118.169" y2="103.087"/>
	<line fill="none" stroke="#000000" stroke-miterlimit="10" x1="94.7" y1="113.026" x2="118.169" y2="113.026"/>
	<line fill="none" stroke="#000000" stroke-miterlimit="10" x1="94.7" y1="115.512" x2="118.169" y2="115.512"/>
	<line fill="none" stroke="#000000" stroke-miterlimit="10" x1="94.7" y1="110.542" x2="118.169" y2="110.542"/>
	<line fill="none" stroke="#000000" stroke-miterlimit="10" x1="94.7" y1="108.057" x2="118.169" y2="108.057"/>
	<line fill="none" stroke="#000000" stroke-miterlimit="10" x1="94.7" y1="120.481" x2="118.169" y2="120.481"/>
	<line fill="none" stroke="#000000" stroke-miterlimit="10" x1="94.7" y1="122.966" x2="118.169" y2="122.966"/>
	<line fill="none" stroke="#000000" stroke-miterlimit="10" x1="94.7" y1="125.451" x2="118.169" y2="125.451"/>
	<line fill="none" stroke="#000000" stroke-miterlimit="10" x1="126.736" y1="117.996" x2="151.763" y2="117.996"/>
	<line fill="none" stroke="#000000" stroke-miterlimit="10" x1="126.736" y1="105.572" x2="151.763" y2="105.572"/>
	<line fill="none" stroke="#000000" stroke-miterlimit="10" x1="126.736" y1="103.087" x2="151.763" y2="103.087"/>
	<line fill="none" stroke="#000000" stroke-miterlimit="10" x1="126.736" y1="113.026" x2="151.763" y2="113.026"/>
	<line fill="none" stroke="#000000" stroke-miterlimit="10" x1="126.736" y1="115.512" x2="151.763" y2="115.512"/>
	<line fill="none" stroke="#000000" stroke-miterlimit="10" x1="126.736" y1="110.542" x2="151.763" y2="110.542"/>
	<line fill="none" stroke="#000000" stroke-miterlimit="10" x1="126.736" y1="108.057" x2="151.763" y2="108.057"/>
	<line fill="none" stroke="#000000" stroke-miterlimit="10" x1="126.736" y1="120.481" x2="151.763" y2="120.481"/>
	<line fill="none" stroke="#000000" stroke-miterlimit="10" x1="126.736" y1="122.966" x2="151.763" y2="122.966"/>
	<line fill="none" stroke="#000000" stroke-miterlimit="10" x1="126.736" y1="125.451" x2="151.763" y2="125.451"/>
	<polyline fill="none" stroke="#000000" stroke-miterlimit="10" points="126.736,125.875 126.736,103.087 118.323,103.087 
		118.323,125.875 	"/>
	<polyline fill="none" stroke="#9D9D9C" stroke-width="4" stroke-miterlimit="10" points="325.067,595.322 325.067,595.322 
		716.907,595.324 716.909,724.318 246.401,724.316 246.401,598.581 252.381,598.454 252.381,598.454 	"/>
	
		<line fill="none" stroke="#9D9D9C" stroke-width="2" stroke-miterlimit="10" x1="670.649" y1="687.849" x2="670.649" y2="724.318"/>
	<line fill="none" stroke="#9D9D9C" stroke-width="2" stroke-miterlimit="10" x1="670.649" y1="632.33" x2="670.649" y2="676.858"/>
	
		<line fill="none" stroke="#9D9D9C" stroke-width="2" stroke-miterlimit="10" x1="670.647" y1="594.585" x2="670.647" y2="623.095"/>
	<polyline fill="none" stroke="#9D9D9C" stroke-width="3" stroke-miterlimit="10" points="380.258,646.663 324.649,646.663 
		324.649,595.323 	"/>
	
		<line fill="none" stroke="#9D9D9C" stroke-width="3" stroke-miterlimit="10" x1="437.758" y1="646.664" x2="387.749" y2="646.663"/>
	<line fill="none" stroke="#9D9D9C" stroke-width="3" stroke-miterlimit="10" x1="527.78" y1="646.664" x2="445.264" y2="646.663"/>
	
		<line fill="none" stroke="#9D9D9C" stroke-width="3" stroke-miterlimit="10" x1="539.795" y1="646.663" x2="532.778" y2="646.662"/>
	
		<line fill="none" stroke="#9D9D9C" stroke-width="3" stroke-miterlimit="10" x1="551.776" y1="646.663" x2="545.293" y2="646.664"/>
	
		<line fill="none" stroke="#9D9D9C" stroke-width="3" stroke-miterlimit="10" x1="559.784" y1="646.664" x2="554.284" y2="646.663"/>
	<line fill="none" stroke="#9D9D9C" stroke-width="3" stroke-miterlimit="10" x1="573.79" y1="646.662" x2="564.774" y2="646.663"/>
	
		<line fill="none" stroke="#9D9D9C" stroke-width="3" stroke-miterlimit="10" x1="620.782" y1="646.664" x2="579.297" y2="646.663"/>
	<polyline fill="none" stroke="#9D9D9C" stroke-width="3" stroke-miterlimit="10" points="644.983,595.324 644.981,646.664 
		629.29,646.664 	"/>
	<polyline fill="none" stroke="#9D9D9C" stroke-width="3" stroke-miterlimit="10" points="343.362,668.663 324.649,668.663 
		324.649,724.317 	"/>
	<line fill="none" stroke="#9D9D9C" stroke-width="3" stroke-miterlimit="10" x1="376.625" y1="668.736" x2="351.62" y2="668.735"/>
	
		<line fill="none" stroke="#9D9D9C" stroke-width="3" stroke-miterlimit="10" x1="396.364" y1="668.663" x2="385.874" y2="668.663"/>
	<line fill="none" stroke="#9D9D9C" stroke-width="3" stroke-miterlimit="10" x1="475.983" y1="668.663" x2="405.37" y2="668.663"/>
	<path fill="none" stroke="#9D9D9C" stroke-width="3" stroke-miterlimit="10" d="M475.983,668.663"/>
	
		<line fill="none" stroke="#9D9D9C" stroke-width="3" stroke-miterlimit="10" x1="540.403" y1="668.664" x2="517.387" y2="668.664"/>
	
		<line fill="none" stroke="#9D9D9C" stroke-width="3" stroke-miterlimit="10" x1="612.391" y1="668.663" x2="548.901" y2="668.664"/>
	<polyline fill="none" stroke="#9D9D9C" stroke-width="3" stroke-miterlimit="10" points="644.981,724.317 644.981,668.664 
		620.397,668.663 	"/>
	
		<line fill="none" stroke="#9D9D9C" stroke-width="2" stroke-miterlimit="10" x1="390.315" y1="595.323" x2="390.315" y2="646.663"/>
	<polyline fill="none" stroke="#9D9D9C" stroke-width="2" stroke-miterlimit="10" points="454.647,646.663 454.649,623.545 
		473.313,623.165 	"/>
	
		<line fill="none" stroke="#9D9D9C" stroke-width="2" stroke-miterlimit="10" x1="591.983" y1="595.323" x2="591.983" y2="646.663"/>
	
		<line fill="none" stroke="#9D9D9C" stroke-width="2" stroke-miterlimit="10" x1="569.315" y1="595.323" x2="569.315" y2="646.663"/>
	
		<line fill="none" stroke="#9D9D9C" stroke-width="2" stroke-miterlimit="10" x1="547.983" y1="595.324" x2="547.983" y2="646.664"/>
	
		<line fill="none" stroke="#9D9D9C" stroke-width="2" stroke-miterlimit="10" x1="582.649" y1="668.663" x2="582.649" y2="724.318"/>
	<line fill="none" stroke="#9D9D9C" stroke-width="3" stroke-miterlimit="10" x1="516.008" y1="667.19" x2="515.983" y2="724.317"/>
	
		<line fill="none" stroke="#9D9D9C" stroke-width="3" stroke-miterlimit="10" x1="476.008" y1="667.191" x2="475.983" y2="724.318"/>
	
		<line fill="none" stroke="#9D9D9C" stroke-width="2" stroke-miterlimit="10" x1="390.315" y1="668.663" x2="390.315" y2="724.317"/>
	
		<line fill="none" stroke="#9D9D9C" stroke-width="2" stroke-miterlimit="10" x1="357.151" y1="668.614" x2="357.151" y2="724.268"/>
	
		<line fill="none" stroke="#9D9D9C" stroke-width="3" stroke-miterlimit="10" x1="473.315" y1="595.323" x2="473.313" y2="646.663"/>
	
		<line fill="none" stroke="#9D9D9C" stroke-width="3" stroke-miterlimit="10" x1="519.981" y1="595.324" x2="519.983" y2="646.664"/>
	<path fill="none" stroke="#9D9D9C" stroke-miterlimit="10" d="M488.983,646.663c0,0,0-19.374,0-25.67
		c-0.029-9.829,16.398-9.705,16.334,0.001c0.145,12.795-0.002,25.67-0.002,25.67"/>
	<line fill="none" stroke="#9D9D9C" stroke-miterlimit="10" x1="473.315" y1="635.038" x2="488.983" y2="635.038"/>
	<line fill="none" stroke="#9D9D9C" stroke-miterlimit="10" x1="473.319" y1="622.649" x2="488.989" y2="622.649"/>
	<line fill="none" stroke="#9D9D9C" stroke-miterlimit="10" x1="473.317" y1="630.082" x2="488.985" y2="630.082"/>
	<line fill="none" stroke="#9D9D9C" stroke-miterlimit="10" x1="473.315" y1="632.561" x2="488.983" y2="632.561"/>
	<line fill="none" stroke="#9D9D9C" stroke-miterlimit="10" x1="473.317" y1="627.604" x2="488.987" y2="627.604"/>
	<line fill="none" stroke="#9D9D9C" stroke-miterlimit="10" x1="473.319" y1="625.127" x2="488.987" y2="625.127"/>
	<line fill="none" stroke="#9D9D9C" stroke-miterlimit="10" x1="505.387" y1="635.056" x2="521.055" y2="635.056"/>
	<line fill="none" stroke="#9D9D9C" stroke-miterlimit="10" x1="505.391" y1="630.095" x2="521.059" y2="630.095"/>
	<line fill="none" stroke="#9D9D9C" stroke-miterlimit="10" x1="505.389" y1="632.575" x2="521.057" y2="632.575"/>
	<line fill="none" stroke="#9D9D9C" stroke-miterlimit="10" x1="505.395" y1="625.135" x2="521.063" y2="625.135"/>
	<line fill="none" stroke="#9D9D9C" stroke-miterlimit="10" x1="505.383" y1="637.537" x2="521.053" y2="637.535"/>
	<line fill="none" stroke="#9D9D9C" stroke-miterlimit="10" x1="505.383" y1="640.017" x2="521.051" y2="640.017"/>
	<line fill="none" stroke="#9D9D9C" stroke-miterlimit="10" x1="505.381" y1="642.497" x2="521.049" y2="642.497"/>
	
		<line fill="none" stroke="#9D9D9C" stroke-width="2" stroke-miterlimit="10" x1="670.647" y1="659.821" x2="716.909" y2="659.821"/>
	
		<line fill="none" stroke="#9D9D9C" stroke-width="3" stroke-miterlimit="10" x1="310.147" y1="705.053" x2="310.149" y2="724.317"/>
	
		<line fill="none" stroke="#9D9D9C" stroke-width="3" stroke-miterlimit="10" x1="310.149" y1="675.541" x2="310.149" y2="696.581"/>
	<line fill="none" stroke="#9D9D9C" stroke-width="3" stroke-miterlimit="10" x1="310.149" y1="652.588" x2="310.149" y2="668.05"/>
	<polyline fill="none" stroke="#9D9D9C" stroke-width="3" stroke-miterlimit="10" points="252.383,598.913 310.149,598.913 
		310.147,645.571 	"/>
	
		<line fill="none" stroke="#9D9D9C" stroke-width="2" stroke-miterlimit="10" x1="246.399" y1="661.615" x2="310.149" y2="661.615"/>
	<polyline fill="none" stroke="#9D9D9C" stroke-width="2" stroke-miterlimit="10" points="283.149,661.615 283.149,682.163 
		310.149,682.164 	"/>
	<polyline fill="none" stroke="#9D9D9C" stroke-width="2" stroke-miterlimit="10" points="568.788,625.38 557.034,625.38 
		557.047,645.914 	"/>
	<polyline fill="none" stroke="#9D9D9C" stroke-width="2" stroke-miterlimit="10" points="536.29,646.507 536.62,627.554 
		528.19,627.405 519.7,627.531 	"/>
	
		<line fill="none" stroke="#9D9D9C" stroke-width="2" stroke-linecap="round" stroke-miterlimit="10" x1="469.579" y1="640.596" x2="457.988" y2="628.596"/>
	
		<line fill="none" stroke="#9D9D9C" stroke-width="2" stroke-linecap="round" stroke-miterlimit="10" x1="469.781" y1="628.926" x2="457.781" y2="640.516"/>
	
		<rect x="457.281" y="628.095" transform="matrix(-1 -0.0029 0.0029 -1 925.6996 1271.0981)" fill="none" stroke="#9D9D9C" stroke-miterlimit="10" width="13" height="13.552"/>
	<line fill="none" stroke="#9D9D9C" stroke-miterlimit="10" x1="505.649" y1="627.615" x2="521.317" y2="627.615"/>
	<line fill="none" stroke="#9D9D9C" stroke-width="2" stroke-miterlimit="10" x1="454.647" y1="615.36" x2="454.647" y2="596.604"/>
	<line fill="none" stroke="#9D9D9C" stroke-miterlimit="10" x1="473.314" y1="620.171" x2="488.984" y2="620.171"/>
	<line fill="none" stroke="#9D9D9C" stroke-miterlimit="10" x1="505.648" y1="620.174" x2="521.318" y2="620.174"/>
	<line fill="none" stroke="#9D9D9C" stroke-miterlimit="10" x1="505.38" y1="622.654" x2="521.05" y2="622.654"/>
	<line fill="none" stroke="#9D9D9C" stroke-miterlimit="10" x1="473.82" y1="617.693" x2="489.49" y2="617.693"/>
	<line fill="none" stroke="#9D9D9C" stroke-miterlimit="10" x1="504.313" y1="617.693" x2="519.983" y2="617.693"/>
	<line fill="none" stroke="#000000" stroke-width="4" stroke-miterlimit="10" x1="77.456" y1="447.026" x2="118.056" y2="447.026"/>
	
		<line fill="none" stroke="#9D9D9C" stroke-width="4" stroke-miterlimit="10" x1="591.981" y1="425.359" x2="591.981" y2="258.488"/>
	
		<line fill="none" stroke="#9D9D9C" stroke-width="2" stroke-miterlimit="10" x1="729.768" y1="258.225" x2="767.728" y2="258.154"/>
	
		<line fill="none" stroke="#9D9D9C" stroke-width="2" stroke-miterlimit="10" x1="662.268" y1="258.352" x2="706.933" y2="258.268"/>
	<line fill="none" stroke="#9D9D9C" stroke-width="2" stroke-miterlimit="10" x1="632.434" y1="258.408" x2="647.101" y2="258.38"/>
	
		<line fill="none" stroke="#9D9D9C" stroke-width="2" stroke-miterlimit="10" x1="590.017" y1="258.487" x2="619.768" y2="258.431"/>
	
		<line fill="none" stroke="#9D9D9C" stroke-width="2" stroke-miterlimit="10" x1="757.267" y1="209.692" x2="767.728" y2="209.693"/>
	<polyline fill="none" stroke="#9D9D9C" stroke-width="2" stroke-miterlimit="10" points="659.767,192.025 662.936,192.025 
		662.936,183.692 711.603,183.692 711.603,203.692 740.269,203.692 740.269,209.692 749.767,209.692 	"/>
	<polyline fill="none" stroke="#9D9D9C" stroke-width="2" stroke-miterlimit="10" points="635.269,258.32 635.269,192.025 
		650.267,192.025 	"/>
	<polyline fill="none" stroke="#9D9D9C" stroke-width="4" stroke-miterlimit="10" points="591.981,258.488 591.981,46.019 
		767.728,46.019 767.728,515.641 591.981,515.641 591.981,424.463 615.392,424.463 	"/>
	
		<line fill="none" stroke="#9D9D9C" stroke-width="2" stroke-miterlimit="10" x1="614.267" y1="414.691" x2="614.267" y2="461.025"/>
	
		<line fill="none" stroke="#9D9D9C" stroke-width="2" stroke-miterlimit="10" x1="614.267" y1="363.025" x2="614.267" y2="406.525"/>
	
		<line fill="none" stroke="#9D9D9C" stroke-width="2" stroke-miterlimit="10" x1="614.267" y1="277.359" x2="614.267" y2="355.191"/>
	
		<line fill="none" stroke="#9D9D9C" stroke-width="2" stroke-miterlimit="10" x1="614.267" y1="258.488" x2="614.267" y2="270.192"/>
	<polyline fill="none" stroke="#9D9D9C" stroke-width="2" stroke-miterlimit="10" points="676.272,389.775 702.767,389.775 
		702.767,370.275 634.118,370.275 634.118,372.525 	"/>
	<polyline fill="none" stroke="#9D9D9C" stroke-width="2" stroke-miterlimit="10" points="634.118,379.691 634.118,389.775 
		669.601,389.775 	"/>
	
		<line fill="none" stroke="#9D9D9C" stroke-width="2" stroke-miterlimit="10" x1="719.101" y1="389.775" x2="724.017" y2="389.775"/>
	
		<line fill="none" stroke="#9D9D9C" stroke-width="2" stroke-miterlimit="10" x1="702.767" y1="389.775" x2="707.268" y2="389.775"/>
	
		<line fill="none" stroke="#9D9D9C" stroke-width="2" stroke-miterlimit="10" x1="724.017" y1="459.357" x2="724.017" y2="515.641"/>
	
		<line fill="none" stroke="#9D9D9C" stroke-width="2" stroke-miterlimit="10" x1="724.017" y1="370.275" x2="724.017" y2="451.191"/>
	
		<line fill="none" stroke="#9D9D9C" stroke-width="2" stroke-miterlimit="10" x1="737.101" y1="447.775" x2="767.728" y2="447.775"/>
	
		<line fill="none" stroke="#9D9D9C" stroke-width="2" stroke-miterlimit="10" x1="724.017" y1="447.775" x2="728.434" y2="447.775"/>
	<polyline fill="none" stroke="#9D9D9C" stroke-width="2" stroke-miterlimit="10" points="702.767,459.025 702.767,462.857 
		724.017,462.857 	"/>
	<polyline fill="none" stroke="#9D9D9C" stroke-width="2" stroke-miterlimit="10" points="641.268,482.525 634.517,482.525 
		634.517,467.025 634.517,447.775 702.767,447.775 702.767,451.025 	"/>
	
		<line fill="none" stroke="#9D9D9C" stroke-width="2" stroke-miterlimit="10" x1="650.767" y1="482.525" x2="647.434" y2="482.525"/>
	
		<line fill="none" stroke="#9D9D9C" stroke-width="2" stroke-miterlimit="10" x1="657.767" y1="370.275" x2="657.767" y2="389.775"/>
	
		<line fill="none" stroke="#9D9D9C" stroke-width="2" stroke-miterlimit="10" x1="686.231" y1="370.275" x2="686.231" y2="389.775"/>
	
		<line fill="none" stroke="#9D9D9C" stroke-width="2" stroke-miterlimit="10" x1="670.517" y1="509.025" x2="670.517" y2="515.641"/>
	
		<line fill="none" stroke="#9D9D9C" stroke-width="2" stroke-miterlimit="10" x1="670.517" y1="447.775" x2="670.517" y2="502.191"/>
	
		<line fill="none" stroke="#9D9D9C" stroke-width="2" stroke-miterlimit="10" x1="650.767" y1="489.191" x2="650.767" y2="515.641"/>
	
		<line fill="none" stroke="#9D9D9C" stroke-width="2" stroke-miterlimit="10" x1="650.767" y1="447.775" x2="650.767" y2="484.357"/>
	
		<line fill="none" stroke="#9D9D9C" stroke-width="2" stroke-miterlimit="10" x1="650.767" y1="467.025" x2="634.517" y2="467.025"/>
	
		<line fill="none" stroke="#9D9D9C" stroke-width="2" stroke-miterlimit="10" x1="622.934" y1="461.025" x2="591.981" y2="461.025"/>
	
		<line fill="none" stroke="#9D9D9C" stroke-width="2" stroke-miterlimit="10" x1="630.434" y1="461.025" x2="622.934" y2="461.025"/>
	
		<line fill="none" stroke="#9D9D9C" stroke-width="2" stroke-miterlimit="10" x1="634.517" y1="461.025" x2="630.434" y2="461.025"/>
	
		<line fill="none" stroke="#9D9D9C" stroke-width="2" stroke-miterlimit="10" x1="619.601" y1="477.857" x2="591.981" y2="477.857"/>
	<polyline fill="none" stroke="#9D9D9C" stroke-width="2" stroke-miterlimit="10" points="619.601,485.525 619.601,494.691 
		619.601,515.641 	"/>
	
		<line fill="none" stroke="#9D9D9C" stroke-width="2" stroke-miterlimit="10" x1="619.601" y1="475.025" x2="619.601" y2="480.025"/>
	
		<line fill="none" stroke="#9D9D9C" stroke-width="2" stroke-miterlimit="10" x1="619.601" y1="461.025" x2="619.601" y2="469.525"/>
	<polyline fill="none" stroke="#9D9D9C" stroke-width="2" stroke-miterlimit="10" points="631.103,494.799 637.434,494.857 
		637.434,515.641 	"/>
	
		<line fill="none" stroke="#9D9D9C" stroke-width="2" stroke-miterlimit="10" x1="619.601" y1="494.691" x2="623.104" y2="494.725"/>
	
		<line fill="none" stroke="#9D9D9C" stroke-width="2" stroke-miterlimit="10" x1="650.767" y1="491.691" x2="670.517" y2="491.691"/>
	<g>
		
			<line fill="none" stroke="#9D9D9C" stroke-width="2" stroke-miterlimit="10" x1="700.84" y1="386.617" x2="688.625" y2="373.402"/>
		
			<line fill="none" stroke="#9D9D9C" stroke-width="2" stroke-miterlimit="10" x1="701.063" y1="373.756" x2="688.395" y2="386.539"/>
	</g>
	<polygon fill="none" stroke="#9D9D9C" stroke-miterlimit="10" points="687.831,373.275 701.282,373.303 701.233,386.775 
		687.782,386.746 	"/>
	<line fill="none" stroke="#9D9D9C" stroke-width="2" stroke-miterlimit="10" x1="591.662" y1="69.729" x2="646.917" y2="69.729"/>
	<line fill="none" stroke="#9D9D9C" stroke-miterlimit="10" x1="602.308" y1="57.353" x2="633.308" y2="57.353"/>
	<line fill="none" stroke="#9D9D9C" stroke-miterlimit="10" x1="604.141" y1="46.019" x2="604.141" y2="69.729"/>
	<line fill="none" stroke="#9D9D9C" stroke-miterlimit="10" x1="629.68" y1="46.019" x2="629.68" y2="69.729"/>
	<line fill="none" stroke="#9D9D9C" stroke-miterlimit="10" x1="627.551" y1="46.019" x2="627.551" y2="69.729"/>
	<line fill="none" stroke="#9D9D9C" stroke-miterlimit="10" x1="625.423" y1="46.019" x2="625.423" y2="69.729"/>
	<line fill="none" stroke="#9D9D9C" stroke-miterlimit="10" x1="623.295" y1="46.019" x2="623.295" y2="69.729"/>
	<line fill="none" stroke="#9D9D9C" stroke-miterlimit="10" x1="621.167" y1="46.019" x2="621.167" y2="69.729"/>
	<line fill="none" stroke="#9D9D9C" stroke-miterlimit="10" x1="619.039" y1="46.019" x2="619.039" y2="69.729"/>
	<line fill="none" stroke="#9D9D9C" stroke-miterlimit="10" x1="616.911" y1="46.019" x2="616.911" y2="69.729"/>
	<line fill="none" stroke="#9D9D9C" stroke-miterlimit="10" x1="614.783" y1="46.019" x2="614.783" y2="69.729"/>
	<line fill="none" stroke="#9D9D9C" stroke-miterlimit="10" x1="612.654" y1="46.019" x2="612.654" y2="69.729"/>
	<line fill="none" stroke="#9D9D9C" stroke-miterlimit="10" x1="610.525" y1="46.019" x2="610.525" y2="69.729"/>
	<line fill="none" stroke="#9D9D9C" stroke-miterlimit="10" x1="608.398" y1="46.019" x2="608.398" y2="69.729"/>
	<line fill="none" stroke="#9D9D9C" stroke-miterlimit="10" x1="606.269" y1="46.019" x2="606.269" y2="69.729"/>
	<line fill="none" stroke="#9D9D9C" stroke-miterlimit="10" x1="631.808" y1="46.019" x2="631.808" y2="69.729"/>
	
		<rect x="634.517" y="406.525" fill="none" stroke="#9D9D9C" stroke-width="2" stroke-miterlimit="10" width="69.149" height="23.359"/>
	<line fill="none" stroke="#9D9D9C" stroke-miterlimit="10" x1="636.642" y1="430.219" x2="636.642" y2="446.719"/>
	<line fill="none" stroke="#9D9D9C" stroke-miterlimit="10" x1="639.309" y1="429.885" x2="639.309" y2="446.719"/>
	<line fill="none" stroke="#9D9D9C" stroke-miterlimit="10" x1="641.975" y1="429.885" x2="641.975" y2="446.719"/>
	<line fill="none" stroke="#9D9D9C" stroke-miterlimit="10" x1="665.975" y1="429.885" x2="665.975" y2="446.719"/>
	<line fill="none" stroke="#9D9D9C" stroke-miterlimit="10" x1="652.642" y1="429.885" x2="652.642" y2="446.719"/>
	<line fill="none" stroke="#9D9D9C" stroke-miterlimit="10" x1="649.975" y1="429.885" x2="649.975" y2="446.719"/>
	<line fill="none" stroke="#9D9D9C" stroke-miterlimit="10" x1="647.309" y1="429.885" x2="647.309" y2="446.719"/>
	<line fill="none" stroke="#9D9D9C" stroke-miterlimit="10" x1="644.642" y1="429.885" x2="644.642" y2="446.719"/>
	<line fill="none" stroke="#9D9D9C" stroke-miterlimit="10" x1="697.975" y1="429.885" x2="697.975" y2="446.719"/>
	<line fill="none" stroke="#9D9D9C" stroke-miterlimit="10" x1="695.309" y1="429.885" x2="695.309" y2="446.719"/>
	<line fill="none" stroke="#9D9D9C" stroke-miterlimit="10" x1="692.642" y1="429.885" x2="692.642" y2="446.719"/>
	<line fill="none" stroke="#9D9D9C" stroke-miterlimit="10" x1="689.975" y1="429.885" x2="689.975" y2="446.719"/>
	<line fill="none" stroke="#9D9D9C" stroke-miterlimit="10" x1="687.309" y1="429.885" x2="687.309" y2="446.719"/>
	<line fill="none" stroke="#9D9D9C" stroke-miterlimit="10" x1="700.642" y1="429.885" x2="700.642" y2="446.719"/>
	<line fill="none" stroke="#9D9D9C" stroke-miterlimit="10" x1="684.642" y1="429.885" x2="684.642" y2="446.719"/>
	<line fill="none" stroke="#9D9D9C" stroke-miterlimit="10" x1="681.975" y1="429.885" x2="681.975" y2="446.719"/>
	<line fill="none" stroke="#9D9D9C" stroke-miterlimit="10" x1="671.309" y1="429.885" x2="671.309" y2="446.719"/>
	<line fill="none" stroke="#9D9D9C" stroke-miterlimit="10" x1="668.642" y1="429.885" x2="668.642" y2="446.719"/>
	<line fill="none" stroke="#9D9D9C" stroke-miterlimit="10" x1="679.309" y1="429.885" x2="679.309" y2="446.719"/>
	<line fill="none" stroke="#9D9D9C" stroke-miterlimit="10" x1="676.642" y1="429.885" x2="676.642" y2="446.719"/>
	<line fill="none" stroke="#9D9D9C" stroke-miterlimit="10" x1="673.975" y1="429.885" x2="673.975" y2="446.719"/>
	<line fill="none" stroke="#9D9D9C" stroke-miterlimit="10" x1="663.309" y1="429.885" x2="663.309" y2="446.719"/>
	<line fill="none" stroke="#9D9D9C" stroke-miterlimit="10" x1="660.642" y1="429.885" x2="660.642" y2="446.719"/>
	<line fill="none" stroke="#9D9D9C" stroke-miterlimit="10" x1="657.975" y1="429.885" x2="657.975" y2="446.719"/>
	<line fill="none" stroke="#9D9D9C" stroke-miterlimit="10" x1="655.309" y1="429.885" x2="655.309" y2="446.719"/>
	
		<line fill="none" stroke="#9D9D9C" stroke-width="3" stroke-miterlimit="10" x1="117.212" y1="499.686" x2="155.986" y2="499.644"/>
	
		<line fill="none" stroke="#000000" stroke-width="3" stroke-miterlimit="10" x1="117.212" y1="553.471" x2="117.212" y2="498.218"/>
	<polyline fill="none" stroke="#9D9D9C" stroke-width="4" stroke-miterlimit="10" points="115.635,474.192 325.153,474.192 
		325.164,596.832 	"/>
	<polyline fill="none" stroke="#000000" stroke-width="4" stroke-miterlimit="10" points="117.749,548.787 117.749,609.185 
		26.252,609.185 26.252,247.704 12.753,247.704 12.753,66.213 24.752,66.213 24.751,18.215 117.212,18.215 117.212,55.714 
		269.82,55.715 269.819,169.708 117.212,169.708 117.087,476.221 	"/>
	<g>
		<path fill="#010202" d="M108.992,316.096v1.416h0.786C109.442,317.257,109.163,316.75,108.992,316.096L108.992,316.096z"/>
		<path fill="#010202" d="M109.796,311.693h-7.168v0.021c-0.584,0.169-1.085,1.396-1.085,2.888h-0.006v6.364h7.272v-2v-4.182v-0.182
			C108.81,313.253,109.224,312.107,109.796,311.693L109.796,311.693z"/>
		<path fill="#010202" d="M110.388,315.451c-0.203,0-0.367-0.391-0.367-0.842c0-0.451,0.165-0.837,0.367-0.837
			c0.203,0,0.368,0.387,0.368,0.837C110.755,315.06,110.591,315.451,110.388,315.451L110.388,315.451z M110.265,311.708
			c-0.689,0-1.272,1.326-1.272,2.894c0,1.55,0.595,2.909,1.272,2.909c0.678,0,1.273-1.359,1.273-2.909
			C111.538,313.034,110.955,311.708,110.265,311.708L110.265,311.708z"/>
	</g>
</g>
</svg>
