<?xml version="1.0" encoding="utf-8"?>
<!-- Generator: Adobe Illustrator 15.0.0, SVG Export Plug-In . SVG Version: 6.00 Build 0)  -->
<!DOCTYPE svg PUBLIC "-//W3C//DTD SVG 1.1//EN" "http://www.w3.org/Graphics/SVG/1.1/DTD/svg11.dtd">
<svg version="1.1" xmlns="http://www.w3.org/2000/svg" xmlns:xlink="http://www.w3.org/1999/xlink" x="0px" y="0px"
	 width="779.961px" height="742.461px" viewBox="0 0 779.961 742.461" enable-background="new 0 0 779.961 742.461"
	 xml:space="preserve">
<g id="Ebene_1" display="none">
	
		<image display="inline" overflow="visible" width="960" height="720" xlink:href="1OG.jpg"  transform="matrix(1.1811 0 0 1.1811 -253.2261 9.3716)">
	</image>
</g>
<g id="Ebene_2" display="none">
	
		<image display="inline" overflow="visible" width="960" height="720" xlink:href="1OG_Haus2.jpg"  transform="matrix(0.5197 0 0 0.5197 217.3428 455.8486)">
	</image>
</g>
<g id="Ebene_3" display="none">
	<g display="inline">
		<defs>
			<rect id="SVGID_1_" x="-166.751" y="-10.45" width="399.715" height="646.299"/>
		</defs>
		<clipPath id="SVGID_2_">
			<use xlink:href="#SVGID_1_"  overflow="visible"/>
		</clipPath>
		<g transform="matrix(1 0 0 1 2.371682e-006 -6.573663e-008)" clip-path="url(#SVGID_2_)">
			
				<image overflow="visible" width="720" height="960" xlink:href="1OG_Haus3.jpg"  transform="matrix(0.754 0 0 0.754 -166.7544 -10.4536)">
			</image>
		</g>
	</g>
</g>
<g id="Ebene_4">
	<polyline fill="none" stroke="#B2B2B2" stroke-width="4" stroke-miterlimit="10" points="25.916,470.893 25.916,249.07 
		12.416,249.07 12.416,67.579 24.416,67.579 24.415,19.581 116.875,19.581 116.875,57.08 269.482,57.081 269.481,171.074 
		116.875,171.074 116.875,475.559 	"/>
	<polyline fill="none" stroke="#000000" stroke-width="4" stroke-miterlimit="10" points="117.411,552.098 117.411,610.551 
		25.916,610.551 25.916,470.893 	"/>
	<polyline fill="none" stroke="#000000" stroke-width="4" stroke-miterlimit="10" points="252.208,600.697 252.133,552.098 
		117.411,552.098 	"/>
	<polyline fill="none" stroke="#000000" stroke-width="3" stroke-miterlimit="10" points="230.398,500.93 275.648,500.88 
		275.648,551.623 250.933,551.623 	"/>
	<line fill="none" stroke="#000000" stroke-width="3" stroke-miterlimit="10" x1="164.148" y1="501" x2="220.898" y2="500.939"/>
	<polyline fill="none" stroke="#000000" stroke-width="3" stroke-miterlimit="10" points="116.875,553.227 116.875,501.051 
		155.648,501.01 	"/>
	<polyline fill="none" stroke="#000000" stroke-width="3" stroke-miterlimit="10" points="101.648,540.768 116.875,540.768 
		116.875,553.227 	"/>
	<line fill="none" stroke="#000000" stroke-width="3" stroke-miterlimit="10" x1="46.899" y1="540.768" x2="94.399" y2="540.768"/>
	<polyline fill="none" stroke="#000000" stroke-width="3" stroke-miterlimit="10" points="33.122,540.768 26.339,540.768 
		38.148,540.768 	"/>
	<polyline fill="none" stroke="#000000" stroke-width="3" stroke-miterlimit="10" points="76.184,493.643 76.184,540.768 
		45.898,540.768 	"/>
	<line fill="none" stroke="#B2B2B2" stroke-width="3" stroke-miterlimit="10" x1="76.184" y1="438.143" x2="76.184" y2="470.893"/>
	<line fill="none" stroke="#B2B2B2" stroke-width="3" stroke-miterlimit="10" x1="76.184" y1="421.643" x2="76.184" y2="431.643"/>
	<line fill="none" stroke="#B2B2B2" stroke-width="3" stroke-miterlimit="10" x1="76.184" y1="377.393" x2="76.184" y2="414.643"/>
	<line fill="none" stroke="#B2B2B2" stroke-width="3" stroke-miterlimit="10" x1="76.184" y1="347.393" x2="76.184" y2="368.726"/>
	<line fill="none" stroke="#B2B2B2" stroke-width="3" stroke-miterlimit="10" x1="76.184" y1="335.393" x2="76.184" y2="341.726"/>
	<line fill="none" stroke="#B2B2B2" stroke-width="3" stroke-miterlimit="10" x1="76.184" y1="319.393" x2="76.184" y2="330.06"/>
	<line fill="none" stroke="#B2B2B2" stroke-width="3" stroke-miterlimit="10" x1="76.184" y1="312.726" x2="76.184" y2="319.393"/>
	<line fill="none" stroke="#B2B2B2" stroke-width="3" stroke-miterlimit="10" x1="76.184" y1="292.06" x2="76.184" y2="312.726"/>
	<line fill="none" stroke="#B2B2B2" stroke-width="3" stroke-miterlimit="10" x1="76.184" y1="269.06" x2="76.184" y2="283.393"/>
	<line fill="none" stroke="#B2B2B2" stroke-width="3" stroke-miterlimit="10" x1="76.184" y1="245.392" x2="76.184" y2="261.725"/>
	<line fill="none" stroke="#B2B2B2" stroke-width="3" stroke-miterlimit="10" x1="76.184" y1="154.06" x2="76.184" y2="237.393"/>
	<line fill="none" stroke="#B2B2B2" stroke-width="3" stroke-miterlimit="10" x1="76.184" y1="130.725" x2="76.184" y2="147.726"/>
	<polyline fill="none" stroke="#B2B2B2" stroke-width="3" stroke-miterlimit="10" points="23.332,67.891 76.184,67.891 
		76.184,122.059 	"/>
	<line stroke="#B2B2B2" stroke-width="3" stroke-miterlimit="10" x1="52.398" y1="250.442" x2="74.898" y2="250.442"/>
	<line stroke="#B2B2B2" stroke-width="3" stroke-miterlimit="10" x1="23.999" y1="250.442" x2="45.398" y2="250.442"/>
	<line stroke="#000000" stroke-width="2" stroke-miterlimit="10" x1="23.898" y1="470.893" x2="74.898" y2="470.893"/>
	<line stroke="#B2B2B2" stroke-width="2" stroke-miterlimit="10" x1="25.916" y1="428.393" x2="74.898" y2="428.393"/>
	<line stroke="#B2B2B2" stroke-width="3" stroke-miterlimit="10" x1="25.916" y1="384.893" x2="74.898" y2="384.893"/>
	<line stroke="#B2B2B2" stroke-width="2" stroke-miterlimit="10" x1="67.066" y1="344.23" x2="74.898" y2="344.23"/>
	<line stroke="#B2B2B2" stroke-width="2" stroke-miterlimit="10" x1="25.916" y1="344.23" x2="59.398" y2="344.23"/>
	<line stroke="#B2B2B2" stroke-width="2" stroke-miterlimit="10" x1="23.999" y1="322.893" x2="75.648" y2="322.893"/>
	<line stroke="#B2B2B2" stroke-width="3" stroke-miterlimit="10" x1="23.999" y1="297.893" x2="75.648" y2="297.893"/>
	<line stroke="#B2B2B2" stroke-width="2" stroke-miterlimit="10" x1="23.999" y1="277.393" x2="74.898" y2="277.393"/>
	<line stroke="#B2B2B2" stroke-width="2" stroke-miterlimit="10" x1="12.416" y1="204.393" x2="74.898" y2="204.393"/>
	<line stroke="#B2B2B2" stroke-width="2" stroke-miterlimit="10" x1="12.416" y1="139.893" x2="74.898" y2="139.893"/>
	<line fill="none" stroke="#B2B2B2" stroke-width="2" stroke-miterlimit="10" x1="77.149" y1="56.393" x2="77.149" y2="19.498"/>
	<path fill="none" stroke="#B2B2B2" stroke-width="2" stroke-miterlimit="10" d="M77.149,56.393"/>
	<polyline fill="none" stroke="#B2B2B2" stroke-width="2" stroke-miterlimit="10" points="74.857,67.409 77.149,67.409 
		77.149,64.726 	"/>
	<line fill="none" stroke="#B2B2B2" stroke-width="3" stroke-miterlimit="10" x1="95.526" y1="384.893" x2="118.911" y2="384.893"/>
	<line fill="none" stroke="#B2B2B2" stroke-width="3" stroke-miterlimit="10" x1="118.911" y1="297.893" x2="95.526" y2="297.893"/>
	<line fill="none" stroke="#B2B2B2" stroke-width="2" stroke-miterlimit="10" x1="95.526" y1="363.726" x2="95.526" y2="386.392"/>
	<line fill="none" stroke="#B2B2B2" stroke-width="2" stroke-miterlimit="10" x1="95.526" y1="313.06" x2="95.526" y2="355.726"/>
	<line fill="none" stroke="#B2B2B2" stroke-width="2" stroke-miterlimit="10" x1="95.526" y1="296.363" x2="95.526" y2="305.06"/>
	<line fill="none" stroke="#B2B2B2" stroke-width="2" stroke-miterlimit="10" x1="108.148" y1="426.56" x2="118.411" y2="426.56"/>
	<polyline fill="none" stroke="#B2B2B2" stroke-width="2" stroke-miterlimit="10" points="118.411,448.393 95.065,448.393 
		95.065,426.56 100.148,426.56 	"/>
	<polyline fill="none" stroke="#B2B2B2" stroke-width="2" stroke-miterlimit="10" points="116.45,88.726 116.45,54.393 
		77.149,54.393 	"/>
	<path fill="none" stroke="#B2B2B2" stroke-width="2" stroke-miterlimit="10" d="M116.45,172.144v-31.251
		c0,0,26.599-3.373,29.949-3.833c3.708-0.667,5.042-1,5.343-5.833c0-6.083,0-28.083,0-33.333c0-3.542-3.051-5.167-6.343-5.667
		c-7.667-1.167-28.949-4.333-28.949-4.333l-23.051,0.833v52.166l23.051,0.001c0,0,26.599-3.373,29.949-3.833
		c3.708-0.667,5.343-1.708,5.343-5.833"/>
	<line fill="none" stroke="#000000" stroke-miterlimit="10" x1="77.214" y1="525.695" x2="85.798" y2="525.695"/>
	<line fill="none" stroke="#000000" stroke-miterlimit="10" x1="77.214" y1="513.271" x2="85.798" y2="513.271"/>
	<line fill="none" stroke="#000000" stroke-miterlimit="10" x1="77.214" y1="510.786" x2="85.798" y2="510.786"/>
	<line fill="none" stroke="#000000" stroke-miterlimit="10" x1="77.214" y1="520.726" x2="85.798" y2="520.726"/>
	<line fill="none" stroke="#000000" stroke-miterlimit="10" x1="77.214" y1="523.21" x2="85.798" y2="523.21"/>
	<line fill="none" stroke="#000000" stroke-miterlimit="10" x1="77.214" y1="518.24" x2="85.798" y2="518.24"/>
	<line fill="none" stroke="#000000" stroke-miterlimit="10" x1="77.214" y1="515.756" x2="85.798" y2="515.756"/>
	<line fill="none" stroke="#000000" stroke-miterlimit="10" x1="77.214" y1="508.301" x2="106.714" y2="508.301"/>
	<line fill="none" stroke="#000000" stroke-miterlimit="10" x1="276.964" y1="538.12" x2="294.132" y2="538.12"/>
	<line fill="none" stroke="#000000" stroke-miterlimit="10" x1="276.964" y1="525.695" x2="294.132" y2="525.695"/>
	<line fill="none" stroke="#000000" stroke-miterlimit="10" x1="276.964" y1="523.211" x2="294.132" y2="523.211"/>
	<line fill="none" stroke="#000000" stroke-miterlimit="10" x1="276.964" y1="533.15" x2="294.132" y2="533.15"/>
	<line fill="none" stroke="#000000" stroke-miterlimit="10" x1="276.964" y1="535.635" x2="294.132" y2="535.635"/>
	<line fill="none" stroke="#000000" stroke-miterlimit="10" x1="276.964" y1="530.665" x2="294.132" y2="530.665"/>
	<line fill="none" stroke="#000000" stroke-miterlimit="10" x1="276.964" y1="528.181" x2="294.132" y2="528.181"/>
	<line fill="none" stroke="#000000" stroke-miterlimit="10" x1="276.964" y1="540.604" x2="294.132" y2="540.604"/>
	<line fill="none" stroke="#000000" stroke-miterlimit="10" x1="276.964" y1="543.09" x2="294.132" y2="543.09"/>
	<line fill="none" stroke="#000000" stroke-miterlimit="10" x1="276.964" y1="545.574" x2="294.132" y2="545.574"/>
	<line fill="none" stroke="#000000" stroke-miterlimit="10" x1="276.964" y1="520.726" x2="294.132" y2="520.726"/>
	<line fill="none" stroke="#000000" stroke-miterlimit="10" x1="276.964" y1="548.06" x2="294.132" y2="548.06"/>
	<polyline fill="none" stroke="#000000" stroke-miterlimit="10" points="294.132,548.558 294.132,515.393 305.964,515.393 
		305.964,548.558 	"/>
	<line fill="none" stroke="#000000" stroke-miterlimit="10" x1="104.39" y1="508.301" x2="104.39" y2="499.717"/>
	<line fill="none" stroke="#000000" stroke-miterlimit="10" x1="92.771" y1="508.301" x2="92.771" y2="499.717"/>
	<line fill="none" stroke="#000000" stroke-miterlimit="10" x1="90.446" y1="508.301" x2="90.446" y2="499.717"/>
	<line fill="none" stroke="#000000" stroke-miterlimit="10" x1="99.742" y1="508.301" x2="99.742" y2="499.717"/>
	<line fill="none" stroke="#000000" stroke-miterlimit="10" x1="102.066" y1="508.301" x2="102.066" y2="499.717"/>
	<line fill="none" stroke="#000000" stroke-miterlimit="10" x1="97.418" y1="508.301" x2="97.418" y2="499.717"/>
	<line fill="none" stroke="#000000" stroke-miterlimit="10" x1="95.094" y1="508.301" x2="95.094" y2="499.717"/>
	<line fill="none" stroke="#000000" stroke-miterlimit="10" x1="88.123" y1="508.301" x2="88.123" y2="499.717"/>
	<line fill="none" stroke="#000000" stroke-miterlimit="10" x1="106.227" y1="525.695" x2="115.298" y2="525.695"/>
	<line fill="none" stroke="#000000" stroke-miterlimit="10" x1="106.714" y1="520.726" x2="115.298" y2="520.726"/>
	<line fill="none" stroke="#000000" stroke-miterlimit="10" x1="106.714" y1="523.21" x2="115.298" y2="523.21"/>
	<line fill="none" stroke="#000000" stroke-miterlimit="10" x1="106.714" y1="518.24" x2="115.298" y2="518.24"/>
	<line fill="none" stroke="#000000" stroke-miterlimit="10" x1="106.714" y1="526.08" x2="106.714" y2="499.718"/>
	<line fill="none" stroke="#000000" stroke-miterlimit="10" x1="77.214" y1="499.718" x2="107.205" y2="499.718"/>
	<line fill="none" stroke="#000000" stroke-miterlimit="10" x1="85.798" y1="526.189" x2="85.798" y2="499.718"/>
	<line fill="none" stroke="#B2B2B2" stroke-width="2" stroke-miterlimit="10" x1="95.526" y1="339.393" x2="116.875" y2="339.393"/>
	<line fill="none" stroke="#000000" stroke-miterlimit="10" x1="305.964" y1="538.12" x2="323.132" y2="538.12"/>
	<line fill="none" stroke="#000000" stroke-miterlimit="10" x1="305.964" y1="525.695" x2="323.132" y2="525.695"/>
	<line fill="none" stroke="#000000" stroke-miterlimit="10" x1="305.964" y1="523.211" x2="323.132" y2="523.211"/>
	<line fill="none" stroke="#000000" stroke-miterlimit="10" x1="305.964" y1="533.15" x2="323.132" y2="533.15"/>
	<line fill="none" stroke="#000000" stroke-miterlimit="10" x1="305.964" y1="535.635" x2="323.132" y2="535.635"/>
	<line fill="none" stroke="#000000" stroke-miterlimit="10" x1="305.964" y1="530.665" x2="323.132" y2="530.665"/>
	<line fill="none" stroke="#000000" stroke-miterlimit="10" x1="305.964" y1="528.181" x2="323.132" y2="528.181"/>
	<line fill="none" stroke="#000000" stroke-miterlimit="10" x1="305.964" y1="540.604" x2="323.132" y2="540.604"/>
	<line fill="none" stroke="#000000" stroke-miterlimit="10" x1="305.964" y1="543.09" x2="323.132" y2="543.09"/>
	<line fill="none" stroke="#000000" stroke-miterlimit="10" x1="305.964" y1="545.574" x2="323.132" y2="545.574"/>
	<line fill="none" stroke="#000000" stroke-miterlimit="10" x1="305.964" y1="520.726" x2="323.132" y2="520.726"/>
	<line fill="none" stroke="#000000" stroke-miterlimit="10" x1="305.964" y1="548.06" x2="323.132" y2="548.06"/>
	<line fill="none" stroke="#B2B2B2" stroke-miterlimit="10" x1="97.617" y1="267.836" x2="114.785" y2="267.836"/>
	<line fill="none" stroke="#B2B2B2" stroke-miterlimit="10" x1="97.617" y1="255.412" x2="114.785" y2="255.412"/>
	<line fill="none" stroke="#B2B2B2" stroke-miterlimit="10" x1="97.617" y1="252.927" x2="114.785" y2="252.927"/>
	<line fill="none" stroke="#B2B2B2" stroke-miterlimit="10" x1="97.617" y1="262.867" x2="114.785" y2="262.867"/>
	<line fill="none" stroke="#B2B2B2" stroke-miterlimit="10" x1="97.617" y1="265.351" x2="114.785" y2="265.351"/>
	<line fill="none" stroke="#B2B2B2" stroke-miterlimit="10" x1="97.617" y1="260.381" x2="114.785" y2="260.381"/>
	<line fill="none" stroke="#B2B2B2" stroke-miterlimit="10" x1="97.617" y1="257.897" x2="114.785" y2="257.897"/>
	<line fill="none" stroke="#B2B2B2" stroke-miterlimit="10" x1="97.617" y1="270.321" x2="114.785" y2="270.321"/>
	<line fill="none" stroke="#B2B2B2" stroke-miterlimit="10" x1="97.617" y1="272.806" x2="114.785" y2="272.806"/>
	<line fill="none" stroke="#B2B2B2" stroke-miterlimit="10" x1="97.617" y1="275.291" x2="114.785" y2="275.291"/>
	<line fill="none" stroke="#B2B2B2" stroke-miterlimit="10" x1="97.617" y1="250.442" x2="114.785" y2="250.442"/>
	<line fill="none" stroke="#B2B2B2" stroke-miterlimit="10" x1="97.617" y1="221.787" x2="114.785" y2="221.787"/>
	<line fill="none" stroke="#B2B2B2" stroke-miterlimit="10" x1="97.617" y1="209.362" x2="114.785" y2="209.362"/>
	<line fill="none" stroke="#B2B2B2" stroke-miterlimit="10" x1="97.617" y1="206.878" x2="114.785" y2="206.878"/>
	<line fill="none" stroke="#B2B2B2" stroke-miterlimit="10" x1="97.617" y1="216.818" x2="114.785" y2="216.818"/>
	<line fill="none" stroke="#B2B2B2" stroke-miterlimit="10" x1="97.617" y1="219.302" x2="114.785" y2="219.302"/>
	<line fill="none" stroke="#B2B2B2" stroke-miterlimit="10" x1="97.617" y1="214.332" x2="114.785" y2="214.332"/>
	<line fill="none" stroke="#B2B2B2" stroke-miterlimit="10" x1="97.617" y1="211.847" x2="114.785" y2="211.847"/>
	<line fill="none" stroke="#B2B2B2" stroke-miterlimit="10" x1="97.617" y1="224.271" x2="114.785" y2="224.271"/>
	<line fill="none" stroke="#B2B2B2" stroke-miterlimit="10" x1="97.617" y1="226.757" x2="114.785" y2="226.757"/>
	<line fill="none" stroke="#B2B2B2" stroke-miterlimit="10" x1="97.617" y1="229.242" x2="114.785" y2="229.242"/>
	<polyline fill="none" stroke="#B2B2B2" stroke-miterlimit="10" points="114.785,204.393 97.617,204.393 97.617,277.776 
		114.785,277.776 	"/>
	
		<line fill="none" stroke="#000000" stroke-width="2" stroke-miterlimit="10" x1="192.898" y1="500.969" x2="192.898" y2="552.098"/>
	<polyline fill="none" stroke="#B2B2B2" stroke-width="2" stroke-miterlimit="10" points="93.398,140.892 93.398,162.393 
		117.246,162.393 	"/>
	<g>
		<g>
			
				<line fill="none" stroke="#B2B2B2" stroke-width="2" stroke-miterlimit="10" x1="112.701" y1="175.487" x2="99.699" y2="162.487"/>
			
				<line fill="none" stroke="#B2B2B2" stroke-width="2" stroke-miterlimit="10" x1="112.699" y1="162.624" x2="99.699" y2="175.625"/>
		</g>
		
			<rect x="99.7" y="162.487" transform="matrix(-0.9999 0.0146 -0.0146 -0.9999 214.8628 336.9553)" fill="none" stroke="#B2B2B2" stroke-miterlimit="10" width="13.001" height="13.551"/>
	</g>
	<g>
		<g>
			
				<line fill="none" stroke="#000000" stroke-width="2" stroke-miterlimit="10" x1="306.548" y1="542.98" x2="293.546" y2="529.98"/>
			
				<line fill="none" stroke="#000000" stroke-width="2" stroke-miterlimit="10" x1="306.546" y1="530.117" x2="293.546" y2="543.119"/>
		</g>
		
			<rect x="293.547" y="529.981" transform="matrix(-0.9999 0.0146 -0.0146 -0.9999 607.8844 1069.0835)" fill="none" stroke="#000000" stroke-miterlimit="10" width="13.001" height="13.551"/>
	</g>
	<g>
		
			<rect x="591.112" y="47.386" fill="none" stroke="#9D9D9C" stroke-width="4" stroke-miterlimit="10" width="175.747" height="469.622"/>
		
			<line fill="none" stroke="#9D9D9C" stroke-width="4" stroke-miterlimit="10" x1="637.379" y1="597.971" x2="637.379" y2="517.008"/>
		
			<line fill="none" stroke="#9D9D9C" stroke-width="4" stroke-miterlimit="10" x1="678.985" y1="597.971" x2="678.985" y2="517.009"/>
	</g>
	<polyline fill="none" stroke="#000000" stroke-width="4" stroke-miterlimit="10" points="324.729,596.688 324.729,596.688 
		716.569,596.69 716.571,725.685 246.063,725.683 246.063,599.947 252.044,599.82 252.044,599.82 	"/>
	
		<line fill="none" stroke="#000000" stroke-width="2" stroke-miterlimit="10" x1="670.312" y1="689.215" x2="670.312" y2="725.685"/>
	
		<line fill="none" stroke="#000000" stroke-width="2" stroke-miterlimit="10" x1="670.312" y1="633.696" x2="670.312" y2="678.225"/>
	<line fill="none" stroke="#000000" stroke-width="2" stroke-miterlimit="10" x1="670.31" y1="595.951" x2="670.31" y2="624.461"/>
	<polyline fill="none" stroke="#000000" stroke-width="3" stroke-miterlimit="10" points="379.921,648.029 324.312,648.029 
		324.312,596.689 	"/>
	<line fill="none" stroke="#000000" stroke-width="3" stroke-miterlimit="10" x1="437.421" y1="648.03" x2="387.411" y2="648.029"/>
	<line fill="none" stroke="#000000" stroke-width="3" stroke-miterlimit="10" x1="527.442" y1="648.03" x2="444.927" y2="648.029"/>
	<line fill="none" stroke="#000000" stroke-width="3" stroke-miterlimit="10" x1="539.458" y1="648.029" x2="532.44" y2="648.028"/>
	<line fill="none" stroke="#000000" stroke-width="3" stroke-miterlimit="10" x1="551.438" y1="648.029" x2="544.956" y2="648.03"/>
	<line fill="none" stroke="#000000" stroke-width="3" stroke-miterlimit="10" x1="559.446" y1="648.03" x2="553.946" y2="648.029"/>
	
		<line fill="none" stroke="#000000" stroke-width="3" stroke-miterlimit="10" x1="573.452" y1="648.028" x2="564.437" y2="648.029"/>
	<line fill="none" stroke="#000000" stroke-width="3" stroke-miterlimit="10" x1="620.444" y1="648.03" x2="578.96" y2="648.029"/>
	<polyline fill="none" stroke="#000000" stroke-width="3" stroke-miterlimit="10" points="644.646,596.69 644.644,648.03 
		628.952,648.03 	"/>
	<polyline fill="none" stroke="#000000" stroke-width="3" stroke-miterlimit="10" points="343.024,670.029 324.312,670.029 
		324.312,725.684 	"/>
	
		<line fill="none" stroke="#000000" stroke-width="3" stroke-miterlimit="10" x1="376.288" y1="670.103" x2="351.282" y2="670.102"/>
	
		<line fill="none" stroke="#000000" stroke-width="3" stroke-miterlimit="10" x1="396.026" y1="670.029" x2="385.536" y2="670.029"/>
	
		<line fill="none" stroke="#000000" stroke-width="3" stroke-miterlimit="10" x1="475.646" y1="670.029" x2="405.032" y2="670.029"/>
	<path fill="none" stroke="#000000" stroke-width="3" stroke-miterlimit="10" d="M475.646,670.029"/>
	<line fill="none" stroke="#000000" stroke-width="3" stroke-miterlimit="10" x1="540.065" y1="670.03" x2="517.05" y2="670.03"/>
	<line fill="none" stroke="#000000" stroke-width="3" stroke-miterlimit="10" x1="612.054" y1="670.029" x2="548.563" y2="670.03"/>
	<polyline fill="none" stroke="#000000" stroke-width="3" stroke-miterlimit="10" points="644.644,725.684 644.644,670.03 
		620.06,670.029 	"/>
	
		<line fill="none" stroke="#000000" stroke-width="2" stroke-miterlimit="10" x1="389.978" y1="596.689" x2="389.978" y2="648.029"/>
	<polyline fill="none" stroke="#000000" stroke-width="2" stroke-miterlimit="10" points="454.31,648.029 454.312,624.911 
		472.976,624.531 	"/>
	
		<line fill="none" stroke="#000000" stroke-width="2" stroke-miterlimit="10" x1="591.646" y1="596.689" x2="591.646" y2="648.029"/>
	
		<line fill="none" stroke="#000000" stroke-width="2" stroke-miterlimit="10" x1="568.978" y1="596.689" x2="568.978" y2="648.029"/>
	<line fill="none" stroke="#000000" stroke-width="2" stroke-miterlimit="10" x1="547.646" y1="596.69" x2="547.646" y2="648.03"/>
	
		<line fill="none" stroke="#000000" stroke-width="2" stroke-miterlimit="10" x1="582.312" y1="670.029" x2="582.312" y2="725.685"/>
	
		<line fill="none" stroke="#000000" stroke-width="3" stroke-miterlimit="10" x1="515.671" y1="668.557" x2="515.646" y2="725.684"/>
	
		<line fill="none" stroke="#000000" stroke-width="3" stroke-miterlimit="10" x1="475.671" y1="668.558" x2="475.646" y2="725.685"/>
	
		<line fill="none" stroke="#000000" stroke-width="2" stroke-miterlimit="10" x1="389.978" y1="670.029" x2="389.978" y2="725.684"/>
	<line fill="none" stroke="#000000" stroke-width="2" stroke-miterlimit="10" x1="356.813" y1="669.98" x2="356.813" y2="725.634"/>
	
		<line fill="none" stroke="#000000" stroke-width="3" stroke-miterlimit="10" x1="472.978" y1="596.689" x2="472.976" y2="648.029"/>
	<line fill="none" stroke="#000000" stroke-width="3" stroke-miterlimit="10" x1="519.644" y1="596.69" x2="519.646" y2="648.03"/>
	<path fill="none" stroke="#000000" stroke-miterlimit="10" d="M488.646,648.029c0,0,0-19.374,0-25.67
		c-0.029-9.829,16.398-9.705,16.334,0.001c0.145,12.795-0.002,25.67-0.002,25.67"/>
	<line fill="none" stroke="#000000" stroke-miterlimit="10" x1="472.978" y1="636.404" x2="488.646" y2="636.404"/>
	<line fill="none" stroke="#000000" stroke-miterlimit="10" x1="472.981" y1="624.016" x2="488.651" y2="624.016"/>
	<line fill="none" stroke="#000000" stroke-miterlimit="10" x1="472.979" y1="631.448" x2="488.647" y2="631.448"/>
	<line fill="none" stroke="#000000" stroke-miterlimit="10" x1="472.978" y1="633.927" x2="488.646" y2="633.927"/>
	<line fill="none" stroke="#000000" stroke-miterlimit="10" x1="472.979" y1="628.971" x2="488.649" y2="628.971"/>
	<line fill="none" stroke="#000000" stroke-miterlimit="10" x1="472.981" y1="626.493" x2="488.649" y2="626.493"/>
	<line fill="none" stroke="#000000" stroke-miterlimit="10" x1="505.05" y1="636.422" x2="520.718" y2="636.422"/>
	<line fill="none" stroke="#000000" stroke-miterlimit="10" x1="505.054" y1="631.461" x2="520.722" y2="631.461"/>
	<line fill="none" stroke="#000000" stroke-miterlimit="10" x1="505.052" y1="633.941" x2="520.72" y2="633.941"/>
	<line fill="none" stroke="#000000" stroke-miterlimit="10" x1="505.058" y1="626.501" x2="520.726" y2="626.501"/>
	<line fill="none" stroke="#000000" stroke-miterlimit="10" x1="505.046" y1="638.903" x2="520.716" y2="638.901"/>
	<line fill="none" stroke="#000000" stroke-miterlimit="10" x1="505.046" y1="641.383" x2="520.714" y2="641.383"/>
	<line fill="none" stroke="#000000" stroke-miterlimit="10" x1="505.044" y1="643.863" x2="520.712" y2="643.863"/>
	<line fill="none" stroke="#000000" stroke-width="2" stroke-miterlimit="10" x1="670.31" y1="661.188" x2="716.571" y2="661.188"/>
	<line fill="none" stroke="#000000" stroke-width="3" stroke-miterlimit="10" x1="309.81" y1="706.419" x2="309.812" y2="725.684"/>
	
		<line fill="none" stroke="#000000" stroke-width="3" stroke-miterlimit="10" x1="309.812" y1="676.907" x2="309.812" y2="697.947"/>
	
		<line fill="none" stroke="#000000" stroke-width="3" stroke-miterlimit="10" x1="309.812" y1="653.954" x2="309.812" y2="669.416"/>
	<polyline fill="none" stroke="#000000" stroke-width="3" stroke-miterlimit="10" points="252.046,600.279 309.812,600.279 
		309.81,646.938 	"/>
	
		<line fill="none" stroke="#000000" stroke-width="2" stroke-miterlimit="10" x1="246.062" y1="662.981" x2="309.812" y2="662.981"/>
	<polyline fill="none" stroke="#000000" stroke-width="2" stroke-miterlimit="10" points="282.812,662.981 282.812,683.529 
		309.812,683.53 	"/>
	<polyline fill="none" stroke="#000000" stroke-width="2" stroke-miterlimit="10" points="568.45,626.746 556.696,626.746 
		556.71,647.28 	"/>
	<polyline fill="none" stroke="#000000" stroke-width="2" stroke-miterlimit="10" points="535.952,647.873 536.282,628.92 
		527.853,628.771 519.362,628.897 	"/>
	
		<line fill="none" stroke="#000000" stroke-width="2" stroke-linecap="round" stroke-miterlimit="10" x1="469.241" y1="641.962" x2="457.65" y2="629.962"/>
	
		<line fill="none" stroke="#000000" stroke-width="2" stroke-linecap="round" stroke-miterlimit="10" x1="469.443" y1="630.292" x2="457.443" y2="641.882"/>
	
		<rect x="456.943" y="629.461" transform="matrix(-1 -0.0029 0.0029 -1 925.0208 1273.8296)" fill="none" stroke="#000000" stroke-miterlimit="10" width="13" height="13.552"/>
	<line fill="none" stroke="#000000" stroke-miterlimit="10" x1="505.312" y1="628.981" x2="520.979" y2="628.981"/>
	<line fill="none" stroke="#B2B2B2" stroke-miterlimit="10" x1="94.363" y1="119.362" x2="117.833" y2="119.362"/>
	<line fill="none" stroke="#B2B2B2" stroke-miterlimit="10" x1="94.363" y1="106.938" x2="117.833" y2="106.938"/>
	<line fill="none" stroke="#B2B2B2" stroke-miterlimit="10" x1="94.363" y1="104.453" x2="117.833" y2="104.453"/>
	<line fill="none" stroke="#B2B2B2" stroke-miterlimit="10" x1="94.363" y1="114.393" x2="117.833" y2="114.393"/>
	<line fill="none" stroke="#B2B2B2" stroke-miterlimit="10" x1="94.363" y1="116.877" x2="117.833" y2="116.877"/>
	<line fill="none" stroke="#B2B2B2" stroke-miterlimit="10" x1="94.363" y1="111.908" x2="117.833" y2="111.908"/>
	<line fill="none" stroke="#B2B2B2" stroke-miterlimit="10" x1="94.363" y1="109.423" x2="117.833" y2="109.423"/>
	<line fill="none" stroke="#B2B2B2" stroke-miterlimit="10" x1="94.363" y1="121.847" x2="117.833" y2="121.847"/>
	<line fill="none" stroke="#B2B2B2" stroke-miterlimit="10" x1="94.363" y1="124.332" x2="117.833" y2="124.332"/>
	<line fill="none" stroke="#B2B2B2" stroke-miterlimit="10" x1="94.363" y1="126.817" x2="117.833" y2="126.817"/>
	<line fill="none" stroke="#B2B2B2" stroke-miterlimit="10" x1="126.398" y1="119.362" x2="151.426" y2="119.362"/>
	<line fill="none" stroke="#B2B2B2" stroke-miterlimit="10" x1="126.398" y1="106.938" x2="151.426" y2="106.938"/>
	<line fill="none" stroke="#B2B2B2" stroke-miterlimit="10" x1="126.398" y1="104.453" x2="151.426" y2="104.453"/>
	<line fill="none" stroke="#B2B2B2" stroke-miterlimit="10" x1="126.398" y1="114.393" x2="151.426" y2="114.393"/>
	<line fill="none" stroke="#B2B2B2" stroke-miterlimit="10" x1="126.398" y1="116.877" x2="151.426" y2="116.877"/>
	<line fill="none" stroke="#B2B2B2" stroke-miterlimit="10" x1="126.398" y1="111.908" x2="151.426" y2="111.908"/>
	<line fill="none" stroke="#B2B2B2" stroke-miterlimit="10" x1="126.398" y1="109.423" x2="151.426" y2="109.423"/>
	<line fill="none" stroke="#B2B2B2" stroke-miterlimit="10" x1="126.398" y1="121.847" x2="151.426" y2="121.847"/>
	<line fill="none" stroke="#B2B2B2" stroke-miterlimit="10" x1="126.398" y1="124.332" x2="151.426" y2="124.332"/>
	<line fill="none" stroke="#B2B2B2" stroke-miterlimit="10" x1="126.398" y1="126.817" x2="151.426" y2="126.817"/>
	<polyline fill="none" stroke="#B2B2B2" stroke-miterlimit="10" points="126.398,127.241 126.398,104.453 117.985,104.453 
		117.985,127.241 	"/>
	<polyline fill="none" stroke="#000000" stroke-width="4" stroke-miterlimit="10" points="115.017,475.559 324.815,475.559 
		324.826,597.709 	"/>
	<line fill="none" stroke="#000000" stroke-width="2" stroke-miterlimit="10" x1="454.31" y1="616.727" x2="454.31" y2="597.971"/>
	<line fill="none" stroke="#000000" stroke-miterlimit="10" x1="472.977" y1="621.537" x2="488.646" y2="621.537"/>
	<line fill="none" stroke="#000000" stroke-miterlimit="10" x1="505.311" y1="621.54" x2="520.98" y2="621.54"/>
	<line fill="none" stroke="#000000" stroke-miterlimit="10" x1="505.043" y1="624.021" x2="520.713" y2="624.021"/>
	<line fill="none" stroke="#000000" stroke-miterlimit="10" x1="473.482" y1="619.06" x2="489.152" y2="619.06"/>
	<line fill="none" stroke="#000000" stroke-miterlimit="10" x1="503.976" y1="619.06" x2="519.646" y2="619.06"/>
	<line fill="none" stroke="#000000" stroke-width="3" stroke-miterlimit="10" x1="76.184" y1="469.893" x2="76.184" y2="485.393"/>
</g>
<g id="Ebene_5" display="none">
	<path display="inline" fill="none" stroke="#000000" stroke-miterlimit="10" d="M76.156,64.3c5.159,0,9.333-3.458,9.333-7.73
		h-9.333"/>
	<path display="inline" fill="none" stroke="#000000" stroke-miterlimit="10" d="M74.898,129.623c5.159,0,9.333-3.458,9.333-7.73
		h-9.333"/>
	<path display="inline" fill="none" stroke="#000000" stroke-miterlimit="10" d="M74.898,245.873c5.159,0,9.333-3.458,9.333-7.73
		h-9.333"/>
	<path display="inline" fill="none" stroke="#000000" stroke-miterlimit="10" d="M74.898,262.121c5.159,0,9.333,3.458,9.333,7.73
		h-9.333"/>
	<path display="inline" fill="none" stroke="#000000" stroke-miterlimit="10" d="M74.898,283.535c5.159,0,9.333,3.458,9.333,7.73
		h-9.333"/>
	<path display="inline" fill="none" stroke="#000000" stroke-miterlimit="10" d="M75.648,328.268c5.159,0,9.333,3.457,9.333,7.729
		h-9.333"/>
	<path display="inline" fill="none" stroke="#000000" stroke-miterlimit="10" d="M74.898,369.2c5.159,0,9.333,3.457,9.333,7.729
		h-9.333"/>
	<path display="inline" fill="none" stroke="#000000" stroke-miterlimit="10" d="M75.648,413.942c5.159,0,9.333,3.457,9.333,7.729
		h-9.333"/>
	<path display="inline" fill="none" stroke="#000000" stroke-miterlimit="10" d="M75.648,430.189c5.159,0,9.333,3.457,9.333,7.729
		h-9.333"/>
	<path display="inline" fill="none" stroke="#000000" stroke-miterlimit="10" d="M75.648,485.462c5.159,0,9.333,3.457,9.333,7.729
		h-9.333"/>
	<path display="inline" fill="none" stroke="#000000" stroke-miterlimit="10" d="M95.526,355.888c-5.159,0-9.333,3.457-9.333,7.729
		h9.333"/>
	<path display="inline" fill="none" stroke="#000000" stroke-miterlimit="10" d="M163.035,500.326c0-5.159-3.457-9.333-7.729-9.333
		v9.333"/>
	<path display="inline" fill="none" stroke="#000000" stroke-miterlimit="10" d="M228.574,500.326c0-5.159-3.457-9.333-7.729-9.333
		v9.333"/>
	<path display="inline" fill="none" stroke="#000000" stroke-miterlimit="10" d="M95.065,539.893c0-5.159,3.457-9.333,7.729-9.333
		v9.333"/>
</g>
</svg>
