<?xml version="1.0" encoding="utf-8"?>
<!-- Generator: Adobe Illustrator 15.0.0, SVG Export Plug-In . SVG Version: 6.00 Build 0)  -->
<!DOCTYPE svg PUBLIC "-//W3C//DTD SVG 1.1//EN" "http://www.w3.org/Graphics/SVG/1.1/DTD/svg11.dtd">
<svg version="1.1" xmlns="http://www.w3.org/2000/svg" xmlns:xlink="http://www.w3.org/1999/xlink" x="0px" y="0px"
	 width="779.95px" height="742.45px" viewBox="0 0 779.95 742.45" enable-background="new 0 0 779.95 742.45" xml:space="preserve">
<g id="Ebene_2" display="none">
	
		<image display="inline" overflow="visible" width="960" height="720" xlink:href="2OG_Haus3.jpg"  transform="matrix(0 0.7222 -0.7222 0 367.103 -39.6431)">
	</image>
</g>
<g id="Ebene_1" display="none">
	
		<image display="inline" overflow="visible" width="720" height="960" xlink:href="2OG_Haus2.jpg"  transform="matrix(0 0.6042 -0.6042 0 716.5952 415.0781)">
	</image>
</g>
<g id="Ebene_5" display="none">
	
		<image display="inline" overflow="visible" width="2560" height="1920" xlink:href="2.OG_Haus1n.JPG"  transform="matrix(-2.608568e-009 -0.2188 0.2188 -2.608568e-009 458.7036 572.4961)">
	</image>
	
		<line display="inline" fill="none" stroke="#000000" stroke-width="2" stroke-miterlimit="10" x1="692.635" y1="109.637" x2="767.728" y2="109.637"/>
	
		<line display="inline" fill="none" stroke="#000000" stroke-width="2" stroke-miterlimit="10" x1="735.635" y1="93.887" x2="735.635" y2="109.637"/>
	
		<line display="inline" fill="none" stroke="#000000" stroke-width="2" stroke-miterlimit="10" x1="668.385" y1="51.887" x2="668.385" y2="46.019"/>
	
		<line display="inline" fill="none" stroke="#000000" stroke-width="2" stroke-miterlimit="10" x1="668.385" y1="61.887" x2="668.385" y2="57.887"/>
</g>
<g id="Ebene_4">
	
		<line fill="none" stroke="#9D9D9C" stroke-width="4" stroke-miterlimit="10" x1="637.716" y1="596.604" x2="637.716" y2="515.642"/>
	
		<line fill="none" stroke="#9D9D9C" stroke-width="4" stroke-miterlimit="10" x1="679.323" y1="596.604" x2="679.323" y2="515.643"/>
	<polyline fill="none" stroke="#000000" stroke-width="3" stroke-miterlimit="10" points="275.986,495.426 275.986,550.257 
		251.27,550.257 	"/>
	<polyline fill="none" stroke="#9D9D9C" stroke-width="3" stroke-miterlimit="10" points="105.077,539.401 117.212,539.401 
		117.212,551.86 	"/>
	<line fill="none" stroke="#9D9D9C" stroke-width="3" stroke-miterlimit="10" x1="47.236" y1="539.401" x2="94.736" y2="539.401"/>
	<polyline fill="none" stroke="#9D9D9C" stroke-width="3" stroke-miterlimit="10" points="33.459,539.401 26.676,539.401 
		38.486,539.401 	"/>
	<polyline fill="none" stroke="#9D9D9C" stroke-width="3" stroke-miterlimit="10" points="76.521,492.276 76.521,539.401 
		46.236,539.401 	"/>
	<line fill="none" stroke="#9D9D9C" stroke-width="3" stroke-miterlimit="10" x1="76.521" y1="436.776" x2="76.521" y2="484.026"/>
	<line fill="none" stroke="#9D9D9C" stroke-width="3" stroke-miterlimit="10" x1="76.521" y1="420.276" x2="76.521" y2="430.276"/>
	<line fill="none" stroke="#9D9D9C" stroke-width="3" stroke-miterlimit="10" x1="76.521" y1="376.026" x2="76.521" y2="413.276"/>
	<line fill="none" stroke="#9D9D9C" stroke-width="3" stroke-miterlimit="10" x1="76.521" y1="343.72" x2="76.521" y2="367.359"/>
	<line fill="none" stroke="#9D9D9C" stroke-width="3" stroke-miterlimit="10" x1="76.521" y1="334.026" x2="76.521" y2="338.026"/>
	<line fill="none" stroke="#9D9D9C" stroke-width="3" stroke-miterlimit="10" x1="76.521" y1="318.026" x2="76.521" y2="328.693"/>
	<line fill="none" stroke="#9D9D9C" stroke-width="3" stroke-miterlimit="10" x1="76.521" y1="311.359" x2="76.521" y2="318.026"/>
	<line fill="none" stroke="#9D9D9C" stroke-width="3" stroke-miterlimit="10" x1="76.521" y1="290.694" x2="76.521" y2="311.359"/>
	<line fill="none" stroke="#9D9D9C" stroke-width="3" stroke-miterlimit="10" x1="76.521" y1="267.694" x2="76.521" y2="282.026"/>
	<line fill="none" stroke="#9D9D9C" stroke-width="3" stroke-miterlimit="10" x1="76.521" y1="244.026" x2="76.521" y2="260.359"/>
	<line fill="none" stroke="#9D9D9C" stroke-width="3" stroke-miterlimit="10" x1="76.521" y1="152.694" x2="76.521" y2="236.027"/>
	<line fill="none" stroke="#9D9D9C" stroke-width="3" stroke-miterlimit="10" x1="76.521" y1="129.359" x2="76.521" y2="146.359"/>
	<line fill="none" stroke="#9D9D9C" stroke-width="3" stroke-miterlimit="10" x1="76.521" y1="66.524" x2="76.521" y2="120.693"/>
	<line fill="none" stroke="#9D9D9C" stroke-width="3" stroke-miterlimit="10" x1="109.135" y1="66.524" x2="116.3" y2="66.524"/>
	<line fill="none" stroke="#9D9D9C" stroke-width="3" stroke-miterlimit="10" x1="89.135" y1="66.524" x2="100.135" y2="66.524"/>
	<line fill="none" stroke="#9D9D9C" stroke-width="3" stroke-miterlimit="10" x1="23.668" y1="66.524" x2="81.135" y2="66.524"/>
	<line stroke="#9D9D9C" stroke-width="3" stroke-miterlimit="10" x1="52.736" y1="249.076" x2="75.236" y2="249.076"/>
	<line stroke="#9D9D9C" stroke-width="3" stroke-miterlimit="10" x1="24.335" y1="249.076" x2="45.735" y2="249.076"/>
	<line stroke="#9D9D9C" stroke-width="2" stroke-miterlimit="10" x1="26.252" y1="469.526" x2="75.236" y2="469.526"/>
	<line stroke="#9D9D9C" stroke-width="2" stroke-miterlimit="10" x1="26.252" y1="427.026" x2="75.236" y2="427.026"/>
	<line stroke="#9D9D9C" stroke-width="3" stroke-miterlimit="10" x1="26.252" y1="383.526" x2="75.236" y2="383.526"/>
	<line stroke="#9D9D9C" stroke-width="2" stroke-miterlimit="10" x1="26.252" y1="340.915" x2="70.135" y2="340.915"/>
	<line stroke="#9D9D9C" stroke-width="2" stroke-miterlimit="10" x1="24.335" y1="321.526" x2="75.986" y2="321.526"/>
	<line stroke="#9D9D9C" stroke-width="3" stroke-miterlimit="10" x1="24.335" y1="296.526" x2="75.986" y2="296.526"/>
	<line stroke="#9D9D9C" stroke-width="2" stroke-miterlimit="10" x1="24.335" y1="276.026" x2="75.236" y2="276.026"/>
	<line stroke="#9D9D9C" stroke-width="2" stroke-miterlimit="10" x1="12.753" y1="138.526" x2="75.236" y2="138.526"/>
	<path fill="none" stroke="#9D9D9C" stroke-width="2" stroke-miterlimit="10" d="M77.486,55.026"/>
	<line fill="none" stroke="#9D9D9C" stroke-width="3" stroke-miterlimit="10" x1="95.864" y1="383.526" x2="119.248" y2="383.526"/>
	<line fill="none" stroke="#9D9D9C" stroke-width="3" stroke-miterlimit="10" x1="119.248" y1="296.526" x2="95.864" y2="296.526"/>
	<line fill="none" stroke="#9D9D9C" stroke-width="2" stroke-miterlimit="10" x1="95.864" y1="362.359" x2="95.864" y2="385.025"/>
	<line fill="none" stroke="#9D9D9C" stroke-width="2" stroke-miterlimit="10" x1="95.864" y1="311.693" x2="95.864" y2="354.359"/>
	<line fill="none" stroke="#9D9D9C" stroke-width="2" stroke-miterlimit="10" x1="95.864" y1="294.997" x2="95.864" y2="303.693"/>
	
		<line fill="none" stroke="#9D9D9C" stroke-width="2" stroke-miterlimit="10" x1="108.486" y1="404.193" x2="118.748" y2="404.193"/>
	<polyline fill="none" stroke="#9D9D9C" stroke-width="2" stroke-miterlimit="10" points="118.748,447.026 95.402,447.026 
		95.402,404.193 100.486,404.193 	"/>
	<line fill="none" stroke="#9D9D9C" stroke-width="2" stroke-miterlimit="10" x1="116.3" y1="139.526" x2="116.3" y2="53.026"/>
	<g>
		<g>
			<path fill="none" stroke="#9D9D9C" stroke-width="2" stroke-miterlimit="10" d="M116.787,139.526c0,0,0.737-0.094,1.982-0.251"/>
			<path fill="none" stroke="#9D9D9C" stroke-width="2" stroke-miterlimit="10" stroke-dasharray="3.9051,3.9051" d="
				M122.643,138.783c8.034-1.021,21.75-2.768,24.093-3.089c2.139-0.385,3.588-0.894,4.431-2.047"/>
			<path fill="none" stroke="#9D9D9C" stroke-width="2" stroke-miterlimit="10" d="M151.908,131.852
				c0.115-0.57,0.171-1.228,0.171-1.991"/>
		</g>
	</g>
	<polyline fill="none" stroke="#9D9D9C" stroke-width="2" stroke-miterlimit="10" points="116.787,86.526 93.736,87.36 
		93.736,139.525 116.787,139.526 	"/>
	<g>
		<g>
			<path fill="none" stroke="#9D9D9C" stroke-width="2" stroke-miterlimit="10" d="M116.787,139.526c0,0,0.737-0.094,1.982-0.251"/>
			<path fill="none" stroke="#9D9D9C" stroke-width="2" stroke-miterlimit="10" stroke-dasharray="3.9693,3.9693" d="
				M122.707,138.775c8.042-1.022,21.692-2.761,24.029-3.082c3.708-0.667,5.041-1,5.343-5.833c0-6.084,0-28.084,0-33.334
				c0-3.541-3.052-5.166-6.343-5.666c-5.605-0.853-18.487-2.775-25.01-3.747"/>
			<path fill="none" stroke="#9D9D9C" stroke-width="2" stroke-miterlimit="10" d="M118.762,86.82
				c-1.243-0.185-1.976-0.294-1.976-0.294"/>
		</g>
	</g>
	
		<line fill="none" stroke="#9D9D9C" stroke-width="2" stroke-miterlimit="10" x1="116.787" y1="170.777" x2="116.787" y2="139.526"/>
	<line fill="none" stroke="#9D9D9C" stroke-miterlimit="10" x1="77.551" y1="524.329" x2="86.135" y2="524.329"/>
	<line fill="none" stroke="#9D9D9C" stroke-miterlimit="10" x1="77.551" y1="511.904" x2="86.135" y2="511.904"/>
	<line fill="none" stroke="#9D9D9C" stroke-miterlimit="10" x1="77.551" y1="509.42" x2="86.135" y2="509.42"/>
	<line fill="none" stroke="#9D9D9C" stroke-miterlimit="10" x1="77.551" y1="519.359" x2="86.135" y2="519.359"/>
	<line fill="none" stroke="#9D9D9C" stroke-miterlimit="10" x1="77.551" y1="521.844" x2="86.135" y2="521.844"/>
	<line fill="none" stroke="#9D9D9C" stroke-miterlimit="10" x1="77.551" y1="516.874" x2="86.135" y2="516.874"/>
	<line fill="none" stroke="#9D9D9C" stroke-miterlimit="10" x1="77.551" y1="514.39" x2="86.135" y2="514.39"/>
	<line fill="none" stroke="#9D9D9C" stroke-miterlimit="10" x1="77.551" y1="506.935" x2="107.051" y2="506.935"/>
	<line fill="none" stroke="#000000" stroke-miterlimit="10" x1="277.301" y1="536.754" x2="294.469" y2="536.754"/>
	<line fill="none" stroke="#000000" stroke-miterlimit="10" x1="277.301" y1="524.329" x2="294.469" y2="524.329"/>
	<line fill="none" stroke="#000000" stroke-miterlimit="10" x1="277.301" y1="521.845" x2="294.469" y2="521.845"/>
	<line fill="none" stroke="#000000" stroke-miterlimit="10" x1="277.301" y1="531.784" x2="294.469" y2="531.784"/>
	<line fill="none" stroke="#000000" stroke-miterlimit="10" x1="277.301" y1="534.269" x2="294.469" y2="534.269"/>
	<line fill="none" stroke="#000000" stroke-miterlimit="10" x1="277.301" y1="529.299" x2="294.469" y2="529.299"/>
	<line fill="none" stroke="#000000" stroke-miterlimit="10" x1="277.301" y1="526.814" x2="294.469" y2="526.814"/>
	<line fill="none" stroke="#000000" stroke-miterlimit="10" x1="277.301" y1="539.238" x2="294.469" y2="539.238"/>
	<line fill="none" stroke="#000000" stroke-miterlimit="10" x1="277.301" y1="541.724" x2="294.469" y2="541.724"/>
	<line fill="none" stroke="#000000" stroke-miterlimit="10" x1="277.301" y1="544.208" x2="294.469" y2="544.208"/>
	<line fill="none" stroke="#000000" stroke-miterlimit="10" x1="277.301" y1="519.359" x2="294.469" y2="519.359"/>
	<line fill="none" stroke="#000000" stroke-miterlimit="10" x1="277.301" y1="546.693" x2="294.469" y2="546.693"/>
	<polyline fill="none" stroke="#000000" stroke-miterlimit="10" points="294.469,547.191 294.469,514.026 306.301,514.026 
		306.301,547.191 	"/>
	<line fill="none" stroke="#9D9D9C" stroke-miterlimit="10" x1="104.727" y1="506.935" x2="104.727" y2="498.351"/>
	<line fill="none" stroke="#9D9D9C" stroke-miterlimit="10" x1="93.108" y1="506.935" x2="93.108" y2="498.351"/>
	<line fill="none" stroke="#9D9D9C" stroke-miterlimit="10" x1="90.784" y1="506.935" x2="90.784" y2="498.351"/>
	<line fill="none" stroke="#9D9D9C" stroke-miterlimit="10" x1="100.08" y1="506.935" x2="100.08" y2="498.351"/>
	<line fill="none" stroke="#9D9D9C" stroke-miterlimit="10" x1="102.404" y1="506.935" x2="102.404" y2="498.351"/>
	<line fill="none" stroke="#9D9D9C" stroke-miterlimit="10" x1="97.755" y1="506.935" x2="97.755" y2="498.351"/>
	<line fill="none" stroke="#9D9D9C" stroke-miterlimit="10" x1="95.431" y1="506.935" x2="95.431" y2="498.351"/>
	<line fill="none" stroke="#9D9D9C" stroke-miterlimit="10" x1="88.459" y1="506.935" x2="88.459" y2="498.351"/>
	<line fill="none" stroke="#9D9D9C" stroke-miterlimit="10" x1="77.551" y1="498.352" x2="107.542" y2="498.352"/>
	<line fill="none" stroke="#9D9D9C" stroke-miterlimit="10" x1="86.135" y1="524.823" x2="86.135" y2="498.352"/>
	<line fill="none" stroke="#9D9D9C" stroke-width="2" stroke-miterlimit="10" x1="95.864" y1="338.026" x2="117.212" y2="338.026"/>
	<line fill="none" stroke="#000000" stroke-miterlimit="10" x1="306.301" y1="536.754" x2="323.469" y2="536.754"/>
	<line fill="none" stroke="#000000" stroke-miterlimit="10" x1="306.301" y1="524.329" x2="323.469" y2="524.329"/>
	<line fill="none" stroke="#000000" stroke-miterlimit="10" x1="306.301" y1="521.845" x2="323.469" y2="521.845"/>
	<line fill="none" stroke="#000000" stroke-miterlimit="10" x1="306.301" y1="531.784" x2="323.469" y2="531.784"/>
	<line fill="none" stroke="#000000" stroke-miterlimit="10" x1="306.301" y1="534.269" x2="323.469" y2="534.269"/>
	<line fill="none" stroke="#000000" stroke-miterlimit="10" x1="306.301" y1="529.299" x2="323.469" y2="529.299"/>
	<line fill="none" stroke="#000000" stroke-miterlimit="10" x1="306.301" y1="526.814" x2="323.469" y2="526.814"/>
	<line fill="none" stroke="#000000" stroke-miterlimit="10" x1="306.301" y1="539.238" x2="323.469" y2="539.238"/>
	<line fill="none" stroke="#000000" stroke-miterlimit="10" x1="306.301" y1="541.724" x2="323.469" y2="541.724"/>
	<line fill="none" stroke="#000000" stroke-miterlimit="10" x1="306.301" y1="544.208" x2="323.469" y2="544.208"/>
	<line fill="none" stroke="#000000" stroke-miterlimit="10" x1="306.301" y1="519.359" x2="323.469" y2="519.359"/>
	<line fill="none" stroke="#000000" stroke-miterlimit="10" x1="306.301" y1="546.693" x2="323.469" y2="546.693"/>
	<line fill="none" stroke="#9D9D9C" stroke-miterlimit="10" x1="97.954" y1="266.471" x2="115.122" y2="266.471"/>
	<line fill="none" stroke="#9D9D9C" stroke-miterlimit="10" x1="97.954" y1="254.046" x2="115.122" y2="254.046"/>
	<line fill="none" stroke="#9D9D9C" stroke-miterlimit="10" x1="97.954" y1="251.562" x2="115.122" y2="251.562"/>
	<line fill="none" stroke="#9D9D9C" stroke-miterlimit="10" x1="97.954" y1="261.501" x2="115.122" y2="261.501"/>
	<line fill="none" stroke="#9D9D9C" stroke-miterlimit="10" x1="97.954" y1="263.985" x2="115.122" y2="263.985"/>
	<line fill="none" stroke="#9D9D9C" stroke-miterlimit="10" x1="97.954" y1="259.016" x2="115.122" y2="259.016"/>
	<line fill="none" stroke="#9D9D9C" stroke-miterlimit="10" x1="97.954" y1="256.531" x2="115.122" y2="256.531"/>
	<line fill="none" stroke="#9D9D9C" stroke-miterlimit="10" x1="97.954" y1="268.955" x2="115.122" y2="268.955"/>
	<line fill="none" stroke="#9D9D9C" stroke-miterlimit="10" x1="97.954" y1="271.44" x2="115.122" y2="271.44"/>
	<line fill="none" stroke="#9D9D9C" stroke-miterlimit="10" x1="97.954" y1="273.925" x2="115.122" y2="273.925"/>
	<line fill="none" stroke="#9D9D9C" stroke-miterlimit="10" x1="97.954" y1="249.076" x2="115.122" y2="249.076"/>
	<line fill="none" stroke="#9D9D9C" stroke-miterlimit="10" x1="97.954" y1="220.421" x2="115.122" y2="220.421"/>
	<line fill="none" stroke="#9D9D9C" stroke-miterlimit="10" x1="97.954" y1="207.996" x2="115.122" y2="207.996"/>
	<line fill="none" stroke="#9D9D9C" stroke-miterlimit="10" x1="97.954" y1="205.512" x2="115.122" y2="205.512"/>
	<line fill="none" stroke="#9D9D9C" stroke-miterlimit="10" x1="97.954" y1="215.452" x2="115.122" y2="215.452"/>
	<line fill="none" stroke="#9D9D9C" stroke-miterlimit="10" x1="97.954" y1="217.937" x2="115.122" y2="217.937"/>
	<line fill="none" stroke="#9D9D9C" stroke-miterlimit="10" x1="97.954" y1="212.966" x2="115.122" y2="212.966"/>
	<line fill="none" stroke="#9D9D9C" stroke-miterlimit="10" x1="97.954" y1="210.481" x2="115.122" y2="210.481"/>
	<line fill="none" stroke="#9D9D9C" stroke-miterlimit="10" x1="97.954" y1="222.905" x2="115.122" y2="222.905"/>
	<line fill="none" stroke="#9D9D9C" stroke-miterlimit="10" x1="97.954" y1="225.392" x2="115.122" y2="225.392"/>
	<line fill="none" stroke="#9D9D9C" stroke-miterlimit="10" x1="97.954" y1="227.876" x2="115.122" y2="227.876"/>
	<polyline fill="none" stroke="#9D9D9C" stroke-miterlimit="10" points="115.122,203.026 97.954,203.026 97.954,276.41 
		115.122,276.41 	"/>
	<polyline fill="none" stroke="#9D9D9C" stroke-width="2" stroke-miterlimit="10" points="93.736,153.887 93.736,161.026 
		117.583,161.026 	"/>
	<line fill="none" stroke="#9D9D9C" stroke-width="2" stroke-miterlimit="10" x1="93.736" y1="139.525" x2="93.736" y2="144.387"/>
	<g>
		<g>
			
				<line fill="none" stroke="#9D9D9C" stroke-width="2" stroke-miterlimit="10" x1="113.039" y1="174.121" x2="100.037" y2="161.121"/>
			
				<line fill="none" stroke="#9D9D9C" stroke-width="2" stroke-miterlimit="10" x1="113.037" y1="161.258" x2="100.037" y2="174.259"/>
		</g>
		
			<rect x="100.037" y="161.121" transform="matrix(-0.9999 0.0146 -0.0146 -0.9999 215.5239 334.2145)" fill="none" stroke="#9D9D9C" stroke-miterlimit="10" width="13.001" height="13.551"/>
	</g>
	<g>
		<g>
			
				<line fill="none" stroke="#000000" stroke-width="2" stroke-miterlimit="10" x1="306.885" y1="541.614" x2="293.883" y2="528.614"/>
			
				<line fill="none" stroke="#000000" stroke-width="2" stroke-miterlimit="10" x1="306.883" y1="528.751" x2="293.883" y2="541.753"/>
		</g>
		
			<rect x="293.884" y="528.615" transform="matrix(-0.9999 0.0146 -0.0146 -0.9999 608.5392 1066.3463)" fill="none" stroke="#000000" stroke-miterlimit="10" width="13.001" height="13.551"/>
	</g>
	<line fill="none" stroke="#9D9D9C" stroke-miterlimit="10" x1="94.7" y1="117.996" x2="116.146" y2="117.996"/>
	<line fill="none" stroke="#9D9D9C" stroke-miterlimit="10" x1="94.7" y1="105.572" x2="116.146" y2="105.572"/>
	<line fill="none" stroke="#9D9D9C" stroke-miterlimit="10" x1="94.7" y1="103.087" x2="116.146" y2="103.087"/>
	<line fill="none" stroke="#9D9D9C" stroke-miterlimit="10" x1="94.7" y1="113.026" x2="116.146" y2="113.026"/>
	<line fill="none" stroke="#9D9D9C" stroke-miterlimit="10" x1="94.7" y1="115.512" x2="116.146" y2="115.512"/>
	<line fill="none" stroke="#9D9D9C" stroke-miterlimit="10" x1="94.7" y1="110.542" x2="116.146" y2="110.542"/>
	<line fill="none" stroke="#9D9D9C" stroke-miterlimit="10" x1="94.7" y1="108.057" x2="116.146" y2="108.057"/>
	<line fill="none" stroke="#9D9D9C" stroke-miterlimit="10" x1="94.7" y1="120.481" x2="116.146" y2="120.481"/>
	<line fill="none" stroke="#9D9D9C" stroke-miterlimit="10" x1="94.7" y1="122.966" x2="116.146" y2="122.966"/>
	<line fill="none" stroke="#9D9D9C" stroke-miterlimit="10" x1="94.7" y1="125.451" x2="116.146" y2="125.451"/>
	<polyline fill="none" stroke="#000000" stroke-width="4" stroke-miterlimit="10" points="325.067,595.322 325.067,595.322 
		716.907,595.324 716.909,724.318 246.401,724.316 246.401,598.581 252.381,598.454 252.381,598.454 	"/>
	<line fill="none" stroke="#000000" stroke-width="2" stroke-miterlimit="10" x1="670.649" y1="719.72" x2="670.649" y2="724.318"/>
	
		<line fill="none" stroke="#000000" stroke-width="2" stroke-miterlimit="10" x1="670.649" y1="695.054" x2="670.649" y2="711.387"/>
	<line fill="none" stroke="#000000" stroke-width="2" stroke-miterlimit="10" x1="670.649" y1="677.72" x2="670.649" y2="688.72"/>
	
		<line fill="none" stroke="#000000" stroke-width="2" stroke-miterlimit="10" x1="670.649" y1="640.596" x2="670.649" y2="668.754"/>
	
		<line fill="none" stroke="#000000" stroke-width="2" stroke-miterlimit="10" x1="670.647" y1="594.585" x2="670.647" y2="632.561"/>
	
		<line fill="none" stroke="#000000" stroke-width="3" stroke-miterlimit="10" x1="324.649" y1="627.054" x2="324.649" y2="595.323"/>
	<polyline fill="none" stroke="#000000" stroke-width="3" stroke-miterlimit="10" points="351.636,646.663 324.649,646.663 
		324.649,635.72 	"/>
	
		<line fill="none" stroke="#000000" stroke-width="3" stroke-miterlimit="10" x1="380.258" y1="646.663" x2="359.969" y2="646.663"/>
	
		<line fill="none" stroke="#000000" stroke-width="3" stroke-miterlimit="10" x1="396.635" y1="646.663" x2="387.749" y2="646.663"/>
	
		<line fill="none" stroke="#000000" stroke-width="3" stroke-miterlimit="10" x1="437.758" y1="646.664" x2="405.968" y2="646.663"/>
	
		<line fill="none" stroke="#000000" stroke-width="3" stroke-miterlimit="10" x1="474.802" y1="646.663" x2="445.264" y2="646.663"/>
	<path fill="none" stroke="#000000" stroke-width="3" stroke-miterlimit="10" d="M469.135,646.663"/>
	<line fill="none" stroke="#000000" stroke-width="3" stroke-miterlimit="10" x1="527.78" y1="646.664" x2="518.5" y2="646.664"/>
	
		<line fill="none" stroke="#000000" stroke-width="3" stroke-miterlimit="10" x1="539.795" y1="646.663" x2="532.778" y2="646.662"/>
	
		<line fill="none" stroke="#000000" stroke-width="3" stroke-miterlimit="10" x1="551.776" y1="646.663" x2="545.293" y2="646.664"/>
	
		<line fill="none" stroke="#000000" stroke-width="3" stroke-miterlimit="10" x1="559.784" y1="646.664" x2="554.284" y2="646.663"/>
	<line fill="none" stroke="#000000" stroke-width="3" stroke-miterlimit="10" x1="573.79" y1="646.662" x2="564.774" y2="646.663"/>
	
		<line fill="none" stroke="#000000" stroke-width="3" stroke-miterlimit="10" x1="597.302" y1="646.664" x2="582.635" y2="646.663"/>
	
		<line fill="none" stroke="#000000" stroke-width="3" stroke-miterlimit="10" x1="615.302" y1="646.664" x2="605.135" y2="646.664"/>
	
		<line fill="none" stroke="#000000" stroke-width="3" stroke-miterlimit="10" x1="631.968" y1="646.664" x2="624.634" y2="646.664"/>
	<polyline fill="none" stroke="#000000" stroke-width="3" stroke-miterlimit="10" points="644.983,595.324 644.982,646.664 
		640.301,646.664 	"/>
	<line fill="none" stroke="#000000" stroke-width="3" stroke-miterlimit="10" x1="324.649" y1="683.72" x2="324.649" y2="724.317"/>
	<path fill="none" stroke="#000000" stroke-width="3" stroke-miterlimit="10" d="M475.983,668.663"/>
	<line fill="none" stroke="#000000" stroke-width="3" stroke-miterlimit="10" x1="527.78" y1="668.664" x2="502.636" y2="668.664"/>
	
		<line fill="none" stroke="#000000" stroke-width="3" stroke-miterlimit="10" x1="545.635" y1="668.664" x2="536.287" y2="668.664"/>
	
		<line fill="none" stroke="#000000" stroke-width="3" stroke-miterlimit="10" x1="569.968" y1="668.663" x2="554.968" y2="668.664"/>
	
		<line fill="none" stroke="#000000" stroke-width="3" stroke-miterlimit="10" x1="591.968" y1="668.663" x2="579.635" y2="668.663"/>
	
		<line fill="none" stroke="#000000" stroke-width="3" stroke-miterlimit="10" x1="612.391" y1="668.663" x2="599.968" y2="668.663"/>
	
		<line fill="none" stroke="#000000" stroke-width="3" stroke-miterlimit="10" x1="631.302" y1="668.663" x2="620.397" y2="668.663"/>
	<polyline fill="none" stroke="#000000" stroke-width="3" stroke-miterlimit="10" points="644.981,724.317 644.981,668.664 
		640.635,668.664 	"/>
	
		<line fill="none" stroke="#000000" stroke-width="2" stroke-miterlimit="10" x1="390.315" y1="638.289" x2="390.315" y2="646.663"/>
	<line fill="none" stroke="#000000" stroke-width="2" stroke-miterlimit="10" x1="390.315" y1="595.323" x2="390.315" y2="629.72"/>
	<polyline fill="none" stroke="#000000" stroke-width="2" stroke-miterlimit="10" points="454.647,646.663 454.649,623.545 
		473.313,623.165 	"/>
	
		<line fill="none" stroke="#000000" stroke-width="2" stroke-miterlimit="10" x1="591.983" y1="640.387" x2="591.983" y2="646.663"/>
	
		<line fill="none" stroke="#000000" stroke-width="2" stroke-miterlimit="10" x1="591.983" y1="595.323" x2="591.983" y2="632.387"/>
	
		<line fill="none" stroke="#000000" stroke-width="2" stroke-miterlimit="10" x1="569.315" y1="595.323" x2="569.315" y2="646.663"/>
	
		<line fill="none" stroke="#000000" stroke-width="2" stroke-miterlimit="10" x1="547.983" y1="595.324" x2="547.983" y2="646.664"/>
	
		<line fill="none" stroke="#000000" stroke-width="2" stroke-miterlimit="10" x1="586.302" y1="690.054" x2="586.302" y2="724.269"/>
	
		<line fill="none" stroke="#000000" stroke-width="2" stroke-miterlimit="10" x1="586.302" y1="668.613" x2="586.302" y2="682.054"/>
	
		<line fill="none" stroke="#000000" stroke-width="3" stroke-miterlimit="10" x1="519.712" y1="667.927" x2="519.687" y2="724.317"/>
	<line fill="none" stroke="#000000" stroke-width="3" stroke-miterlimit="10" x1="473.318" y1="686.054" x2="473.3" y2="724.318"/>
	
		<line fill="none" stroke="#000000" stroke-width="3" stroke-miterlimit="10" x1="473.323" y1="677.054" x2="473.318" y2="686.054"/>
	
		<line fill="none" stroke="#000000" stroke-width="3" stroke-miterlimit="10" x1="473.326" y1="668.754" x2="473.323" y2="677.054"/>
	
		<line fill="none" stroke="#000000" stroke-width="3" stroke-miterlimit="10" x1="473.315" y1="595.323" x2="473.313" y2="646.663"/>
	
		<line fill="none" stroke="#000000" stroke-width="3" stroke-miterlimit="10" x1="519.981" y1="595.324" x2="519.983" y2="646.664"/>
	
		<line fill="none" stroke="#000000" stroke-width="2" stroke-miterlimit="10" x1="670.647" y1="648.387" x2="716.909" y2="648.387"/>
	
		<line fill="none" stroke="#000000" stroke-width="3" stroke-miterlimit="10" x1="310.147" y1="708.387" x2="310.149" y2="724.317"/>
	
		<line fill="none" stroke="#000000" stroke-width="3" stroke-miterlimit="10" x1="310.149" y1="677.054" x2="310.149" y2="698.387"/>
	<line fill="none" stroke="#000000" stroke-width="3" stroke-miterlimit="10" x1="310.149" y1="652.588" x2="310.149" y2="668.05"/>
	<polyline fill="none" stroke="#000000" stroke-width="3" stroke-miterlimit="10" points="252.383,598.913 310.149,598.913 
		310.147,645.571 	"/>
	
		<line fill="none" stroke="#000000" stroke-width="2" stroke-miterlimit="10" x1="246.399" y1="661.615" x2="310.149" y2="661.615"/>
	<polyline fill="none" stroke="#000000" stroke-width="2" stroke-miterlimit="10" points="568.788,625.38 557.034,625.38 
		557.047,645.914 	"/>
	<polyline fill="none" stroke="#000000" stroke-width="2" stroke-miterlimit="10" points="536.29,646.507 536.62,627.554 
		528.19,627.405 519.7,627.531 	"/>
	
		<line fill="none" stroke="#000000" stroke-width="2" stroke-linecap="round" stroke-miterlimit="10" x1="469.579" y1="640.596" x2="457.988" y2="628.596"/>
	
		<line fill="none" stroke="#000000" stroke-width="2" stroke-linecap="round" stroke-miterlimit="10" x1="469.781" y1="628.926" x2="457.781" y2="640.516"/>
	
		<rect x="457.281" y="628.095" transform="matrix(-1 -0.0029 0.0029 -1 925.6996 1271.0981)" fill="none" stroke="#000000" stroke-miterlimit="10" width="13" height="13.552"/>
	<line fill="none" stroke="#000000" stroke-width="2" stroke-miterlimit="10" x1="454.647" y1="615.36" x2="454.647" y2="596.604"/>
	<line fill="none" stroke="#9D9D9C" stroke-width="4" stroke-miterlimit="10" x1="77.456" y1="447.026" x2="118.056" y2="447.026"/>
	
		<line fill="none" stroke="#9D9D9C" stroke-width="4" stroke-miterlimit="10" x1="591.981" y1="425.359" x2="591.981" y2="258.488"/>
	<polyline fill="none" stroke="#9D9D9C" stroke-width="4" stroke-miterlimit="10" points="591.981,258.488 591.981,46.019 
		767.728,46.019 767.728,515.641 591.981,515.641 591.981,424.463 	"/>
	<polyline fill="none" stroke="#9D9D9C" stroke-width="2" stroke-miterlimit="10" points="676.272,389.775 702.767,389.775 
		702.767,370.275 634.118,370.275 634.118,372.525 	"/>
	<polyline fill="none" stroke="#9D9D9C" stroke-width="2" stroke-miterlimit="10" points="634.118,379.691 634.118,389.775 
		669.601,389.775 	"/>
	
		<line fill="none" stroke="#9D9D9C" stroke-width="2" stroke-miterlimit="10" x1="719.101" y1="389.775" x2="724.017" y2="389.775"/>
	
		<line fill="none" stroke="#9D9D9C" stroke-width="2" stroke-miterlimit="10" x1="702.767" y1="389.775" x2="707.268" y2="389.775"/>
	<line fill="none" stroke="#9D9D9C" stroke-width="2" stroke-miterlimit="10" x1="713.392" y1="461.05" x2="713.392" y2="517.333"/>
	
		<line fill="none" stroke="#9D9D9C" stroke-width="2" stroke-miterlimit="10" x1="724.017" y1="370.275" x2="724.017" y2="451.191"/>
	
		<line fill="none" stroke="#9D9D9C" stroke-width="2" stroke-miterlimit="10" x1="737.101" y1="447.775" x2="767.728" y2="447.775"/>
	
		<line fill="none" stroke="#9D9D9C" stroke-width="2" stroke-miterlimit="10" x1="724.017" y1="447.775" x2="728.434" y2="447.775"/>
	<polyline fill="none" stroke="#9D9D9C" stroke-width="2" stroke-miterlimit="10" points="702.767,457.93 702.767,461.762 
		724.017,461.762 724.017,457.93 	"/>
	<polyline fill="none" stroke="#9D9D9C" stroke-width="2" stroke-miterlimit="10" points="634.517,516.112 634.517,485.631 
		634.517,447.775 702.767,447.775 702.767,451.191 	"/>
	<line fill="none" stroke="#9D9D9C" stroke-width="2" stroke-miterlimit="10" x1="650.767" y1="500.012" x2="645.51" y2="500.012"/>
	
		<line fill="none" stroke="#9D9D9C" stroke-width="2" stroke-miterlimit="10" x1="679.309" y1="379.637" x2="679.309" y2="389.441"/>
	
		<line fill="none" stroke="#9D9D9C" stroke-width="2" stroke-miterlimit="10" x1="679.309" y1="369.941" x2="679.309" y2="372.887"/>
	
		<line fill="none" stroke="#9D9D9C" stroke-width="2" stroke-miterlimit="10" x1="686.231" y1="370.275" x2="686.231" y2="389.775"/>
	
		<line fill="none" stroke="#9D9D9C" stroke-width="2" stroke-miterlimit="10" x1="650.767" y1="510.887" x2="650.767" y2="515.641"/>
	
		<line fill="none" stroke="#9D9D9C" stroke-width="2" stroke-miterlimit="10" x1="650.767" y1="447.775" x2="650.767" y2="503.137"/>
	
		<line fill="none" stroke="#9D9D9C" stroke-width="2" stroke-miterlimit="10" x1="650.767" y1="467.025" x2="634.517" y2="467.025"/>
	
		<line fill="none" stroke="#9D9D9C" stroke-width="2" stroke-miterlimit="10" x1="594.635" y1="467.025" x2="591.981" y2="467.025"/>
	
		<line fill="none" stroke="#9D9D9C" stroke-width="2" stroke-miterlimit="10" x1="624.885" y1="467.025" x2="600.885" y2="467.025"/>
	
		<line fill="none" stroke="#9D9D9C" stroke-width="2" stroke-miterlimit="10" x1="634.517" y1="467.025" x2="631.135" y2="467.025"/>
	
		<line fill="none" stroke="#9D9D9C" stroke-width="2" stroke-miterlimit="10" x1="622.934" y1="484.357" x2="591.981" y2="484.357"/>
	
		<line fill="none" stroke="#9D9D9C" stroke-width="2" stroke-miterlimit="10" x1="622.934" y1="467.025" x2="622.934" y2="475.525"/>
	<g>
		
			<line fill="none" stroke="#9D9D9C" stroke-width="2" stroke-miterlimit="10" x1="700.84" y1="386.617" x2="688.625" y2="373.402"/>
		
			<line fill="none" stroke="#9D9D9C" stroke-width="2" stroke-miterlimit="10" x1="701.063" y1="373.756" x2="688.395" y2="386.539"/>
	</g>
	<polygon fill="none" stroke="#9D9D9C" stroke-miterlimit="10" points="687.831,373.275 701.282,373.303 701.233,386.775 
		687.782,386.746 	"/>
	<polyline fill="none" stroke="#9D9D9C" stroke-width="2" stroke-miterlimit="10" points="646.135,109.887 675.268,109.887 
		675.268,156.553 	"/>
	<polyline fill="none" stroke="#9D9D9C" stroke-width="2" stroke-miterlimit="10" points="591.662,69.729 646.135,69.729 
		646.135,92.637 	"/>
	<line fill="none" stroke="#9D9D9C" stroke-miterlimit="10" x1="602.308" y1="57.353" x2="633.308" y2="57.353"/>
	<line fill="none" stroke="#9D9D9C" stroke-miterlimit="10" x1="604.141" y1="46.019" x2="604.141" y2="69.729"/>
	<line fill="none" stroke="#9D9D9C" stroke-miterlimit="10" x1="629.68" y1="46.019" x2="629.68" y2="69.729"/>
	<line fill="none" stroke="#9D9D9C" stroke-miterlimit="10" x1="627.551" y1="46.019" x2="627.551" y2="69.729"/>
	<line fill="none" stroke="#9D9D9C" stroke-miterlimit="10" x1="625.423" y1="46.019" x2="625.423" y2="69.729"/>
	<line fill="none" stroke="#9D9D9C" stroke-miterlimit="10" x1="623.295" y1="46.019" x2="623.295" y2="69.729"/>
	<line fill="none" stroke="#9D9D9C" stroke-miterlimit="10" x1="621.167" y1="46.019" x2="621.167" y2="69.729"/>
	<line fill="none" stroke="#9D9D9C" stroke-miterlimit="10" x1="619.039" y1="46.019" x2="619.039" y2="69.729"/>
	<line fill="none" stroke="#9D9D9C" stroke-miterlimit="10" x1="616.911" y1="46.019" x2="616.911" y2="69.729"/>
	<line fill="none" stroke="#9D9D9C" stroke-miterlimit="10" x1="614.783" y1="46.019" x2="614.783" y2="69.729"/>
	<line fill="none" stroke="#9D9D9C" stroke-miterlimit="10" x1="612.654" y1="46.019" x2="612.654" y2="69.729"/>
	<line fill="none" stroke="#9D9D9C" stroke-miterlimit="10" x1="610.525" y1="46.019" x2="610.525" y2="69.729"/>
	<line fill="none" stroke="#9D9D9C" stroke-miterlimit="10" x1="608.398" y1="46.019" x2="608.398" y2="69.729"/>
	<line fill="none" stroke="#9D9D9C" stroke-miterlimit="10" x1="606.269" y1="46.019" x2="606.269" y2="69.729"/>
	<line fill="none" stroke="#9D9D9C" stroke-miterlimit="10" x1="631.808" y1="46.019" x2="631.808" y2="69.729"/>
	<polyline fill="none" stroke="#9D9D9C" stroke-width="2" stroke-miterlimit="10" points="634.517,429.885 703.667,429.885 
		703.667,406.525 634.517,406.525 634.517,449.387 	"/>
	<line fill="none" stroke="#9D9D9C" stroke-miterlimit="10" x1="636.642" y1="430.219" x2="636.642" y2="446.719"/>
	<line fill="none" stroke="#9D9D9C" stroke-miterlimit="10" x1="639.309" y1="429.885" x2="639.309" y2="446.719"/>
	<line fill="none" stroke="#9D9D9C" stroke-miterlimit="10" x1="641.975" y1="429.885" x2="641.975" y2="446.719"/>
	<line fill="none" stroke="#9D9D9C" stroke-miterlimit="10" x1="665.975" y1="429.885" x2="665.975" y2="446.719"/>
	<line fill="none" stroke="#9D9D9C" stroke-miterlimit="10" x1="652.642" y1="429.885" x2="652.642" y2="446.719"/>
	<line fill="none" stroke="#9D9D9C" stroke-miterlimit="10" x1="649.975" y1="429.885" x2="649.975" y2="446.719"/>
	<line fill="none" stroke="#9D9D9C" stroke-miterlimit="10" x1="647.309" y1="429.885" x2="647.309" y2="446.719"/>
	<line fill="none" stroke="#9D9D9C" stroke-miterlimit="10" x1="644.642" y1="429.885" x2="644.642" y2="446.719"/>
	<line fill="none" stroke="#9D9D9C" stroke-miterlimit="10" x1="697.975" y1="429.885" x2="697.975" y2="446.719"/>
	<line fill="none" stroke="#9D9D9C" stroke-miterlimit="10" x1="695.309" y1="429.885" x2="695.309" y2="446.719"/>
	<line fill="none" stroke="#9D9D9C" stroke-miterlimit="10" x1="692.642" y1="429.885" x2="692.642" y2="446.719"/>
	<line fill="none" stroke="#9D9D9C" stroke-miterlimit="10" x1="689.975" y1="429.885" x2="689.975" y2="446.719"/>
	<line fill="none" stroke="#9D9D9C" stroke-miterlimit="10" x1="687.309" y1="429.885" x2="687.309" y2="446.719"/>
	<line fill="none" stroke="#9D9D9C" stroke-miterlimit="10" x1="700.642" y1="429.885" x2="700.642" y2="446.719"/>
	<line fill="none" stroke="#9D9D9C" stroke-miterlimit="10" x1="684.642" y1="429.885" x2="684.642" y2="446.719"/>
	<line fill="none" stroke="#9D9D9C" stroke-miterlimit="10" x1="681.975" y1="429.885" x2="681.975" y2="446.719"/>
	<line fill="none" stroke="#9D9D9C" stroke-miterlimit="10" x1="671.309" y1="429.885" x2="671.309" y2="446.719"/>
	<line fill="none" stroke="#9D9D9C" stroke-miterlimit="10" x1="668.642" y1="429.885" x2="668.642" y2="446.719"/>
	<line fill="none" stroke="#9D9D9C" stroke-miterlimit="10" x1="679.309" y1="429.885" x2="679.309" y2="446.719"/>
	<line fill="none" stroke="#9D9D9C" stroke-miterlimit="10" x1="676.642" y1="429.885" x2="676.642" y2="446.719"/>
	<line fill="none" stroke="#9D9D9C" stroke-miterlimit="10" x1="673.975" y1="429.885" x2="673.975" y2="446.719"/>
	<line fill="none" stroke="#9D9D9C" stroke-miterlimit="10" x1="663.309" y1="429.885" x2="663.309" y2="446.719"/>
	<line fill="none" stroke="#9D9D9C" stroke-miterlimit="10" x1="660.642" y1="429.885" x2="660.642" y2="446.719"/>
	<line fill="none" stroke="#9D9D9C" stroke-miterlimit="10" x1="657.975" y1="429.885" x2="657.975" y2="446.719"/>
	<line fill="none" stroke="#9D9D9C" stroke-miterlimit="10" x1="655.309" y1="429.885" x2="655.309" y2="446.719"/>
	<polyline fill="none" stroke="#9D9D9C" stroke-width="4" stroke-miterlimit="10" points="117.749,548.787 117.749,609.185 
		26.252,609.185 26.252,247.704 12.753,247.704 12.753,66.213 24.752,66.213 24.751,18.215 117.212,18.215 117.212,55.714 
		269.82,55.715 269.819,169.708 117.212,169.708 117.087,476.221 	"/>
	<line stroke="#9D9D9C" stroke-width="2" stroke-miterlimit="10" x1="27.538" y1="404.193" x2="76.521" y2="404.193"/>
	<line stroke="#9D9D9C" stroke-width="2" stroke-miterlimit="10" x1="26.252" y1="362.359" x2="75.236" y2="362.359"/>
	<polyline fill="none" stroke="#9D9D9C" stroke-width="2" stroke-miterlimit="10" points="77.456,337.193 71.135,337.193 
		71.135,344.637 76.521,344.637 	"/>
	
		<line fill="none" stroke="#000000" stroke-width="2" stroke-miterlimit="10" x1="298.635" y1="693.387" x2="310.149" y2="693.387"/>
	
		<line fill="none" stroke="#000000" stroke-width="2" stroke-miterlimit="10" x1="246.399" y1="693.387" x2="289.969" y2="693.387"/>
	
		<line fill="none" stroke="#000000" stroke-width="2" stroke-miterlimit="10" x1="415.135" y1="595.323" x2="415.135" y2="646.663"/>
	
		<line fill="none" stroke="#000000" stroke-width="2" stroke-miterlimit="10" x1="372.135" y1="638.289" x2="372.135" y2="646.292"/>
	<line fill="none" stroke="#000000" stroke-width="2" stroke-miterlimit="10" x1="372.135" y1="595.323" x2="372.135" y2="629.72"/>
	
		<line fill="none" stroke="#000000" stroke-width="2" stroke-miterlimit="10" x1="349.135" y1="595.324" x2="349.135" y2="646.664"/>
	
		<line fill="none" stroke="#000000" stroke-width="2" stroke-miterlimit="10" x1="541.968" y1="667.926" x2="541.968" y2="723.581"/>
	
		<line fill="none" stroke="#000000" stroke-width="2" stroke-miterlimit="10" x1="564.774" y1="667.926" x2="564.774" y2="723.581"/>
	
		<line fill="none" stroke="#000000" stroke-width="2" stroke-miterlimit="10" x1="605.135" y1="668.754" x2="605.135" y2="724.409"/>
	
		<line fill="none" stroke="#000000" stroke-width="2" stroke-miterlimit="10" x1="624.635" y1="692.387" x2="624.635" y2="723.582"/>
	<line fill="none" stroke="#000000" stroke-width="2" stroke-miterlimit="10" x1="624.635" y1="667.927" x2="624.635" y2="683.72"/>
	
		<line fill="none" stroke="#000000" stroke-width="2" stroke-miterlimit="10" x1="609.635" y1="595.337" x2="609.635" y2="646.507"/>
	<line fill="none" stroke="#000000" stroke-width="2" stroke-miterlimit="10" x1="629.29" y1="638.72" x2="629.29" y2="646.664"/>
	<line fill="none" stroke="#000000" stroke-width="2" stroke-miterlimit="10" x1="629.29" y1="597.552" x2="629.29" y2="631.054"/>
	<line fill="none" stroke="#000000" stroke-width="2" stroke-miterlimit="10" x1="683.968" y1="701.72" x2="716.909" y2="701.72"/>
	<line fill="none" stroke="#000000" stroke-width="2" stroke-miterlimit="10" x1="670.647" y1="701.72" x2="675.968" y2="701.72"/>
	
		<line fill="none" stroke="#000000" stroke-width="2" stroke-miterlimit="10" x1="670.647" y1="680.054" x2="716.909" y2="680.054"/>
	<polyline fill="none" stroke="#9D9D9C" stroke-width="2" stroke-miterlimit="10" points="116.787,113.026 242.287,113.026 
		269.82,55.715 	"/>
	
		<line fill="none" stroke="#9D9D9C" stroke-width="2" stroke-miterlimit="10" x1="269.819" y1="169.708" x2="242.287" y2="113.026"/>
	<polyline fill="none" stroke="#9D9D9C" stroke-width="2" stroke-miterlimit="10" points="95.864,66.524 95.864,47.887 
		117.583,47.887 	"/>
	
		<line fill="none" stroke="#9D9D9C" stroke-width="2" stroke-miterlimit="10" x1="735.135" y1="156.387" x2="767.728" y2="156.387"/>
	
		<line fill="none" stroke="#9D9D9C" stroke-width="2" stroke-miterlimit="10" x1="687.636" y1="156.387" x2="725.385" y2="156.387"/>
	
		<line fill="none" stroke="#9D9D9C" stroke-width="2" stroke-miterlimit="10" x1="591.662" y1="156.387" x2="679.854" y2="156.387"/>
	
		<line fill="none" stroke="#9D9D9C" stroke-width="2" stroke-miterlimit="10" x1="609.635" y1="467.025" x2="609.635" y2="484.357"/>
	
		<line fill="none" stroke="#9D9D9C" stroke-width="2" stroke-miterlimit="10" x1="732.885" y1="371.225" x2="767.728" y2="371.225"/>
	<line fill="none" stroke="#9D9D9C" stroke-width="2" stroke-miterlimit="10" x1="725.885" y1="93.887" x2="756.635" y2="93.887"/>
	<polyline fill="none" stroke="#9D9D9C" stroke-width="2" stroke-miterlimit="10" points="692.635,156.387 692.635,93.887 
		718.885,93.887 	"/>
	<polyline fill="none" stroke="#9D9D9C" stroke-width="2" stroke-miterlimit="10" points="735.385,84.387 747.385,84.387 
		747.385,46.019 	"/>
	<line fill="none" stroke="#9D9D9C" stroke-width="2" stroke-miterlimit="10" x1="707.635" y1="84.387" x2="728.635" y2="84.387"/>
	<polyline fill="none" stroke="#9D9D9C" stroke-width="2" stroke-miterlimit="10" points="657.135,57.887 657.135,84.387 
		698.635,84.387 	"/>
	<line fill="none" stroke="#9D9D9C" stroke-width="2" stroke-miterlimit="10" x1="657.135" y1="46.019" x2="657.135" y2="51.637"/>
	<line fill="none" stroke="#9D9D9C" stroke-width="2" stroke-miterlimit="10" x1="725.635" y1="46.019" x2="725.635" y2="84.387"/>
	<line fill="none" stroke="#9D9D9C" stroke-width="2" stroke-miterlimit="10" x1="689.635" y1="46.019" x2="689.635" y2="84.387"/>
	<line fill="none" stroke="#9D9D9C" stroke-width="2" stroke-miterlimit="10" x1="657.135" y1="61.887" x2="689.635" y2="61.887"/>
	<line fill="none" stroke="#9D9D9C" stroke-width="2" stroke-miterlimit="10" x1="664.385" y1="84.387" x2="664.385" y2="61.887"/>
	
		<line fill="none" stroke="#9D9D9C" stroke-width="2" stroke-miterlimit="10" x1="740.635" y1="438.469" x2="767.728" y2="438.469"/>
	
		<line fill="none" stroke="#9D9D9C" stroke-width="2" stroke-miterlimit="10" x1="732.135" y1="438.469" x2="740.635" y2="438.469"/>
	
		<line fill="none" stroke="#9D9D9C" stroke-width="2" stroke-miterlimit="10" x1="724.017" y1="438.469" x2="732.135" y2="438.469"/>
	<g>
		<g>
			
				<line fill="none" stroke="#9D9D9C" stroke-width="2" stroke-miterlimit="10" x1="683.543" y1="79.361" x2="670.542" y2="66.361"/>
			
				<line fill="none" stroke="#9D9D9C" stroke-width="2" stroke-miterlimit="10" x1="683.542" y1="66.498" x2="670.542" y2="79.499"/>
		</g>
		
			<rect x="670.542" y="66.361" transform="matrix(-0.9999 0.0146 -0.0146 -0.9999 1355.0845 136.349)" fill="none" stroke="#9D9D9C" stroke-miterlimit="10" width="13.001" height="13.551"/>
	</g>
	
		<rect x="639.968" y="202.053" fill="none" stroke="#9D9D9C" stroke-width="2" stroke-miterlimit="10" width="81" height="131.667"/>
	<path fill="none" stroke="#000000" stroke-miterlimit="10" d="M489.367,640.949c0,0,0-16.008,0-21.208
		c-0.029-8.12,16.398-8.018,16.334,0.001c0.145,10.571-0.002,21.208-0.002,21.208"/>
	<line fill="none" stroke="#000000" stroke-miterlimit="10" x1="473.699" y1="635.06" x2="489.367" y2="635.06"/>
	<line fill="none" stroke="#000000" stroke-miterlimit="10" x1="473.703" y1="622.671" x2="489.373" y2="622.671"/>
	<line fill="none" stroke="#000000" stroke-miterlimit="10" x1="473.701" y1="630.104" x2="489.369" y2="630.104"/>
	<line fill="none" stroke="#000000" stroke-miterlimit="10" x1="473.699" y1="632.582" x2="489.367" y2="632.582"/>
	<line fill="none" stroke="#000000" stroke-miterlimit="10" x1="473.701" y1="627.626" x2="489.371" y2="627.626"/>
	<line fill="none" stroke="#000000" stroke-miterlimit="10" x1="473.703" y1="625.148" x2="489.371" y2="625.148"/>
	<line fill="none" stroke="#000000" stroke-miterlimit="10" x1="505.679" y1="635.077" x2="520.001" y2="635.077"/>
	<line fill="none" stroke="#000000" stroke-miterlimit="10" x1="505.682" y1="630.116" x2="520.005" y2="630.116"/>
	<line fill="none" stroke="#000000" stroke-miterlimit="10" x1="505.68" y1="632.597" x2="520.003" y2="632.597"/>
	<line fill="none" stroke="#000000" stroke-miterlimit="10" x1="505.686" y1="625.156" x2="520.008" y2="625.156"/>
	<line fill="none" stroke="#000000" stroke-miterlimit="10" x1="505.675" y1="637.559" x2="520" y2="637.557"/>
	<line fill="none" stroke="#000000" stroke-miterlimit="10" x1="505.675" y1="640.038" x2="519.998" y2="640.038"/>
	<line fill="none" stroke="#000000" stroke-miterlimit="10" x1="505.673" y1="642.519" x2="519.997" y2="642.519"/>
	<line fill="none" stroke="#000000" stroke-miterlimit="10" x1="505.918" y1="627.637" x2="520.241" y2="627.637"/>
	<line fill="none" stroke="#000000" stroke-miterlimit="10" x1="473.698" y1="620.192" x2="489.368" y2="620.192"/>
	<line fill="none" stroke="#000000" stroke-miterlimit="10" x1="505.917" y1="620.195" x2="520.242" y2="620.195"/>
	<line fill="none" stroke="#000000" stroke-miterlimit="10" x1="505.672" y1="622.676" x2="519.997" y2="622.676"/>
	<line fill="none" stroke="#000000" stroke-miterlimit="10" x1="474.204" y1="617.715" x2="489.874" y2="617.715"/>
	<line fill="none" stroke="#000000" stroke-miterlimit="10" x1="505.011" y1="617.715" x2="519.021" y2="617.715"/>
	<path fill="none" stroke="#000000" stroke-miterlimit="10" d="M489.399,640.607c-0.029,9.53,16.398,9.41,16.334-0.001"/>
	<line fill="none" stroke="#000000" stroke-miterlimit="10" x1="518.87" y1="647.656" x2="497.566" y2="647.656"/>
	<polyline fill="none" stroke="#000000" stroke-width="4" stroke-miterlimit="10" points="252.545,598.998 252.47,550.731 
		117.749,550.731 	"/>
	
		<line fill="none" stroke="#000000" stroke-width="3" stroke-miterlimit="10" x1="117.212" y1="552.721" x2="117.212" y2="498.218"/>
	<polyline fill="none" stroke="#000000" stroke-width="4" stroke-miterlimit="10" points="115.135,474.192 325.153,474.192 
		325.164,596.832 	"/>
	<polyline fill="none" stroke="#000000" stroke-width="3" stroke-miterlimit="10" points="354.671,669.142 324.649,669.142 
		324.649,676.241 	"/>
	
		<line fill="none" stroke="#000000" stroke-width="3" stroke-miterlimit="10" x1="380.258" y1="668.736" x2="362.885" y2="668.735"/>
	
		<line fill="none" stroke="#000000" stroke-width="3" stroke-miterlimit="10" x1="404.135" y1="668.663" x2="387.749" y2="668.663"/>
	
		<line fill="none" stroke="#000000" stroke-width="3" stroke-miterlimit="10" x1="434.135" y1="668.663" x2="411.135" y2="668.663"/>
	
		<line fill="none" stroke="#000000" stroke-width="3" stroke-miterlimit="10" x1="453.385" y1="668.663" x2="442.885" y2="668.663"/>
	<line fill="none" stroke="#000000" stroke-width="3" stroke-miterlimit="10" x1="491.97" y1="668.663" x2="461.135" y2="668.663"/>
	
		<line fill="none" stroke="#000000" stroke-width="2" stroke-miterlimit="10" x1="375.886" y1="684.387" x2="375.886" y2="723.317"/>
	
		<line fill="none" stroke="#000000" stroke-width="2" stroke-miterlimit="10" x1="375.886" y1="668.754" x2="375.886" y2="677.054"/>
	
		<line fill="none" stroke="#000000" stroke-width="2" stroke-miterlimit="10" x1="351.636" y1="684.342" x2="351.636" y2="724.363"/>
	
		<line fill="none" stroke="#000000" stroke-width="2" stroke-miterlimit="10" x1="351.636" y1="668.618" x2="351.636" y2="677.009"/>
	
		<line fill="none" stroke="#000000" stroke-width="2" stroke-miterlimit="10" x1="400.135" y1="683.927" x2="400.135" y2="723.281"/>
	
		<line fill="none" stroke="#000000" stroke-width="2" stroke-miterlimit="10" x1="400.135" y1="668.962" x2="400.135" y2="676.594"/>
	<line fill="none" stroke="#000000" stroke-width="2" stroke-miterlimit="10" x1="424.385" y1="684.22" x2="424.385" y2="723.241"/>
	
		<line fill="none" stroke="#000000" stroke-width="2" stroke-miterlimit="10" x1="424.385" y1="669.922" x2="424.385" y2="676.887"/>
	
		<line fill="none" stroke="#000000" stroke-width="2" stroke-miterlimit="10" x1="448.635" y1="684.568" x2="448.635" y2="723.449"/>
	
		<line fill="none" stroke="#000000" stroke-width="2" stroke-miterlimit="10" x1="448.635" y1="668.796" x2="448.635" y2="677.235"/>
	<g>
		<path fill="#010202" d="M562.238,612.287v1.416h0.786C562.689,613.448,562.409,612.941,562.238,612.287L562.238,612.287z"/>
		<path fill="#010202" d="M563.042,607.885h-7.168v0.021c-0.584,0.168-1.085,1.396-1.085,2.888h-0.006v6.363h7.272v-2v-4.182v-0.182
			C562.056,609.444,562.469,608.298,563.042,607.885L563.042,607.885z"/>
		<path fill="#010202" d="M563.634,611.643c-0.203,0-0.367-0.392-0.367-0.842c0-0.451,0.165-0.838,0.367-0.838
			c0.203,0,0.367,0.387,0.367,0.838C564.001,611.251,563.837,611.643,563.634,611.643L563.634,611.643z M563.511,607.899
			c-0.69,0-1.273,1.325-1.273,2.895c0,1.55,0.595,2.909,1.273,2.909c0.678,0,1.272-1.359,1.272-2.909
			C564.784,609.225,564.201,607.899,563.511,607.899L563.511,607.899z"/>
	</g>
	<g>
		<path fill="#010202" d="M537.25,612.287v1.416h0.786C537.701,613.448,537.42,612.941,537.25,612.287L537.25,612.287z"/>
		<path fill="#010202" d="M538.054,607.885h-7.168v0.021c-0.584,0.168-1.085,1.396-1.085,2.888h-0.006v6.363h7.272v-2v-4.182v-0.182
			C537.068,609.444,537.481,608.298,538.054,607.885L538.054,607.885z"/>
		<path fill="#010202" d="M538.646,611.643c-0.203,0-0.367-0.392-0.367-0.842c0-0.451,0.165-0.838,0.367-0.838
			c0.203,0,0.367,0.387,0.367,0.838C539.013,611.251,538.849,611.643,538.646,611.643L538.646,611.643z M538.523,607.899
			c-0.69,0-1.273,1.325-1.273,2.895c0,1.55,0.595,2.909,1.273,2.909c0.678,0,1.272-1.359,1.272-2.909
			C539.795,609.225,539.212,607.899,538.523,607.899L538.523,607.899z"/>
	</g>
</g>
</svg>
