<?xml version="1.0" encoding="utf-8"?>
<!-- Generator: Adobe Illustrator 15.0.0, SVG Export Plug-In . SVG Version: 6.00 Build 0)  -->
<!DOCTYPE svg PUBLIC "-//W3C//DTD SVG 1.1//EN" "http://www.w3.org/Graphics/SVG/1.1/DTD/svg11.dtd">
<svg version="1.1" xmlns="http://www.w3.org/2000/svg" xmlns:xlink="http://www.w3.org/1999/xlink" x="0px" y="0px"
	 width="779.95px" height="742.45px" viewBox="0 0 779.95 742.45" enable-background="new 0 0 779.95 742.45" xml:space="preserve">
<g id="Ebene_1" display="none">
	
		<image display="inline" overflow="visible" width="1920" height="2560" xlink:href="3OG_Haus3.JPG"  transform="matrix(0.2396 0 0 0.2396 37.4956 50.3848)">
	</image>
</g>
<g id="Ebene_2" display="none">
	
		<image display="inline" overflow="visible" width="2560" height="1920" xlink:href="3OG_Haus2.JPG"  transform="matrix(0.2509 0.0088 -0.0088 0.2509 125.0781 329.8057)">
	</image>
</g>
<g id="Ebene_4">
	<polyline fill="none" stroke="#9D9D9C" stroke-width="4" stroke-miterlimit="10" points="117.212,551.26 117.211,608.584 
		26.252,608.584 26.252,247.103 12.753,247.103 12.753,65.611 24.752,65.611 24.751,17.614 117.212,17.614 117.212,55.112 
		269.82,55.113 269.819,169.106 117.212,169.106 117.212,473.592 	"/>
	<line fill="none" stroke="#000000" stroke-width="4" stroke-miterlimit="10" x1="310.149" y1="550.131" x2="115.15" y2="550.131"/>
	
		<line fill="none" stroke="#000000" stroke-width="4" stroke-miterlimit="10" x1="324.649" y1="550.131" x2="320.404" y2="550.131"/>
	<line fill="none" stroke="#000000" stroke-width="4" stroke-miterlimit="10" x1="252.545" y1="598.397" x2="252.47" y2="550.131"/>
	
		<line fill="none" stroke="#9D9D9C" stroke-width="3" stroke-miterlimit="10" x1="110.837" y1="538.801" x2="117.212" y2="538.801"/>
	<line fill="none" stroke="#9D9D9C" stroke-width="3" stroke-miterlimit="10" x1="76.521" y1="538.801" x2="101.902" y2="538.801"/>
	<polyline fill="none" stroke="#9D9D9C" stroke-width="3" stroke-miterlimit="10" points="34.847,538.801 26.676,538.801 
		40.902,538.801 	"/>
	<polyline fill="none" stroke="#9D9D9C" stroke-width="3" stroke-miterlimit="10" points="76.521,489.176 76.521,538.801 
		49.736,538.801 	"/>
	<line fill="none" stroke="#9D9D9C" stroke-width="3" stroke-miterlimit="10" x1="76.521" y1="455.093" x2="76.521" y2="480.676"/>
	<line fill="none" stroke="#9D9D9C" stroke-width="3" stroke-miterlimit="10" x1="76.521" y1="436.176" x2="76.521" y2="448.426"/>
	<line fill="none" stroke="#9D9D9C" stroke-width="3" stroke-miterlimit="10" x1="76.521" y1="416.759" x2="76.521" y2="429.676"/>
	<line fill="none" stroke="#9D9D9C" stroke-width="3" stroke-miterlimit="10" x1="76.521" y1="390.593" x2="76.521" y2="408.926"/>
	<line fill="none" stroke="#9D9D9C" stroke-width="3" stroke-miterlimit="10" x1="76.521" y1="369.759" x2="76.521" y2="383.259"/>
	<line fill="none" stroke="#9D9D9C" stroke-width="3" stroke-miterlimit="10" x1="76.521" y1="347.593" x2="76.521" y2="361.926"/>
	<line fill="none" stroke="#9D9D9C" stroke-width="3" stroke-miterlimit="10" x1="76.521" y1="335.926" x2="76.521" y2="340.926"/>
	<line fill="none" stroke="#9D9D9C" stroke-width="3" stroke-miterlimit="10" x1="76.521" y1="324.926" x2="76.521" y2="330.429"/>
	<line fill="none" stroke="#9D9D9C" stroke-width="3" stroke-miterlimit="10" x1="76.521" y1="310.759" x2="76.521" y2="317.426"/>
	<line fill="none" stroke="#9D9D9C" stroke-width="3" stroke-miterlimit="10" x1="76.521" y1="308.426" x2="76.521" y2="310.759"/>
	<line fill="none" stroke="#9D9D9C" stroke-width="3" stroke-miterlimit="10" x1="76.521" y1="275.809" x2="76.521" y2="301.426"/>
	<line fill="none" stroke="#9D9D9C" stroke-width="3" stroke-miterlimit="10" x1="76.521" y1="257.899" x2="76.521" y2="268.952"/>
	<line fill="none" stroke="#9D9D9C" stroke-width="3" stroke-miterlimit="10" x1="76.521" y1="218.926" x2="76.521" y2="250.426"/>
	<line fill="none" stroke="#9D9D9C" stroke-width="3" stroke-miterlimit="10" x1="76.521" y1="141.551" x2="76.521" y2="210.676"/>
	<line fill="none" stroke="#9D9D9C" stroke-width="3" stroke-miterlimit="10" x1="76.521" y1="128.051" x2="76.521" y2="134.426"/>
	<line fill="none" stroke="#9D9D9C" stroke-width="3" stroke-miterlimit="10" x1="76.521" y1="98.051" x2="76.521" y2="120.092"/>
	<line fill="none" stroke="#9D9D9C" stroke-width="3" stroke-miterlimit="10" x1="76.521" y1="77.301" x2="76.521" y2="91.676"/>
	<polyline fill="none" stroke="#9D9D9C" stroke-width="3" stroke-miterlimit="10" points="23.668,65.924 76.521,65.924 
		76.521,71.051 	"/>
	<line stroke="#9D9D9C" stroke-width="3" stroke-miterlimit="10" x1="52.736" y1="246.676" x2="75.236" y2="246.676"/>
	<line stroke="#9D9D9C" stroke-width="3" stroke-miterlimit="10" x1="24.335" y1="246.676" x2="43.995" y2="246.676"/>
	<line stroke="#9D9D9C" stroke-width="2" stroke-miterlimit="10" x1="26.252" y1="468.926" x2="75.236" y2="468.926"/>
	<line stroke="#9D9D9C" stroke-width="2" stroke-miterlimit="10" x1="26.252" y1="422.176" x2="75.236" y2="422.176"/>
	<line stroke="#9D9D9C" stroke-width="3" stroke-miterlimit="10" x1="26.252" y1="377.426" x2="75.236" y2="377.426"/>
	<line stroke="#9D9D9C" stroke-width="2" stroke-miterlimit="10" x1="68.736" y1="337.426" x2="76.568" y2="337.426"/>
	<line stroke="#9D9D9C" stroke-width="2" stroke-miterlimit="10" x1="27.539" y1="333.426" x2="68.736" y2="333.426"/>
	<line stroke="#9D9D9C" stroke-width="2" stroke-miterlimit="10" x1="26.252" y1="310.759" x2="75.611" y2="310.759"/>
	<line stroke="#9D9D9C" stroke-width="3" stroke-miterlimit="10" x1="24.335" y1="288.176" x2="75.986" y2="288.176"/>
	<line stroke="#9D9D9C" stroke-width="2" stroke-miterlimit="10" x1="24.71" y1="265.869" x2="75.611" y2="265.869"/>
	<line stroke="#9D9D9C" stroke-width="2" stroke-miterlimit="10" x1="12.753" y1="131.176" x2="75.236" y2="131.176"/>
	<line fill="none" stroke="#9D9D9C" stroke-width="2" stroke-miterlimit="10" x1="77.486" y1="54.426" x2="77.486" y2="17.53"/>
	<path fill="none" stroke="#9D9D9C" stroke-width="2" stroke-miterlimit="10" d="M77.486,54.426"/>
	<polyline fill="none" stroke="#9D9D9C" stroke-width="2" stroke-miterlimit="10" points="74.708,65.441 77,65.441 77,62.759 	"/>
	<line fill="none" stroke="#9D9D9C" stroke-width="3" stroke-miterlimit="10" x1="116.734" y1="288.176" x2="94.884" y2="288.176"/>
	<line fill="none" stroke="#9D9D9C" stroke-width="2" stroke-miterlimit="10" x1="95.869" y1="292.426" x2="95.869" y2="288.676"/>
	<line fill="none" stroke="#9D9D9C" stroke-width="2" stroke-miterlimit="10" x1="95.869" y1="378.927" x2="95.869" y2="300.176"/>
	<line fill="none" stroke="#9D9D9C" stroke-width="2" stroke-miterlimit="10" x1="95.869" y1="406.093" x2="95.869" y2="386.427"/>
	<line fill="none" stroke="#9D9D9C" stroke-width="2" stroke-miterlimit="10" x1="95.869" y1="454.927" x2="95.869" y2="413.593"/>
	<polyline fill="none" stroke="#9D9D9C" stroke-width="2" stroke-miterlimit="10" points="119.214,468.259 95.869,468.259 
		95.869,462.593 	"/>
	<polyline fill="none" stroke="#9D9D9C" stroke-width="2" stroke-miterlimit="10" points="116.787,173.619 116.787,52.426 
		77.486,52.426 	"/>
	<polyline fill="none" stroke="#9D9D9C" stroke-width="2" stroke-miterlimit="10" points="93.736,95.426 93.736,138.925 
		116.787,138.926 	"/>
	<polyline fill="none" stroke="#9D9D9C" stroke-width="2" stroke-miterlimit="10" points="117.583,86.759 93.736,86.759 
		93.736,89.426 	"/>
	<line fill="none" stroke="#9D9D9C" stroke-miterlimit="10" x1="77.551" y1="501.563" x2="103.402" y2="501.563"/>
	<line fill="none" stroke="#9D9D9C" stroke-miterlimit="10" x1="77.551" y1="499.079" x2="103.402" y2="499.079"/>
	<polyline fill="none" stroke="#9D9D9C" stroke-miterlimit="10" points="77.551,509.019 103.402,509.019 103.402,493.427 
		117.212,493.427 	"/>
	<line fill="none" stroke="#9D9D9C" stroke-miterlimit="10" x1="77.551" y1="506.533" x2="103.402" y2="506.533"/>
	<line fill="none" stroke="#9D9D9C" stroke-miterlimit="10" x1="77.551" y1="504.049" x2="103.402" y2="504.049"/>
	<line fill="none" stroke="#000000" stroke-miterlimit="10" x1="310.149" y1="569.896" x2="320.404" y2="569.896"/>
	<line fill="none" stroke="#000000" stroke-miterlimit="10" x1="310.149" y1="557.472" x2="320.404" y2="557.472"/>
	<line fill="none" stroke="#000000" stroke-miterlimit="10" x1="310.149" y1="554.987" x2="320.404" y2="554.987"/>
	<line fill="none" stroke="#000000" stroke-miterlimit="10" x1="310.149" y1="564.927" x2="320.404" y2="564.927"/>
	<line fill="none" stroke="#000000" stroke-miterlimit="10" x1="310.149" y1="567.411" x2="320.404" y2="567.411"/>
	<line fill="none" stroke="#000000" stroke-miterlimit="10" x1="310.149" y1="562.441" x2="320.404" y2="562.441"/>
	<line fill="none" stroke="#000000" stroke-miterlimit="10" x1="310.149" y1="559.957" x2="320.404" y2="559.957"/>
	<line fill="none" stroke="#000000" stroke-miterlimit="10" x1="310.149" y1="572.381" x2="320.404" y2="572.381"/>
	<line fill="none" stroke="#000000" stroke-miterlimit="10" x1="310.149" y1="574.866" x2="320.404" y2="574.866"/>
	<line fill="none" stroke="#000000" stroke-miterlimit="10" x1="310.149" y1="577.351" x2="320.404" y2="577.351"/>
	<line fill="none" stroke="#000000" stroke-miterlimit="10" x1="310.149" y1="579.836" x2="320.404" y2="579.836"/>
	<line fill="none" stroke="#9D9D9C" stroke-miterlimit="10" x1="97.954" y1="265.869" x2="115.122" y2="265.869"/>
	<line fill="none" stroke="#9D9D9C" stroke-miterlimit="10" x1="97.954" y1="253.444" x2="115.122" y2="253.444"/>
	<line fill="none" stroke="#9D9D9C" stroke-miterlimit="10" x1="97.954" y1="250.96" x2="115.122" y2="250.96"/>
	<line fill="none" stroke="#9D9D9C" stroke-miterlimit="10" x1="97.954" y1="260.899" x2="115.122" y2="260.899"/>
	<line fill="none" stroke="#9D9D9C" stroke-miterlimit="10" x1="97.954" y1="263.384" x2="115.122" y2="263.384"/>
	<line fill="none" stroke="#9D9D9C" stroke-miterlimit="10" x1="97.954" y1="258.414" x2="115.122" y2="258.414"/>
	<line fill="none" stroke="#9D9D9C" stroke-miterlimit="10" x1="97.954" y1="255.93" x2="115.122" y2="255.93"/>
	<line fill="none" stroke="#9D9D9C" stroke-miterlimit="10" x1="97.954" y1="268.354" x2="115.122" y2="268.354"/>
	<line fill="none" stroke="#9D9D9C" stroke-miterlimit="10" x1="97.954" y1="270.839" x2="115.122" y2="270.839"/>
	<line fill="none" stroke="#9D9D9C" stroke-miterlimit="10" x1="97.954" y1="273.323" x2="115.122" y2="273.323"/>
	<line fill="none" stroke="#9D9D9C" stroke-miterlimit="10" x1="97.954" y1="248.475" x2="115.122" y2="248.475"/>
	<line fill="none" stroke="#9D9D9C" stroke-miterlimit="10" x1="97.954" y1="219.819" x2="115.122" y2="219.819"/>
	<line fill="none" stroke="#9D9D9C" stroke-miterlimit="10" x1="97.954" y1="207.396" x2="115.122" y2="207.396"/>
	<line fill="none" stroke="#9D9D9C" stroke-miterlimit="10" x1="97.954" y1="204.911" x2="115.122" y2="204.911"/>
	<line fill="none" stroke="#9D9D9C" stroke-miterlimit="10" x1="97.954" y1="214.851" x2="115.122" y2="214.851"/>
	<line fill="none" stroke="#9D9D9C" stroke-miterlimit="10" x1="97.954" y1="217.335" x2="115.122" y2="217.335"/>
	<line fill="none" stroke="#9D9D9C" stroke-miterlimit="10" x1="97.954" y1="212.364" x2="115.122" y2="212.364"/>
	<line fill="none" stroke="#9D9D9C" stroke-miterlimit="10" x1="97.954" y1="209.88" x2="115.122" y2="209.88"/>
	<line fill="none" stroke="#9D9D9C" stroke-miterlimit="10" x1="97.954" y1="222.304" x2="115.122" y2="222.304"/>
	<line fill="none" stroke="#9D9D9C" stroke-miterlimit="10" x1="97.954" y1="224.79" x2="115.122" y2="224.79"/>
	<line fill="none" stroke="#9D9D9C" stroke-miterlimit="10" x1="97.954" y1="227.274" x2="115.122" y2="227.274"/>
	<polyline fill="none" stroke="#9D9D9C" stroke-miterlimit="10" points="115.122,202.426 97.954,202.426 97.954,275.809 
		115.122,275.809 	"/>
	<polyline fill="none" stroke="#9D9D9C" stroke-width="2" stroke-miterlimit="10" points="93.736,149.676 93.736,160.426 
		117.583,160.426 	"/>
	<line fill="none" stroke="#9D9D9C" stroke-width="2" stroke-miterlimit="10" x1="93.736" y1="138.925" x2="93.736" y2="142.676"/>
	<g>
		<g>
			
				<line fill="none" stroke="#9D9D9C" stroke-width="2" stroke-miterlimit="10" x1="113.039" y1="173.52" x2="100.037" y2="160.52"/>
			
				<line fill="none" stroke="#9D9D9C" stroke-width="2" stroke-miterlimit="10" x1="113.037" y1="160.656" x2="100.037" y2="173.657"/>
		</g>
		
			<rect x="100.037" y="160.52" transform="matrix(-0.9999 0.0146 -0.0146 -0.9999 215.5027 333.0206)" fill="none" stroke="#9D9D9C" stroke-miterlimit="10" width="13.001" height="13.551"/>
	</g>
	<polyline fill="none" stroke="#000000" stroke-width="4" stroke-miterlimit="10" points="325.067,594.722 325.067,594.722 
		716.907,594.724 716.909,723.718 246.401,723.716 246.401,597.98 252.381,597.854 252.381,597.854 	"/>
	
		<line fill="none" stroke="#000000" stroke-width="2" stroke-miterlimit="10" x1="670.649" y1="705.426" x2="670.649" y2="723.718"/>
	
		<line fill="none" stroke="#000000" stroke-width="2" stroke-miterlimit="10" x1="670.649" y1="670.093" x2="670.649" y2="697.093"/>
	
		<line fill="none" stroke="#000000" stroke-width="2" stroke-miterlimit="10" x1="670.649" y1="631.729" x2="670.649" y2="662.093"/>
	
		<line fill="none" stroke="#000000" stroke-width="2" stroke-miterlimit="10" x1="670.647" y1="593.984" x2="670.647" y2="622.494"/>
	<polyline fill="none" stroke="#000000" stroke-width="3" stroke-miterlimit="10" points="334.986,646.063 324.649,646.063 
		324.649,594.723 	"/>
	
		<line fill="none" stroke="#000000" stroke-width="3" stroke-miterlimit="10" x1="354.736" y1="646.063" x2="341.736" y2="646.063"/>
	
		<line fill="none" stroke="#000000" stroke-width="3" stroke-miterlimit="10" x1="380.258" y1="646.063" x2="361.986" y2="646.063"/>
	
		<line fill="none" stroke="#000000" stroke-width="3" stroke-miterlimit="10" x1="401.236" y1="646.063" x2="387.749" y2="646.063"/>
	
		<line fill="none" stroke="#000000" stroke-width="3" stroke-miterlimit="10" x1="437.758" y1="646.063" x2="408.986" y2="646.063"/>
	
		<line fill="none" stroke="#000000" stroke-width="3" stroke-miterlimit="10" x1="474.986" y1="646.063" x2="445.264" y2="646.063"/>
	<line fill="none" stroke="#000000" stroke-width="3" stroke-miterlimit="10" x1="527.78" y1="646.063" x2="518.486" y2="646.063"/>
	
		<line fill="none" stroke="#000000" stroke-width="3" stroke-miterlimit="10" x1="539.795" y1="646.063" x2="532.778" y2="646.062"/>
	
		<line fill="none" stroke="#000000" stroke-width="3" stroke-miterlimit="10" x1="551.776" y1="646.063" x2="545.293" y2="646.063"/>
	<line fill="none" stroke="#000000" stroke-width="3" stroke-miterlimit="10" x1="573.79" y1="646.062" x2="558.486" y2="646.063"/>
	
		<line fill="none" stroke="#000000" stroke-width="3" stroke-miterlimit="10" x1="620.782" y1="646.063" x2="581.236" y2="646.063"/>
	<polyline fill="none" stroke="#000000" stroke-width="3" stroke-miterlimit="10" points="644.983,594.724 644.981,646.063 
		629.29,646.063 	"/>
	<polyline fill="none" stroke="#000000" stroke-width="3" stroke-miterlimit="10" points="336.695,668.063 324.649,668.063 
		324.649,723.717 	"/>
	
		<line fill="none" stroke="#000000" stroke-width="3" stroke-miterlimit="10" x1="360.237" y1="668.136" x2="342.903" y2="668.135"/>
	<line fill="none" stroke="#000000" stroke-width="3" stroke-miterlimit="10" x1="384.07" y1="668.136" x2="365.903" y2="668.136"/>
	
		<line fill="none" stroke="#000000" stroke-width="3" stroke-miterlimit="10" x1="408.986" y1="668.063" x2="391.119" y2="668.063"/>
	<line fill="none" stroke="#000000" stroke-width="3" stroke-miterlimit="10" x1="424.403" y1="668.063" x2="416.07" y2="668.063"/>
	<line fill="none" stroke="#000000" stroke-width="3" stroke-miterlimit="10" x1="475.983" y1="668.063" x2="430.57" y2="668.063"/>
	<path fill="none" stroke="#000000" stroke-width="3" stroke-miterlimit="10" d="M475.983,668.063"/>
	
		<line fill="none" stroke="#000000" stroke-width="3" stroke-miterlimit="10" x1="537.736" y1="668.063" x2="517.387" y2="668.063"/>
	
		<line fill="none" stroke="#000000" stroke-width="3" stroke-miterlimit="10" x1="587.736" y1="668.063" x2="545.293" y2="668.063"/>
	
		<line fill="none" stroke="#000000" stroke-width="3" stroke-miterlimit="10" x1="618.736" y1="668.063" x2="595.736" y2="668.063"/>
	<polyline fill="none" stroke="#000000" stroke-width="3" stroke-miterlimit="10" points="644.981,723.717 644.981,668.063 
		626.397,668.063 	"/>
	
		<line fill="none" stroke="#000000" stroke-width="2" stroke-miterlimit="10" x1="396.364" y1="594.723" x2="396.364" y2="646.063"/>
	<polyline fill="none" stroke="#000000" stroke-width="2" stroke-miterlimit="10" points="454.647,646.063 454.649,622.944 
		473.313,622.564 	"/>
	
		<line fill="none" stroke="#000000" stroke-width="2" stroke-miterlimit="10" x1="591.983" y1="594.723" x2="591.983" y2="646.063"/>
	
		<line fill="none" stroke="#000000" stroke-width="2" stroke-miterlimit="10" x1="569.315" y1="594.723" x2="569.315" y2="646.063"/>
	
		<line fill="none" stroke="#000000" stroke-width="2" stroke-miterlimit="10" x1="547.983" y1="594.724" x2="547.983" y2="646.063"/>
	<line fill="none" stroke="#000000" stroke-width="2" stroke-miterlimit="10" x1="548.901" y1="669.265" x2="548.901" y2="724.92"/>
	<line fill="none" stroke="#000000" stroke-width="3" stroke-miterlimit="10" x1="516.008" y1="666.59" x2="515.983" y2="723.717"/>
	
		<line fill="none" stroke="#000000" stroke-width="3" stroke-miterlimit="10" x1="475.986" y1="718.259" x2="475.983" y2="723.718"/>
	
		<line fill="none" stroke="#000000" stroke-width="3" stroke-miterlimit="10" x1="476.003" y1="677.926" x2="475.989" y2="712.093"/>
	
		<line fill="none" stroke="#000000" stroke-width="3" stroke-miterlimit="10" x1="476.008" y1="666.591" x2="476.005" y2="672.093"/>
	<line fill="none" stroke="#000000" stroke-width="2" stroke-miterlimit="10" x1="393.57" y1="668.063" x2="393.57" y2="723.717"/>
	
		<line fill="none" stroke="#000000" stroke-width="2" stroke-miterlimit="10" x1="367.986" y1="668.014" x2="367.986" y2="723.667"/>
	
		<line fill="none" stroke="#000000" stroke-width="3" stroke-miterlimit="10" x1="473.315" y1="594.723" x2="473.313" y2="646.063"/>
	
		<line fill="none" stroke="#000000" stroke-width="3" stroke-miterlimit="10" x1="519.981" y1="594.724" x2="519.983" y2="646.063"/>
	<path fill="none" stroke="#000000" stroke-miterlimit="10" d="M488.983,640.327c0,0,0-16.008,0-21.208
		c-0.029-8.12,16.398-8.018,16.334,0.001c0.145,10.571-0.002,21.208-0.002,21.208"/>
	<line fill="none" stroke="#000000" stroke-miterlimit="10" x1="473.315" y1="634.438" x2="488.983" y2="634.438"/>
	<line fill="none" stroke="#000000" stroke-miterlimit="10" x1="473.319" y1="622.049" x2="488.989" y2="622.049"/>
	<line fill="none" stroke="#000000" stroke-miterlimit="10" x1="473.317" y1="629.481" x2="488.985" y2="629.481"/>
	<line fill="none" stroke="#000000" stroke-miterlimit="10" x1="473.315" y1="631.96" x2="488.983" y2="631.96"/>
	<line fill="none" stroke="#000000" stroke-miterlimit="10" x1="473.317" y1="627.004" x2="488.987" y2="627.004"/>
	<line fill="none" stroke="#000000" stroke-miterlimit="10" x1="473.319" y1="624.526" x2="488.987" y2="624.526"/>
	<line fill="none" stroke="#000000" stroke-miterlimit="10" x1="505.387" y1="634.455" x2="521.055" y2="634.455"/>
	<line fill="none" stroke="#000000" stroke-miterlimit="10" x1="505.391" y1="629.494" x2="521.059" y2="629.494"/>
	<line fill="none" stroke="#000000" stroke-miterlimit="10" x1="505.389" y1="631.975" x2="521.057" y2="631.975"/>
	<line fill="none" stroke="#000000" stroke-miterlimit="10" x1="505.395" y1="624.534" x2="521.063" y2="624.534"/>
	<line fill="none" stroke="#000000" stroke-miterlimit="10" x1="505.383" y1="636.937" x2="521.053" y2="636.935"/>
	<line fill="none" stroke="#000000" stroke-miterlimit="10" x1="505.383" y1="639.416" x2="521.051" y2="639.416"/>
	<line fill="none" stroke="#000000" stroke-miterlimit="10" x1="505.381" y1="641.896" x2="521.049" y2="641.896"/>
	
		<line fill="none" stroke="#000000" stroke-width="2" stroke-miterlimit="10" x1="670.647" y1="681.759" x2="716.909" y2="681.759"/>
	
		<line fill="none" stroke="#000000" stroke-width="3" stroke-miterlimit="10" x1="310.147" y1="711.759" x2="310.149" y2="723.717"/>
	
		<line fill="none" stroke="#000000" stroke-width="3" stroke-miterlimit="10" x1="310.149" y1="676.759" x2="310.149" y2="704.426"/>
	
		<line fill="none" stroke="#000000" stroke-width="3" stroke-miterlimit="10" x1="310.149" y1="657.259" x2="310.149" y2="670.093"/>
	<line fill="none" stroke="#000000" stroke-width="3" stroke-miterlimit="10" x1="310.147" y1="632.26" x2="310.147" y2="649.138"/>
	<polyline fill="none" stroke="#000000" stroke-width="3" stroke-miterlimit="10" points="252.383,598.313 310.149,598.313 
		310.147,624.427 	"/>
	
		<line fill="none" stroke="#000000" stroke-width="2" stroke-miterlimit="10" x1="302.237" y1="661.015" x2="310.149" y2="661.015"/>
	
		<line fill="none" stroke="#000000" stroke-width="2" stroke-miterlimit="10" x1="246.399" y1="661.015" x2="295.403" y2="661.015"/>
	<polyline fill="none" stroke="#000000" stroke-width="2" stroke-miterlimit="10" points="536.29,645.906 536.62,626.953 
		528.19,626.805 519.7,626.931 	"/>
	
		<line fill="none" stroke="#000000" stroke-width="2" stroke-linecap="round" stroke-miterlimit="10" x1="469.579" y1="639.995" x2="457.988" y2="627.995"/>
	
		<line fill="none" stroke="#000000" stroke-width="2" stroke-linecap="round" stroke-miterlimit="10" x1="469.781" y1="628.325" x2="457.781" y2="639.915"/>
	
		<rect x="457.281" y="627.495" transform="matrix(-1 -0.0029 0.0029 -1 925.7014 1269.897)" fill="none" stroke="#000000" stroke-miterlimit="10" width="13" height="13.552"/>
	<line fill="none" stroke="#000000" stroke-miterlimit="10" x1="505.649" y1="627.015" x2="521.317" y2="627.015"/>
	<line fill="none" stroke="#000000" stroke-width="2" stroke-miterlimit="10" x1="454.647" y1="614.76" x2="454.647" y2="596.004"/>
	<line fill="none" stroke="#000000" stroke-miterlimit="10" x1="473.314" y1="619.57" x2="488.984" y2="619.57"/>
	<line fill="none" stroke="#000000" stroke-miterlimit="10" x1="505.648" y1="619.573" x2="521.318" y2="619.573"/>
	<line fill="none" stroke="#000000" stroke-miterlimit="10" x1="505.38" y1="622.054" x2="521.05" y2="622.054"/>
	<line fill="none" stroke="#000000" stroke-miterlimit="10" x1="473.82" y1="617.093" x2="489.49" y2="617.093"/>
	<line fill="none" stroke="#000000" stroke-miterlimit="10" x1="504.313" y1="617.093" x2="519.983" y2="617.093"/>
	
		<line fill="none" stroke="#000000" stroke-width="2" stroke-miterlimit="10" x1="669.314" y1="636.937" x2="715.576" y2="636.937"/>
	<line fill="none" stroke="#000000" stroke-width="2" stroke-miterlimit="10" x1="600.04" y1="668.062" x2="600.04" y2="723.717"/>
	<path fill="none" stroke="#000000" stroke-miterlimit="10" d="M534.315,652.063"/>
	<path fill="none" stroke="#000000" stroke-miterlimit="10" d="M489.015,639.985c-0.029,9.53,16.398,9.41,16.334-0.001"/>
	<line fill="none" stroke="#000000" stroke-miterlimit="10" x1="518.486" y1="647.034" x2="497.182" y2="647.034"/>
	
		<line fill="none" stroke="#000000" stroke-width="2" stroke-miterlimit="10" x1="421.736" y1="594.724" x2="421.736" y2="646.063"/>
	
		<line fill="none" stroke="#000000" stroke-width="2" stroke-miterlimit="10" x1="346.236" y1="594.723" x2="346.236" y2="646.063"/>
	
		<line fill="none" stroke="#000000" stroke-width="2" stroke-miterlimit="10" x1="371.736" y1="641.926" x2="371.736" y2="645.243"/>
	<line fill="none" stroke="#000000" stroke-width="2" stroke-miterlimit="10" x1="371.736" y1="593.903" x2="371.736" y2="634.76"/>
	
		<line fill="none" stroke="#000000" stroke-width="2" stroke-miterlimit="10" x1="442.736" y1="693.593" x2="442.736" y2="723.668"/>
	
		<line fill="none" stroke="#000000" stroke-width="2" stroke-miterlimit="10" x1="442.736" y1="677.926" x2="442.736" y2="686.759"/>
	
		<line fill="none" stroke="#000000" stroke-width="2" stroke-miterlimit="10" x1="442.736" y1="668.014" x2="442.736" y2="672.759"/>
	
		<line fill="none" stroke="#000000" stroke-width="2" stroke-miterlimit="10" x1="419.236" y1="668.153" x2="419.236" y2="723.808"/>
	<line fill="none" stroke="#000000" stroke-width="2" stroke-miterlimit="10" x1="346.236" y1="681.926" x2="346.236" y2="724.92"/>
	
		<line fill="none" stroke="#000000" stroke-width="2" stroke-miterlimit="10" x1="346.236" y1="669.266" x2="346.236" y2="675.093"/>
	<line fill="none" stroke="#000000" stroke-miterlimit="10" x1="442.236" y1="681.563" x2="475.983" y2="681.563"/>
	<line fill="none" stroke="#000000" stroke-width="2" stroke-miterlimit="10" x1="246.399" y1="695.84" x2="310.149" y2="695.84"/>
	<line fill="none" stroke="#000000" stroke-width="2" stroke-miterlimit="10" x1="302.403" y1="634.76" x2="310.149" y2="634.76"/>
	<line fill="none" stroke="#000000" stroke-width="2" stroke-miterlimit="10" x1="246.399" y1="634.76" x2="294.737" y2="634.76"/>
	<line stroke="#9D9D9C" stroke-width="2" stroke-miterlimit="10" x1="27.539" y1="444.426" x2="76.521" y2="444.426"/>
	<line stroke="#9D9D9C" stroke-width="2" stroke-miterlimit="10" x1="27.539" y1="401.176" x2="76.521" y2="401.176"/>
	<line stroke="#9D9D9C" stroke-width="2" stroke-miterlimit="10" x1="27.539" y1="356.092" x2="76.521" y2="356.092"/>
	<line stroke="#9D9D9C" stroke-width="2" stroke-miterlimit="10" x1="68.736" y1="328.09" x2="76.568" y2="328.09"/>
	<line stroke="#9D9D9C" stroke-width="2" stroke-miterlimit="10" x1="12.753" y1="84.676" x2="75.236" y2="84.676"/>
	<line stroke="#9D9D9C" stroke-width="2" stroke-miterlimit="10" x1="14.039" y1="104.971" x2="76.521" y2="104.971"/>
	<line fill="none" stroke="#9D9D9C" stroke-width="2" stroke-miterlimit="10" x1="96.471" y1="418.676" x2="117.212" y2="418.676"/>
	<line fill="none" stroke="#9D9D9C" stroke-width="2" stroke-miterlimit="10" x1="96.471" y1="394.76" x2="117.212" y2="394.76"/>
	<line fill="none" stroke="#9D9D9C" stroke-width="2" stroke-miterlimit="10" x1="95.869" y1="329.26" x2="116.61" y2="329.26"/>
	<line fill="none" stroke="#9D9D9C" stroke-width="2" stroke-miterlimit="10" x1="68.736" y1="327.126" x2="68.736" y2="338.426"/>
	<line fill="none" stroke="#9D9D9C" stroke-width="2" stroke-miterlimit="10" x1="100.736" y1="64.101" x2="116.787" y2="64.101"/>
	<polyline fill="none" stroke="#9D9D9C" stroke-width="2" stroke-miterlimit="10" points="92.236,52.426 92.236,64.101 
		94.736,64.101 	"/>
	<polyline fill="none" stroke="#000000" stroke-miterlimit="10" points="310.149,598.313 310.149,511.093 143.735,511.304 
		143.735,534.912 115.15,534.912 	"/>
	<polyline fill="none" stroke="#000000" stroke-miterlimit="10" points="320.404,550.131 320.404,499.76 132.402,499.76 
		132.069,523.729 117.749,523.729 	"/>
	<polyline fill="none" stroke="#000000" stroke-miterlimit="10" points="324.649,596.231 320.404,596.231 320.404,550.131 	"/>
	<line fill="none" stroke="#9D9D9C" stroke-miterlimit="10" x1="90.477" y1="499.079" x2="90.477" y2="509.019"/>
	<polyline fill="none" stroke="#9D9D9C" stroke-width="2" stroke-miterlimit="10" points="117.583,112.426 233.486,112.426 
		268.986,55.113 	"/>
	
		<line fill="none" stroke="#9D9D9C" stroke-width="2" stroke-miterlimit="10" x1="269.819" y1="169.106" x2="233.486" y2="112.426"/>
	<line fill="none" stroke="#9D9D9C" stroke-miterlimit="10" x1="93.736" y1="114.79" x2="117.107" y2="114.79"/>
	<line fill="none" stroke="#9D9D9C" stroke-miterlimit="10" x1="93.736" y1="102.366" x2="117.107" y2="102.366"/>
	<line fill="none" stroke="#9D9D9C" stroke-miterlimit="10" x1="93.736" y1="99.882" x2="117.107" y2="99.882"/>
	<line fill="none" stroke="#9D9D9C" stroke-miterlimit="10" x1="93.736" y1="109.821" x2="117.107" y2="109.821"/>
	<line fill="none" stroke="#9D9D9C" stroke-miterlimit="10" x1="93.736" y1="112.306" x2="117.107" y2="112.306"/>
	<line fill="none" stroke="#9D9D9C" stroke-miterlimit="10" x1="93.736" y1="107.335" x2="117.107" y2="107.335"/>
	<line fill="none" stroke="#9D9D9C" stroke-miterlimit="10" x1="93.736" y1="104.851" x2="117.107" y2="104.851"/>
	<line fill="none" stroke="#9D9D9C" stroke-miterlimit="10" x1="93.736" y1="117.274" x2="117.107" y2="117.274"/>
	<line fill="none" stroke="#9D9D9C" stroke-miterlimit="10" x1="93.736" y1="119.761" x2="117.107" y2="119.761"/>
	<line fill="none" stroke="#9D9D9C" stroke-miterlimit="10" x1="93.736" y1="122.245" x2="117.107" y2="122.245"/>
	<line fill="none" stroke="#9D9D9C" stroke-miterlimit="10" x1="117.107" y1="97.396" x2="93.736" y2="97.396"/>
	<line fill="none" stroke="#9D9D9C" stroke-miterlimit="10" x1="105.421" y1="97.781" x2="105.421" y2="122.245"/>
	<line fill="none" stroke="#000000" stroke-width="3" stroke-miterlimit="10" x1="116.6" y1="534.912" x2="116.6" y2="551.26"/>
	<polyline fill="none" stroke="#000000" stroke-width="4" stroke-miterlimit="10" points="115.15,473.592 325.153,473.592 
		325.164,596.231 	"/>
	
		<line fill="none" stroke="#000000" stroke-width="4" stroke-miterlimit="10" x1="117.212" y1="473.592" x2="117.212" y2="524.225"/>
	
		<line fill="none" stroke="#9D9D9C" stroke-width="4" stroke-miterlimit="10" x1="591.583" y1="421.475" x2="591.583" y2="254.603"/>
	<polyline fill="none" stroke="#9D9D9C" stroke-width="4" stroke-miterlimit="10" points="591.583,254.603 591.583,42.134 
		767.331,42.134 767.331,511.756 591.583,511.756 591.583,420.578 	"/>
	<g>
		<path fill="#010202" d="M560.94,612.834v1.416h0.786C561.391,613.995,561.111,613.488,560.94,612.834L560.94,612.834z"/>
		<path fill="#010202" d="M561.745,608.432h-7.168v0.021c-0.584,0.168-1.085,1.396-1.085,2.888h-0.006v6.363h7.272v-2v-4.182v-0.182
			C560.758,609.991,561.172,608.845,561.745,608.432L561.745,608.432z"/>
		<path fill="#010202" d="M562.336,612.189c-0.203,0-0.367-0.392-0.367-0.842c0-0.451,0.165-0.838,0.367-0.838
			c0.203,0,0.367,0.387,0.367,0.838C562.704,611.798,562.54,612.189,562.336,612.189L562.336,612.189z M562.213,608.446
			c-0.69,0-1.273,1.325-1.273,2.895c0,1.55,0.596,2.909,1.273,2.909s1.272-1.359,1.272-2.909
			C563.486,609.771,562.903,608.446,562.213,608.446L562.213,608.446z"/>
	</g>
	<g>
		<path fill="#010202" d="M536.769,612.834v1.416h0.786C537.22,613.995,536.94,613.488,536.769,612.834L536.769,612.834z"/>
		<path fill="#010202" d="M537.574,608.432h-7.168v0.021c-0.584,0.168-1.085,1.396-1.085,2.888h-0.006v6.363h7.272v-2v-4.182v-0.182
			C536.587,609.991,537,608.845,537.574,608.432L537.574,608.432z"/>
		<path fill="#010202" d="M538.166,612.189c-0.203,0-0.367-0.392-0.367-0.842c0-0.451,0.165-0.838,0.367-0.838
			c0.203,0,0.367,0.387,0.367,0.838C538.533,611.798,538.369,612.189,538.166,612.189L538.166,612.189z M538.042,608.446
			c-0.69,0-1.273,1.325-1.273,2.895c0,1.55,0.595,2.909,1.273,2.909c0.678,0,1.272-1.359,1.272-2.909
			C539.315,609.771,538.732,608.446,538.042,608.446L538.042,608.446z"/>
	</g>
</g>
</svg>
