<?xml version="1.0" encoding="utf-8"?>
<!-- Generator: Adobe Illustrator 15.0.0, SVG Export Plug-In . SVG Version: 6.00 Build 0)  -->
<!DOCTYPE svg PUBLIC "-//W3C//DTD SVG 1.1//EN" "http://www.w3.org/Graphics/SVG/1.1/DTD/svg11.dtd">
<svg version="1.1" xmlns="http://www.w3.org/2000/svg" xmlns:xlink="http://www.w3.org/1999/xlink" x="0px" y="0px"
	 width="779.953px" height="742.45px" viewBox="0 0 779.953 742.45" enable-background="new 0 0 779.953 742.45"
	 xml:space="preserve">
<g id="Ebene_3" display="none">
	
		<image display="inline" overflow="visible" width="2560" height="1920" xlink:href="EG_Haus1.JPG"  transform="matrix(0 -0.2083 0.2083 0 479.3203 540.7471)">
	</image>
</g>
<g id="Ebene_4">
	<polyline fill="none" stroke="#9D9D9C" stroke-width="4" stroke-miterlimit="10" points="117.214,474.578 325.154,474.578 
		325.165,597.377 	"/>
	<line fill="none" stroke="#9D9D9C" stroke-width="4" stroke-miterlimit="10" x1="117.147" y1="244.72" x2="116.93" y2="476.387"/>
	<polyline fill="none" stroke="#9D9D9C" stroke-width="4" stroke-miterlimit="10" points="117.75,551.117 117.75,609.57 
		26.254,609.57 26.254,248.089 12.755,248.089 12.755,66.598 24.754,66.598 24.753,18.601 117.214,18.601 117.214,56.099 
		269.821,56.1 269.82,170.093 117.214,170.093 117.155,235.387 	"/>
	<polyline fill="none" stroke="#9D9D9C" stroke-width="4" stroke-miterlimit="10" points="252.547,599.021 252.472,551.117 
		117.75,551.117 	"/>
	<polyline fill="none" stroke="#9D9D9C" stroke-width="3" stroke-miterlimit="10" points="275.987,501.482 275.987,550.643 
		251.271,550.643 	"/>
	
		<line fill="none" stroke="#9D9D9C" stroke-width="3" stroke-miterlimit="10" x1="117.214" y1="552.246" x2="117.214" y2="501.482"/>
	<polyline fill="none" stroke="#9D9D9C" stroke-width="3" stroke-miterlimit="10" points="88.336,539.787 117.214,539.787 
		117.214,552.246 	"/>
	<line fill="none" stroke="#9D9D9C" stroke-width="3" stroke-miterlimit="10" x1="47.238" y1="539.787" x2="80.237" y2="539.787"/>
	<polyline fill="none" stroke="#9D9D9C" stroke-width="3" stroke-miterlimit="10" points="76.523,489.662 76.523,539.787 
		26.928,539.787 	"/>
	<line fill="none" stroke="#9D9D9C" stroke-width="3" stroke-miterlimit="10" x1="76.523" y1="422.637" x2="76.523" y2="479.287"/>
	<line fill="none" stroke="#9D9D9C" stroke-width="3" stroke-miterlimit="10" x1="76.523" y1="366.137" x2="76.523" y2="414.412"/>
	<line fill="none" stroke="#9D9D9C" stroke-width="3" stroke-miterlimit="10" x1="76.523" y1="341.387" x2="76.523" y2="356.137"/>
	<line fill="none" stroke="#9D9D9C" stroke-width="3" stroke-miterlimit="10" x1="76.523" y1="318.412" x2="76.523" y2="333.412"/>
	<line fill="none" stroke="#9D9D9C" stroke-width="3" stroke-miterlimit="10" x1="76.523" y1="311.745" x2="76.523" y2="318.412"/>
	<line fill="none" stroke="#9D9D9C" stroke-width="3" stroke-miterlimit="10" x1="76.523" y1="292.137" x2="76.523" y2="311.745"/>
	<line fill="none" stroke="#9D9D9C" stroke-width="3" stroke-miterlimit="10" x1="76.523" y1="179.387" x2="76.523" y2="283.387"/>
	<line fill="none" stroke="#9D9D9C" stroke-width="3" stroke-miterlimit="10" x1="76.523" y1="110.912" x2="76.523" y2="185.387"/>
	<line stroke="#9D9D9C" stroke-width="3" stroke-miterlimit="10" x1="25.306" y1="247.65" x2="76.206" y2="247.65"/>
	<line stroke="#9D9D9C" stroke-width="2" stroke-miterlimit="10" x1="27.234" y1="474.578" x2="76.217" y2="474.578"/>
	<line stroke="#9D9D9C" stroke-width="2" stroke-miterlimit="10" x1="26.254" y1="386.38" x2="75.237" y2="386.38"/>
	<line stroke="#9D9D9C" stroke-width="2" stroke-miterlimit="10" x1="25.296" y1="347.079" x2="76.217" y2="347.079"/>
	<line stroke="#9D9D9C" stroke-width="3" stroke-miterlimit="10" x1="65.779" y1="297.912" x2="75.987" y2="297.912"/>
	<line stroke="#9D9D9C" stroke-width="3" stroke-miterlimit="10" x1="24.337" y1="297.912" x2="57.78" y2="297.912"/>
	<line fill="none" stroke="#9D9D9C" stroke-width="3" stroke-miterlimit="10" x1="95.595" y1="384.901" x2="118.979" y2="384.901"/>
	<line fill="none" stroke="#9D9D9C" stroke-width="3" stroke-miterlimit="10" x1="118.979" y1="297.901" x2="95.595" y2="297.901"/>
	<line fill="none" stroke="#9D9D9C" stroke-width="2" stroke-miterlimit="10" x1="95.595" y1="351.454" x2="95.595" y2="386.401"/>
	<line fill="none" stroke="#9D9D9C" stroke-width="2" stroke-miterlimit="10" x1="95.595" y1="313.069" x2="95.595" y2="343.704"/>
	<line fill="none" stroke="#9D9D9C" stroke-width="2" stroke-miterlimit="10" x1="95.595" y1="296.372" x2="95.595" y2="305.069"/>
	<line fill="none" stroke="#9D9D9C" stroke-width="2" stroke-miterlimit="10" x1="96.012" y1="449.412" x2="116.93" y2="449.412"/>
	<polyline fill="none" stroke="#9D9D9C" stroke-width="2" stroke-miterlimit="10" points="96.987,414.412 96.987,410.412 
		117.75,410.412 	"/>
	<line fill="none" stroke="#9D9D9C" stroke-width="2" stroke-miterlimit="10" x1="96.987" y1="449.412" x2="96.987" y2="421.412"/>
	<path fill="none" stroke="#9D9D9C" stroke-width="2" stroke-miterlimit="10" d="M77.488,53.412"/>
	<line fill="none" stroke="#9D9D9C" stroke-width="2" stroke-miterlimit="10" x1="116.789" y1="128.887" x2="116.789" y2="86.35"/>
	
		<line fill="none" stroke="#9D9D9C" stroke-width="2" stroke-miterlimit="10" x1="116.789" y1="143.386" x2="116.789" y2="136.887"/>
	
		<line fill="none" stroke="#9D9D9C" stroke-width="2" stroke-miterlimit="10" x1="116.789" y1="171.163" x2="116.789" y2="156.887"/>
	
		<line fill="none" stroke="#9D9D9C" stroke-width="2" stroke-miterlimit="10" x1="306.651" y1="519.907" x2="306.651" y2="552.049"/>
	<line fill="none" stroke="#9D9D9C" stroke-miterlimit="10" x1="306.651" y1="534.849" x2="323.819" y2="534.849"/>
	<line fill="none" stroke="#9D9D9C" stroke-miterlimit="10" x1="306.651" y1="521.21" x2="323.819" y2="521.21"/>
	<line fill="none" stroke="#9D9D9C" stroke-miterlimit="10" x1="306.651" y1="529.394" x2="323.819" y2="529.394"/>
	<line fill="none" stroke="#9D9D9C" stroke-miterlimit="10" x1="306.651" y1="532.121" x2="323.819" y2="532.121"/>
	<line fill="none" stroke="#9D9D9C" stroke-miterlimit="10" x1="306.651" y1="526.666" x2="323.819" y2="526.666"/>
	<line fill="none" stroke="#9D9D9C" stroke-miterlimit="10" x1="306.651" y1="523.938" x2="323.819" y2="523.938"/>
	<line fill="none" stroke="#9D9D9C" stroke-miterlimit="10" x1="306.651" y1="537.577" x2="323.819" y2="537.577"/>
	<g>
		<g>
			
				<line fill="none" stroke="#9D9D9C" stroke-width="2" stroke-miterlimit="10" x1="112.971" y1="174.839" x2="99.969" y2="161.839"/>
			
				<line fill="none" stroke="#9D9D9C" stroke-width="2" stroke-miterlimit="10" x1="112.969" y1="161.976" x2="99.969" y2="174.977"/>
		</g>
		
			<rect x="99.97" y="161.839" transform="matrix(-0.9999 0.0146 -0.0146 -0.9999 215.3934 335.6566)" fill="none" stroke="#9D9D9C" stroke-miterlimit="10" width="13.001" height="13.551"/>
	</g>
	<g>
		
			<line fill="none" stroke="#9D9D9C" stroke-width="2" stroke-miterlimit="10" x1="306.879" y1="538.603" x2="294.663" y2="525.388"/>
		
			<line fill="none" stroke="#9D9D9C" stroke-width="2" stroke-miterlimit="10" x1="307.102" y1="525.741" x2="294.434" y2="538.524"/>
	</g>
	<polygon fill="none" stroke="#9D9D9C" stroke-miterlimit="10" points="294.57,525.481 307.014,525.51 306.969,538.538 
		294.524,538.511 	"/>
	<line fill="none" stroke="#000000" stroke-width="4" stroke-miterlimit="10" x1="650.637" y1="63.72" x2="691.304" y2="63.72"/>
	<polyline fill="none" stroke="#000000" stroke-width="4" stroke-miterlimit="10" points="591.451,404.9 591.451,46.406 
		650.637,46.406 	"/>
	
		<line fill="none" stroke="#000000" stroke-width="4" stroke-miterlimit="10" x1="614.887" y1="421.054" x2="614.887" y2="403.887"/>
	
		<line fill="none" stroke="#000000" stroke-width="4" stroke-miterlimit="10" x1="614.887" y1="458.721" x2="614.887" y2="437.721"/>
	<polyline fill="none" stroke="#000000" stroke-width="4" stroke-miterlimit="10" points="767.198,457.8 767.198,516.027 
		591.451,516.027 591.451,457.8 	"/>
	
		<line fill="none" stroke="#000000" stroke-width="4" stroke-miterlimit="10" x1="752.887" y1="432.721" x2="752.887" y2="458.721"/>
	
		<line fill="none" stroke="#000000" stroke-width="4" stroke-miterlimit="10" x1="752.887" y1="403.887" x2="752.887" y2="416.054"/>
	<polyline fill="none" stroke="#000000" stroke-width="4" stroke-miterlimit="10" points="691.304,46.406 767.198,46.406 
		767.198,404.9 	"/>
	<polyline fill="none" stroke="#9D9D9C" stroke-width="2" stroke-miterlimit="10" points="93.737,67.021 93.737,53.412 
		116.112,53.412 116.112,68.156 	"/>
	<polyline fill="none" stroke="#9D9D9C" stroke-width="4" stroke-miterlimit="10" points="252.383,598.84 252.383,598.84 
		246.402,598.967 246.402,724.702 465.97,724.679 	"/>
	<polyline fill="none" stroke="#9D9D9C" stroke-width="4" stroke-miterlimit="10" points="501.137,595.708 716.908,595.71 
		716.91,724.704 527.296,724.704 	"/>
	<polyline fill="none" stroke="#9D9D9C" stroke-width="4" stroke-miterlimit="10" points="325.068,595.708 325.068,595.708 
		488.137,595.708 	"/>
	
		<line fill="none" stroke="#9D9D9C" stroke-width="2" stroke-miterlimit="10" x1="662.637" y1="670.671" x2="662.637" y2="724.962"/>
	<line fill="none" stroke="#9D9D9C" stroke-width="2" stroke-miterlimit="10" x1="662.637" y1="636.387" x2="662.637" y2="656.65"/>
	<line fill="none" stroke="#9D9D9C" stroke-width="2" stroke-miterlimit="10" x1="662.635" y1="621.38" x2="662.635" y2="629.569"/>
	<line fill="none" stroke="#9D9D9C" stroke-width="3" stroke-miterlimit="10" x1="324.65" y1="629.912" x2="324.65" y2="595.709"/>
	<polyline fill="none" stroke="#9D9D9C" stroke-width="3" stroke-miterlimit="10" points="383.593,647.049 324.65,647.049 
		324.65,636.912 	"/>
	<line fill="none" stroke="#9D9D9C" stroke-width="3" stroke-miterlimit="10" x1="409.47" y1="647.049" x2="391.999" y2="647.049"/>
	<line fill="none" stroke="#9D9D9C" stroke-width="3" stroke-miterlimit="10" x1="435.47" y1="647.05" x2="417.137" y2="647.049"/>
	
		<line fill="none" stroke="#9D9D9C" stroke-width="3" stroke-miterlimit="10" x1="474.804" y1="647.049" x2="442.637" y2="647.049"/>
	<path fill="none" stroke="#9D9D9C" stroke-width="3" stroke-miterlimit="10" d="M473.314,647.049"/>
	<line fill="none" stroke="#9D9D9C" stroke-width="3" stroke-miterlimit="10" x1="524.637" y1="647.05" x2="518.471" y2="647.05"/>
	<line fill="none" stroke="#9D9D9C" stroke-width="3" stroke-miterlimit="10" x1="536.137" y1="647.05" x2="530.137" y2="647.05"/>
	<line fill="none" stroke="#9D9D9C" stroke-width="3" stroke-miterlimit="10" x1="545.762" y1="647.05" x2="541.887" y2="647.05"/>
	<line fill="none" stroke="#9D9D9C" stroke-width="3" stroke-miterlimit="10" x1="555.387" y1="647.05" x2="550.512" y2="647.05"/>
	<line fill="none" stroke="#9D9D9C" stroke-width="3" stroke-miterlimit="10" x1="567.887" y1="647.05" x2="560.637" y2="647.05"/>
	<line fill="none" stroke="#9D9D9C" stroke-width="3" stroke-miterlimit="10" x1="636.387" y1="647.05" x2="575.387" y2="647.05"/>
	<line fill="none" stroke="#9D9D9C" stroke-width="3" stroke-miterlimit="10" x1="647.4" y1="647.05" x2="643.137" y2="647.05"/>
	<polyline fill="none" stroke="#9D9D9C" stroke-width="3" stroke-miterlimit="10" points="376.28,669.049 324.65,669.049 
		324.65,724.679 	"/>
	
		<line fill="none" stroke="#9D9D9C" stroke-width="3" stroke-miterlimit="10" x1="402.637" y1="669.049" x2="386.137" y2="669.049"/>
	
		<line fill="none" stroke="#9D9D9C" stroke-width="3" stroke-miterlimit="10" x1="474.137" y1="669.049" x2="411.137" y2="669.049"/>
	<path fill="none" stroke="#9D9D9C" stroke-width="3" stroke-miterlimit="10" d="M475.984,669.049"/>
	<line fill="none" stroke="#9D9D9C" stroke-width="3" stroke-miterlimit="10" x1="566.887" y1="669.05" x2="518.971" y2="669.05"/>
	<line fill="none" stroke="#9D9D9C" stroke-width="3" stroke-miterlimit="10" x1="613.137" y1="669.049" x2="575.887" y2="669.05"/>
	
		<line fill="none" stroke="#9D9D9C" stroke-width="3" stroke-miterlimit="10" x1="646.887" y1="669.049" x2="620.637" y2="669.049"/>
	<line fill="none" stroke="#9D9D9C" stroke-width="2" stroke-miterlimit="10" x1="407.47" y1="595.709" x2="407.47" y2="647.049"/>
	<polyline fill="none" stroke="#9D9D9C" stroke-width="2" stroke-miterlimit="10" points="454.648,647.049 454.65,623.931 
		473.314,623.551 	"/>
	
		<line fill="none" stroke="#9D9D9C" stroke-width="2" stroke-miterlimit="10" x1="586.137" y1="668.313" x2="586.137" y2="723.968"/>
	<line fill="none" stroke="#9D9D9C" stroke-width="2" stroke-miterlimit="10" x1="393.637" y1="669.05" x2="393.637" y2="724.704"/>
	
		<line fill="none" stroke="#9D9D9C" stroke-width="3" stroke-miterlimit="10" x1="473.316" y1="595.709" x2="473.314" y2="647.049"/>
	<line fill="none" stroke="#9D9D9C" stroke-width="3" stroke-miterlimit="10" x1="519.955" y1="594.89" x2="519.959" y2="646.229"/>
	<line fill="none" stroke="#9D9D9C" stroke-width="2" stroke-miterlimit="10" x1="662.637" y1="648.298" x2="716.91" y2="648.298"/>
	<line fill="none" stroke="#9D9D9C" stroke-width="3" stroke-miterlimit="10" x1="310.148" y1="677.244" x2="310.15" y2="724.703"/>
	<line fill="none" stroke="#9D9D9C" stroke-width="3" stroke-miterlimit="10" x1="310.15" y1="652.974" x2="310.15" y2="668.436"/>
	<polyline fill="none" stroke="#9D9D9C" stroke-width="3" stroke-miterlimit="10" points="252.385,599.299 310.15,599.299 
		310.148,645.957 	"/>
	<line fill="none" stroke="#9D9D9C" stroke-width="2" stroke-miterlimit="10" x1="246.4" y1="662.001" x2="310.15" y2="662.001"/>
	
		<line fill="none" stroke="#9D9D9C" stroke-width="2" stroke-linecap="round" stroke-miterlimit="10" x1="469.58" y1="640.981" x2="457.989" y2="628.981"/>
	
		<line fill="none" stroke="#9D9D9C" stroke-width="2" stroke-linecap="round" stroke-miterlimit="10" x1="469.782" y1="629.312" x2="457.782" y2="640.901"/>
	
		<rect x="457.282" y="628.481" transform="matrix(-1 -0.0029 0.0029 -1 925.7014 1271.8696)" fill="none" stroke="#9D9D9C" stroke-miterlimit="10" width="13" height="13.552"/>
	<line fill="none" stroke="#9D9D9C" stroke-width="2" stroke-miterlimit="10" x1="432.737" y1="594.89" x2="432.737" y2="646.229"/>
	<polyline fill="none" stroke="#9D9D9C" stroke-width="2" stroke-miterlimit="10" points="473.314,668.313 473.314,711.388 
		464.97,726.22 	"/>
	
		<line fill="none" stroke="#9D9D9C" stroke-width="3" stroke-miterlimit="10" x1="229.803" y1="503.028" x2="275.987" y2="503.028"/>
	
		<line fill="none" stroke="#9D9D9C" stroke-width="3" stroke-miterlimit="10" x1="210.804" y1="503.028" x2="222.303" y2="503.028"/>
	<line fill="none" stroke="#9D9D9C" stroke-width="3" stroke-miterlimit="10" x1="165.637" y1="503.028" x2="203.97" y2="503.028"/>
	<line fill="none" stroke="#9D9D9C" stroke-width="3" stroke-miterlimit="10" x1="117.75" y1="503.028" x2="156.137" y2="503.028"/>
	
		<line fill="none" stroke="#9D9D9C" stroke-width="3" stroke-miterlimit="10" x1="192.137" y1="503.156" x2="192.137" y2="551.245"/>
	<line fill="none" stroke="#9D9D9C" stroke-miterlimit="10" x1="97.433" y1="524.887" x2="97.433" y2="515.919"/>
	<line fill="none" stroke="#9D9D9C" stroke-width="2" stroke-miterlimit="10" x1="12.755" y1="180.387" x2="76.523" y2="180.387"/>
	<line fill="none" stroke="#9D9D9C" stroke-width="3" stroke-miterlimit="10" x1="54.303" y1="67.021" x2="61.803" y2="67.021"/>
	<line fill="none" stroke="#9D9D9C" stroke-width="3" stroke-miterlimit="10" x1="37.97" y1="67.021" x2="44.639" y2="67.021"/>
	<line fill="none" stroke="#9D9D9C" stroke-width="3" stroke-miterlimit="10" x1="17.646" y1="67.021" x2="29.636" y2="67.021"/>
	<line fill="none" stroke="#9D9D9C" stroke-width="2" stroke-miterlimit="10" x1="662.637" y1="622.4" x2="694.304" y2="622.4"/>
	<line fill="none" stroke="#9D9D9C" stroke-width="2" stroke-miterlimit="10" x1="678.637" y1="596.958" x2="678.637" y2="622.4"/>
	<polyline fill="none" stroke="#9D9D9C" stroke-miterlimit="10" points="133.237,124.984 133.237,109.021 136.987,109.021 
		136.987,124.984 	"/>
	<line fill="none" stroke="#9D9D9C" stroke-miterlimit="10" x1="136.479" y1="121.6" x2="152.051" y2="121.6"/>
	<line fill="none" stroke="#9D9D9C" stroke-miterlimit="10" x1="136.479" y1="118.705" x2="152.051" y2="118.705"/>
	<line fill="none" stroke="#9D9D9C" stroke-miterlimit="10" x1="136.653" y1="124.495" x2="152.051" y2="124.495"/>
	<line fill="none" stroke="#9D9D9C" stroke-miterlimit="10" x1="136.479" y1="115.81" x2="152.051" y2="115.81"/>
	<line fill="none" stroke="#9D9D9C" stroke-miterlimit="10" x1="136.479" y1="112.915" x2="152.051" y2="112.915"/>
	<line fill="none" stroke="#9D9D9C" stroke-miterlimit="10" x1="137.027" y1="110.02" x2="152.599" y2="110.02"/>
	<line fill="none" stroke="#9D9D9C" stroke-width="3" stroke-miterlimit="10" x1="70.803" y1="67.021" x2="117.112" y2="67.021"/>
	<line stroke="#9D9D9C" stroke-miterlimit="10" x1="76.012" y1="524.887" x2="117.214" y2="524.887"/>
	<line stroke="#9D9D9C" stroke-miterlimit="10" x1="76.523" y1="521.929" x2="117.214" y2="521.929"/>
	<line stroke="#9D9D9C" stroke-miterlimit="10" x1="76.523" y1="518.97" x2="118.342" y2="518.97"/>
	<line stroke="#9D9D9C" stroke-miterlimit="10" x1="76.523" y1="516.012" x2="117.214" y2="516.012"/>
	<line fill="none" stroke="#9D9D9C" stroke-width="3" stroke-miterlimit="10" x1="214.97" y1="503.156" x2="214.97" y2="551.245"/>
	<line fill="none" stroke="#9D9D9C" stroke-miterlimit="10" x1="307.334" y1="540.305" x2="324.502" y2="540.305"/>
	<line fill="none" stroke="#9D9D9C" stroke-miterlimit="10" x1="307.334" y1="551.216" x2="324.502" y2="551.216"/>
	<line fill="none" stroke="#9D9D9C" stroke-miterlimit="10" x1="307.334" y1="548.488" x2="324.502" y2="548.488"/>
	<line fill="none" stroke="#9D9D9C" stroke-miterlimit="10" x1="307.334" y1="545.76" x2="324.502" y2="545.76"/>
	<line fill="none" stroke="#9D9D9C" stroke-miterlimit="10" x1="307.334" y1="543.032" x2="324.502" y2="543.032"/>
	<path fill="none" stroke="#9D9D9C" stroke-width="2" stroke-miterlimit="10" d="M519.959,724.704"/>
	<polyline fill="none" stroke="#9D9D9C" stroke-width="2" stroke-miterlimit="10" points="519.959,667.721 519.959,711.054 
		528.137,726.22 	"/>
	<line fill="none" stroke="#9D9D9C" stroke-width="2" stroke-miterlimit="10" x1="645.9" y1="668.313" x2="645.9" y2="723.968"/>
	<line fill="none" stroke="#9D9D9C" stroke-width="2" stroke-miterlimit="10" x1="694.304" y1="596.99" x2="694.304" y2="648.298"/>
	<line fill="none" stroke="#9D9D9C" stroke-width="3" stroke-miterlimit="10" x1="645.898" y1="596.73" x2="645.902" y2="648.07"/>
	<line fill="none" stroke="#9D9D9C" stroke-width="2" stroke-miterlimit="10" x1="627.637" y1="595.145" x2="627.637" y2="647.05"/>
	
		<line fill="none" stroke="#9D9D9C" stroke-width="2" stroke-miterlimit="10" x1="563.637" y1="594.607" x2="563.637" y2="646.513"/>
	
		<line fill="none" stroke="#9D9D9C" stroke-width="2" stroke-miterlimit="10" x1="543.637" y1="594.607" x2="543.637" y2="646.513"/>
	<line fill="none" stroke="#9D9D9C" stroke-width="2" stroke-miterlimit="10" x1="454.648" y1="595.71" x2="454.648" y2="615.388"/>
	<polyline fill="none" stroke="#9D9D9C" stroke-miterlimit="10" points="519.955,630.56 534.637,630.56 534.637,646.473 	"/>
	<polyline fill="none" stroke="#9D9D9C" stroke-miterlimit="10" points="563.637,630.56 552.637,630.56 552.637,646.473 	"/>
	
		<line fill="none" stroke="#9D9D9C" stroke-width="2" stroke-miterlimit="10" x1="294.187" y1="519.907" x2="294.187" y2="552.049"/>
	<line fill="none" stroke="#9D9D9C" stroke-miterlimit="10" x1="294.187" y1="534.849" x2="277.019" y2="534.849"/>
	<line fill="none" stroke="#9D9D9C" stroke-miterlimit="10" x1="294.187" y1="521.21" x2="277.019" y2="521.21"/>
	<line fill="none" stroke="#9D9D9C" stroke-miterlimit="10" x1="294.187" y1="529.394" x2="277.019" y2="529.394"/>
	<line fill="none" stroke="#9D9D9C" stroke-miterlimit="10" x1="294.187" y1="532.121" x2="277.019" y2="532.121"/>
	<line fill="none" stroke="#9D9D9C" stroke-miterlimit="10" x1="294.187" y1="526.666" x2="277.019" y2="526.666"/>
	<line fill="none" stroke="#9D9D9C" stroke-miterlimit="10" x1="294.187" y1="523.938" x2="277.019" y2="523.938"/>
	<line fill="none" stroke="#9D9D9C" stroke-miterlimit="10" x1="294.187" y1="537.577" x2="277.019" y2="537.577"/>
	<line fill="none" stroke="#9D9D9C" stroke-miterlimit="10" x1="293.504" y1="540.305" x2="276.336" y2="540.305"/>
	<line fill="none" stroke="#9D9D9C" stroke-miterlimit="10" x1="293.504" y1="551.216" x2="276.336" y2="551.216"/>
	<line fill="none" stroke="#9D9D9C" stroke-miterlimit="10" x1="293.504" y1="548.488" x2="276.336" y2="548.488"/>
	<line fill="none" stroke="#9D9D9C" stroke-miterlimit="10" x1="293.504" y1="545.76" x2="276.336" y2="545.76"/>
	<line fill="none" stroke="#9D9D9C" stroke-miterlimit="10" x1="293.504" y1="543.032" x2="276.336" y2="543.032"/>
	<line stroke="#9D9D9C" stroke-width="2" stroke-miterlimit="10" x1="27.234" y1="408.387" x2="76.217" y2="408.387"/>
	<line stroke="#9D9D9C" stroke-width="2" stroke-miterlimit="10" x1="25.296" y1="276.317" x2="76.217" y2="276.317"/>
	<line fill="none" stroke="#9D9D9C" stroke-miterlimit="10" x1="96.613" y1="338.387" x2="116.93" y2="338.387"/>
	<line fill="none" stroke="#9D9D9C" stroke-miterlimit="10" x1="96.312" y1="368.928" x2="116.629" y2="368.928"/>
	<line fill="none" stroke="#9D9D9C" stroke-miterlimit="10" x1="96.312" y1="353.887" x2="116.629" y2="353.887"/>
	<line fill="none" stroke="#9D9D9C" stroke-miterlimit="10" x1="117.117" y1="121.345" x2="133.422" y2="121.345"/>
	<line fill="none" stroke="#9D9D9C" stroke-miterlimit="10" x1="117.117" y1="118.45" x2="133.422" y2="118.45"/>
	<line fill="none" stroke="#9D9D9C" stroke-miterlimit="10" x1="117.117" y1="124.24" x2="133.239" y2="124.24"/>
	<line fill="none" stroke="#9D9D9C" stroke-miterlimit="10" x1="117.117" y1="115.555" x2="133.422" y2="115.555"/>
	<line fill="none" stroke="#9D9D9C" stroke-miterlimit="10" x1="117.117" y1="112.66" x2="133.422" y2="112.66"/>
	<line fill="none" stroke="#9D9D9C" stroke-miterlimit="10" x1="117.117" y1="109.765" x2="133.422" y2="109.765"/>
	<path fill="none" stroke="#9D9D9C" stroke-width="2" stroke-miterlimit="10" d="M116.789,139.35c0,0,26.599-3.373,29.949-3.833
		c3.708-0.667,5.343-1.708,5.343-5.833"/>
	<path fill="none" stroke="#9D9D9C" stroke-width="2" stroke-miterlimit="10" d="M116.789,140.456c0,0,26.599-3.373,29.949-3.833
		c3.708-0.667,5.042-1,5.343-5.833c0-6.083,0-28.083,0-33.333c0-3.542-3.051-5.167-6.343-5.667
		c-7.667-1.167-28.949-4.333-28.949-4.333"/>
	<line fill="none" stroke="#9D9D9C" stroke-miterlimit="10" x1="98.227" y1="217.525" x2="115.395" y2="217.525"/>
	<line fill="none" stroke="#9D9D9C" stroke-miterlimit="10" x1="98.227" y1="203.887" x2="115.395" y2="203.887"/>
	<line fill="none" stroke="#9D9D9C" stroke-miterlimit="10" x1="98.227" y1="212.07" x2="115.395" y2="212.07"/>
	<line fill="none" stroke="#9D9D9C" stroke-miterlimit="10" x1="98.227" y1="214.798" x2="115.395" y2="214.798"/>
	<line fill="none" stroke="#9D9D9C" stroke-miterlimit="10" x1="98.227" y1="209.343" x2="115.395" y2="209.343"/>
	<line fill="none" stroke="#9D9D9C" stroke-miterlimit="10" x1="98.227" y1="206.614" x2="115.395" y2="206.614"/>
	<line fill="none" stroke="#9D9D9C" stroke-miterlimit="10" x1="98.227" y1="220.254" x2="115.395" y2="220.254"/>
	<line fill="none" stroke="#9D9D9C" stroke-miterlimit="10" x1="98.227" y1="222.981" x2="115.395" y2="222.981"/>
	<line fill="none" stroke="#9D9D9C" stroke-miterlimit="10" x1="98.227" y1="233.893" x2="115.395" y2="233.893"/>
	<line fill="none" stroke="#9D9D9C" stroke-miterlimit="10" x1="98.227" y1="231.165" x2="115.395" y2="231.165"/>
	<line fill="none" stroke="#9D9D9C" stroke-miterlimit="10" x1="98.227" y1="228.437" x2="115.395" y2="228.437"/>
	<line fill="none" stroke="#9D9D9C" stroke-miterlimit="10" x1="98.227" y1="225.709" x2="115.395" y2="225.709"/>
	<line fill="none" stroke="#9D9D9C" stroke-miterlimit="10" x1="98.227" y1="260.437" x2="115.395" y2="260.437"/>
	<line fill="none" stroke="#9D9D9C" stroke-miterlimit="10" x1="98.227" y1="246.798" x2="115.395" y2="246.798"/>
	<line fill="none" stroke="#9D9D9C" stroke-miterlimit="10" x1="98.227" y1="254.981" x2="115.395" y2="254.981"/>
	<line fill="none" stroke="#9D9D9C" stroke-miterlimit="10" x1="98.227" y1="257.709" x2="115.395" y2="257.709"/>
	<line fill="none" stroke="#9D9D9C" stroke-miterlimit="10" x1="98.227" y1="252.254" x2="115.395" y2="252.254"/>
	<line fill="none" stroke="#9D9D9C" stroke-miterlimit="10" x1="98.227" y1="249.525" x2="115.395" y2="249.525"/>
	<line fill="none" stroke="#9D9D9C" stroke-miterlimit="10" x1="98.227" y1="263.165" x2="115.395" y2="263.165"/>
	<line fill="none" stroke="#9D9D9C" stroke-miterlimit="10" x1="98.227" y1="265.893" x2="115.395" y2="265.893"/>
	<line fill="none" stroke="#9D9D9C" stroke-miterlimit="10" x1="98.227" y1="276.804" x2="115.395" y2="276.804"/>
	<line fill="none" stroke="#9D9D9C" stroke-miterlimit="10" x1="98.227" y1="274.076" x2="115.395" y2="274.076"/>
	<line fill="none" stroke="#9D9D9C" stroke-miterlimit="10" x1="98.227" y1="271.348" x2="115.395" y2="271.348"/>
	<line fill="none" stroke="#9D9D9C" stroke-miterlimit="10" x1="98.227" y1="268.62" x2="115.395" y2="268.62"/>
	<line fill="none" stroke="#9D9D9C" stroke-miterlimit="10" x1="98.227" y1="202.053" x2="98.227" y2="278.387"/>
	<polyline fill="none" stroke="#9D9D9C" stroke-miterlimit="10" points="117.165,227.412 125.306,227.412 125.306,253.957 
		117.165,253.957 	"/>
	<polyline fill="none" stroke="#9D9D9C" stroke-miterlimit="10" points="117.167,223.861 128.806,223.861 128.806,256.684 
		117.167,256.684 	"/>
	<polyline fill="none" stroke="#9D9D9C" stroke-miterlimit="10" points="117.17,221.028 131.473,221.028 131.473,259.412 
		117.17,259.412 	"/>
	<line fill="none" stroke="#9D9D9C" stroke-width="2" stroke-miterlimit="10" x1="512.47" y1="711.388" x2="519.959" y2="711.388"/>
	<line fill="none" stroke="#9D9D9C" stroke-width="2" stroke-miterlimit="10" x1="491.47" y1="711.388" x2="501.97" y2="711.388"/>
	
		<line fill="none" stroke="#9D9D9C" stroke-width="2" stroke-miterlimit="10" x1="473.314" y1="711.388" x2="480.637" y2="711.388"/>
	<polyline fill="none" stroke="#9D9D9C" stroke-miterlimit="10" points="469.143,718.804 472.47,724.704 519.137,724.704 
		523.304,718.804 	"/>
	<polyline fill="none" stroke="#9D9D9C" stroke-miterlimit="10" points="465.97,725.554 465.97,729.887 527.304,729.887 
		527.304,724.704 	"/>
	<polyline fill="none" stroke="#9D9D9C" stroke-miterlimit="10" points="467.482,721.754 470.804,727.295 520.989,727.295 
		525.341,721.034 	"/>
	<line fill="none" stroke="#9D9D9C" stroke-miterlimit="10" x1="485.927" y1="630.683" x2="473.314" y2="630.683"/>
	<line fill="none" stroke="#9D9D9C" stroke-miterlimit="10" x1="485.927" y1="617.044" x2="473.314" y2="617.044"/>
	<line fill="none" stroke="#9D9D9C" stroke-miterlimit="10" x1="485.927" y1="625.228" x2="473.314" y2="625.228"/>
	<line fill="none" stroke="#9D9D9C" stroke-miterlimit="10" x1="485.927" y1="627.955" x2="473.314" y2="627.955"/>
	<line fill="none" stroke="#9D9D9C" stroke-miterlimit="10" x1="485.927" y1="622.5" x2="473.314" y2="622.5"/>
	<line fill="none" stroke="#9D9D9C" stroke-miterlimit="10" x1="485.927" y1="619.771" x2="473.314" y2="619.771"/>
	<line fill="none" stroke="#9D9D9C" stroke-miterlimit="10" x1="485.927" y1="633.411" x2="473.314" y2="633.411"/>
	<line fill="none" stroke="#9D9D9C" stroke-miterlimit="10" x1="485.927" y1="636.139" x2="473.314" y2="636.139"/>
	<line fill="none" stroke="#9D9D9C" stroke-miterlimit="10" x1="485.927" y1="647.05" x2="473.314" y2="647.05"/>
	<line fill="none" stroke="#9D9D9C" stroke-miterlimit="10" x1="485.927" y1="644.322" x2="473.314" y2="644.322"/>
	<line fill="none" stroke="#9D9D9C" stroke-miterlimit="10" x1="485.927" y1="641.594" x2="473.314" y2="641.594"/>
	<line fill="none" stroke="#9D9D9C" stroke-miterlimit="10" x1="485.927" y1="638.866" x2="473.314" y2="638.866"/>
	<line fill="none" stroke="#9D9D9C" stroke-miterlimit="10" x1="486" y1="597.377" x2="486" y2="647.554"/>
	<line fill="none" stroke="#9D9D9C" stroke-miterlimit="10" x1="505.142" y1="632.071" x2="518.471" y2="632.071"/>
	<line fill="none" stroke="#9D9D9C" stroke-miterlimit="10" x1="505.142" y1="636.638" x2="518.471" y2="636.638"/>
	<line fill="none" stroke="#9D9D9C" stroke-miterlimit="10" x1="505.142" y1="634.354" x2="518.471" y2="634.354"/>
	<line fill="none" stroke="#9D9D9C" stroke-miterlimit="10" x1="505.142" y1="638.921" x2="518.471" y2="638.921"/>
	<line fill="none" stroke="#9D9D9C" stroke-miterlimit="10" x1="505.142" y1="641.204" x2="518.471" y2="641.204"/>
	<line fill="none" stroke="#9D9D9C" stroke-miterlimit="10" x1="505.142" y1="648.054" x2="518.471" y2="648.054"/>
	<line fill="none" stroke="#9D9D9C" stroke-miterlimit="10" x1="505.142" y1="645.771" x2="518.471" y2="645.771"/>
	<line fill="none" stroke="#9D9D9C" stroke-miterlimit="10" x1="505.142" y1="643.487" x2="518.471" y2="643.487"/>
	<line fill="none" stroke="#9D9D9C" stroke-miterlimit="10" x1="505.064" y1="621.425" x2="505.064" y2="648.587"/>
	<polyline fill="none" stroke="#9D9D9C" stroke-miterlimit="10" points="519.955,594.89 519.959,579.137 473.314,579.137 
		473.314,594.607 	"/>
	<line fill="none" stroke="#000000" stroke-miterlimit="10" x1="470.301" y1="581.262" x2="470.301" y2="581.137"/>
	<line fill="none" stroke="#9D9D9C" stroke-miterlimit="10" x1="519.959" y1="581.137" x2="519.959" y2="580.137"/>
	<line fill="none" stroke="#9D9D9C" stroke-miterlimit="10" x1="473.314" y1="581.137" x2="519.959" y2="581.137"/>
	<line fill="none" stroke="#9D9D9C" stroke-miterlimit="10" x1="473.314" y1="583.387" x2="519.955" y2="583.387"/>
	
		<line fill="none" stroke="#000000" stroke-width="2" stroke-miterlimit="10" x1="650.637" y1="345.637" x2="650.637" y2="403.887"/>
	
		<line fill="none" stroke="#000000" stroke-width="2" stroke-miterlimit="10" x1="650.637" y1="225.637" x2="650.637" y2="337.137"/>
	
		<line fill="none" stroke="#000000" stroke-width="2" stroke-miterlimit="10" x1="650.637" y1="140.887" x2="650.637" y2="216.637"/>
	
		<line fill="none" stroke="#000000" stroke-width="2" stroke-miterlimit="10" x1="650.637" y1="108.887" x2="650.637" y2="131.137"/>
	<line fill="none" stroke="#000000" stroke-width="2" stroke-miterlimit="10" x1="650.637" y1="93.887" x2="650.637" y2="101.387"/>
	<line fill="none" stroke="#000000" stroke-width="2" stroke-miterlimit="10" x1="650.637" y1="79.887" x2="650.637" y2="89.387"/>
	<line fill="none" stroke="#000000" stroke-width="2" stroke-miterlimit="10" x1="650.637" y1="44.387" x2="650.637" y2="73.637"/>
	
		<line fill="none" stroke="#000000" stroke-width="2" stroke-miterlimit="10" x1="667.304" y1="396.637" x2="667.304" y2="403.887"/>
	
		<line fill="none" stroke="#000000" stroke-width="2" stroke-miterlimit="10" x1="667.304" y1="375.054" x2="667.304" y2="389.887"/>
	
		<line fill="none" stroke="#000000" stroke-width="2" stroke-miterlimit="10" x1="667.304" y1="217.136" x2="667.304" y2="365.721"/>
	
		<line fill="none" stroke="#000000" stroke-width="2" stroke-miterlimit="10" x1="667.304" y1="135.636" x2="667.304" y2="207.637"/>
	<line fill="none" stroke="#000000" stroke-width="2" stroke-miterlimit="10" x1="667.304" y1="63.72" x2="667.304" y2="126.887"/>
	
		<line fill="none" stroke="#000000" stroke-width="2" stroke-miterlimit="10" x1="717.637" y1="403.887" x2="767.658" y2="403.887"/>
	<line fill="none" stroke="#000000" stroke-width="2" stroke-miterlimit="10" x1="666.3" y1="403.887" x2="711.137" y2="403.887"/>
	<line fill="none" stroke="#000000" stroke-width="2" stroke-miterlimit="10" x1="660.97" y1="380.054" x2="667.304" y2="380.054"/>
	
		<line fill="none" stroke="#000000" stroke-width="2" stroke-miterlimit="10" x1="650.637" y1="380.054" x2="653.304" y2="380.054"/>
	<line fill="none" stroke="#000000" stroke-width="2" stroke-miterlimit="10" x1="590.99" y1="403.887" x2="651.65" y2="403.887"/>
	<line fill="none" stroke="#000000" stroke-width="2" stroke-miterlimit="10" x1="727.8" y1="458.721" x2="767.659" y2="458.721"/>
	
		<line fill="none" stroke="#000000" stroke-width="2" stroke-miterlimit="10" x1="641.887" y1="458.721" x2="709.887" y2="458.721"/>
	
		<line fill="none" stroke="#000000" stroke-width="2" stroke-miterlimit="10" x1="590.991" y1="458.721" x2="628.387" y2="458.721"/>
	
		<line fill="none" stroke="#000000" stroke-width="2" stroke-miterlimit="10" x1="629.387" y1="304.054" x2="650.637" y2="304.054"/>
	<line fill="none" stroke="#000000" stroke-width="2" stroke-miterlimit="10" x1="590.99" y1="304.054" x2="606.887" y2="304.054"/>
	<line fill="none" stroke="#000000" stroke-width="2" stroke-miterlimit="10" x1="759.971" y1="294.72" x2="767.659" y2="294.72"/>
	<line fill="none" stroke="#000000" stroke-width="2" stroke-miterlimit="10" x1="667.304" y1="294.72" x2="738.304" y2="294.72"/>
	<line fill="none" stroke="#000000" stroke-width="2" stroke-miterlimit="10" x1="667.304" y1="164.72" x2="767.659" y2="164.72"/>
	<line fill="none" stroke="#000000" stroke-width="2" stroke-miterlimit="10" x1="741.387" y1="87.387" x2="767.659" y2="87.387"/>
	<line fill="none" stroke="#000000" stroke-width="2" stroke-miterlimit="10" x1="667.304" y1="87.387" x2="723.637" y2="87.387"/>
	<line fill="none" stroke="#000000" stroke-width="2" stroke-miterlimit="10" x1="590.99" y1="87.387" x2="650.637" y2="87.387"/>
	<line fill="none" stroke="#000000" stroke-width="2" stroke-miterlimit="10" x1="590.99" y1="118.054" x2="650.637" y2="118.054"/>
	<line fill="none" stroke="#000000" stroke-width="2" stroke-miterlimit="10" x1="590.99" y1="71.387" x2="650.637" y2="71.387"/>
	<line fill="none" stroke="#000000" stroke-width="2" stroke-miterlimit="10" x1="691.304" y1="44.387" x2="691.304" y2="88.406"/>
	<polyline fill="none" stroke="#000000" stroke-width="2" stroke-miterlimit="10" points="614.637,118.054 614.637,96.72 
		650.637,96.72 	"/>
	<polyline fill="none" stroke="#000000" stroke-width="2" stroke-miterlimit="10" points="667.304,380.054 727.304,380.054 
		727.304,403.887 	"/>
	
		<line fill="none" stroke="#000000" stroke-width="2" stroke-miterlimit="10" x1="691.304" y1="403.887" x2="691.304" y2="380.054"/>
	<line fill="none" stroke="#000000" stroke-width="2" stroke-miterlimit="10" x1="707.97" y1="403.887" x2="707.97" y2="380.054"/>
	<polyline fill="none" stroke="#000000" stroke-width="2" stroke-miterlimit="10" points="767.198,359.637 727.304,359.637 
		727.304,367.137 	"/>
	<line fill="none" stroke="#000000" stroke-width="2" stroke-miterlimit="10" x1="707.97" y1="469.887" x2="729.637" y2="469.887"/>
	
		<line fill="none" stroke="#000000" stroke-width="2" stroke-miterlimit="10" x1="718.803" y1="469.887" x2="718.803" y2="516.027"/>
	
		<line fill="none" stroke="#000000" stroke-width="2" stroke-miterlimit="10" x1="656.137" y1="458.721" x2="656.137" y2="516.027"/>
	<polyline fill="none" stroke="#000000" stroke-width="2" stroke-miterlimit="10" points="607.137,467.887 607.137,472.887 
		591.451,472.887 	"/>
	
		<line fill="none" stroke="#000000" stroke-width="2" stroke-miterlimit="10" x1="607.137" y1="458.721" x2="607.137" y2="461.887"/>
	
		<line fill="none" stroke="#000000" stroke-width="2" stroke-miterlimit="10" x1="617.137" y1="470.887" x2="617.137" y2="516.028"/>
	<polyline fill="none" stroke="#000000" stroke-width="2" stroke-miterlimit="10" points="641.887,466.887 641.887,477.887 
		656.137,477.887 	"/>
	<line fill="none" stroke="#000000" stroke-width="2" stroke-miterlimit="10" x1="641.887" y1="457.71" x2="641.887" y2="460.762"/>
	<polyline fill="none" stroke="#000000" stroke-width="2" stroke-miterlimit="10" points="628.387,467.137 628.387,472.887 
		641.887,472.887 	"/>
	<line fill="none" stroke="#000000" stroke-width="2" stroke-miterlimit="10" x1="628.387" y1="457.71" x2="628.387" y2="461.137"/>
	
		<line fill="none" stroke="#000000" stroke-width="2" stroke-miterlimit="10" x1="625.137" y1="472.887" x2="628.387" y2="472.887"/>
	
		<line fill="none" stroke="#000000" stroke-width="2" stroke-miterlimit="10" x1="607.137" y1="472.887" x2="610.137" y2="472.887"/>
	
		<line fill="none" stroke="#000000" stroke-width="2" stroke-miterlimit="10" x1="708.887" y1="458.721" x2="708.887" y2="462.137"/>
	
		<line fill="none" stroke="#000000" stroke-width="2" stroke-miterlimit="10" x1="728.804" y1="458.721" x2="728.804" y2="462.137"/>
	<g>
		<line fill="none" stroke="#000000" stroke-width="2" stroke-miterlimit="10" x1="685.431" y1="82.208" x2="673.215" y2="68.993"/>
		<line fill="none" stroke="#000000" stroke-width="2" stroke-miterlimit="10" x1="685.653" y1="69.346" x2="672.985" y2="82.129"/>
	</g>
	<polygon fill="none" stroke="#000000" stroke-miterlimit="10" points="672.62,68.865 686.071,68.894 686.022,82.365 
		672.571,82.336 	"/>
	<g>
		
			<line fill="none" stroke="#000000" stroke-width="2" stroke-miterlimit="10" x1="705.709" y1="397.925" x2="693.493" y2="384.71"/>
		
			<line fill="none" stroke="#000000" stroke-width="2" stroke-miterlimit="10" x1="705.932" y1="385.063" x2="693.264" y2="397.847"/>
	</g>
	<polygon fill="none" stroke="#000000" stroke-miterlimit="10" points="692.898,384.583 706.35,384.612 706.301,398.083 
		692.85,398.054 	"/>
	<line fill="none" stroke="#9D9D9C" stroke-width="4" stroke-miterlimit="10" x1="76.687" y1="449.412" x2="117.288" y2="449.412"/>
</g>
</svg>
