<?xml version="1.0" encoding="iso-8859-1"?>
<!-- Generator: Adobe Illustrator 16.0.4, SVG Export Plug-In . SVG Version: 6.00 Build 0)  -->
<!DOCTYPE svg PUBLIC "-//W3C//DTD SVG 1.1//EN" "http://www.w3.org/Graphics/SVG/1.1/DTD/svg11.dtd">
<svg version="1.1" id="Capa_1" xmlns="http://www.w3.org/2000/svg" xmlns:xlink="http://www.w3.org/1999/xlink" x="0px" y="0px"
	 width="42.718px" height="53.838px" viewBox="0 0 42.718 53.838" style="enable-background:new 0 0 42.718 53.838;"
	 xml:space="preserve">
<g>
	<path id="path3246" style="fill:#040606;" d="M42.718,29.226V22.69c0-1.381-0.639-2.5-1.169-2.5c-0.531,0-2.152,0.271-3.491,0.606
		l-2.893,0.71c-1.34,0.335-2.451-0.309-2.451-1.438c0-1.13,0.897-2.725,1.74-3.819c1.312-1.704,2.086-3.839,2.086-6.155
		c0-5.575-4.523-10.094-10.099-10.094c-2.462,0-4.72,0.881-6.472,2.346c-1.059,0.885-2.345,0.885-3.404,0
		C14.813,0.882,12.558,0,10.095,0C4.52,0,0,4.52,0,10.095c0,2.316,0.841,4.451,2.153,6.155c0.843,1.094,1.814,2.893,1.814,4.273
		v12.164c0,1.594,1.17,2.982,2.762,2.982h4.259c1.381,0,1.892,0.891,1.142,2.05l-6.053,9.33c-0.577,0.891-0.322,2.07,0.569,2.646
		C6.97,49.906,7.331,50,7.69,50c0.63,0,1.247-0.314,1.614-0.883l5.743-8.78c0.75-1.159,1.42-0.981,1.42,0.4v11.179
		c0,1.062,0.813,1.922,1.875,1.922c1.062,0,1.875-0.861,1.875-1.922V40.737c0-1.381,0.594-1.56,1.344-0.401l5.674,8.779
		c0.367,0.569,0.98,0.879,1.612,0.879c0.357,0,0.718-0.1,1.041-0.309c0.892-0.578,1.146-1.768,0.568-2.659l-6.054-9.306
		c-0.75-1.159-0.239-2.05,1.142-2.05h4.259c1.593,0,2.914-1.389,2.914-2.982c0,0,0-0.645,0-1.441s1.07-1.171,2.409-0.836l2.834,0.71
		c1.339,0.335,3.061,0.606,3.592,0.606C42.082,31.726,42.718,30.607,42.718,29.226"/>
</g>
<g>
</g>
<g>
</g>
<g>
</g>
<g>
</g>
<g>
</g>
<g>
</g>
<g>
</g>
<g>
</g>
<g>
</g>
<g>
</g>
<g>
</g>
<g>
</g>
<g>
</g>
<g>
</g>
<g>
</g>
</svg>
