<?xml version="1.0" encoding="utf-8"?>
<!-- Generator: Adobe Illustrator 17.0.2, SVG Export Plug-In . SVG Version: 6.00 Build 0)  -->
<!DOCTYPE svg PUBLIC "-//W3C//DTD SVG 1.1//EN" "http://www.w3.org/Graphics/SVG/1.1/DTD/svg11.dtd">
<svg version="1.1" id="Capa_1" xmlns="http://www.w3.org/2000/svg" xmlns:xlink="http://www.w3.org/1999/xlink" x="0px" y="0px"
	 width="64px" height="64px" viewBox="0 0 64 64" enable-background="new 0 0 64 64" xml:space="preserve">
<g>
	<path d="M49.707,57.79h11.376V47.047v-1.843v-8.899v-1.843v-9.243v-1.5V8.114h-4.184v0.75v0.75v7.803H45.024V9.614v-0.75v-0.75
		h-7.125v0.75v0.75v7.803H26.024V9.614v-0.75v-0.75H18.5v0.75v0.75v7.803H6.625V9.614v-0.75v-0.75H2.993v15.604H2.917v10.743v1.843
		v8.899v1.843V57.79h11.376h1.209h10.167h1.209h10.243h1.133h10.243H49.707z M15.793,25.219h9.585v9.243h-9.585V25.219z
		 M27.245,25.219h9.586v9.243h-9.586V25.219z M38.622,25.219h9.585v9.243h-9.585V25.219z M15.793,45.204v-8.899h9.585v8.899H15.793z
		 M27.245,45.204v-8.899h9.586v8.899H27.245z M38.622,36.305h9.585v8.899h-9.585V36.305z M59.583,56.29h-9.586v-9.243h9.586V56.29z
		 M59.583,45.204h-9.586v-8.899h9.586V45.204z M59.583,34.462h-9.586v-9.243h9.586V34.462z M4.417,25.219h9.586v9.243H4.417V25.219z
		 M4.417,36.305h9.586v8.899H4.417V36.305z M14.002,56.29H4.417v-9.243h9.586V56.29z M25.378,56.29h-9.585v-9.243h9.585V56.29z
		 M36.755,56.29h-9.586v-9.243h9.586V56.29z M48.207,56.29h-9.585v-9.243h9.585V56.29z"/>
	<polygon points="17,8.865 17,8.114 17,5.417 8.125,5.417 8.125,8.114 8.125,8.865 8.125,9.614 8.125,15.917 17,15.917 17,9.614 	
		"/>
	<polygon points="36.399,8.865 36.399,8.114 36.399,5.417 27.524,5.417 27.524,8.114 27.524,8.865 27.524,9.614 27.524,15.917 
		36.399,15.917 36.399,9.614 	"/>
	<polygon points="55.399,8.865 55.399,8.114 55.399,5.417 46.524,5.417 46.524,8.114 46.524,8.865 46.524,9.614 46.524,15.917 
		55.399,15.917 55.399,9.614 	"/>
</g>
</svg>
