<?xml version="1.0" encoding="utf-8"?>
<!-- Generator: Adobe Illustrator 17.0.2, SVG Export Plug-In . SVG Version: 6.00 Build 0)  -->
<!DOCTYPE svg PUBLIC "-//W3C//DTD SVG 1.1//EN" "http://www.w3.org/Graphics/SVG/1.1/DTD/svg11.dtd">
<svg version="1.1" id="Capa_1" xmlns="http://www.w3.org/2000/svg" xmlns:xlink="http://www.w3.org/1999/xlink" x="0px" y="0px"
	 width="64px" height="64px" viewBox="0 0 64 64" enable-background="new 0 0 64 64" xml:space="preserve">
<g>
	<path d="M61.938,14.201h-7.983c-5.378-2.339-9.957-3.535-13.638-3.535c-4.689,0-7.007,1.932-8.131,3.535h-0.111h-0.149h-0.111
		c-1.124-1.603-3.442-3.535-8.131-3.535c-3.681,0-8.26,1.196-13.638,3.535H2.062c-0.414,0-0.75,0.336-0.75,0.75v35.686
		c0,0.414,0.336,0.75,0.75,0.75h25.714c1.254,1.8,3.416,1.947,4.083,1.947c0.06,0,0.099-0.002,0.141-0.003
		c0.042,0.001,0.08,0.003,0.141,0.003c0.667,0,2.829-0.147,4.083-1.947h25.714c0.414,0,0.75-0.336,0.75-0.75V14.951
		C62.688,14.537,62.352,14.201,61.938,14.201z M32.675,16.527c0.017-0.069,0.05-0.187,0.107-0.342
		c0.012-0.032,0.029-0.071,0.043-0.106c0.045-0.113,0.101-0.24,0.17-0.379c0.217-0.434,0.567-0.972,1.12-1.5
		c1.093-1.044,2.976-2.035,6.202-2.035c2.685,0,5.908,0.689,9.615,2.035c1.182,0.429,2.421,0.936,3.703,1.5
		c1.326,0.584,2.69,1.22,4.119,1.948V46.3c-2.941-1.392-11.18-4.99-17.743-4.99c-3.677,0-5.874,1.159-7.186,2.674
		c-0.048,0.055-0.104,0.107-0.149,0.164V16.527z M55.087,46.751H32.934c0.949-2.641,3.266-3.941,7.076-3.941
		C45.074,42.81,51.397,45.163,55.087,46.751z M10.366,15.701c1.281-0.564,2.52-1.071,3.703-1.5c3.708-1.346,6.93-2.035,9.615-2.035
		c3.227,0,5.109,0.991,6.202,2.035c0.553,0.528,0.903,1.066,1.12,1.5c0.07,0.139,0.125,0.265,0.17,0.378v0.365v27.54
		c-1.312-1.515-3.509-2.674-7.186-2.674c-6.563,0-14.802,3.598-17.743,4.99V17.649C7.676,16.921,9.04,16.285,10.366,15.701z
		 M31.066,46.751H8.913c3.69-1.588,10.013-3.941,15.077-3.941C27.8,42.81,30.117,44.11,31.066,46.751z M61.188,49.887h-25.38
		c-0.236,0-0.442,0.126-0.583,0.311c-0.228,0.82-1.171,1.473-2.4,1.694c-0.288,0.052-0.586,0.089-0.899,0.089
		c-0.259,0-0.508-0.023-0.75-0.059c-1.394-0.206-2.443-0.969-2.578-1.907c-0.12-0.078-0.256-0.128-0.405-0.128H2.812V15.701h4.006
		c-0.553,0.271-1.098,0.531-1.665,0.823c-0.25,0.128-0.406,0.386-0.406,0.667v30.311c0,0.119,0.036,0.231,0.087,0.334
		c0.015,0.029,0.036,0.053,0.054,0.08c0.047,0.07,0.106,0.131,0.175,0.181c0.017,0.012,0.025,0.033,0.043,0.044
		c0.013,0.008,0.029,0.006,0.042,0.013c0.086,0.046,0.178,0.072,0.272,0.082c0.021,0.002,0.039,0.012,0.06,0.012
		c0.006,0,0.011,0.003,0.017,0.003h24.479c0.355-0.074,0.76-0.109,1.2-0.122c0.05-0.002,0.099-0.003,0.149-0.005
		c0.064-0.001,0.132-0.001,0.197-0.002c0.002,0,0.005,0,0.007,0c0.046-0.001,0.091-0.001,0.138-0.001
		c0.087-0.001,0.17-0.003,0.258-0.003c0.138,0,0.269,0.004,0.402,0.006c0.046,0.001,0.093,0.001,0.138,0.002
		c0.003,0,0.005,0,0.008,0c0.068,0.002,0.135,0.004,0.202,0.006c0.051,0.002,0.099,0.007,0.149,0.009
		c0.355,0.018,0.691,0.049,0.989,0.11h24.69c0.006,0,0.01-0.003,0.016-0.003c0.02,0,0.038-0.01,0.058-0.012
		c0.095-0.01,0.188-0.037,0.275-0.083c0.013-0.007,0.029-0.005,0.042-0.013c0.018-0.011,0.026-0.032,0.043-0.044
		c0.069-0.051,0.128-0.112,0.175-0.181c0.018-0.027,0.039-0.051,0.054-0.08c0.052-0.103,0.087-0.215,0.087-0.334V17.19
		c0-0.281-0.157-0.538-0.406-0.667c-0.568-0.292-1.113-0.552-1.665-0.823h4.006V49.887z"/>
</g>
</svg>
