<?xml version="1.0" encoding="utf-8"?>
<!-- Generator: Adobe Illustrator 16.0.3, SVG Export Plug-In . SVG Version: 6.00 Build 0)  -->
<!DOCTYPE svg PUBLIC "-//W3C//DTD SVG 1.1//EN" "http://www.w3.org/Graphics/SVG/1.1/DTD/svg11.dtd">
<svg version="1.1" id="Capa_1" xmlns="http://www.w3.org/2000/svg" xmlns:xlink="http://www.w3.org/1999/xlink" x="0px" y="0px"
	 width="64px" height="64px" viewBox="0 0 64 64" enable-background="new 0 0 64 64" xml:space="preserve">
<g>
	<path fill="#951B81" d="M6.935,18.402l5.075,9.931H8v26.675c0,3.12,2.977,5.659,6.636,5.659h33.553c3.66,0,6.637-2.539,6.637-5.659
		v-1.634C58.342,52.781,61,50.148,61,47v-9c0-3.148-2.658-5.781-6.174-6.373v-3.294h-7.002L60.757,8.134L49.502,0.928L34.891,23.75
		l0.381-6.342c2.07-0.849,3.533-2.883,3.533-5.256V3.963h-9.854L27.898,5.63l-1.492-1.667h-5.655v8.189
		c0,2.372,1.462,4.406,3.532,5.256l0.656,10.925h-0.641l-7.65-14.968L6.654,6.96L6.935,18.402z M27.315,17.833h4.926l-0.63,10.5
		h-3.666L27.315,17.833z M23.752,12.152V6.963h1.314l3.247,3.628l2.292-3.628h5.2v5.189c0,1.479-1.203,2.681-2.682,2.681h-6.689
		C24.955,14.833,23.752,13.631,23.752,12.152z M40.002,21.33l2.415,1.546c0.698,0.445,1.625,0.242,2.071-0.455
		c0.447-0.697,0.244-1.625-0.454-2.072l-2.415-1.546l2.919-4.56l2.614,1.674c0.697,0.445,1.625,0.242,2.072-0.455
		c0.446-0.697,0.242-1.625-0.455-2.072l-2.615-1.673l4.255-6.645l6.2,3.97L44.262,28.333h-4.865
		c-0.09-0.099-0.187-0.191-0.305-0.267l-2.414-1.545L40.002,21.33z M51.826,33v19v3.008c0,1.441-1.665,2.659-3.637,2.659H29.043
		h-0.269H14.636c-1.971,0-3.636-1.218-3.636-2.659V31.333h2.543h1.684h1.685h5.551h1.685h0.972h0.712h0.791h1.503h1.912h1.395h0.386
		h1.117H33.6h0.838h7.904h1.782h1.78h5.923L51.826,33L51.826,33z M15.379,28.333l-1.18-2.31l-3.813-7.462l4.401-2.249l6.144,12.021
		H15.379z M9.863,15.459l-0.072-2.925l2.571,1.647L9.863,15.459z M58,38v9c0,1.535-1.335,2.828-3.174,3.298V34.702
		C56.665,35.172,58,36.465,58,38z"/>
</g>
</svg>
