<?xml version="1.0" encoding="utf-8"?>
<!-- Generator: Adobe Illustrator 16.0.3, SVG Export Plug-In . SVG Version: 6.00 Build 0)  -->
<!DOCTYPE svg PUBLIC "-//W3C//DTD SVG 1.1//EN" "http://www.w3.org/Graphics/SVG/1.1/DTD/svg11.dtd">
<svg version="1.1" id="Capa_1" xmlns="http://www.w3.org/2000/svg" xmlns:xlink="http://www.w3.org/1999/xlink" x="0px" y="0px"
	 width="46.789px" height="45.766px" viewBox="0 0 46.789 45.766" enable-background="new 0 0 46.789 45.766" xml:space="preserve">
<g>
	<path id="path3596" fill="#16BAE7" d="M41.173,42.098c0.017,0.032,0.027,0.04,0.037-0.083h-0.198v0.356
		C41.012,42.416,41.117,42.216,41.173,42.098"/>
	<path id="path3598" fill="#16BAE7" d="M39.48,20.645c0.061-0.004,0.122-0.021,0.184-0.035
		C39.565,20.649,39.562,20.657,39.48,20.645z M41.012,20.1v-0.052c1.25-0.307,1.053-1.008,0.821-1.673l-0.194-0.602
		c-0.214-0.625-0.804-0.76-1.435-0.76c-0.008,0-0.015,0-0.021,0l0.003-0.134l0.415,0.415l-0.439-0.512l-0.007-0.024
		c-0.069,0.01-0.124,0.008-0.184,0.02L27.255,3.928c-0.021,0.06-0.021,0.052-0.051,0.108L26.583,5.24
		c-0.104,0.203-0.258,0.34-0.432,0.465c0.164,0.125,0.316,0.243,0.449,0.377l10.796,10.793c0.224,0.222,0.433,0.492,0.628,0.794
		c-0.001,0.001-0.003,0.002-0.004,0.002c0.001,0.003,0.003,0.005,0.004,0.008c0.001-0.003,0.002-0.005,0.004-0.008
		c0.156-0.188,0.346-0.354,0.598-0.44c-0.242,0.083-0.426,0.301-0.58,0.486c-0.008-0.012-0.014-0.026-0.021-0.038
		c-0.294,0.358-0.421,0.844-0.26,1.313l0.255,0.736c0.171,0.497,0.602,0.815,1.085,0.896c0.002,0.019,0.008,0.034,0.009,0.054
		c-0.003,0-0.014,0.002-0.014,0.002c-0.018,0-0.004,0.002,0.016,0.004c0,0.007,0.002,0.012,0.004,0.018
		c-0.106,0.001-0.295,0-0.607-0.002v0.064c0,0,0.604,0,0.617,0h0.004c-0.004-0.022-0.313-0.04-0.313-0.063
		c0.232-0.002,0.942-0.013-0.308-0.018c0-0.002,0-0.005,0-0.008c1.25-0.008,0.433,0.034,0.433,0.031
		c0.026,0.003,0.253,0.057,0.312,0.057h0.076c0.037,0,0.43,0.217,0.43,0.373v20.877h1.25L41.012,20.1"/>
	<path id="path3600" fill="#16BAE7" d="M39.255,42.056c0.123,0.094,0.507,0.367,0.507,0.315v-0.356h-0.562
		C39.212,42.183,39.231,42.111,39.255,42.056"/>
	<path id="path3602" fill="#16BAE7" d="M44.894,42.015H41.21c-0.017,0.234-0.047,0-0.086,0h-1.84l0,0c-0.037,0-0.068,0.234-0.084,0
		H19.522c-1.046,0-1.894,0.828-1.894,1.874c0,1.048,0.848,1.876,1.894,1.876h25.371c1.046,0,1.896-0.828,1.896-1.876
		C46.789,42.844,45.939,42.015,44.894,42.015"/>
	<path id="path3604" fill="#16BAE7" d="M24.024,5.469l0.696,0.351c0.479,0.243,1.025,0.165,1.432-0.131
		c-0.775-0.59-1.855-1.065-2.853-1.27C23.361,4.853,23.603,5.256,24.024,5.469"/>
	<path id="path3606" fill="#16BAE7" d="M12.834,16.34c-0.008-1.762-1.437-2.98-3.202-2.98c-1.77,0-3.204,1.227-3.204,2.996
		c0-1.771,1.435-3.101,3.204-3.101c1.771,0,3.203,1.278,3.203,3.049C12.835,16.314,12.834,16.327,12.834,16.34L12.834,16.34z
		 M19.402,16.351c0.021-0.287,0.034-0.477,0.034-0.771c0-5.104-2.942-9.348-6.968-10.723c0.076-0.165,0.142-0.343,0.194-0.343h9.671
		c0.301,0,0.63-0.063,0.966,0.008c-0.019-0.138-0.023-0.304-0.006-0.468c-0.006,0.113-0.009,0.229,0.006,0.336
		c0.998,0.205,2.078,0.692,2.853,1.283c0.174-0.126,0.327-0.267,0.432-0.47l0.621-1.238c0.03-0.057,0.029-0.118,0.051-0.18L26,2.424
		l1.256,1.311c0.221-0.645-0.037-1.338-0.662-1.656l-0.696-0.443c-0.628-0.315-1.364,0.381-1.751,0.381H12.635
		C12.191,0.765,11.021,0,9.632,0c-1.77,0-3.204,1.487-3.204,3.257c0,0.594,0.173,1.168,0.452,1.646
		c0.899-0.317,1.852-0.479,2.839-0.479c0.32,0,0.635,0.04,0.947,0.095c-0.313-0.038-0.626-0.08-0.947-0.08
		c-0.987,0-1.939,0.172-2.839,0.49C2.897,6.334,0,10.616,0,15.684c0,0.295,0.013,0.38,0.035,0.667
		c0.037,0.482,1.214,0.664,2.595,0.664h3.932c0.38,1.25,1.604,2.338,3.07,2.338c1.466,0,2.69-1.088,3.069-2.338h4.107
		C18.19,17.015,19.365,16.834,19.402,16.351"/>
	<path id="path3608" fill="#16BAE7" d="M14.665,18.678c-0.219-0.147-0.516-0.094-0.665,0.127c-0.148,0.22-0.092,0.517,0.127,0.665
		l2.166,1.474c0.082,0.055,0.175,0.081,0.268,0.081c0.152,0,0.304-0.073,0.397-0.208c0.147-0.219,0.091-0.518-0.129-0.665
		L14.665,18.678"/>
	<path id="path3610" fill="#16BAE7" d="M4.253,18.678l-2.165,1.474C1.869,20.3,1.812,20.598,1.96,20.816
		c0.094,0.136,0.244,0.208,0.399,0.208c0.091,0,0.185-0.026,0.268-0.081L4.79,19.47c0.22-0.148,0.277-0.446,0.129-0.665
		C4.771,18.585,4.473,18.528,4.253,18.678"/>
	<path id="path3612" fill="#16BAE7" d="M9.137,20.327c-0.266,0-0.625,0.214-0.625,0.479v3.117c0,0.267,0.359,0.479,0.625,0.479
		c0.265,0,0.625-0.213,0.625-0.479v-3.117C9.762,20.541,9.401,20.327,9.137,20.327"/>
</g>
</svg>
