<?xml version="1.0" encoding="utf-8"?>
<!-- Generator: Adobe Illustrator 16.0.3, SVG Export Plug-In . SVG Version: 6.00 Build 0)  -->
<!DOCTYPE svg PUBLIC "-//W3C//DTD SVG 1.1//EN" "http://www.w3.org/Graphics/SVG/1.1/DTD/svg11.dtd">
<svg version="1.1" id="Capa_1" xmlns="http://www.w3.org/2000/svg" xmlns:xlink="http://www.w3.org/1999/xlink" x="0px" y="0px"
	 width="42.718px" height="53.838px" viewBox="0 0 42.718 53.838" enable-background="new 0 0 42.718 53.838" xml:space="preserve">
<g>
	<path id="path3246" fill="#E30613" d="M42.718,29.226V22.69c0-1.381-0.639-2.5-1.17-2.5c-0.53,0-2.151,0.271-3.49,0.606
		l-2.893,0.71c-1.34,0.335-2.451-0.309-2.451-1.438c0-1.13,0.896-2.725,1.74-3.819c1.312-1.704,2.086-3.839,2.086-6.155
		C36.541,4.519,32.017,0,26.441,0c-2.462,0-4.72,0.881-6.472,2.346c-1.059,0.885-2.345,0.885-3.404,0
		C14.813,0.882,12.558,0,10.095,0C4.52,0,0,4.52,0,10.095c0,2.316,0.841,4.451,2.153,6.155c0.843,1.094,1.814,2.893,1.814,4.273
		v12.164c0,1.595,1.17,2.982,2.762,2.982h4.259c1.381,0,1.892,0.891,1.142,2.05l-6.053,9.33c-0.577,0.892-0.322,2.07,0.569,2.646
		C6.97,49.906,7.331,50,7.69,50c0.63,0,1.247-0.313,1.614-0.883l5.743-8.78c0.75-1.158,1.42-0.98,1.42,0.4v11.179
		c0,1.062,0.813,1.922,1.875,1.922s1.875-0.86,1.875-1.922V40.737c0-1.381,0.594-1.561,1.344-0.401l5.674,8.779
		c0.367,0.569,0.979,0.879,1.612,0.879c0.357,0,0.718-0.101,1.041-0.31c0.892-0.578,1.146-1.768,0.568-2.658l-6.055-9.307
		c-0.75-1.158-0.238-2.05,1.143-2.05h4.259c1.593,0,2.913-1.389,2.913-2.981c0,0,0-0.646,0-1.441s1.07-1.171,2.41-0.836l2.834,0.71
		c1.338,0.335,3.061,0.606,3.592,0.606C42.082,31.726,42.718,30.606,42.718,29.226"/>
</g>
</svg>
