<?xml version="1.0" encoding="utf-8"?>
<!-- Generator: Adobe Illustrator 15.0.0, SVG Export Plug-In . SVG Version: 6.00 Build 0)  -->
<!DOCTYPE svg PUBLIC "-//W3C//DTD SVG 1.1//EN" "http://www.w3.org/Graphics/SVG/1.1/DTD/svg11.dtd">
<svg version="1.1" xmlns="http://www.w3.org/2000/svg" xmlns:xlink="http://www.w3.org/1999/xlink" x="0px" y="0px"
	 width="779.953px" height="742.45px" viewBox="0 0 779.953 742.45" enable-background="new 0 0 779.953 742.45"
	 xml:space="preserve">
<g id="Ebene_6" display="none">
	<g display="inline">
		<defs>
			<polygon id="SVGID_1_" points="277.919,495.791 490.907,495.791 502.034,708.105 289.046,708.105 			"/>
		</defs>
		<clipPath id="SVGID_2_">
			<use xlink:href="#SVGID_1_"  overflow="visible"/>
		</clipPath>
	</g>
	<g display="inline">
		<line fill="none" stroke="#000000" stroke-width="0.3" x1="251.137" y1="-26.418" x2="251.137" y2="9.582"/>
		<line fill="none" stroke="#000000" stroke-width="0.3" x1="213.203" y1="27.582" x2="238.492" y2="27.582"/>
		<line fill="none" stroke="#000000" stroke-width="0.3" x1="213.203" y1="714.867" x2="238.492" y2="714.867"/>
		<line fill="none" stroke="#000000" stroke-width="0.3" x1="251.137" y1="768.867" x2="251.137" y2="732.867"/>
		<line fill="none" stroke="#000000" stroke-width="0.3" x1="539.871" y1="-26.418" x2="539.871" y2="9.582"/>
		<line fill="none" stroke="#000000" stroke-width="0.3" x1="577.805" y1="27.582" x2="552.516" y2="27.582"/>
		<line fill="none" stroke="#000000" stroke-width="0.3" x1="577.805" y1="714.867" x2="552.516" y2="714.867"/>
		<line fill="none" stroke="#000000" stroke-width="0.3" x1="539.871" y1="768.867" x2="539.871" y2="732.867"/>
	</g>
	<g display="inline">
		<line fill="none" stroke="#000000" stroke-width="0.3" x1="217.608" y1="-26.418" x2="217.608" y2="9.582"/>
		<line fill="none" stroke="#000000" stroke-width="0.3" x1="175.781" y1="27.582" x2="203.666" y2="27.582"/>
		<line fill="none" stroke="#000000" stroke-width="0.3" x1="175.781" y1="714.867" x2="203.666" y2="714.867"/>
		<line fill="none" stroke="#000000" stroke-width="0.3" x1="217.608" y1="768.867" x2="217.608" y2="732.867"/>
		<line fill="none" stroke="#000000" stroke-width="0.3" x1="535.978" y1="-26.418" x2="535.978" y2="9.582"/>
		<line fill="none" stroke="#000000" stroke-width="0.3" x1="577.805" y1="27.582" x2="549.92" y2="27.582"/>
		<line fill="none" stroke="#000000" stroke-width="0.3" x1="577.805" y1="714.867" x2="549.92" y2="714.867"/>
		<line fill="none" stroke="#000000" stroke-width="0.3" x1="535.978" y1="768.867" x2="535.978" y2="732.867"/>
	</g>
</g>
<g id="Ebene_3" display="none">
	<g display="inline">
		<defs>
			<polygon id="SVGID_3_" points="377.335,611.692 881.094,597.732 896.882,757.041 393.123,771.001 			"/>
		</defs>
		<clipPath id="SVGID_4_">
			<use xlink:href="#SVGID_3_"  overflow="visible"/>
		</clipPath>
	</g>
</g>
<g id="Ebene_2" display="none">
	<g display="inline">
		<defs>
			<polygon id="SVGID_5_" points="-54.882,-2.927 116.974,-2.927 127.959,626.417 -43.896,626.417 			"/>
		</defs>
		<clipPath id="SVGID_6_">
			<use xlink:href="#SVGID_5_"  overflow="visible"/>
		</clipPath>
	</g>
	<rect x="199.781" y="117.042" display="inline" fill="none" width="171.855" height="629.344"/>
	<g display="inline">
		<defs>
			<rect id="SVGID_7_" x="107.079" y="54.527" width="253.001" height="128.106"/>
		</defs>
		<clipPath id="SVGID_8_">
			<use xlink:href="#SVGID_7_"  overflow="visible"/>
		</clipPath>
	</g>
</g>
<g id="Ebene_4">
	<polyline fill="none" stroke="#000000" stroke-width="4" stroke-miterlimit="10" points="26.254,473.637 26.254,248.089 
		12.755,248.089 12.755,66.598 24.754,66.598 24.753,18.601 117.214,18.601 117.214,56.099 269.821,56.1 269.82,170.093 
		117.214,170.093 117.214,474.578 	"/>
	<polyline fill="none" stroke="#9D9D9C" stroke-width="4" stroke-miterlimit="10" points="252.547,599.021 252.471,551.117 
		115.762,551.117 	"/>
	<polyline fill="none" stroke="#9D9D9C" stroke-width="3" stroke-miterlimit="10" points="275.987,501.482 275.987,550.643 
		251.271,550.643 	"/>
	<polyline fill="none" stroke="#000000" stroke-width="3" stroke-miterlimit="10" points="88.371,539.787 117.249,539.787 
		117.249,552.246 	"/>
	<line fill="none" stroke="#000000" stroke-width="3" stroke-miterlimit="10" x1="47.238" y1="539.787" x2="80.237" y2="539.787"/>
	<polyline fill="none" stroke="#000000" stroke-width="3" stroke-miterlimit="10" points="76.523,498.162 76.523,539.787 
		26.928,539.787 	"/>
	<line fill="none" stroke="#000000" stroke-width="3" stroke-miterlimit="10" x1="76.523" y1="468.912" x2="76.523" y2="489.662"/>
	<line fill="none" stroke="#000000" stroke-width="3" stroke-miterlimit="10" x1="76.523" y1="426.912" x2="76.523" y2="461.912"/>
	<line fill="none" stroke="#000000" stroke-width="3" stroke-miterlimit="10" x1="76.523" y1="383.912" x2="76.523" y2="418.412"/>
	<line fill="none" stroke="#000000" stroke-width="3" stroke-miterlimit="10" x1="76.523" y1="351.412" x2="76.523" y2="376.412"/>
	<line fill="none" stroke="#000000" stroke-width="3" stroke-miterlimit="10" x1="76.523" y1="341.412" x2="76.523" y2="344.246"/>
	<line fill="none" stroke="#000000" stroke-width="3" stroke-miterlimit="10" x1="76.523" y1="318.412" x2="76.523" y2="333.412"/>
	<line fill="none" stroke="#000000" stroke-width="3" stroke-miterlimit="10" x1="76.523" y1="311.745" x2="76.523" y2="318.412"/>
	<line fill="none" stroke="#000000" stroke-width="3" stroke-miterlimit="10" x1="76.523" y1="297.912" x2="76.523" y2="311.745"/>
	<line fill="none" stroke="#000000" stroke-width="3" stroke-miterlimit="10" x1="76.523" y1="247.962" x2="76.523" y2="288.162"/>
	<line fill="none" stroke="#000000" stroke-width="3" stroke-miterlimit="10" x1="76.523" y1="135.079" x2="76.523" y2="238.746"/>
	<line fill="none" stroke="#000000" stroke-width="3" stroke-miterlimit="10" x1="76.523" y1="110.912" x2="76.523" y2="125.329"/>
	<polyline fill="none" stroke="#000000" stroke-width="3" stroke-miterlimit="10" points="12.938,87.32 76.523,87.32 
		76.523,101.665 	"/>
	<line stroke="#000000" stroke-width="3" stroke-miterlimit="10" x1="24.712" y1="254.431" x2="75.612" y2="254.431"/>
	<line stroke="#000000" stroke-width="2" stroke-miterlimit="10" x1="27.234" y1="474.578" x2="76.217" y2="474.578"/>
	<line stroke="#000000" stroke-width="2" stroke-miterlimit="10" x1="27.234" y1="453.162" x2="76.217" y2="453.162"/>
	<line stroke="#000000" stroke-width="3" stroke-miterlimit="10" x1="26.254" y1="389.912" x2="75.237" y2="389.912"/>
	<line stroke="#000000" stroke-width="2" stroke-miterlimit="10" x1="25.296" y1="347.079" x2="67.237" y2="347.079"/>
	<line stroke="#000000" stroke-width="3" stroke-miterlimit="10" x1="65.404" y1="304.079" x2="75.612" y2="304.079"/>
	<line stroke="#000000" stroke-width="3" stroke-miterlimit="10" x1="23.962" y1="304.079" x2="57.405" y2="304.079"/>
	<line stroke="#000000" stroke-width="2" stroke-miterlimit="10" x1="27.404" y1="143.157" x2="27.404" y2="119.079"/>
	<line fill="none" stroke="#000000" stroke-width="3" stroke-miterlimit="10" x1="95.595" y1="391.608" x2="118.979" y2="391.608"/>
	<line fill="none" stroke="#000000" stroke-width="3" stroke-miterlimit="10" x1="118.979" y1="304.609" x2="95.595" y2="304.609"/>
	<line fill="none" stroke="#000000" stroke-width="2" stroke-miterlimit="10" x1="95.595" y1="358.162" x2="95.595" y2="393.108"/>
	<line fill="none" stroke="#000000" stroke-width="2" stroke-miterlimit="10" x1="95.595" y1="319.776" x2="95.595" y2="350.412"/>
	<line fill="none" stroke="#000000" stroke-width="2" stroke-miterlimit="10" x1="95.595" y1="303.08" x2="95.595" y2="311.776"/>
	<line fill="none" stroke="#000000" stroke-width="2" stroke-miterlimit="10" x1="97.644" y1="434.162" x2="116.93" y2="434.162"/>
	<polyline fill="none" stroke="#000000" stroke-width="2" stroke-miterlimit="10" points="96.987,414.412 96.987,410.412 
		117.75,410.412 	"/>
	<line fill="none" stroke="#000000" stroke-width="2" stroke-miterlimit="10" x1="96.987" y1="449.412" x2="96.987" y2="421.412"/>
	<line fill="none" stroke="#000000" stroke-width="2" stroke-miterlimit="10" x1="96.987" y1="475.388" x2="96.987" y2="456.912"/>
	<line fill="none" stroke="#000000" stroke-width="2" stroke-miterlimit="10" x1="118.821" y1="475.55" x2="96" y2="475.55"/>
	<path fill="none" stroke="#000000" stroke-width="2" stroke-miterlimit="10" d="M77.488,53.412"/>
	<line fill="none" stroke="#000000" stroke-width="2" stroke-miterlimit="10" x1="99.199" y1="117.333" x2="99.199" y2="141.41"/>
	<polyline fill="none" stroke="#000000" stroke-width="2" stroke-miterlimit="10" points="117.335,87.32 99.201,87.32 
		99.201,109.333 	"/>
	<path fill="none" stroke="#000000" stroke-width="2" stroke-miterlimit="24" d="M130.843,89.416
		c-7.281-1.088-14.054-2.096-14.054-2.096"/>
	<path fill="none" stroke="#000000" stroke-width="2" stroke-miterlimit="24" d="M127.847,139.76
		c7.733-0.984,17.002-2.168,18.89-2.428c3.708-0.667,5.042-1,5.343-5.833c0-6.083,0-28.083,0-33.333
		c0-3.542-3.051-5.167-6.343-5.667c-2.03-0.309-5.014-0.758-8.305-1.251"/>
	<path fill="none" stroke="#000000" stroke-width="2" stroke-miterlimit="24" d="M116.789,140.32c0,0,2.186-0.277,5.384-0.684"/>
	<line fill="none" stroke="#000000" stroke-width="2" stroke-miterlimit="10" x1="116.789" y1="171.163" x2="116.789" y2="86.35"/>
	<line fill="none" stroke="#9D9D9C" stroke-miterlimit="10" x1="277.303" y1="537.14" x2="294.471" y2="537.14"/>
	<line fill="none" stroke="#9D9D9C" stroke-miterlimit="10" x1="277.303" y1="524.715" x2="294.471" y2="524.715"/>
	<line fill="none" stroke="#9D9D9C" stroke-miterlimit="10" x1="277.303" y1="532.17" x2="294.471" y2="532.17"/>
	<line fill="none" stroke="#9D9D9C" stroke-miterlimit="10" x1="277.303" y1="534.654" x2="294.471" y2="534.654"/>
	<line fill="none" stroke="#9D9D9C" stroke-miterlimit="10" x1="277.303" y1="529.685" x2="294.471" y2="529.685"/>
	<line fill="none" stroke="#9D9D9C" stroke-miterlimit="10" x1="277.303" y1="527.2" x2="294.471" y2="527.2"/>
	<line fill="none" stroke="#9D9D9C" stroke-miterlimit="10" x1="277.303" y1="539.624" x2="294.471" y2="539.624"/>
	
		<line fill="none" stroke="#9D9D9C" stroke-width="2" stroke-miterlimit="10" x1="306.303" y1="523.412" x2="306.303" y2="547.577"/>
	
		<line fill="none" stroke="#9D9D9C" stroke-width="2" stroke-miterlimit="10" x1="294.471" y1="599.021" x2="294.471" y2="523.412"/>
	<line fill="none" stroke="#000000" stroke-width="2" stroke-miterlimit="10" x1="95.595" y1="330.412" x2="116.943" y2="330.412"/>
	<line fill="none" stroke="#9D9D9C" stroke-miterlimit="10" x1="306.303" y1="537.14" x2="323.471" y2="537.14"/>
	<line fill="none" stroke="#9D9D9C" stroke-miterlimit="10" x1="306.303" y1="524.715" x2="323.471" y2="524.715"/>
	<line fill="none" stroke="#9D9D9C" stroke-miterlimit="10" x1="306.303" y1="532.17" x2="323.471" y2="532.17"/>
	<line fill="none" stroke="#9D9D9C" stroke-miterlimit="10" x1="306.303" y1="534.654" x2="323.471" y2="534.654"/>
	<line fill="none" stroke="#9D9D9C" stroke-miterlimit="10" x1="306.303" y1="529.685" x2="323.471" y2="529.685"/>
	<line fill="none" stroke="#9D9D9C" stroke-miterlimit="10" x1="306.303" y1="527.2" x2="323.471" y2="527.2"/>
	<line fill="none" stroke="#9D9D9C" stroke-miterlimit="10" x1="306.303" y1="539.624" x2="323.471" y2="539.624"/>
	<polyline fill="none" stroke="#000000" stroke-width="2" stroke-miterlimit="10" points="99.199,150.998 99.199,157.999 
		117.214,157.999 	"/>
	<line fill="none" stroke="#000000" stroke-width="2" stroke-miterlimit="10" x1="99.199" y1="138.164" x2="99.199" y2="144.665"/>
	<g>
		<g>
			
				<line fill="none" stroke="#000000" stroke-width="2" stroke-miterlimit="10" x1="112.67" y1="172.759" x2="99.668" y2="159.759"/>
			
				<line fill="none" stroke="#000000" stroke-width="2" stroke-miterlimit="10" x1="112.668" y1="159.896" x2="99.668" y2="172.897"/>
		</g>
		
			<rect x="99.669" y="159.759" transform="matrix(-0.9999 0.0146 -0.0146 -0.9999 214.7605 331.501)" fill="none" stroke="#000000" stroke-miterlimit="10" width="13.001" height="13.551"/>
	</g>
	<g>
		<g>
			<line fill="none" stroke="#9D9D9C" stroke-width="2" stroke-miterlimit="10" x1="306.887" y1="542" x2="293.885" y2="529"/>
			
				<line fill="none" stroke="#9D9D9C" stroke-width="2" stroke-miterlimit="10" x1="306.885" y1="529.137" x2="293.885" y2="542.139"/>
		</g>
		
			<rect x="293.886" y="529" transform="matrix(-0.9999 0.0146 -0.0146 -0.9999 608.5478 1067.1177)" fill="none" stroke="#9D9D9C" stroke-miterlimit="10" width="13.001" height="13.551"/>
	</g>
	<polyline fill="none" stroke="#000000" stroke-width="2" stroke-miterlimit="10" points="93.737,59.121 93.737,53.412 
		116.112,53.412 116.112,68.156 	"/>
	<line fill="none" stroke="#000000" stroke-width="2" stroke-miterlimit="10" x1="99.375" y1="126.165" x2="116.418" y2="126.165"/>
	<polyline fill="none" stroke="#9D9D9C" stroke-width="4" stroke-miterlimit="10" points="325.068,595.708 325.068,595.708 
		716.908,595.71 716.91,724.704 246.402,724.702 246.402,598.967 252.383,598.84 252.383,598.84 	"/>
	<line fill="none" stroke="#9D9D9C" stroke-width="2" stroke-miterlimit="10" x1="670.65" y1="670.413" x2="670.65" y2="724.704"/>
	<line fill="none" stroke="#9D9D9C" stroke-width="2" stroke-miterlimit="10" x1="670.65" y1="642.052" x2="670.65" y2="656.393"/>
	
		<line fill="none" stroke="#9D9D9C" stroke-width="2" stroke-miterlimit="10" x1="670.648" y1="614.752" x2="670.648" y2="629.312"/>
	<line fill="none" stroke="#9D9D9C" stroke-width="3" stroke-miterlimit="10" x1="324.65" y1="629.912" x2="324.65" y2="595.709"/>
	<polyline fill="none" stroke="#9D9D9C" stroke-width="3" stroke-miterlimit="10" points="367.093,647.049 324.65,647.049 
		324.65,636.912 	"/>
	
		<line fill="none" stroke="#9D9D9C" stroke-width="3" stroke-miterlimit="10" x1="394.987" y1="647.049" x2="374.404" y2="647.049"/>
	<line fill="none" stroke="#9D9D9C" stroke-width="3" stroke-miterlimit="10" x1="437.76" y1="647.05" x2="402.737" y2="647.049"/>
	
		<line fill="none" stroke="#9D9D9C" stroke-width="3" stroke-miterlimit="10" x1="489.029" y1="647.049" x2="445.266" y2="647.049"/>
	<path fill="none" stroke="#9D9D9C" stroke-width="3" stroke-miterlimit="10" d="M473.314,647.049"/>
	<line fill="none" stroke="#9D9D9C" stroke-width="3" stroke-miterlimit="10" x1="563.238" y1="647.05" x2="507.57" y2="647.05"/>
	<polyline fill="none" stroke="#9D9D9C" stroke-width="3" stroke-miterlimit="10" points="633.236,596.958 633.238,648.298 
		648.93,648.298 	"/>
	<line fill="none" stroke="#9D9D9C" stroke-width="3" stroke-miterlimit="10" x1="324.65" y1="718.912" x2="324.65" y2="724.703"/>
	<line fill="none" stroke="#9D9D9C" stroke-width="3" stroke-miterlimit="10" x1="324.65" y1="681.162" x2="324.65" y2="712.162"/>
	<polyline fill="none" stroke="#9D9D9C" stroke-width="3" stroke-miterlimit="10" points="373.113,669.049 324.65,669.049 
		324.65,674.912 	"/>
	
		<line fill="none" stroke="#9D9D9C" stroke-width="3" stroke-miterlimit="10" x1="390.316" y1="669.049" x2="380.487" y2="669.049"/>
	
		<line fill="none" stroke="#9D9D9C" stroke-width="3" stroke-miterlimit="10" x1="424.987" y1="669.049" x2="405.371" y2="669.049"/>
	
		<line fill="none" stroke="#9D9D9C" stroke-width="3" stroke-miterlimit="10" x1="466.737" y1="669.049" x2="432.737" y2="669.049"/>
	
		<line fill="none" stroke="#9D9D9C" stroke-width="3" stroke-miterlimit="10" x1="479.209" y1="669.049" x2="473.706" y2="669.049"/>
	<path fill="none" stroke="#9D9D9C" stroke-width="3" stroke-miterlimit="10" d="M475.984,669.049"/>
	<line fill="none" stroke="#9D9D9C" stroke-width="3" stroke-miterlimit="10" x1="531.237" y1="669.05" x2="486.701" y2="669.05"/>
	<line fill="none" stroke="#9D9D9C" stroke-width="3" stroke-miterlimit="10" x1="563.238" y1="669.049" x2="537.487" y2="669.05"/>
	
		<line fill="none" stroke="#9D9D9C" stroke-width="2" stroke-miterlimit="10" x1="390.316" y1="595.709" x2="390.316" y2="647.049"/>
	<polyline fill="none" stroke="#9D9D9C" stroke-width="2" stroke-miterlimit="10" points="454.648,647.049 454.65,623.931 
		473.314,623.551 	"/>
	
		<line fill="none" stroke="#9D9D9C" stroke-width="2" stroke-miterlimit="10" x1="562.321" y1="668.313" x2="562.321" y2="723.968"/>
	<line fill="none" stroke="#9D9D9C" stroke-width="2" stroke-miterlimit="10" x1="503.742" y1="669" x2="503.717" y2="724.703"/>
	<line fill="none" stroke="#9D9D9C" stroke-width="2" stroke-miterlimit="10" x1="476.01" y1="669.049" x2="475.984" y2="724.704"/>
	
		<line fill="none" stroke="#9D9D9C" stroke-width="2" stroke-miterlimit="10" x1="384.696" y1="669.049" x2="384.696" y2="724.703"/>
	<line fill="none" stroke="#9D9D9C" stroke-width="2" stroke-miterlimit="10" x1="357.152" y1="669" x2="357.152" y2="724.653"/>
	
		<line fill="none" stroke="#9D9D9C" stroke-width="3" stroke-miterlimit="10" x1="473.316" y1="595.709" x2="473.314" y2="647.049"/>
	<line fill="none" stroke="#9D9D9C" stroke-width="3" stroke-miterlimit="10" x1="509.074" y1="595.71" x2="509.078" y2="647.05"/>
	<line fill="none" stroke="#9D9D9C" stroke-width="2" stroke-miterlimit="10" x1="670.648" y1="651.079" x2="716.91" y2="651.079"/>
	<line fill="none" stroke="#9D9D9C" stroke-width="3" stroke-miterlimit="10" x1="310.148" y1="677.244" x2="310.15" y2="724.703"/>
	<line fill="none" stroke="#9D9D9C" stroke-width="3" stroke-miterlimit="10" x1="310.15" y1="652.974" x2="310.15" y2="668.436"/>
	<polyline fill="none" stroke="#9D9D9C" stroke-width="3" stroke-miterlimit="10" points="252.385,599.299 310.15,599.299 
		310.148,645.957 	"/>
	<line fill="none" stroke="#9D9D9C" stroke-width="2" stroke-miterlimit="10" x1="246.4" y1="662.001" x2="310.15" y2="662.001"/>
	
		<line fill="none" stroke="#9D9D9C" stroke-width="2" stroke-linecap="round" stroke-miterlimit="10" x1="469.58" y1="640.981" x2="457.989" y2="628.981"/>
	
		<line fill="none" stroke="#9D9D9C" stroke-width="2" stroke-linecap="round" stroke-miterlimit="10" x1="469.782" y1="629.312" x2="457.782" y2="640.901"/>
	
		<rect x="457.282" y="628.481" transform="matrix(-1 -0.0029 0.0029 -1 925.7014 1271.8696)" fill="none" stroke="#9D9D9C" stroke-miterlimit="10" width="13" height="13.552"/>
	<line fill="none" stroke="#9D9D9C" stroke-width="2" stroke-miterlimit="10" x1="412.316" y1="594.89" x2="412.316" y2="646.229"/>
	
		<line fill="none" stroke="#9D9D9C" stroke-width="2" stroke-miterlimit="10" x1="362.487" y1="595.709" x2="362.487" y2="647.049"/>
	<polyline fill="none" stroke="#9D9D9C" stroke-miterlimit="10" points="473.588,618.412 488.502,618.412 488.502,646.229 	"/>
	<line fill="none" stroke="#9D9D9C" stroke-miterlimit="10" x1="474.05" y1="603.808" x2="489.379" y2="614.681"/>
	<line fill="none" stroke="#9D9D9C" stroke-miterlimit="10" x1="475.387" y1="600.402" x2="489.88" y2="613.949"/>
	<line fill="none" stroke="#9D9D9C" stroke-miterlimit="10" x1="477.906" y1="598.124" x2="490.603" y2="613.183"/>
	<line fill="none" stroke="#9D9D9C" stroke-miterlimit="10" x1="481.656" y1="597.058" x2="491.746" y2="612.363"/>
	<line fill="none" stroke="#9D9D9C" stroke-miterlimit="10" x1="485.8" y1="597.058" x2="492.8" y2="612.037"/>
	<line fill="none" stroke="#9D9D9C" stroke-miterlimit="10" x1="490.3" y1="597.058" x2="493.612" y2="611.483"/>
	<path fill="none" stroke="#9D9D9C" stroke-miterlimit="10" d="M488.502,617.918c0-3.501,2.795-6.333,6.25-6.333"/>
	<line fill="none" stroke="#9D9D9C" stroke-miterlimit="10" x1="494.377" y1="596.36" x2="494.377" y2="612.037"/>
	<line fill="none" stroke="#9D9D9C" stroke-miterlimit="10" x1="474.404" y1="614.752" x2="488.549" y2="617.412"/>
	<line fill="none" stroke="#9D9D9C" stroke-miterlimit="10" x1="474.05" y1="611.6" x2="488.502" y2="616.443"/>
	<line fill="none" stroke="#9D9D9C" stroke-miterlimit="10" x1="473.588" y1="607.725" x2="488.853" y2="615.475"/>
	<path fill="none" stroke="#9D9D9C" stroke-miterlimit="10" d="M474.404,603.808c0-3.501,2.795-6.333,6.25-6.333"/>
	
		<line fill="none" stroke="#9D9D9C" stroke-width="2" stroke-miterlimit="10" x1="325.165" y1="697.912" x2="357.152" y2="698.162"/>
	
		<line fill="none" stroke="#9D9D9C" stroke-width="2" stroke-miterlimit="10" x1="412.316" y1="668.313" x2="412.316" y2="723.967"/>
	
		<line fill="none" stroke="#9D9D9C" stroke-width="2" stroke-miterlimit="10" x1="445.266" y1="668.313" x2="445.266" y2="723.967"/>
	
		<line fill="none" stroke="#9D9D9C" stroke-width="2" stroke-miterlimit="10" x1="527.794" y1="676.662" x2="527.769" y2="724.704"/>
	<line fill="none" stroke="#9D9D9C" stroke-width="3" stroke-miterlimit="10" x1="516.071" y1="647.05" x2="516.071" y2="660.206"/>
	<line fill="none" stroke="#9D9D9C" stroke-miterlimit="10" x1="341.159" y1="684.745" x2="341.159" y2="710.412"/>
	
		<line fill="none" stroke="#9D9D9C" stroke-width="3" stroke-miterlimit="10" x1="232.077" y1="503.028" x2="275.987" y2="503.028"/>
	
		<line fill="none" stroke="#9D9D9C" stroke-width="3" stroke-miterlimit="10" x1="168.071" y1="503.028" x2="224.237" y2="503.028"/>
	<line fill="none" stroke="#9D9D9C" stroke-width="3" stroke-miterlimit="10" x1="117.75" y1="503.028" x2="160.405" y2="503.028"/>
	
		<line fill="none" stroke="#9D9D9C" stroke-width="3" stroke-miterlimit="10" x1="196.869" y1="503.028" x2="196.869" y2="551.117"/>
	<line fill="none" stroke="#000000" stroke-width="2" stroke-miterlimit="10" x1="85.488" y1="562.912" x2="116.93" y2="562.912"/>
	<line fill="none" stroke="#000000" stroke-width="2" stroke-miterlimit="10" x1="26.678" y1="562.912" x2="78.487" y2="562.912"/>
	<line fill="none" stroke="#000000" stroke-width="2" stroke-miterlimit="10" x1="95.433" y1="546.912" x2="95.433" y2="507.32"/>
	<line fill="none" stroke="#000000" stroke-width="2" stroke-miterlimit="10" x1="95.433" y1="580.662" x2="95.433" y2="552.912"/>
	<line fill="none" stroke="#000000" stroke-width="2" stroke-miterlimit="10" x1="95.433" y1="609.57" x2="95.433" y2="586.412"/>
	<line fill="none" stroke="#000000" stroke-width="2" stroke-miterlimit="10" x1="110.738" y1="507.32" x2="116.93" y2="507.32"/>
	<line fill="none" stroke="#000000" stroke-width="2" stroke-miterlimit="10" x1="86.112" y1="507.32" x2="104.738" y2="507.32"/>
	<line fill="none" stroke="#000000" stroke-width="2" stroke-miterlimit="10" x1="76.523" y1="507.32" x2="79.988" y2="507.32"/>
	<line fill="none" stroke="#000000" stroke-width="2" stroke-miterlimit="10" x1="12.755" y1="186.579" x2="76.523" y2="186.579"/>
	<polyline fill="none" stroke="#000000" stroke-width="2" stroke-miterlimit="10" points="99.571,195.579 99.571,184.246 
		117.124,184.246 	"/>
	<line fill="none" stroke="#000000" stroke-width="2" stroke-miterlimit="10" x1="99.571" y1="243.412" x2="99.571" y2="203.412"/>
	<polyline fill="none" stroke="#000000" stroke-width="2" stroke-miterlimit="10" points="117.124,270.912 99.571,270.912 
		99.571,251.079 	"/>
	<line fill="none" stroke="#000000" stroke-width="2" stroke-miterlimit="10" x1="99.571" y1="216.579" x2="117.124" y2="216.579"/>
	<line fill="none" stroke="#000000" stroke-width="2" stroke-miterlimit="10" x1="12.755" y1="119.08" x2="76.523" y2="119.08"/>
	<line fill="none" stroke="#000000" stroke-width="3" stroke-miterlimit="10" x1="50.405" y1="67.021" x2="81.414" y2="67.021"/>
	<line fill="none" stroke="#000000" stroke-width="3" stroke-miterlimit="10" x1="17.646" y1="67.021" x2="41.404" y2="67.021"/>
	<line fill="none" stroke="#9D9D9C" stroke-width="2" stroke-miterlimit="10" x1="670.648" y1="622.628" x2="716.91" y2="622.628"/>
	
		<line fill="none" stroke="#9D9D9C" stroke-width="2" stroke-miterlimit="10" x1="670.648" y1="595.192" x2="670.648" y2="605.773"/>
	<polyline fill="none" stroke="#9D9D9C" stroke-miterlimit="10" points="504.4,706.641 511.447,706.641 511.447,723.892 	"/>
	<line fill="none" stroke="#9D9D9C" stroke-miterlimit="10" x1="504.618" y1="697.585" x2="511.861" y2="704.327"/>
	<line fill="none" stroke="#9D9D9C" stroke-miterlimit="10" x1="505.25" y1="695.474" x2="512.099" y2="703.873"/>
	<line fill="none" stroke="#9D9D9C" stroke-miterlimit="10" x1="506.44" y1="694.061" x2="512.439" y2="703.398"/>
	<line fill="none" stroke="#9D9D9C" stroke-miterlimit="10" x1="508.213" y1="693.399" x2="512.98" y2="702.891"/>
	<line fill="none" stroke="#9D9D9C" stroke-miterlimit="10" x1="510.171" y1="693.399" x2="513.478" y2="702.688"/>
	<line fill="none" stroke="#9D9D9C" stroke-miterlimit="10" x1="512.297" y1="693.399" x2="513.862" y2="702.344"/>
	<path fill="none" stroke="#9D9D9C" stroke-miterlimit="10" d="M511.447,706.334c0-2.17,1.32-3.927,2.953-3.927"/>
	<polyline fill="none" stroke="#9D9D9C" stroke-miterlimit="10" points="514.224,693.1 514.224,694.031 514.224,702.688 	"/>
	<line fill="none" stroke="#9D9D9C" stroke-miterlimit="10" x1="504.786" y1="704.372" x2="511.47" y2="706.021"/>
	<line fill="none" stroke="#9D9D9C" stroke-miterlimit="10" x1="504.618" y1="702.417" x2="511.447" y2="705.421"/>
	<line fill="none" stroke="#9D9D9C" stroke-miterlimit="10" x1="504.4" y1="700.013" x2="511.613" y2="704.819"/>
	<path fill="none" stroke="#9D9D9C" stroke-miterlimit="10" d="M504.786,697.585c0-2.172,1.32-3.928,2.953-3.928h6.484"/>
	<path fill="none" stroke="#000000" stroke-miterlimit="10" d="M67.237,342.996v10.166 M77.362,343.25H66.706 M66.706,353.162
		h10.657"/>
	<line fill="none" stroke="#000000" stroke-miterlimit="10" x1="98.703" y1="273.253" x2="115.871" y2="273.253"/>
	<line fill="none" stroke="#000000" stroke-miterlimit="10" x1="98.703" y1="280.708" x2="115.871" y2="280.708"/>
	<line fill="none" stroke="#000000" stroke-miterlimit="10" x1="98.703" y1="278.223" x2="115.871" y2="278.223"/>
	<line fill="none" stroke="#000000" stroke-miterlimit="10" x1="98.703" y1="275.738" x2="115.871" y2="275.738"/>
	<line fill="none" stroke="#000000" stroke-miterlimit="10" x1="99.056" y1="271.473" x2="99.056" y2="281.162"/>
	<line fill="none" stroke="#000000" stroke-miterlimit="10" x1="107.287" y1="270.894" x2="107.287" y2="280.583"/>
	<line stroke="#000000" stroke-width="2" stroke-miterlimit="10" x1="58.404" y1="67.021" x2="58.404" y2="17.746"/>
	<line fill="none" stroke="#000000" stroke-miterlimit="10" x1="116.789" y1="121.498" x2="133.067" y2="121.498"/>
	<line fill="none" stroke="#000000" stroke-miterlimit="10" x1="116.789" y1="118.501" x2="133.067" y2="118.501"/>
	<line fill="none" stroke="#000000" stroke-miterlimit="10" x1="116.789" y1="124.495" x2="133.067" y2="124.495"/>
	<line fill="none" stroke="#000000" stroke-miterlimit="10" x1="116.789" y1="115.504" x2="133.067" y2="115.504"/>
	<polyline fill="none" stroke="#000000" stroke-miterlimit="10" points="133.237,124.984 133.237,109.021 136.987,109.021 
		136.987,124.984 	"/>
	<line fill="none" stroke="#000000" stroke-miterlimit="10" x1="136.479" y1="121.6" x2="152.051" y2="121.6"/>
	<line fill="none" stroke="#000000" stroke-miterlimit="10" x1="136.479" y1="118.705" x2="152.051" y2="118.705"/>
	<line fill="none" stroke="#000000" stroke-miterlimit="10" x1="136.653" y1="124.495" x2="152.051" y2="124.495"/>
	<line fill="none" stroke="#000000" stroke-miterlimit="10" x1="136.479" y1="115.81" x2="152.051" y2="115.81"/>
	<line fill="none" stroke="#000000" stroke-miterlimit="10" x1="136.479" y1="112.915" x2="152.051" y2="112.915"/>
	<line fill="none" stroke="#000000" stroke-miterlimit="10" x1="137.027" y1="110.02" x2="152.599" y2="110.02"/>
	<line fill="none" stroke="#000000" stroke-width="2" stroke-miterlimit="24" x1="152.08" y1="131.499" x2="152.051" y2="168.282"/>
	<polyline fill="none" stroke="#000000" stroke-width="2" stroke-miterlimit="24" points="194.738,121.6 200.487,121.6 
		200.487,103.912 181.987,103.912 	"/>
	<polyline fill="none" stroke="#000000" stroke-width="2" stroke-miterlimit="24" points="184.011,121.6 152.051,121.6 
		188.987,121.6 	"/>
	<polyline fill="none" stroke="#000000" stroke-width="2" stroke-miterlimit="24" points="238.987,125.412 238.987,121.6 
		200.738,121.6 194.738,121.6 	"/>
	<polyline fill="none" stroke="#000000" stroke-width="2" stroke-miterlimit="24" points="176.737,138.412 238.987,138.412 
		238.987,134.412 	"/>
	<polyline fill="none" stroke="#000000" stroke-width="2" stroke-miterlimit="24" points="162.487,170.093 162.487,138.412 
		170.237,138.412 	"/>
	<line fill="none" stroke="#000000" stroke-width="2" stroke-miterlimit="24" x1="182.237" y1="78.912" x2="182.237" y2="121.6"/>
	<line fill="none" stroke="#000000" stroke-width="2" stroke-miterlimit="24" x1="182.237" y1="56.1" x2="182.237" y2="69.662"/>
	
		<line fill="none" stroke="#000000" stroke-width="2" stroke-miterlimit="24" x1="219.737" y1="137.825" x2="219.737" y2="168.282"/>
	<line fill="none" stroke="#000000" stroke-miterlimit="24" x1="162.862" y1="131.412" x2="162.862" y2="137.787"/>
	<line fill="none" stroke="#000000" stroke-miterlimit="24" x1="162.862" y1="122.327" x2="162.862" y2="125.163"/>
	<line fill="none" stroke="#000000" stroke-miterlimit="24" x1="152.08" y1="154.253" x2="161.83" y2="154.253"/>
	<line fill="none" stroke="#000000" stroke-miterlimit="24" x1="152.08" y1="140.32" x2="161.83" y2="140.32"/>
	<line fill="none" stroke="#000000" stroke-miterlimit="24" x1="152.08" y1="147.286" x2="161.83" y2="147.286"/>
	<line fill="none" stroke="#000000" stroke-miterlimit="24" x1="152.08" y1="144.964" x2="161.83" y2="144.964"/>
	<line fill="none" stroke="#000000" stroke-miterlimit="24" x1="152.08" y1="142.642" x2="161.83" y2="142.642"/>
	<line fill="none" stroke="#000000" stroke-miterlimit="24" x1="152.08" y1="151.931" x2="161.83" y2="151.931"/>
	<line fill="none" stroke="#000000" stroke-miterlimit="24" x1="152.08" y1="149.608" x2="161.83" y2="149.608"/>
	<line fill="none" stroke="#000000" stroke-miterlimit="24" x1="149.55" y1="168.282" x2="149.55" y2="156.246"/>
	<line fill="none" stroke="#000000" stroke-miterlimit="24" x1="146.95" y1="168.282" x2="146.95" y2="156.246"/>
	<line fill="none" stroke="#000000" stroke-miterlimit="24" x1="144.35" y1="168.615" x2="144.35" y2="156.246"/>
	<line fill="none" stroke="#000000" stroke-miterlimit="24" x1="143.846" y1="156.246" x2="151.531" y2="156.246"/>
	<line fill="none" stroke="#000000" stroke-width="3" stroke-miterlimit="10" x1="90.487" y1="67.021" x2="117.112" y2="67.021"/>
	<polyline fill="none" stroke="#9D9D9C" stroke-width="4" stroke-miterlimit="10" points="115.303,474.578 325.154,474.578 
		325.165,597.377 	"/>
	<line fill="none" stroke="#000000" stroke-width="3" stroke-miterlimit="10" x1="117.4" y1="552.246" x2="117.4" y2="501.482"/>
	<polyline fill="none" stroke="#000000" stroke-width="4" stroke-miterlimit="10" points="117.75,549.1 117.75,609.57 
		26.254,609.57 26.254,473.637 	"/>
</g>
<g id="Ebene_5" display="none">
	<path display="inline" fill="none" stroke="#000000" stroke-miterlimit="10" d="M234.395,91.294c5.159,0,9.333-3.458,9.333-7.73
		h-9.333"/>
	<path display="inline" fill="none" stroke="#000000" stroke-miterlimit="10" d="M233.137,156.617c5.159,0,9.333-3.458,9.333-7.73
		h-9.333"/>
	<path display="inline" fill="none" stroke="#000000" stroke-miterlimit="10" d="M233.137,272.867c5.159,0,9.333-3.458,9.333-7.73
		h-9.333"/>
	<path display="inline" fill="none" stroke="#000000" stroke-miterlimit="10" d="M233.137,289.115c5.159,0,9.333,3.458,9.333,7.73
		h-9.333"/>
	<path display="inline" fill="none" stroke="#000000" stroke-miterlimit="10" d="M233.137,310.529c5.159,0,9.333,3.458,9.333,7.73
		h-9.333"/>
	<path display="inline" fill="none" stroke="#000000" stroke-miterlimit="10" d="M233.887,355.262c5.159,0,9.333,3.457,9.333,7.729
		h-9.333"/>
	<path display="inline" fill="none" stroke="#000000" stroke-miterlimit="10" d="M233.137,396.194c5.159,0,9.333,3.457,9.333,7.729
		h-9.333"/>
	<path display="inline" fill="none" stroke="#000000" stroke-miterlimit="10" d="M233.887,440.937c5.159,0,9.333,3.457,9.333,7.729
		h-9.333"/>
	<path display="inline" fill="none" stroke="#000000" stroke-miterlimit="10" d="M233.887,457.184c5.159,0,9.333,3.457,9.333,7.729
		h-9.333"/>
	<path display="inline" fill="none" stroke="#000000" stroke-miterlimit="10" d="M233.887,512.456c5.159,0,9.333,3.457,9.333,7.729
		h-9.333"/>
	<path display="inline" fill="none" stroke="#000000" stroke-miterlimit="10" d="M253.765,382.882c-5.159,0-9.333,3.457-9.333,7.729
		h9.333"/>
	<path display="inline" fill="none" stroke="#000000" stroke-miterlimit="10" d="M321.273,527.32c0-5.159-3.457-9.333-7.729-9.333
		v9.333"/>
	<path display="inline" fill="none" stroke="#000000" stroke-miterlimit="10" d="M386.813,527.32c0-5.159-3.457-9.333-7.729-9.333
		v9.333"/>
	<path display="inline" fill="none" stroke="#000000" stroke-miterlimit="10" d="M253.303,566.887c0-5.159,3.457-9.333,7.729-9.333
		v9.333"/>
</g>
</svg>
